<?xml version="1.0" encoding="UTF-8"?>
<svg xmlns="http://www.w3.org/2000/svg" xmlns:xlink="http://www.w3.org/1999/xlink" width="100px" height="89px" viewBox="0 0 99 89" version="1.1">
<g id="surface1">
<path style=" stroke:none;fill-rule:evenodd;fill:rgb(76.862745%,79.215686%,83.529412%);fill-opacity:1;" d="M 88.199219 23.023438 C 80.417969 8.808594 65.601562 0 49.476562 0 C 33.351562 0 18.539062 8.808594 10.757812 23.023438 C 10.597656 23.292969 10.351562 23.453125 10.035156 23.453125 C 9.539062 23.453125 9.019531 23.453125 8.523438 23.453125 C 7.035156 23.453125 5.660156 24 4.578125 25.042969 C 3.699219 25.882812 2.820312 26.722656 1.894531 27.539062 C 0.652344 28.675781 0 30.171875 0 31.855469 C 0 35.125 0 38.394531 0 41.660156 C 0 44.929688 0 48.199219 0 51.449219 C 0 53.171875 0.675781 54.71875 1.960938 55.875 C 2.796875 56.625 3.609375 57.394531 4.421875 58.167969 C 5.300781 59.03125 6.335938 59.574219 7.53125 59.800781 C 7.824219 59.847656 8.050781 60.050781 8.140625 60.324219 C 14.660156 77.578125 31.121094 89.023438 49.476562 89.023438 C 73.902344 89.023438 93.679688 69.089844 93.679688 44.523438 C 93.679688 43.546875 93.65625 42.570312 93.585938 41.617188 C 93.566406 41.164062 93.882812 40.777344 94.332031 40.753906 C 97.082031 40.503906 98.953125 38.277344 98.953125 35.507812 C 98.933594 33.285156 98.933594 31.058594 98.953125 28.835938 C 99 25.699219 96.746094 23.429688 93.65625 23.453125 C 92.078125 23.453125 90.5 23.476562 88.917969 23.476562 C 88.605469 23.453125 88.332031 23.292969 88.199219 23.023438 "/>
<path style=" stroke:none;fill-rule:evenodd;fill:rgb(12.54902%,13.72549%,20.784314%);fill-opacity:1;" d="M 63.4375 35.488281 C 62.355469 35.488281 61.25 35.488281 60.167969 35.488281 C 60.167969 36.097656 60.167969 36.734375 60.167969 37.347656 C 61.160156 37.121094 62.171875 36.917969 63.167969 36.667969 C 63.617188 36.554688 64.046875 36.578125 64.40625 36.667969 C 64.089844 36.28125 63.753906 35.894531 63.4375 35.488281 "/>
<path style=" stroke:none;fill-rule:evenodd;fill:rgb(12.54902%,13.72549%,20.784314%);fill-opacity:1;" d="M 49.476562 2.839844 C 65.851562 2.839844 79.988281 12.394531 86.710938 26.292969 L 86.597656 26.292969 C 88.941406 26.292969 91.308594 26.292969 93.65625 26.269531 C 95.1875 26.269531 96.136719 27.246094 96.136719 28.789062 C 96.113281 31.035156 96.113281 33.261719 96.136719 35.507812 C 96.136719 36.984375 95.1875 37.984375 93.699219 37.914062 C 92.777344 37.894531 91.851562 37.894531 90.925781 37.914062 C 90.722656 37.914062 90.542969 37.914062 90.339844 37.871094 C 90.679688 40.027344 90.859375 42.253906 90.859375 44.523438 C 90.859375 67.542969 72.320312 86.207031 49.453125 86.207031 C 30.960938 86.207031 15.289062 73.992188 9.988281 57.144531 C 9.539062 57.144531 9.066406 57.125 8.613281 57.125 C 7.734375 57.101562 6.992188 56.804688 6.359375 56.167969 C 5.523438 55.351562 4.691406 54.558594 3.8125 53.785156 C 3.132812 53.171875 2.796875 52.402344 2.796875 51.492188 C 2.820312 48.222656 2.796875 44.953125 2.796875 41.683594 C 2.796875 38.414062 2.796875 35.144531 2.796875 31.875 C 2.796875 31.015625 3.113281 30.265625 3.742188 29.675781 C 4.667969 28.835938 5.570312 27.972656 6.472656 27.109375 C 7.035156 26.585938 7.710938 26.3125 8.480469 26.3125 C 9.71875 26.3125 10.960938 26.3125 12.222656 26.3125 C 18.941406 12.394531 33.105469 2.839844 49.476562 2.839844 "/>
<path style=" stroke:none;fill-rule:evenodd;fill:rgb(25.882353%,61.960784%,82.352941%);fill-opacity:1;" d="M 37.929688 79.851562 C 38.515625 80.757812 39.238281 81.574219 40.074219 82.300781 C 28.054688 79.304688 18.265625 70.632812 13.644531 59.28125 C 14.273438 59.28125 14.90625 59.257812 15.515625 59.234375 C 19.6875 68.953125 27.851562 76.535156 37.929688 79.851562 M 85.332031 59.191406 C 80.734375 70.585938 70.921875 79.304688 58.859375 82.324219 C 59.691406 81.597656 60.414062 80.757812 61 79.871094 C 71.082031 76.535156 79.246094 68.976562 83.417969 59.257812 C 83.867188 59.28125 84.296875 59.28125 84.746094 59.28125 C 84.949219 59.257812 85.152344 59.234375 85.332031 59.191406 Z M 44.246094 7.675781 C 33.21875 9.242188 23.746094 15.710938 18.109375 24.839844 L 16.054688 24.839844 C 22.4375 13.847656 33.578125 6.902344 45.734375 5.722656 C 45.078125 6.242188 44.582031 6.902344 44.246094 7.675781 Z M 56.671875 6.222656 C 60.730469 6.992188 64.5625 8.402344 68.082031 10.332031 L 68.105469 10.351562 C 68.238281 10.421875 68.351562 10.488281 68.488281 10.558594 C 68.511719 10.582031 68.535156 10.582031 68.578125 10.601562 C 74.507812 13.984375 79.449219 18.914062 82.898438 24.839844 L 80.847656 24.839844 C 77.417969 19.296875 72.570312 14.734375 66.820312 11.648438 C 63.480469 9.875 59.917969 8.628906 56.242188 7.945312 C 56.175781 7.921875 56.109375 7.921875 56.015625 7.902344 C 55.949219 7.878906 55.882812 7.878906 55.8125 7.855469 C 55.65625 7.832031 55.476562 7.808594 55.316406 7.765625 C 54.777344 7.675781 54.257812 7.605469 53.71875 7.539062 C 53.378906 6.789062 52.835938 6.128906 52.183594 5.609375 C 53.695312 5.742188 55.183594 5.925781 56.671875 6.222656 Z M 56.671875 6.222656 "/>
<path style=" stroke:none;fill-rule:nonzero;fill:rgb(98.823529%,99.607843%,100%);fill-opacity:1;" d="M 46.953125 79.804688 C 47.921875 78.535156 49.09375 77.488281 50.109375 76.261719 C 51.125 75.015625 52.003906 73.71875 52.207031 72.0625 C 52.320312 71.222656 52.230469 70.40625 51.980469 69.609375 C 51.867188 69.269531 51.957031 69.203125 52.273438 69.132812 C 53.378906 68.929688 53.402344 68.929688 53.785156 69.996094 C 55.160156 73.832031 55.476562 77.761719 54.597656 81.757812 C 54.550781 81.9375 54.527344 82.121094 54.484375 82.300781 C 52.613281 82.167969 50.785156 81.757812 49.050781 81.007812 C 48.328125 80.691406 47.539062 80.417969 46.953125 79.804688 M 54.214844 81.917969 C 54.574219 80.78125 54.640625 79.625 54.730469 78.441406 C 54.820312 76.945312 54.6875 75.46875 54.484375 73.992188 C 54.28125 72.539062 53.941406 71.109375 53.402344 69.746094 C 53.332031 69.566406 53.222656 69.316406 52.972656 69.429688 C 52.703125 69.542969 52.929688 69.746094 52.996094 69.90625 C 53.964844 72.585938 54.4375 75.355469 54.417969 78.214844 C 54.371094 79.464844 54.304688 80.691406 54.214844 81.917969 Z M 54.214844 81.917969 "/>
<path style=" stroke:none;fill-rule:nonzero;fill:rgb(98.823529%,99.607843%,100%);fill-opacity:1;" d="M 41.652344 74.878906 C 42.9375 73.449219 44.515625 72.359375 46.183594 71.40625 C 47.5625 70.609375 49.027344 70.042969 50.539062 69.542969 C 51.011719 69.382812 51.167969 69.542969 51.28125 69.996094 C 51.621094 71.40625 51.394531 72.742188 50.695312 73.992188 C 49.882812 75.421875 48.734375 76.582031 47.628906 77.785156 C 47.132812 78.304688 46.660156 78.851562 46.164062 79.375 C 45.148438 78.691406 44.199219 77.921875 43.410156 76.96875 C 42.800781 76.285156 42.238281 75.558594 41.652344 74.878906 M 47.628906 77.171875 C 47.875 77.195312 47.964844 77.035156 48.078125 76.921875 C 48.9375 75.96875 49.65625 74.902344 50.222656 73.765625 C 50.761719 72.722656 51.054688 71.609375 50.898438 70.429688 C 50.875 70.179688 50.832031 69.882812 50.46875 69.953125 C 50.0625 70.019531 50.222656 70.316406 50.289062 70.542969 C 50.46875 71.222656 50.425781 71.882812 50.246094 72.5625 C 49.90625 73.8125 49.230469 74.855469 48.507812 75.898438 C 48.238281 76.285156 47.855469 76.648438 47.628906 77.171875 Z M 47.628906 77.171875 "/>
<path style=" stroke:none;fill-rule:nonzero;fill:rgb(98.823529%,99.607843%,100%);fill-opacity:1;" d="M 39.554688 69.746094 C 39.621094 69.589844 39.667969 69.429688 39.734375 69.292969 C 40.097656 68.453125 40.523438 67.886719 41.605469 67.816406 C 43.1875 67.726562 44.695312 67.066406 46.296875 66.886719 C 47.515625 66.75 48.710938 66.773438 49.769531 67.566406 C 50.152344 67.839844 50.46875 68.203125 50.695312 68.679688 C 49.160156 69.109375 47.71875 69.679688 46.34375 70.382812 C 44.449219 71.359375 42.78125 72.628906 41.179688 74.039062 C 40.523438 72.652344 39.847656 71.269531 39.554688 69.746094 M 40.570312 68.476562 C 40.90625 68.566406 41.222656 68.566406 41.539062 68.5 C 42.734375 68.25 43.929688 68 45.148438 67.773438 C 46.589844 67.523438 48.035156 67.386719 49.25 68.519531 C 49.476562 68.746094 49.75 68.613281 49.90625 68.429688 C 50.085938 68.226562 49.816406 68.113281 49.703125 68 C 48.6875 67.066406 47.46875 67.089844 46.230469 67.226562 C 44.765625 67.386719 43.34375 67.839844 41.898438 68.113281 C 41.472656 68.203125 41 68.203125 40.570312 68.476562 Z M 40.570312 68.476562 "/>
<path style=" stroke:none;fill-rule:nonzero;fill:rgb(98.823529%,99.607843%,100%);fill-opacity:1;" d="M 55.316406 82.300781 C 55.613281 80.734375 55.90625 79.191406 55.90625 77.578125 C 55.925781 74.789062 55.453125 72.085938 54.484375 69.453125 C 54.417969 69.292969 54.167969 69.042969 54.460938 68.953125 C 54.730469 68.882812 55.160156 68.726562 55.316406 69.132812 C 56.175781 71.3125 57.820312 72.835938 59.601562 74.195312 C 60.121094 74.605469 60.28125 74.992188 60.167969 75.648438 C 59.691406 78.304688 58.566406 80.554688 56.46875 82.300781 C 56.109375 82.324219 55.703125 82.300781 55.316406 82.300781 "/>
<path style=" stroke:none;fill-rule:nonzero;fill:rgb(76.862745%,79.215686%,83.529412%);fill-opacity:1;" d="M 46.953125 79.804688 C 47.539062 80.417969 48.328125 80.691406 49.070312 81.007812 C 50.785156 81.757812 52.632812 82.167969 54.507812 82.300781 C 54.507812 82.324219 54.484375 82.394531 54.484375 82.394531 C 54.121094 83.734375 53.625 84.1875 52.320312 84.617188 C 49.949219 85.1875 47.671875 85.09375 45.394531 84.1875 C 45.035156 84.050781 44.945312 83.867188 44.988281 83.503906 C 45.261719 82.050781 45.980469 80.871094 46.953125 79.804688 "/>
<path style=" stroke:none;fill-rule:nonzero;fill:rgb(76.862745%,79.215686%,83.529412%);fill-opacity:1;" d="M 41.652344 74.878906 C 42.238281 75.582031 42.824219 76.285156 43.410156 76.988281 C 44.199219 77.921875 45.148438 78.714844 46.164062 79.394531 C 45.464844 80.394531 44.695312 81.394531 44.382812 82.621094 C 44.109375 83.617188 44.085938 83.617188 43.207031 82.984375 C 41.515625 81.78125 40.300781 80.214844 39.464844 78.304688 C 39.328125 77.988281 39.351562 77.738281 39.53125 77.445312 C 40.164062 76.511719 40.796875 75.605469 41.652344 74.878906 "/>
<path style=" stroke:none;fill-rule:nonzero;fill:rgb(98.823529%,99.607843%,100%);fill-opacity:1;" d="M 41.222656 67 C 42.890625 65.136719 44.832031 63.933594 47.175781 63.433594 C 47.449219 63.367188 47.695312 63.457031 47.945312 63.546875 C 50.132812 64.320312 51.6875 65.84375 52.835938 67.839844 C 53.019531 68.15625 52.972656 68.269531 52.613281 68.292969 C 52.386719 68.292969 52.160156 68.363281 51.957031 68.40625 C 51.6875 68.476562 51.53125 68.40625 51.371094 68.136719 C 50.402344 66.433594 48.847656 65.910156 46.996094 66 C 45.261719 66.089844 43.613281 66.636719 41.945312 66.976562 C 41.742188 67.023438 41.539062 67.089844 41.222656 67 "/>
<path style=" stroke:none;fill-rule:nonzero;fill:rgb(98.823529%,99.607843%,100%);fill-opacity:1;" d="M 55.769531 65.273438 C 54.867188 65.820312 54.753906 66.636719 54.890625 67.566406 C 54.914062 67.75 55.160156 68.066406 54.820312 68.113281 C 54.484375 68.136719 54.054688 68.382812 53.808594 67.863281 C 53.425781 67.046875 52.90625 66.296875 52.320312 65.59375 C 51.53125 64.660156 50.582031 63.910156 49.523438 63.300781 C 50.875 62.914062 54.257812 63.957031 55.769531 65.273438 "/>
<path style=" stroke:none;fill-rule:nonzero;fill:rgb(76.862745%,79.215686%,83.529412%);fill-opacity:1;" d="M 39.554688 69.746094 C 39.847656 71.269531 40.523438 72.652344 41.179688 74.015625 C 40.433594 74.878906 39.644531 75.71875 38.96875 76.785156 C 38.40625 74.289062 38.5625 71.996094 39.554688 69.746094 "/>
<path style=" stroke:none;fill-rule:nonzero;fill:rgb(98.823529%,99.607843%,100%);fill-opacity:1;" d="M 56.175781 69.019531 C 57.371094 69.15625 58.40625 69.472656 59.378906 69.972656 C 59.535156 70.066406 59.601562 70.199219 59.671875 70.359375 C 60.03125 71.40625 60.257812 72.472656 60.324219 73.699219 C 58.589844 72.402344 57.078125 71.0625 56.175781 69.019531 "/>
<path style=" stroke:none;fill-rule:nonzero;fill:rgb(98.823529%,99.607843%,100%);fill-opacity:1;" d="M 58.949219 68.882812 C 57.957031 68.5 57.054688 68.316406 56.128906 68.179688 C 56.039062 68.15625 55.90625 68.15625 55.859375 68.089844 C 55.386719 67.589844 55.679688 66.183594 56.308594 65.886719 C 56.492188 65.796875 56.582031 65.863281 56.695312 65.976562 C 57.550781 66.796875 58.339844 67.679688 58.949219 68.882812 "/>
<path style=" stroke:none;fill-rule:nonzero;fill:rgb(76.862745%,79.215686%,83.529412%);fill-opacity:1;" d="M 55.316406 82.300781 C 55.703125 82.300781 56.109375 82.324219 56.492188 82.324219 C 56.109375 82.734375 55.679688 83.027344 55.136719 83.347656 C 55.136719 82.9375 55.207031 82.621094 55.316406 82.300781 "/>
<path style=" stroke:none;fill-rule:nonzero;fill:rgb(76.862745%,79.215686%,83.529412%);fill-opacity:1;" d="M 54.214844 81.917969 C 54.304688 80.691406 54.371094 79.464844 54.394531 78.238281 C 54.417969 75.378906 53.921875 72.609375 52.972656 69.929688 C 52.929688 69.792969 52.679688 69.589844 52.949219 69.453125 C 53.199219 69.339844 53.3125 69.589844 53.378906 69.769531 C 53.921875 71.132812 54.257812 72.5625 54.460938 74.015625 C 54.664062 75.492188 54.820312 76.96875 54.710938 78.464844 C 54.640625 79.625 54.574219 80.78125 54.214844 81.917969 "/>
<path style=" stroke:none;fill-rule:nonzero;fill:rgb(76.862745%,79.215686%,83.529412%);fill-opacity:1;" d="M 47.628906 77.171875 C 47.855469 76.648438 48.238281 76.285156 48.53125 75.855469 C 49.25 74.808594 49.90625 73.765625 50.265625 72.515625 C 50.445312 71.835938 50.492188 71.175781 50.3125 70.496094 C 50.246094 70.269531 50.085938 69.972656 50.492188 69.90625 C 50.851562 69.859375 50.875 70.15625 50.921875 70.382812 C 51.054688 71.5625 50.761719 72.675781 50.246094 73.71875 C 49.65625 74.855469 48.957031 75.921875 48.101562 76.875 C 47.964844 77.035156 47.875 77.195312 47.628906 77.171875 "/>
<path style=" stroke:none;fill-rule:nonzero;fill:rgb(76.862745%,79.215686%,83.529412%);fill-opacity:1;" d="M 40.570312 68.476562 C 40.976562 68.203125 41.449219 68.226562 41.898438 68.136719 C 43.34375 67.886719 44.765625 67.429688 46.230469 67.25 C 47.46875 67.113281 48.6875 67.089844 49.703125 68.019531 C 49.816406 68.136719 50.085938 68.25 49.90625 68.453125 C 49.75 68.613281 49.476562 68.746094 49.25 68.542969 C 48.035156 67.410156 46.613281 67.542969 45.148438 67.792969 C 43.929688 68 42.734375 68.269531 41.539062 68.519531 C 41.222656 68.566406 40.90625 68.566406 40.570312 68.476562 "/>
<path style=" stroke:none;fill-rule:nonzero;fill:rgb(76.862745%,79.215686%,83.529412%);fill-opacity:1;" d="M 58.792969 74.265625 C 57.550781 73.515625 56.648438 72.425781 55.792969 71.3125 C 55.410156 70.8125 55.046875 70.269531 54.820312 69.679688 C 54.753906 69.519531 54.664062 69.339844 54.867188 69.246094 C 55.09375 69.132812 55.117188 69.382812 55.183594 69.519531 C 55.925781 71.222656 57.054688 72.585938 58.476562 73.765625 C 58.632812 73.902344 58.835938 74.082031 58.859375 74.308594 C 58.859375 74.289062 58.792969 74.265625 58.792969 74.265625 "/>
<path style=" stroke:none;fill-rule:nonzero;fill:rgb(76.862745%,79.215686%,83.529412%);fill-opacity:1;" d="M 47.808594 63.777344 C 49.117188 64.183594 50.46875 65.230469 51.347656 66.226562 C 51.664062 66.589844 51.933594 66.976562 52.183594 67.363281 C 52.296875 67.542969 52.632812 67.773438 52.363281 67.976562 C 52.046875 68.226562 51.867188 67.886719 51.734375 67.613281 C 51.328125 66.773438 50.742188 66.070312 50.085938 65.410156 C 49.523438 64.84375 48.824219 64.457031 48.167969 63.980469 Z M 47.808594 63.777344 "/>
<path style=" stroke:none;fill-rule:nonzero;fill:rgb(76.862745%,79.215686%,83.529412%);fill-opacity:1;" d="M 55.117188 65.320312 C 54.753906 66.023438 54.4375 66.703125 54.597656 67.523438 C 54.617188 67.65625 54.550781 67.816406 54.394531 67.839844 C 54.214844 67.863281 54.144531 67.726562 54.121094 67.566406 C 53.988281 66.703125 54.417969 65.570312 55.117188 65.320312 Z M 55.117188 65.320312 "/>
<path style=" stroke:none;fill-rule:nonzero;fill:rgb(98.823529%,99.607843%,100%);fill-opacity:1;" d="M 43.863281 53.582031 C 41.808594 53.628906 39.734375 53.671875 37.683594 53.742188 C 34.210938 53.875 30.738281 54.035156 27.265625 54.21875 C 26.902344 54.238281 26.8125 54.171875 26.835938 53.808594 C 26.859375 52.332031 26.859375 50.835938 26.835938 49.359375 C 26.835938 49.019531 26.972656 48.792969 27.195312 48.609375 C 27.671875 48.222656 27.761719 47.722656 27.761719 47.132812 C 27.738281 43.5 27.738281 39.867188 27.761719 36.214844 C 27.761719 35.601562 27.648438 35.078125 27.175781 34.691406 C 26.925781 34.488281 26.859375 34.214844 26.859375 33.875 C 26.882812 32.125 26.882812 30.378906 26.859375 28.628906 C 26.859375 28.265625 26.925781 28.152344 27.332031 28.152344 C 33.015625 28.175781 38.699219 28.152344 44.359375 28.152344 C 44.652344 28.152344 44.855469 28.222656 45.078125 28.425781 C 46.003906 29.3125 46.953125 30.195312 47.898438 31.058594 C 48.125 31.261719 48.214844 31.492188 48.214844 31.808594 C 48.191406 34.328125 48.191406 36.847656 48.214844 39.367188 C 48.214844 39.6875 48.125 39.914062 47.898438 40.117188 C 47.539062 40.4375 47.199219 40.777344 46.839844 41.09375 C 46.660156 41.253906 46.636719 41.390625 46.816406 41.546875 C 46.972656 41.683594 47.085938 41.890625 47.246094 42.003906 C 48.101562 42.636719 48.257812 43.476562 48.238281 44.523438 C 48.167969 46.839844 48.214844 49.132812 48.214844 51.449219 C 48.214844 51.832031 48.101562 52.105469 47.832031 52.355469 C 47.785156 52.402344 47.761719 52.445312 47.695312 52.515625 C 47.066406 53.128906 46.050781 53.445312 44.675781 53.558594 Z M 35.15625 36.667969 C 35.15625 37.507812 35.179688 38.371094 35.15625 39.210938 C 35.15625 39.574219 35.246094 39.6875 35.609375 39.597656 C 37.230469 39.234375 38.855469 38.871094 40.480469 38.527344 C 40.816406 38.460938 40.90625 38.324219 40.886719 37.984375 C 40.863281 36.667969 40.863281 35.328125 40.886719 34.011719 C 40.886719 33.671875 40.773438 33.601562 40.457031 33.601562 C 38.832031 33.625 37.210938 33.625 35.585938 33.601562 C 35.269531 33.601562 35.15625 33.671875 35.15625 34.011719 C 35.179688 34.894531 35.15625 35.78125 35.15625 36.667969 Z M 40.863281 46.769531 C 40.863281 45.886719 40.863281 45 40.863281 44.113281 C 40.863281 43.796875 40.773438 43.707031 40.457031 43.773438 C 38.832031 44.136719 37.1875 44.523438 35.539062 44.863281 C 35.246094 44.929688 35.136719 45.023438 35.136719 45.339844 C 35.15625 46.65625 35.15625 47.949219 35.136719 49.269531 C 35.136719 49.585938 35.226562 49.699219 35.539062 49.699219 C 37.1875 49.675781 38.832031 49.675781 40.457031 49.699219 C 40.773438 49.699219 40.839844 49.585938 40.839844 49.289062 C 40.863281 48.472656 40.863281 47.632812 40.863281 46.769531 Z M 47.019531 38.890625 C 47.019531 36.644531 47.019531 34.488281 47.019531 32.308594 C 47.019531 32.082031 46.90625 31.96875 46.769531 31.832031 C 45.980469 31.105469 45.191406 30.378906 44.425781 29.628906 C 44.179688 29.402344 43.929688 29.3125 43.613281 29.3125 C 38.71875 29.3125 33.828125 29.3125 28.933594 29.3125 C 28.777344 29.3125 28.59375 29.242188 28.4375 29.378906 C 28.683594 29.789062 29.023438 29.96875 29.519531 29.96875 C 33.941406 29.945312 38.335938 29.96875 42.757812 29.945312 C 43.5 29.945312 44.066406 30.082031 44.582031 30.652344 C 45.035156 31.148438 45.554688 31.582031 46.050781 32.035156 C 46.296875 32.261719 46.386719 32.511719 46.386719 32.851562 C 46.367188 34.464844 46.386719 36.078125 46.367188 37.710938 C 46.34375 38.210938 46.5 38.574219 47.019531 38.890625 Z M 33.984375 39.890625 C 33.984375 38.007812 33.984375 36.214844 33.984375 34.417969 C 33.984375 34.078125 33.714844 33.917969 33.464844 33.738281 C 33.332031 33.964844 33.375 34.148438 33.375 34.328125 C 33.375 35.78125 33.398438 37.210938 33.351562 38.664062 C 33.332031 39.140625 33.488281 39.503906 33.984375 39.890625 Z M 44.832031 52.355469 L 46.027344 51.289062 C 46.34375 51.015625 46.367188 50.605469 46.367188 50.152344 C 46.320312 48.429688 46.367188 46.703125 46.34375 44.976562 C 46.34375 44.453125 46.5 44.089844 46.929688 43.839844 C 47.085938 43.957031 47.019531 44.089844 47.019531 44.226562 C 47.019531 46.429688 47.019531 48.65625 47.019531 50.855469 C 47.019531 51.175781 46.929688 51.402344 46.703125 51.605469 C 46.070312 52.195312 46.050781 52.195312 45.53125 52.671875 C 45.394531 52.808594 45.417969 52.832031 45.214844 52.855469 C 45.078125 52.855469 44.921875 52.855469 44.785156 52.855469 C 44.539062 52.855469 44.5625 52.605469 44.832031 52.355469 Z M 33.984375 49.652344 C 33.984375 48.382812 34.007812 47.179688 33.960938 45.976562 C 33.960938 45.679688 33.691406 45.523438 33.351562 45.453125 C 33.351562 46.566406 33.375 47.632812 33.351562 48.722656 C 33.332031 49.175781 33.554688 49.402344 33.984375 49.652344 Z M 33.984375 49.652344 "/>
<path style=" stroke:none;fill-rule:nonzero;fill:rgb(25.882353%,61.960784%,82.352941%);fill-opacity:1;" d="M 4.691406 41.660156 C 4.691406 38.394531 4.691406 35.125 4.691406 31.855469 C 4.691406 31.511719 4.757812 31.285156 5.027344 31.058594 C 5.976562 30.21875 6.878906 29.332031 7.800781 28.472656 C 8.003906 28.265625 8.230469 28.175781 8.5 28.175781 C 12.765625 28.175781 17.027344 28.175781 21.289062 28.175781 C 21.582031 28.175781 21.785156 28.265625 22.011719 28.449219 C 22.933594 29.332031 23.882812 30.21875 24.828125 31.082031 C 25.054688 31.285156 25.144531 31.46875 25.144531 31.761719 C 25.121094 33.328125 25.121094 34.917969 25.144531 36.484375 C 25.144531 36.847656 25.03125 36.984375 24.695312 37.054688 C 22.597656 37.460938 20.5 37.847656 18.402344 38.277344 C 17.972656 38.371094 17.882812 38.257812 17.882812 37.847656 C 17.90625 36.621094 17.882812 35.394531 17.90625 34.148438 C 17.90625 33.738281 17.816406 33.578125 17.363281 33.578125 C 15.785156 33.601562 14.183594 33.601562 12.605469 33.578125 C 12.222656 33.578125 12.132812 33.714844 12.132812 34.078125 C 12.132812 39.097656 12.132812 44.113281 12.132812 49.15625 C 12.132812 49.585938 12.269531 49.722656 12.695312 49.699219 C 14.253906 49.675781 15.832031 49.675781 17.386719 49.699219 C 17.792969 49.699219 17.90625 49.5625 17.90625 49.175781 C 17.882812 48.199219 17.90625 47.222656 17.882812 46.226562 C 17.882812 45.863281 17.972656 45.679688 18.355469 45.613281 C 20.453125 45.25 22.527344 44.863281 24.601562 44.476562 C 24.988281 44.410156 25.144531 44.453125 25.144531 44.910156 C 25.121094 47.109375 25.121094 49.335938 25.144531 51.539062 C 25.144531 51.832031 25.054688 52.039062 24.828125 52.242188 C 24.199219 52.808594 23.542969 53.398438 22.933594 54.011719 C 22.574219 54.375 22.191406 54.535156 21.671875 54.582031 C 17.34375 54.898438 13.035156 55.328125 8.683594 55.195312 C 8.277344 55.171875 7.960938 55.082031 7.667969 54.785156 C 6.808594 53.945312 5.953125 53.148438 5.074219 52.332031 C 4.804688 52.082031 4.667969 51.832031 4.667969 51.449219 C 4.691406 48.199219 4.691406 44.929688 4.691406 41.660156 M 23.972656 35.828125 C 23.972656 34.667969 23.972656 33.554688 23.972656 32.46875 C 23.972656 32.148438 23.882812 31.921875 23.65625 31.71875 C 22.890625 31.015625 22.144531 30.308594 21.402344 29.582031 C 21.152344 29.355469 20.90625 29.265625 20.589844 29.265625 C 16.980469 29.265625 13.371094 29.265625 9.742188 29.265625 L 8.863281 29.265625 C 9.179688 29.789062 9.5625 29.96875 10.082031 29.96875 C 13.328125 29.945312 16.574219 29.96875 19.824219 29.945312 C 20.5 29.945312 21.019531 30.105469 21.492188 30.605469 C 22.054688 31.21875 22.890625 31.648438 23.207031 32.351562 C 23.5 33.058594 23.316406 33.988281 23.296875 34.804688 C 23.25 35.351562 23.476562 35.621094 23.972656 35.828125 Z M 10.304688 33.671875 C 10.304688 38.757812 10.304688 43.773438 10.304688 48.792969 C 10.304688 49.246094 10.597656 49.449219 10.984375 49.652344 L 10.984375 48.949219 C 10.984375 44.25 10.984375 39.574219 11.003906 34.875 C 11.003906 34.351562 10.847656 33.964844 10.304688 33.671875 Z M 21.0625 54.011719 C 21.917969 53.195312 22.777344 52.378906 23.65625 51.582031 C 23.90625 51.355469 23.972656 51.128906 23.949219 50.835938 C 23.949219 49.382812 23.949219 47.90625 23.949219 46.453125 C 23.949219 46.316406 24.039062 46.15625 23.859375 46.042969 C 23.429688 46.363281 23.226562 46.769531 23.25 47.316406 C 23.296875 48.382812 23.25 49.472656 23.273438 50.539062 C 23.273438 50.855469 23.183594 51.085938 22.957031 51.289062 C 22.347656 51.832031 21.761719 52.421875 21.128906 52.96875 C 20.769531 53.308594 20.722656 53.605469 21.0625 54.011719 Z M 21.0625 54.011719 "/>
<path style=" stroke:none;fill-rule:nonzero;fill:rgb(98.823529%,99.607843%,100%);fill-opacity:1;" d="M 59.988281 28.152344 C 63.167969 28.152344 66.324219 28.152344 69.503906 28.152344 C 69.929688 28.152344 70.042969 28.265625 70.042969 28.699219 C 70.023438 30.96875 70.023438 33.238281 70.042969 35.507812 C 70.042969 35.894531 69.953125 36.054688 69.546875 36.03125 C 68.601562 36.007812 67.632812 36.007812 66.683594 36.03125 C 66.390625 36.03125 66.1875 35.941406 66.007812 35.691406 C 65.554688 35.101562 65.058594 34.53125 64.609375 33.941406 C 64.429688 33.714844 64.25 33.601562 63.933594 33.601562 C 62.21875 33.625 60.484375 33.625 58.769531 33.601562 C 58.40625 33.601562 58.273438 33.671875 58.273438 34.054688 C 58.296875 35.757812 58.296875 37.484375 58.273438 39.1875 C 58.273438 39.617188 58.429688 39.664062 58.769531 39.574219 C 60.371094 39.210938 61.972656 38.871094 63.570312 38.484375 C 63.957031 38.394531 64.023438 38.484375 64.023438 38.847656 C 64 40.300781 64 41.777344 64.023438 43.230469 C 64.023438 43.546875 63.957031 43.683594 63.59375 43.75 C 61.949219 44.089844 60.324219 44.476562 58.679688 44.839844 C 58.339844 44.910156 58.25 45.042969 58.273438 45.363281 C 58.296875 46.65625 58.296875 47.949219 58.273438 49.222656 C 58.273438 49.539062 58.363281 49.652344 58.699219 49.652344 C 60.460938 49.632812 62.21875 49.632812 63.976562 49.652344 C 64.269531 49.652344 64.429688 49.539062 64.5625 49.3125 C 65.039062 48.519531 65.554688 47.769531 66.03125 46.976562 C 66.1875 46.703125 66.367188 46.613281 66.660156 46.613281 C 67.632812 46.632812 68.601562 46.632812 69.59375 46.613281 C 69.953125 46.613281 70.042969 46.726562 70.042969 47.066406 C 70.023438 49.222656 70.023438 51.378906 70.042969 53.535156 C 70.042969 53.898438 69.976562 54.011719 69.570312 54.011719 C 66.210938 53.855469 62.851562 53.71875 59.488281 53.628906 C 56.558594 53.558594 53.605469 53.535156 50.671875 53.511719 C 50.132812 53.511719 49.949219 53.421875 49.972656 52.832031 C 50.019531 51.742188 50.019531 50.628906 49.972656 49.539062 C 49.949219 49.109375 50.042969 48.746094 50.378906 48.472656 C 50.761719 48.15625 50.851562 47.746094 50.851562 47.246094 C 50.832031 43.457031 50.832031 39.664062 50.851562 35.871094 C 50.851562 35.488281 50.808594 35.144531 50.492188 34.894531 C 50.0625 34.53125 49.949219 34.078125 49.949219 33.535156 C 49.996094 31.945312 49.972656 30.332031 49.949219 28.742188 C 49.949219 28.265625 50.042969 28.109375 50.558594 28.109375 C 53.71875 28.175781 56.851562 28.152344 59.988281 28.152344 M 68.871094 34.417969 C 68.871094 32.851562 68.847656 31.378906 68.871094 29.902344 C 68.871094 29.445312 68.757812 29.3125 68.285156 29.3125 C 62.851562 29.332031 57.394531 29.3125 51.957031 29.332031 C 51.824219 29.332031 51.640625 29.242188 51.574219 29.425781 C 51.824219 29.878906 52.207031 29.96875 52.679688 29.96875 C 57.664062 29.945312 62.648438 29.96875 67.632812 29.945312 C 68.105469 29.945312 68.261719 30.058594 68.238281 30.558594 C 68.195312 31.492188 68.261719 32.445312 68.21875 33.375 C 68.21875 33.828125 68.375 34.148438 68.871094 34.417969 Z M 57.121094 39.9375 C 57.121094 38.050781 57.121094 36.257812 57.121094 34.488281 C 57.121094 34.101562 56.851562 33.941406 56.558594 33.714844 C 56.535156 33.851562 56.511719 33.917969 56.511719 33.988281 C 56.511719 35.714844 56.511719 37.4375 56.511719 39.164062 C 56.492188 39.574219 56.761719 39.710938 57.121094 39.9375 Z M 56.511719 45.453125 C 56.511719 46.65625 56.492188 47.816406 56.511719 48.972656 C 56.511719 49.289062 56.785156 49.472656 57.121094 49.609375 C 57.121094 48.472656 57.101562 47.359375 57.121094 46.269531 C 57.144531 45.839844 56.964844 45.613281 56.511719 45.453125 Z M 68.804688 53.378906 C 68.332031 53.128906 68.21875 52.785156 68.21875 52.308594 C 68.238281 51.152344 68.238281 50.492188 68.21875 49.3125 C 68.195312 48.859375 68.351562 48.542969 68.804688 48.292969 Z M 62.894531 42.503906 C 62.894531 41.867188 62.894531 41.320312 62.894531 40.753906 C 62.894531 40.550781 62.804688 40.414062 62.671875 40.324219 C 62.558594 40.253906 62.46875 40.09375 62.332031 40.164062 C 62.265625 40.207031 62.265625 40.367188 62.265625 40.480469 C 62.265625 40.867188 62.285156 41.253906 62.265625 41.640625 C 62.21875 42.070312 62.421875 42.320312 62.894531 42.503906 Z M 62.894531 42.503906 "/>
<path style=" stroke:none;fill-rule:nonzero;fill:rgb(98.823529%,99.607843%,100%);fill-opacity:1;" d="M 82.945312 28.152344 C 86.507812 28.152344 90.09375 28.152344 93.65625 28.152344 C 94.152344 28.152344 94.265625 28.289062 94.242188 28.765625 C 94.21875 31.015625 94.21875 33.261719 94.242188 35.507812 C 94.242188 35.894531 94.152344 36.054688 93.746094 36.03125 C 92.796875 36.007812 91.828125 36.007812 90.882812 36.03125 C 90.589844 36.03125 90.386719 35.964844 90.203125 35.714844 C 89.980469 35.371094 89.664062 35.101562 89.460938 34.761719 C 88.898438 33.714844 88.039062 33.464844 86.933594 33.601562 C 86.664062 33.648438 86.574219 33.691406 86.574219 33.964844 C 86.574219 38.550781 86.574219 43.113281 86.574219 47.703125 C 86.574219 47.949219 86.664062 48.109375 86.824219 48.246094 C 87.386719 48.722656 87.519531 49.3125 87.5 50.039062 C 87.453125 51.582031 87.476562 53.128906 87.5 54.648438 C 87.5 55.058594 87.429688 55.214844 86.980469 55.214844 C 84.160156 55.238281 81.386719 54.832031 78.589844 54.648438 C 78.34375 54.625 78.253906 54.558594 78.277344 54.308594 C 78.277344 52.605469 78.277344 50.925781 78.277344 49.222656 C 78.277344 48.925781 78.476562 48.769531 78.660156 48.609375 C 79.042969 48.246094 79.199219 47.835938 79.199219 47.292969 C 79.175781 42.933594 79.199219 38.550781 79.222656 34.191406 C 79.222656 33.691406 79.066406 33.648438 78.613281 33.601562 C 77.644531 33.488281 76.898438 33.761719 76.449219 34.644531 C 75.816406 35.851562 75.546875 36.054688 74.082031 36.03125 C 73.5625 36.03125 72.457031 36.007812 71.914062 36.03125 C 71.644531 36.03125 71.554688 35.941406 71.554688 35.667969 C 71.554688 33.285156 71.578125 30.898438 71.554688 28.515625 C 71.554688 28.039062 71.871094 28.175781 72.097656 28.175781 C 75.726562 28.152344 79.335938 28.152344 82.945312 28.152344 M 84.792969 35.488281 L 84.792969 47.722656 C 84.792969 47.746094 84.792969 47.769531 84.792969 47.769531 L 84.792969 47.816406 C 84.792969 47.859375 84.792969 47.882812 84.816406 47.929688 L 84.816406 47.949219 C 84.816406 47.972656 84.816406 47.996094 84.835938 48.019531 C 84.835938 48.019531 84.835938 48.042969 84.835938 48.042969 C 84.835938 48.066406 84.835938 48.066406 84.859375 48.085938 C 84.859375 48.109375 84.882812 48.109375 84.882812 48.132812 C 84.882812 48.15625 84.90625 48.179688 84.929688 48.199219 L 84.929688 48.292969 C 84.949219 48.3125 84.949219 48.335938 84.972656 48.359375 L 84.972656 48.472656 L 85.019531 48.519531 L 85.039062 48.542969 L 85.0625 48.5625 L 85.132812 48.632812 L 85.152344 48.65625 L 85.175781 48.675781 L 85.222656 48.722656 L 85.242188 48.746094 L 85.289062 48.792969 L 85.3125 48.8125 L 85.332031 48.835938 L 85.402344 48.90625 L 85.425781 48.925781 L 85.445312 48.949219 L 85.628906 49.132812 L 85.648438 49.15625 L 85.671875 49.175781 L 85.695312 49.199219 L 85.695312 49.632812 C 85.695312 49.652344 85.695312 49.652344 85.695312 49.675781 L 85.695312 49.722656 C 85.695312 49.765625 85.71875 49.789062 85.71875 49.835938 L 85.71875 49.882812 C 85.71875 49.949219 85.71875 50.015625 85.71875 50.085938 L 85.71875 50.199219 C 85.695312 50.425781 85.695312 50.675781 85.695312 50.902344 C 85.695312 51.3125 85.695312 51.742188 85.695312 52.152344 C 85.695312 52.332031 85.695312 52.539062 85.671875 52.71875 C 85.671875 52.808594 85.671875 52.902344 85.671875 52.992188 C 85.671875 53.082031 85.671875 53.148438 85.671875 53.242188 C 85.648438 53.808594 85.898438 54.125 86.371094 54.398438 C 86.371094 54.238281 86.371094 54.058594 86.371094 53.875 C 86.371094 53.148438 86.371094 52.445312 86.371094 51.742188 L 86.371094 51.71875 L 86.371094 51.765625 C 86.371094 51.128906 86.371094 50.515625 86.394531 49.972656 L 86.394531 49.019531 C 86.394531 49.019531 86.371094 48.996094 86.371094 48.996094 L 86.371094 48.925781 L 86.347656 48.90625 C 86.347656 48.90625 86.328125 48.882812 86.328125 48.882812 C 86.328125 48.882812 86.304688 48.859375 86.304688 48.859375 L 86.257812 48.8125 C 86.257812 48.8125 86.234375 48.792969 86.234375 48.792969 C 86.191406 48.746094 86.144531 48.699219 86.101562 48.675781 L 86.078125 48.65625 C 86.054688 48.632812 86.03125 48.632812 86.03125 48.609375 L 86.011719 48.585938 C 86.011719 48.585938 85.988281 48.5625 85.988281 48.5625 L 85.964844 48.542969 C 85.941406 48.519531 85.921875 48.496094 85.921875 48.472656 C 85.921875 48.472656 85.898438 48.449219 85.898438 48.449219 C 85.898438 48.449219 85.875 48.429688 85.875 48.429688 L 85.851562 48.40625 C 85.851562 48.382812 85.828125 48.382812 85.828125 48.359375 L 85.828125 33.738281 C 85.828125 33.714844 85.828125 33.714844 85.808594 33.691406 L 85.808594 33.535156 C 85.808594 33.511719 85.785156 33.511719 85.785156 33.488281 L 85.738281 33.441406 L 85.242188 34.054688 L 85.152344 33.964844 L 85.132812 33.941406 L 85.109375 33.917969 L 85.085938 33.898438 L 85.039062 33.851562 L 85.019531 33.828125 L 84.996094 33.804688 L 84.972656 33.785156 L 84.949219 33.761719 L 84.929688 33.738281 L 84.882812 33.691406 L 84.859375 33.671875 L 84.835938 33.648438 L 84.816406 33.625 L 84.679688 33.488281 C 84.679688 33.714844 84.679688 33.875 84.679688 34.011719 Z M 73.15625 29.402344 C 73.382812 29.789062 73.699219 29.96875 74.171875 29.96875 C 80.058594 29.945312 85.941406 29.96875 91.828125 29.945312 C 92.300781 29.945312 92.460938 30.058594 92.4375 30.558594 C 92.390625 31.511719 92.4375 32.488281 92.414062 33.441406 C 92.390625 33.898438 92.574219 34.191406 93.046875 34.375 C 93.046875 32.898438 93.023438 31.46875 93.070312 30.058594 C 93.089844 29.515625 92.980469 29.3125 92.347656 29.3125 C 86.125 29.332031 79.875 29.332031 73.652344 29.332031 C 73.515625 29.332031 73.335938 29.265625 73.15625 29.402344 Z M 73.15625 29.402344 "/>
<path style=" stroke:none;fill-rule:nonzero;fill:rgb(25.882353%,61.960784%,82.352941%);fill-opacity:1;" d="M 44.832031 52.355469 L 46.027344 51.289062 C 46.34375 51.015625 46.367188 50.605469 46.367188 50.152344 C 46.320312 48.429688 46.367188 46.703125 46.34375 44.976562 C 46.34375 44.453125 46.5 44.089844 46.929688 43.839844 C 47.085938 43.957031 47.019531 44.089844 47.019531 44.226562 C 47.019531 46.429688 47.019531 48.65625 47.019531 50.855469 C 47.019531 51.175781 46.929688 51.402344 46.703125 51.605469 C 46.070312 52.195312 46.050781 52.195312 45.53125 52.671875 C 45.394531 52.808594 45.417969 52.832031 45.214844 52.855469 C 45.078125 52.855469 44.921875 52.855469 44.785156 52.855469 C 44.539062 52.855469 44.5625 52.605469 44.832031 52.355469 "/>
<path style=" stroke:none;fill-rule:nonzero;fill:rgb(25.882353%,61.960784%,82.352941%);fill-opacity:1;" d="M 20.117188 41.660156 C 20.117188 41.34375 20.09375 41.003906 20.117188 40.6875 C 20.136719 40.164062 20.523438 39.914062 20.972656 40.164062 C 21.535156 40.457031 22.078125 40.777344 22.597656 41.117188 C 22.957031 41.34375 22.957031 41.820312 22.597656 42.070312 C 22.101562 42.457031 21.582031 42.820312 21.039062 43.136719 C 20.542969 43.433594 20.136719 43.183594 20.117188 42.59375 C 20.09375 42.273438 20.117188 41.980469 20.117188 41.660156 Z M 20.117188 41.660156 "/>
<path style=" stroke:none;fill-rule:nonzero;fill:rgb(25.882353%,61.960784%,82.352941%);fill-opacity:1;" d="M 47.019531 38.890625 C 46.5 38.574219 46.34375 38.210938 46.34375 37.6875 C 46.367188 36.078125 46.34375 34.464844 46.367188 32.832031 C 46.367188 32.488281 46.273438 32.238281 46.027344 32.011719 C 45.53125 31.558594 45.011719 31.128906 44.5625 30.628906 C 44.066406 30.058594 43.480469 29.925781 42.734375 29.925781 C 38.316406 29.945312 33.917969 29.925781 29.496094 29.945312 C 29 29.945312 28.664062 29.789062 28.414062 29.355469 C 28.574219 29.21875 28.753906 29.289062 28.910156 29.289062 C 33.804688 29.289062 38.699219 29.289062 43.589844 29.289062 C 43.90625 29.289062 44.179688 29.355469 44.402344 29.605469 C 45.171875 30.355469 45.960938 31.082031 46.75 31.808594 C 46.882812 31.945312 46.996094 32.058594 46.996094 32.285156 C 47.019531 34.488281 47.019531 36.644531 47.019531 38.890625 "/>
<path style=" stroke:none;fill-rule:nonzero;fill:rgb(25.882353%,61.960784%,82.352941%);fill-opacity:1;" d="M 33.984375 39.890625 C 33.488281 39.503906 33.351562 39.164062 33.351562 38.664062 C 33.375 37.210938 33.351562 35.78125 33.375 34.328125 C 33.375 34.148438 33.332031 33.941406 33.464844 33.738281 C 33.714844 33.917969 33.984375 34.078125 33.984375 34.417969 C 33.984375 36.214844 33.984375 37.984375 33.984375 39.890625 "/>
<path style=" stroke:none;fill-rule:nonzero;fill:rgb(25.882353%,61.960784%,82.352941%);fill-opacity:1;" d="M 33.984375 49.652344 C 33.578125 49.402344 33.351562 49.175781 33.351562 48.699219 C 33.375 47.632812 33.351562 46.566406 33.351562 45.429688 C 33.691406 45.5 33.960938 45.65625 33.960938 45.953125 C 33.984375 47.179688 33.984375 48.382812 33.984375 49.652344 "/>
<path style=" stroke:none;fill-rule:nonzero;fill:rgb(98.823529%,99.607843%,100%);fill-opacity:1;" d="M 23.972656 35.828125 C 23.476562 35.621094 23.273438 35.351562 23.296875 34.828125 C 23.339844 34.011719 23.519531 33.078125 23.207031 32.375 C 22.910156 31.671875 22.054688 31.242188 21.492188 30.628906 C 21.019531 30.128906 20.523438 29.945312 19.824219 29.96875 C 16.574219 30.015625 13.328125 29.96875 10.082031 29.992188 C 9.539062 29.992188 9.179688 29.832031 8.863281 29.289062 L 9.742188 29.289062 C 13.351562 29.289062 16.957031 29.289062 20.589844 29.289062 C 20.90625 29.289062 21.175781 29.355469 21.402344 29.605469 C 22.144531 30.332031 22.890625 31.035156 23.65625 31.742188 C 23.882812 31.945312 23.996094 32.171875 23.972656 32.488281 C 23.949219 33.578125 23.972656 34.667969 23.972656 35.828125 "/>
<path style=" stroke:none;fill-rule:nonzero;fill:rgb(98.823529%,99.607843%,100%);fill-opacity:1;" d="M 10.304688 33.671875 C 10.847656 33.964844 11.003906 34.351562 10.984375 34.894531 C 10.960938 39.597656 10.960938 44.273438 10.960938 48.972656 L 10.960938 49.675781 C 10.554688 49.472656 10.285156 49.269531 10.285156 48.8125 C 10.304688 43.773438 10.304688 38.757812 10.304688 33.671875 "/>
<path style=" stroke:none;fill-rule:nonzero;fill:rgb(98.823529%,99.607843%,100%);fill-opacity:1;" d="M 21.0625 54.011719 C 20.722656 53.605469 20.769531 53.308594 21.152344 52.96875 C 21.785156 52.445312 22.347656 51.832031 22.980469 51.289062 C 23.226562 51.085938 23.296875 50.855469 23.296875 50.539062 C 23.273438 49.472656 23.316406 48.382812 23.273438 47.316406 C 23.25 46.746094 23.429688 46.363281 23.882812 46.042969 C 24.039062 46.15625 23.972656 46.316406 23.972656 46.453125 C 23.972656 47.90625 23.972656 49.382812 23.972656 50.835938 C 23.972656 51.128906 23.90625 51.355469 23.679688 51.582031 C 22.777344 52.378906 21.941406 53.195312 21.0625 54.011719 "/>
<path style=" stroke:none;fill-rule:nonzero;fill:rgb(25.882353%,61.960784%,82.352941%);fill-opacity:1;" d="M 68.871094 34.417969 C 68.398438 34.148438 68.21875 33.828125 68.238281 33.375 C 68.261719 32.445312 68.21875 31.492188 68.261719 30.558594 C 68.285156 30.058594 68.128906 29.945312 67.652344 29.945312 C 62.671875 29.96875 57.6875 29.945312 52.703125 29.96875 C 52.230469 29.96875 51.84375 29.878906 51.597656 29.425781 C 51.6875 29.242188 51.867188 29.332031 51.980469 29.332031 C 57.414062 29.332031 62.871094 29.332031 68.308594 29.3125 C 68.757812 29.3125 68.894531 29.445312 68.894531 29.902344 C 68.847656 31.378906 68.871094 32.851562 68.871094 34.417969 "/>
<path style=" stroke:none;fill-rule:nonzero;fill:rgb(25.882353%,61.960784%,82.352941%);fill-opacity:1;" d="M 57.121094 39.9375 C 56.761719 39.710938 56.492188 39.574219 56.492188 39.164062 C 56.492188 37.4375 56.492188 35.714844 56.492188 33.988281 C 56.492188 33.917969 56.511719 33.851562 56.535156 33.714844 C 56.828125 33.941406 57.101562 34.101562 57.101562 34.488281 C 57.121094 36.28125 57.121094 38.050781 57.121094 39.9375 "/>
<path style=" stroke:none;fill-rule:nonzero;fill:rgb(25.882353%,61.960784%,82.352941%);fill-opacity:1;" d="M 68.804688 53.378906 C 68.332031 53.128906 68.21875 52.785156 68.21875 52.308594 C 68.238281 51.152344 68.238281 50.492188 68.21875 49.3125 C 68.195312 48.859375 68.351562 48.542969 68.804688 48.292969 Z M 68.804688 53.378906 "/>
<path style=" stroke:none;fill-rule:nonzero;fill:rgb(25.882353%,61.960784%,82.352941%);fill-opacity:1;" d="M 56.511719 45.453125 C 56.964844 45.613281 57.144531 45.839844 57.144531 46.292969 C 57.121094 47.382812 57.144531 48.472656 57.144531 49.632812 C 56.804688 49.496094 56.535156 49.289062 56.535156 48.996094 C 56.492188 47.816406 56.511719 46.65625 56.511719 45.453125 "/>
<path style=" stroke:none;fill-rule:nonzero;fill:rgb(25.882353%,61.960784%,82.352941%);fill-opacity:1;" d="M 62.894531 42.503906 C 62.398438 42.320312 62.21875 42.09375 62.242188 41.640625 C 62.265625 41.253906 62.242188 40.867188 62.242188 40.480469 C 62.242188 40.367188 62.242188 40.207031 62.308594 40.164062 C 62.445312 40.074219 62.535156 40.253906 62.648438 40.324219 C 62.804688 40.414062 62.894531 40.550781 62.871094 40.753906 C 62.894531 41.320312 62.894531 41.867188 62.894531 42.503906 "/>
<path style=" stroke:none;fill-rule:nonzero;fill:rgb(25.882353%,61.960784%,82.352941%);fill-opacity:1;" d="M 84.792969 33.671875 C 85.332031 33.964844 85.46875 34.328125 85.46875 34.851562 C 85.445312 39.097656 85.46875 43.34375 85.445312 47.609375 C 85.445312 48.109375 85.535156 48.519531 85.921875 48.835938 C 86.28125 49.132812 86.394531 49.519531 86.371094 49.996094 C 86.347656 51.3125 86.347656 53.128906 86.347656 54.488281 C 85.875 54.195312 85.628906 53.875 85.648438 53.332031 C 85.695312 52.492188 85.628906 51.128906 85.671875 50.289062 C 85.695312 49.765625 85.558594 49.359375 85.175781 49.019531 C 84.859375 48.746094 84.769531 48.429688 84.769531 47.996094 C 84.792969 43.410156 84.769531 38.800781 84.769531 34.214844 C 84.792969 34.054688 84.792969 33.898438 84.792969 33.671875 "/>
<path style=" stroke:none;fill-rule:nonzero;fill:rgb(25.882353%,61.960784%,82.352941%);fill-opacity:1;" d="M 73.15625 29.402344 C 73.335938 29.265625 73.515625 29.332031 73.675781 29.332031 C 79.898438 29.332031 86.144531 29.332031 92.371094 29.3125 C 92.980469 29.3125 93.089844 29.492188 93.089844 30.058594 C 93.046875 31.492188 93.070312 32.898438 93.070312 34.375 C 92.59375 34.167969 92.414062 33.898438 92.4375 33.441406 C 92.460938 32.488281 92.414062 31.511719 92.460938 30.558594 C 92.484375 30.058594 92.300781 29.945312 91.851562 29.945312 C 85.964844 29.96875 80.078125 29.945312 74.195312 29.96875 C 73.699219 29.96875 73.382812 29.789062 73.15625 29.402344 "/>
<path style=" stroke:none;fill-rule:nonzero;fill:rgb(100%,100%,100%);fill-opacity:1;" d="M 72.90625 57.125 L 73.269531 58.894531 L 72.027344 58.847656 L 72.523438 57.101562 Z M 69.683594 60.664062 L 69.636719 61.730469 L 71.9375 61.824219 L 71.984375 60.757812 L 71.488281 60.734375 L 71.714844 59.9375 L 73.472656 60.007812 L 73.628906 60.824219 L 73.132812 60.800781 L 73.089844 61.867188 L 75.546875 61.960938 L 75.59375 60.890625 L 75.164062 60.871094 L 74.082031 56.101562 L 70.832031 55.988281 L 70.789062 57.054688 L 71.261719 57.078125 L 70.113281 60.6875 Z M 66.234375 60.460938 L 65.488281 56.875 L 66.007812 56.894531 L 66.03125 55.828125 L 63.503906 55.761719 L 63.480469 56.828125 L 63.886719 56.828125 L 65.039062 61.597656 L 67.40625 61.664062 L 68.828125 56.964844 L 69.253906 56.964844 L 69.277344 55.898438 L 66.886719 55.828125 L 66.863281 56.894531 L 67.359375 56.917969 L 66.390625 60.460938 Z M 60.097656 56.78125 L 60.503906 58.554688 L 59.265625 58.53125 L 59.738281 56.761719 Z M 56.964844 60.414062 L 56.941406 61.484375 L 59.242188 61.527344 L 59.265625 60.460938 L 58.769531 60.460938 L 58.992188 59.667969 L 60.753906 59.6875 L 60.933594 60.507812 L 60.4375 60.507812 L 60.414062 61.574219 L 62.871094 61.617188 L 62.894531 60.550781 L 62.46875 60.550781 L 61.273438 55.804688 L 58.023438 55.761719 L 58 56.828125 L 58.476562 56.828125 L 57.394531 60.460938 Z M 49.972656 60.324219 L 49.972656 61.390625 L 52.296875 61.414062 L 52.296875 60.347656 L 51.753906 60.347656 L 51.777344 57.464844 L 51.867188 57.464844 L 53.671875 61.414062 L 55.5 61.414062 L 55.519531 56.691406 L 55.972656 56.691406 L 55.972656 55.625 L 53.738281 55.625 L 53.738281 56.691406 L 54.257812 56.691406 L 54.234375 59.371094 L 52.542969 55.601562 L 49.996094 55.578125 L 49.996094 56.648438 L 50.515625 56.648438 L 50.492188 60.300781 Z M 46.003906 55.535156 C 44.449219 55.535156 43.34375 56.167969 43.34375 58.578125 C 43.367188 61.074219 44.492188 61.597656 46.027344 61.597656 C 47.605469 61.597656 48.710938 60.960938 48.6875 58.554688 C 48.664062 56.054688 47.539062 55.535156 46.003906 55.535156 Z M 46.003906 56.625 C 46.660156 56.625 47.066406 56.875 47.066406 58.554688 C 47.066406 60.234375 46.726562 60.484375 46.027344 60.507812 C 45.328125 60.507812 44.988281 60.257812 44.96875 58.578125 C 44.96875 56.894531 45.351562 56.625 46.003906 56.625 Z M 39.621094 55.738281 L 39.644531 56.804688 L 40.1875 56.804688 L 40.230469 59.871094 C 40.230469 60.324219 40.074219 60.484375 39.710938 60.484375 C 39.578125 60.484375 39.417969 60.460938 39.328125 60.4375 L 39.328125 59.824219 L 38.132812 59.847656 L 38.15625 61.4375 C 38.539062 61.574219 39.195312 61.664062 39.667969 61.664062 C 41.199219 61.640625 41.742188 61.121094 41.71875 59.917969 L 41.675781 56.78125 L 42.082031 56.78125 L 42.058594 55.714844 Z M 32.15625 55.761719 C 30.667969 55.804688 29.8125 56.714844 29.859375 58.871094 C 29.902344 61.027344 30.648438 61.847656 32.453125 61.800781 C 33.828125 61.753906 34.886719 61.324219 34.839844 59.53125 L 33.511719 59.574219 C 33.535156 60.324219 33.261719 60.644531 32.5625 60.644531 C 31.863281 60.664062 31.503906 60.460938 31.480469 58.847656 C 31.4375 57.304688 31.773438 57.011719 32.519531 57.011719 C 33.128906 56.988281 33.375 57.28125 33.398438 57.78125 L 33.398438 57.964844 L 34.75 57.917969 L 34.707031 55.828125 L 33.625 55.851562 L 33.625 56.304688 C 33.421875 55.964844 32.949219 55.738281 32.15625 55.761719 Z M 25.371094 57.191406 L 26.203125 57.167969 C 26.542969 57.144531 26.679688 57.304688 26.679688 57.714844 C 26.699219 58.167969 26.589844 58.347656 26.25 58.371094 L 25.414062 58.394531 Z M 26.429688 59.417969 C 26.925781 59.394531 27.039062 59.574219 27.0625 60.074219 C 27.085938 60.6875 26.859375 60.800781 26.496094 60.824219 L 25.503906 60.871094 L 25.460938 59.460938 Z M 23.339844 56.191406 L 23.386719 57.257812 L 23.90625 57.238281 L 24.039062 60.890625 L 23.519531 60.914062 L 23.566406 61.980469 L 26.609375 61.867188 C 28.007812 61.824219 28.683594 61.460938 28.640625 60.144531 C 28.617188 59.324219 28.347656 58.894531 27.691406 58.734375 C 28.078125 58.53125 28.257812 58.167969 28.234375 57.507812 C 28.1875 56.351562 27.625 56.035156 26.609375 56.078125 Z M 23.339844 56.191406 "/>
<path style=" stroke:none;fill-rule:nonzero;fill:rgb(100%,100%,100%);fill-opacity:1;" d="M 29.542969 18.527344 C 29.632812 19.183594 29.925781 19.59375 30.648438 19.617188 C 30.105469 19.84375 29.496094 19.980469 29.609375 20.820312 C 29.382812 20.230469 29.226562 19.683594 28.4375 19.730469 C 29.160156 19.59375 29.453125 19.164062 29.542969 18.527344 "/>
<path style=" stroke:none;fill-rule:nonzero;fill:rgb(100%,100%,100%);fill-opacity:1;" d="M 32.429688 18.617188 L 32.429688 21.046875 L 31.730469 21.046875 L 31.730469 21.75 L 34.097656 21.75 L 34.097656 21.046875 L 33.421875 21.046875 L 33.421875 17.914062 L 31.910156 17.914062 L 31.910156 18.617188 Z M 32.429688 18.617188 "/>
<path style=" stroke:none;fill-rule:nonzero;fill:rgb(100%,100%,100%);fill-opacity:1;" d="M 36.308594 19.730469 C 36.015625 19.730469 35.878906 19.59375 35.878906 19.164062 C 35.878906 18.730469 35.992188 18.550781 36.328125 18.550781 C 36.644531 18.550781 36.757812 18.730469 36.757812 19.183594 C 36.757812 19.546875 36.625 19.730469 36.308594 19.730469 Z M 36.195312 21.113281 C 36.082031 21.113281 35.902344 21.09375 35.832031 21.046875 L 35.832031 20.617188 L 35.042969 20.617188 L 35.042969 21.589844 C 35.335938 21.726562 35.878906 21.820312 36.261719 21.820312 C 37.390625 21.820312 37.820312 21.183594 37.820312 19.796875 L 37.820312 19.480469 C 37.820312 18.050781 37.140625 17.800781 36.308594 17.800781 C 35.382812 17.800781 34.886719 18.1875 34.886719 19.183594 C 34.886719 20.023438 35.335938 20.296875 36.058594 20.296875 C 36.441406 20.296875 36.691406 20.207031 36.828125 20.023438 C 36.804688 20.910156 36.644531 21.113281 36.195312 21.113281 Z M 36.195312 21.113281 "/>
<path style=" stroke:none;fill-rule:nonzero;fill:rgb(100%,100%,100%);fill-opacity:1;" d="M 61.769531 20.117188 C 62.082031 20.117188 62.242188 20.230469 62.242188 20.660156 C 62.242188 21.09375 62.082031 21.25 61.769531 21.25 C 61.453125 21.25 61.292969 21.136719 61.292969 20.683594 C 61.292969 20.253906 61.476562 20.117188 61.769531 20.117188 M 61.925781 18.683594 C 62.015625 18.683594 62.171875 18.730469 62.308594 18.753906 L 62.308594 19.164062 L 63.097656 19.164062 L 63.097656 18.207031 C 62.738281 18.09375 62.308594 17.980469 61.859375 17.980469 C 60.777344 17.980469 60.300781 18.59375 60.300781 20.117188 L 60.300781 20.410156 C 60.300781 21.707031 60.980469 21.976562 61.789062 21.976562 C 62.691406 21.976562 63.234375 21.660156 63.234375 20.707031 C 63.234375 19.84375 62.78125 19.546875 62.0625 19.546875 C 61.699219 19.546875 61.453125 19.640625 61.292969 19.820312 C 61.292969 18.957031 61.453125 18.683594 61.925781 18.683594 Z M 61.925781 18.683594 "/>
<path style=" stroke:none;fill-rule:nonzero;fill:rgb(100%,100%,100%);fill-opacity:1;" d="M 66.210938 19.09375 C 66.210938 19.410156 66.050781 19.480469 65.757812 19.480469 C 65.464844 19.480469 65.332031 19.410156 65.332031 19.09375 C 65.332031 18.800781 65.464844 18.683594 65.757812 18.683594 C 66.074219 18.683594 66.210938 18.777344 66.210938 19.09375 M 65.757812 21.25 C 65.421875 21.25 65.21875 21.160156 65.21875 20.707031 C 65.21875 20.34375 65.355469 20.183594 65.757812 20.183594 C 66.164062 20.183594 66.300781 20.34375 66.300781 20.707031 C 66.324219 21.136719 66.121094 21.25 65.757812 21.25 Z M 67.316406 20.796875 C 67.316406 20.296875 67.136719 19.980469 66.640625 19.820312 C 67.023438 19.660156 67.15625 19.390625 67.15625 19.003906 C 67.15625 18.253906 66.773438 17.957031 65.757812 17.957031 C 64.765625 17.957031 64.359375 18.277344 64.359375 19.003906 C 64.359375 19.390625 64.496094 19.660156 64.855469 19.820312 C 64.382812 19.980469 64.203125 20.296875 64.203125 20.796875 C 64.203125 21.570312 64.542969 21.976562 65.757812 21.976562 C 67 21.976562 67.316406 21.523438 67.316406 20.796875 Z M 67.316406 20.796875 "/>
<path style=" stroke:none;fill-rule:nonzero;fill:rgb(100%,100%,100%);fill-opacity:1;" d="M 69.367188 18.820312 C 69.457031 19.480469 69.75 19.890625 70.472656 19.910156 C 69.929688 20.136719 69.324219 20.273438 69.433594 21.113281 C 69.210938 20.523438 69.050781 19.980469 68.261719 20.023438 C 68.984375 19.890625 69.300781 19.457031 69.367188 18.820312 "/>
<path style=" stroke:none;fill-rule:nonzero;fill:rgb(100%,100%,100%);fill-opacity:1;" d="M 31.796875 72.472656 C 31.617188 71.835938 31.460938 71.335938 31.347656 70.835938 C 31.277344 70.542969 31.144531 70.429688 30.851562 70.382812 C 30.355469 70.292969 29.859375 70.132812 29.203125 69.972656 C 29.835938 69.792969 30.308594 69.65625 30.78125 69.542969 C 31.074219 69.472656 31.257812 69.339844 31.324219 68.996094 C 31.414062 68.5 31.550781 68.019531 31.683594 67.476562 C 31.957031 67.976562 32.023438 68.5 32.136719 68.976562 C 32.226562 69.316406 32.359375 69.453125 32.699219 69.496094 C 33.171875 69.589844 33.644531 69.722656 34.121094 69.953125 C 33.667969 70.066406 33.21875 70.222656 32.746094 70.316406 C 32.382812 70.382812 32.203125 70.5625 32.15625 70.949219 C 32.089844 71.40625 31.957031 71.882812 31.796875 72.472656 "/>
<path style=" stroke:none;fill-rule:nonzero;fill:rgb(100%,100%,100%);fill-opacity:1;" d="M 25.257812 68.363281 C 25.210938 67.363281 24.714844 66.953125 23.769531 66.863281 C 24.785156 66.816406 25.144531 66.207031 25.234375 65.296875 C 25.324219 66.25 25.777344 66.796875 26.789062 66.816406 C 25.84375 66.929688 25.324219 67.363281 25.257812 68.363281 "/>
<path style=" stroke:none;fill-rule:nonzero;fill:rgb(100%,100%,100%);fill-opacity:1;" d="M 68.535156 72.039062 C 67.472656 72.402344 67.472656 72.402344 67.023438 73.699219 C 66.933594 72.675781 66.546875 72.0625 65.488281 72.152344 C 65.917969 71.902344 66.414062 71.972656 66.640625 71.675781 C 66.84375 71.40625 66.863281 70.972656 67.042969 70.585938 C 67.089844 71.5625 67.609375 72.015625 68.535156 72.039062 "/>
<path style=" stroke:none;fill-rule:nonzero;fill:rgb(100%,100%,100%);fill-opacity:1;" d="M 66.820312 66.839844 C 65.285156 67.363281 65.285156 67.363281 64.65625 69.226562 C 64.519531 67.773438 63.976562 66.886719 62.46875 67.023438 C 63.097656 66.660156 63.796875 66.773438 64.136719 66.339844 C 64.453125 65.957031 64.472656 65.34375 64.699219 64.773438 C 64.746094 66.160156 65.464844 66.816406 66.820312 66.839844 "/>
<path style=" stroke:none;fill-rule:nonzero;fill:rgb(100%,100%,100%);fill-opacity:1;" d="M 73.921875 67.65625 C 73.878906 66.816406 73.449219 66.453125 72.660156 66.386719 C 73.515625 66.339844 73.832031 65.84375 73.902344 65.070312 C 73.992188 65.863281 74.351562 66.339844 75.207031 66.339844 C 74.417969 66.433594 73.96875 66.816406 73.921875 67.65625 "/>
<path style=" stroke:none;fill-rule:evenodd;fill:rgb(100%,100%,100%);fill-opacity:1;" d="M 47.875 8.152344 C 48.035156 8.355469 47.695312 8.558594 48.441406 8.21875 C 48.664062 8.105469 48.957031 8.039062 49.25 8.039062 C 50.46875 8.082031 51.011719 9.46875 50.582031 10.398438 C 50.46875 10.648438 50.335938 10.808594 50.152344 10.964844 C 49.523438 11.488281 48.011719 11.511719 47.15625 11.941406 C 46.660156 12.191406 46.410156 12.488281 46.253906 13.007812 C 46.070312 13.554688 46.050781 14.191406 46.207031 14.734375 C 46.253906 14.917969 46.433594 15.324219 46.546875 15.371094 C 46.566406 15.28125 46.523438 15.234375 46.566406 15.167969 C 46.660156 15.210938 46.589844 15.460938 46.75 15.6875 C 46.816406 15.78125 46.996094 15.984375 47.085938 16.007812 C 47.109375 15.894531 47.019531 15.574219 47.019531 15.417969 C 47.042969 15.460938 47.066406 15.507812 47.066406 15.574219 C 47.265625 16.550781 47.785156 16.4375 47.964844 15.960938 C 48.035156 15.78125 48.035156 15.53125 48.078125 15.324219 C 48.125 15.417969 48.101562 15.597656 48.101562 15.710938 C 48.101562 15.824219 48.101562 15.960938 48.078125 16.074219 C 48.328125 16.007812 48.554688 15.871094 48.664062 15.6875 C 48.777344 15.484375 48.777344 15.144531 48.824219 14.871094 L 48.847656 14.894531 C 48.867188 14.9375 48.867188 14.984375 48.867188 15.03125 C 48.867188 15.097656 48.867188 15.167969 48.847656 15.234375 C 48.824219 15.347656 48.800781 15.460938 48.800781 15.597656 C 49.160156 15.550781 49.140625 14.960938 49.230469 14.644531 C 49.25 14.667969 49.25 14.644531 49.273438 14.691406 C 49.320312 14.757812 49.296875 14.9375 49.296875 15.007812 L 49.363281 14.960938 C 49.523438 14.847656 49.546875 14.691406 49.636719 14.507812 L 49.636719 14.597656 C 49.589844 14.917969 49.5 14.871094 49.320312 15.054688 C 49.160156 15.234375 49.140625 15.417969 48.957031 15.574219 C 48.777344 15.710938 48.644531 15.847656 48.484375 15.960938 C 48.167969 16.1875 48.101562 16.074219 47.898438 16.257812 C 47.808594 16.324219 47.695312 16.371094 47.5625 16.371094 C 47.359375 16.347656 46.953125 15.9375 46.792969 15.800781 C 46.5 15.484375 46.253906 15.144531 46.09375 14.757812 C 45.980469 14.847656 45.847656 15.097656 45.777344 15.28125 C 45.667969 15.53125 45.6875 16.527344 45.734375 16.824219 C 45.757812 17.050781 45.824219 17.277344 45.890625 17.503906 C 46.183594 18.617188 46.769531 20.070312 47.402344 20.980469 C 47.539062 21.183594 47.71875 21.363281 47.875 21.546875 C 47.921875 21.589844 47.945312 21.613281 47.988281 21.660156 C 48.351562 22 48.6875 22.296875 49.160156 22.546875 C 49.363281 22.660156 50.109375 23.042969 50.355469 23 C 50.355469 22.773438 49.566406 22.113281 49.410156 21.207031 C 49.386719 21 49.34375 20.5 49.5 20.410156 C 49.566406 20.480469 49.566406 21.226562 49.613281 21.410156 C 49.679688 21.707031 49.839844 21.953125 49.972656 22.160156 C 50.042969 22.273438 50.132812 22.410156 50.222656 22.476562 C 50.558594 22.816406 50.605469 22.660156 50.761719 22.636719 C 50.921875 22.613281 51.101562 22.636719 51.214844 22.703125 C 51.28125 22.726562 51.328125 22.773438 51.394531 22.792969 C 51.621094 22.5 51.550781 21.839844 51.664062 21.457031 C 51.867188 21.546875 51.640625 22.363281 51.597656 22.546875 C 51.550781 22.703125 51.371094 23.203125 51.484375 23.339844 C 51.53125 23.386719 51.597656 23.429688 51.6875 23.453125 C 51.914062 23.519531 52.632812 23.519531 52.90625 23.519531 C 53.128906 23.519531 53.648438 23.542969 53.851562 23.5 C 53.898438 23.476562 53.898438 23.476562 53.964844 23.453125 C 54.214844 23.40625 54.054688 23.566406 53.921875 23.636719 C 54.011719 23.839844 54.28125 24.113281 54.484375 24.246094 C 54.820312 24.453125 55.273438 24.226562 55.519531 24 C 55.769531 23.769531 55.722656 23.65625 55.5 23.5 C 55.296875 23.363281 54.980469 23.226562 54.730469 23.113281 C 54.394531 22.976562 54.054688 22.816406 53.785156 22.589844 L 53.378906 22.25 C 51.640625 20.886719 51.84375 19.09375 51.640625 16.847656 C 51.550781 15.78125 51.304688 14.824219 50.605469 14.054688 C 50.582031 14.03125 50.558594 14.007812 50.539062 13.964844 C 50.46875 13.894531 50.402344 13.828125 50.335938 13.734375 C 50.289062 13.667969 50.265625 13.621094 50.246094 13.554688 C 50.175781 13.304688 50.246094 13.054688 50.378906 12.851562 C 50.492188 12.667969 50.648438 12.554688 50.808594 12.394531 L 51.101562 12.101562 C 51.84375 11.488281 52.09375 10.511719 52.070312 9.558594 C 52.027344 7.152344 49.453125 5.878906 47.3125 6.902344 C 46.457031 7.3125 46.027344 7.855469 45.597656 8.695312 C 45.53125 8.832031 45.28125 9.445312 45.394531 9.605469 C 45.554688 9.785156 46.230469 9.355469 46.34375 9.105469 C 46.410156 8.96875 46.367188 8.878906 46.476562 8.742188 C 46.566406 8.742188 46.679688 8.785156 46.679688 8.898438 C 46.679688 8.992188 46.589844 9.058594 46.546875 9.105469 C 46.5 9.21875 46.882812 9.898438 46.972656 10.082031 C 46.996094 10.125 46.996094 10.195312 47.019531 10.21875 C 47.222656 10.125 47.515625 9.535156 47.605469 9.308594 C 47.671875 9.128906 47.742188 8.921875 47.785156 8.71875 L 47.855469 8.21875 C 47.855469 8.195312 47.855469 8.171875 47.875 8.152344 C 47.855469 8.171875 47.855469 8.195312 47.875 8.152344 Z M 47.875 8.152344 "/>
<path style=" stroke:none;fill-rule:evenodd;fill:rgb(100%,100%,100%);fill-opacity:1;" d="M 50.851562 14.304688 L 51.054688 14.574219 C 51.328125 14.9375 51.597656 15.417969 51.710938 15.871094 C 51.753906 16.027344 51.800781 16.097656 51.957031 16.097656 C 52.160156 16.121094 53.988281 15.054688 54.460938 14.710938 C 54.550781 14.667969 55.070312 14.441406 55.183594 14.460938 C 55.09375 14.9375 54.820312 15.507812 55.136719 16.097656 C 55.226562 16.277344 55.339844 16.390625 55.542969 16.414062 C 55.339844 15.550781 55.566406 14.960938 55.722656 14.847656 C 55.65625 15.28125 55.363281 15.574219 55.792969 16.390625 C 55.949219 16.664062 56.421875 16.824219 56.265625 16.234375 C 56.199219 16.097656 56.152344 15.960938 56.128906 15.800781 C 56.085938 15.53125 56.175781 14.960938 56.332031 14.894531 C 56.421875 15.074219 56.128906 15.4375 56.289062 15.984375 C 56.355469 16.1875 56.625 16.753906 56.804688 16.664062 C 56.898438 16.621094 57.03125 16.390625 56.988281 16.234375 C 56.941406 16.074219 56.785156 15.960938 56.738281 15.78125 C 56.714844 15.597656 56.785156 14.824219 56.964844 14.824219 C 57.007812 15.054688 56.625 15.597656 57.054688 16.144531 C 57.121094 16.234375 57.191406 16.300781 57.300781 16.324219 C 57.527344 16.371094 57.550781 15.960938 57.574219 15.800781 C 57.597656 15.550781 57.597656 15.347656 57.550781 15.03125 C 57.527344 14.804688 57.484375 14.574219 57.4375 14.347656 C 57.414062 14.234375 57.300781 13.757812 57.347656 13.667969 C 57.460938 13.667969 57.484375 13.804688 57.503906 13.941406 C 57.640625 14.507812 57.550781 14.9375 57.84375 15.4375 C 57.890625 15.53125 57.980469 15.644531 58.046875 15.710938 C 58.160156 15.824219 58.40625 16.074219 58.632812 16.027344 L 58.496094 15.007812 C 58.339844 13.554688 58.476562 12.304688 57.730469 11.011719 C 57.414062 10.464844 57.101562 10.101562 56.535156 9.832031 C 55.925781 9.535156 55.226562 9.445312 54.664062 9.855469 C 53.898438 10.421875 53.785156 11.441406 53.558594 12.304688 C 53.378906 12.964844 52.882812 13.644531 52.296875 14.007812 C 51.867188 14.328125 51.394531 14.304688 50.851562 14.304688 "/>
<path style=" stroke:none;fill-rule:evenodd;fill:rgb(100%,100%,100%);fill-opacity:1;" d="M 39.9375 16.121094 C 40.097656 16.097656 40.390625 15.894531 40.457031 15.800781 C 40.839844 15.257812 40.839844 14.554688 41.089844 14.078125 C 41.109375 14.007812 41.132812 13.984375 41.199219 13.984375 C 41.222656 14.121094 40.886719 15.257812 40.839844 15.484375 C 40.75 15.800781 40.929688 16.9375 41.179688 16.984375 C 41.382812 16.960938 41.585938 16.550781 41.652344 16.300781 C 41.71875 16.027344 41.675781 15.394531 41.742188 15.234375 C 42.058594 15.121094 42.035156 16.144531 41.945312 16.4375 C 41.855469 16.710938 41.585938 17.003906 41.742188 17.277344 C 41.878906 17.503906 41.96875 17.480469 42.125 17.277344 C 42.441406 16.914062 42.507812 16.300781 42.417969 15.800781 C 42.441406 15.4375 42.667969 15.574219 42.691406 15.621094 C 42.78125 15.847656 42.691406 16.210938 42.644531 16.460938 C 42.597656 16.777344 42.351562 17.027344 42.621094 17.230469 C 42.78125 17.230469 42.914062 17.074219 42.984375 16.984375 C 43.277344 16.550781 43.207031 16.050781 43.09375 15.597656 C 43.050781 15.394531 43.1875 15.507812 43.1875 15.53125 C 43.34375 15.621094 43.34375 16.007812 43.367188 16.210938 C 43.367188 16.527344 43.117188 16.960938 43.320312 17.027344 C 43.457031 17.027344 43.523438 16.890625 43.589844 16.800781 C 43.773438 16.507812 43.773438 16.371094 43.773438 16.027344 C 43.773438 15.9375 43.773438 15.871094 43.773438 15.78125 C 43.773438 15.394531 43.703125 15.507812 44.539062 15.9375 C 44.765625 16.050781 45.171875 16.257812 45.464844 16.1875 C 45.53125 16.027344 45.507812 15.871094 45.554688 15.664062 C 45.644531 15.300781 46.050781 14.574219 45.9375 14.28125 C 45.914062 14.191406 45.824219 14.191406 45.734375 14.191406 C 45.621094 14.191406 45.53125 14.191406 45.417969 14.191406 C 45.214844 14.191406 45.101562 14.144531 44.96875 14.054688 C 44.449219 13.691406 44.289062 12.875 44.425781 12.261719 C 44.472656 12.101562 44.515625 11.964844 44.5625 11.785156 C 44.582031 11.601562 44.582031 11.398438 44.582031 11.214844 C 44.472656 10.011719 43.367188 9.738281 42.394531 10.171875 C 40.816406 10.828125 40.320312 12.375 40.140625 13.917969 C 40.097656 14.191406 39.894531 15.960938 39.9375 16.121094 "/>
<path style=" stroke:none;fill-rule:evenodd;fill:rgb(100%,100%,100%);fill-opacity:1;" d="M 56.535156 17.253906 C 56.535156 19.140625 56.625 20.683594 57.777344 22.136719 C 57.820312 22.183594 57.84375 22.203125 57.890625 22.226562 C 57.957031 22.296875 58 22.386719 58.160156 22.363281 C 58.226562 22.023438 58.183594 21.820312 58.136719 21.433594 C 58.070312 20.863281 57.820312 19.980469 57.664062 19.433594 C 57.347656 18.367188 57.234375 17.824219 57.144531 16.6875 C 57.121094 16.6875 57.101562 16.710938 57.078125 16.753906 C 56.964844 16.847656 56.941406 16.984375 56.785156 16.9375 C 56.535156 16.867188 56.535156 16.824219 56.535156 17.253906 "/>
<path style=" stroke:none;fill-rule:evenodd;fill:rgb(100%,100%,100%);fill-opacity:1;" d="M 40.863281 22.886719 C 41.089844 22.929688 41.359375 22.160156 41.425781 22 C 41.5625 21.570312 41.808594 19.933594 41.878906 19.410156 C 41.921875 19.027344 41.945312 18.277344 41.855469 17.957031 C 41.71875 17.914062 41.71875 17.914062 41.628906 17.753906 C 41.585938 17.6875 41.515625 17.503906 41.472656 17.460938 C 41.402344 17.867188 41.335938 18.34375 41.269531 18.777344 C 41.15625 19.59375 40.953125 20.636719 40.886719 21.410156 C 40.839844 21.636719 40.796875 22.75 40.863281 22.886719 "/>
<path style=" stroke:none;fill-rule:evenodd;fill:rgb(100%,100%,100%);fill-opacity:1;" d="M 41.832031 23.113281 C 41.898438 23.089844 41.96875 22.976562 41.992188 22.886719 C 42.328125 22.203125 42.488281 21.476562 42.578125 20.660156 C 42.644531 20.003906 42.644531 18.550781 42.597656 17.824219 C 42.578125 17.480469 42.238281 17.117188 42.214844 17.84375 C 42.195312 18.117188 42.195312 18.390625 42.195312 18.664062 C 42.171875 19.164062 42.082031 19.640625 42.011719 20.117188 C 41.945312 20.59375 41.855469 21.070312 41.808594 21.546875 C 41.789062 21.839844 41.71875 22.953125 41.832031 23.113281 "/>
<path style=" stroke:none;fill-rule:evenodd;fill:rgb(100%,100%,100%);fill-opacity:1;" d="M 56.289062 16.960938 L 56.0625 16.824219 C 56.0625 16.824219 56.039062 16.800781 56.015625 16.800781 C 55.996094 16.800781 56.015625 16.800781 55.996094 16.824219 C 55.90625 16.960938 55.835938 19.796875 55.925781 20.386719 C 56.039062 21.160156 56.152344 21.863281 56.535156 22.5 C 56.605469 22.636719 56.804688 22.976562 56.988281 22.886719 C 57.167969 22.703125 56.714844 20.617188 56.648438 20.296875 C 56.492188 19.527344 56.265625 18.480469 56.265625 17.640625 Z M 56.289062 16.960938 "/>
<path style=" stroke:none;fill-rule:evenodd;fill:rgb(100%,100%,100%);fill-opacity:1;" d="M 55.746094 16.710938 C 55.703125 16.710938 55.566406 16.824219 55.519531 16.867188 C 55.429688 16.960938 55.410156 17.003906 55.386719 17.164062 C 55.339844 17.414062 55.296875 17.6875 55.273438 17.957031 C 55.207031 18.550781 55.207031 19.117188 55.207031 19.730469 C 55.207031 20.636719 55.363281 22.023438 55.8125 22.679688 C 55.859375 22.726562 55.925781 22.863281 56.015625 22.886719 C 56.109375 22.910156 56.152344 22.703125 56.152344 22.613281 C 56.199219 22.089844 55.835938 21.386719 55.746094 20.320312 C 55.679688 19.390625 55.703125 18.550781 55.746094 17.617188 C 55.746094 17.347656 55.769531 16.960938 55.746094 16.710938 "/>
<path style=" stroke:none;fill-rule:evenodd;fill:rgb(100%,100%,100%);fill-opacity:1;" d="M 42.960938 17.710938 C 42.9375 18.527344 42.984375 19.230469 42.914062 20.09375 C 42.890625 20.5 42.78125 22.613281 42.871094 22.839844 C 43.140625 22.816406 43.34375 22.070312 43.386719 21.820312 C 43.75 20.296875 43.410156 19.164062 43.1875 17.753906 C 43.117188 17.300781 42.960938 17.210938 42.960938 17.710938 "/>
<path style=" stroke:none;fill-rule:evenodd;fill:rgb(100%,100%,100%);fill-opacity:1;" d="M 58.566406 20.34375 C 58.65625 20.117188 58.453125 18.683594 58.429688 18.34375 C 58.339844 17.617188 58.386719 16.9375 58.363281 16.210938 C 58.226562 16.121094 58.023438 15.894531 57.910156 15.800781 C 57.867188 15.984375 57.800781 16.390625 57.707031 16.527344 C 57.640625 16.621094 57.550781 16.484375 57.527344 16.890625 C 57.460938 17.753906 57.820312 19.320312 58.226562 19.957031 C 58.273438 20.070312 58.476562 20.34375 58.566406 20.34375 "/>
<path style=" stroke:none;fill-rule:evenodd;fill:rgb(100%,100%,100%);fill-opacity:1;" d="M 40.230469 17.4375 C 40.253906 17.890625 40.253906 18.34375 40.230469 18.800781 C 40.207031 19.296875 40.140625 19.820312 40.207031 20.320312 C 40.300781 20.320312 40.320312 20.273438 40.367188 20.230469 C 40.636719 20.003906 40.863281 19.457031 40.953125 19.117188 C 41.066406 18.707031 41.199219 17.777344 41.15625 17.390625 C 40.929688 17.230469 40.816406 17.140625 40.703125 16.867188 C 40.546875 16.484375 40.59375 16.164062 40.523438 16.074219 C 40.457031 16.097656 40.300781 16.234375 40.277344 16.277344 C 40.1875 16.371094 40.007812 16.414062 40.027344 16.597656 C 40.050781 16.847656 40.207031 17.140625 40.230469 17.4375 "/>
<path style=" stroke:none;fill-rule:evenodd;fill:rgb(91.764706%,0%,11.372549%);fill-opacity:1;" d="M 51.144531 24.566406 C 51.144531 24.089844 51.347656 23.089844 51.078125 22.816406 C 50.988281 22.726562 50.628906 22.726562 50.539062 22.816406 C 50.289062 23.113281 51.101562 24.066406 50.808594 24.929688 C 50.648438 25.382812 50.355469 25.632812 50.109375 25.882812 C 49.996094 25.996094 49.636719 26.199219 49.566406 26.3125 C 49.679688 26.3125 49.792969 26.292969 49.929688 26.269531 C 50.3125 26.246094 50.605469 26.3125 50.941406 26.425781 C 51.078125 26.472656 51.4375 26.335938 51.574219 26.292969 C 51.777344 26.222656 51.980469 26.179688 52.183594 26.109375 C 52.136719 26.0625 52.046875 26.019531 52.003906 25.972656 C 51.417969 25.566406 51.125 25.382812 51.144531 24.566406 "/>
<path style=" stroke:none;fill-rule:evenodd;fill:rgb(100%,100%,100%);fill-opacity:1;" d="M 54.574219 19.480469 C 54.574219 20.160156 54.597656 20.730469 54.730469 21.386719 C 54.777344 21.613281 54.867188 21.886719 54.957031 22.089844 C 55.023438 22.25 55.207031 22.636719 55.339844 22.589844 C 55.363281 22.429688 55.160156 21.433594 55.136719 21.226562 C 54.867188 19.730469 55.070312 18.277344 55.183594 16.777344 C 55.183594 16.710938 55.207031 16.664062 55.183594 16.597656 C 55.046875 17.050781 54.957031 17.527344 54.84375 17.980469 C 54.730469 18.457031 54.574219 18.957031 54.574219 19.480469 "/>
<path style=" stroke:none;fill-rule:evenodd;fill:rgb(91.764706%,0%,11.372549%);fill-opacity:1;" d="M 47.582031 26.042969 C 47.539062 25.972656 47.3125 25.816406 47.246094 25.792969 C 47.132812 25.722656 46.996094 25.632812 46.953125 25.472656 C 46.90625 25.179688 47.085938 24.769531 47.175781 24.542969 C 47.289062 24.269531 47.425781 24 47.539062 23.703125 C 47.5625 23.636719 47.605469 23.542969 47.605469 23.476562 C 47.628906 23.339844 47.605469 23.316406 47.539062 23.25 C 47.46875 23.179688 47.449219 23.179688 47.3125 23.179688 C 47.246094 23.179688 47.109375 23.203125 47.066406 23.226562 C 46.929688 24.382812 46.726562 25.132812 45.847656 25.835938 C 45.464844 26.15625 45.171875 26.179688 45.011719 26.269531 C 45.261719 26.292969 45.53125 26.246094 45.777344 26.292969 C 46.050781 26.3125 46.230469 26.542969 46.34375 26.496094 C 46.386719 26.472656 46.457031 26.359375 46.546875 26.3125 C 47.042969 26.019531 47.425781 26.109375 47.582031 26.042969 "/>
<path style=" stroke:none;fill-rule:evenodd;fill:rgb(100%,100%,100%);fill-opacity:1;" d="M 43.726562 20.367188 L 43.703125 21.410156 C 43.703125 21.570312 43.636719 22.136719 43.703125 22.226562 C 43.976562 22.160156 44.132812 21.386719 44.179688 21.183594 C 44.246094 20.730469 44.269531 20.230469 44.222656 19.773438 C 44.179688 19.320312 44.109375 18.914062 43.996094 18.480469 C 43.953125 18.277344 43.726562 17.414062 43.636719 17.324219 C 43.546875 17.347656 43.410156 17.503906 43.410156 17.550781 C 43.410156 17.574219 43.480469 17.84375 43.5 17.914062 C 43.660156 18.777344 43.726562 19.457031 43.726562 20.367188 "/>
<path style=" stroke:none;fill-rule:evenodd;fill:rgb(100%,100%,100%);fill-opacity:1;" d="M 47.832031 23.316406 C 47.898438 23.292969 48.078125 23.066406 48.125 23 L 48.257812 22.839844 C 48.351562 22.726562 48.507812 22.566406 48.554688 22.429688 C 48.507812 22.339844 48.28125 22.136719 48.214844 22.070312 C 48.148438 22 48.101562 21.953125 48.035156 21.910156 L 47.695312 21.570312 C 47.628906 21.5 47.582031 21.476562 47.515625 21.410156 L 47.335938 21.25 C 47.289062 21.207031 47.175781 21.113281 47.132812 21.113281 C 47.085938 21.226562 47.042969 22.792969 47.042969 23.023438 C 47.449219 23 47.671875 23.136719 47.832031 23.316406 "/>
<path style=" stroke:none;fill-rule:evenodd;fill:rgb(91.764706%,0%,11.372549%);fill-opacity:1;" d="M 45.6875 10.875 C 45.6875 10.761719 45.757812 10.714844 45.800781 10.648438 L 45.914062 10.488281 C 45.960938 10.398438 45.777344 10.445312 45.710938 10.445312 C 45.507812 10.488281 45.507812 10.464844 45.484375 10.558594 C 45.441406 10.828125 45.464844 10.785156 45.375 11.101562 C 45.304688 11.304688 45.261719 11.488281 45.191406 11.691406 C 45.148438 11.875 44.988281 12.511719 45.328125 12.511719 C 45.667969 12.511719 45.484375 12.101562 46.027344 11.328125 C 46.273438 11.011719 46.320312 10.988281 46.546875 10.695312 C 46.566406 10.648438 46.613281 10.625 46.636719 10.601562 C 46.660156 10.558594 46.679688 10.535156 46.726562 10.488281 C 46.703125 10.421875 46.589844 10.125 46.566406 10.082031 C 45.800781 10.488281 46.183594 10.398438 45.960938 10.714844 C 45.890625 10.851562 45.824219 10.945312 45.6875 10.875 "/>
<path style=" stroke:none;fill-rule:evenodd;fill:rgb(100%,100%,100%);fill-opacity:1;" d="M 54.257812 20.296875 C 54.234375 19.503906 54.507812 17.730469 54.933594 16.597656 C 55.003906 16.390625 54.84375 16.234375 54.84375 16.210938 C 54.550781 16.324219 54.304688 17.710938 54.234375 17.980469 C 54.167969 18.34375 54.101562 18.664062 54.101562 19.046875 C 54.101562 19.640625 54.144531 19.867188 54.257812 20.296875 "/>
<path style=" stroke:none;fill-rule:evenodd;fill:rgb(100%,100%,100%);fill-opacity:1;" d="M 44.449219 20.023438 C 44.492188 20.003906 44.515625 19.980469 44.5625 19.867188 C 44.695312 19.410156 44.652344 18.550781 44.5625 18.117188 C 44.472656 17.6875 44.269531 17.253906 44.019531 16.914062 C 43.953125 16.824219 43.792969 16.824219 43.792969 17.074219 C 43.839844 17.617188 44.199219 18.664062 44.3125 19.183594 C 44.335938 19.296875 44.425781 19.957031 44.449219 20.023438 "/>
<path style=" stroke:none;fill-rule:evenodd;fill:rgb(100%,100%,100%);fill-opacity:1;" d="M 52.613281 19.773438 C 52.589844 19.390625 52.542969 18.527344 52.65625 17.957031 C 52.589844 18.003906 52.453125 18.074219 52.410156 18.140625 C 52.320312 18.300781 52.070312 19.84375 52.613281 19.773438 M 52.136719 18.1875 C 51.957031 18.277344 51.914062 18.640625 51.914062 18.84375 C 51.914062 19.09375 52.003906 19.59375 52.117188 19.730469 C 52.230469 19.753906 52.136719 18.550781 52.207031 18.300781 C 52.207031 18.253906 52.25 18.09375 52.136719 18.1875 Z M 52.136719 18.1875 "/>
<path style=" stroke:none;fill-rule:evenodd;fill:rgb(100%,100%,100%);fill-opacity:1;" d="M 53.625 19.09375 C 53.625 19.367188 53.625 19.773438 53.761719 19.980469 C 53.808594 20.046875 53.964844 20.183594 53.964844 20.003906 L 53.941406 19.730469 C 53.851562 18.457031 54.234375 17.617188 54.234375 17.140625 C 54.144531 17.164062 53.964844 17.367188 53.921875 17.4375 C 53.761719 17.6875 53.625 18.777344 53.625 19.09375 "/>
<path style=" stroke:none;fill-rule:evenodd;fill:rgb(100%,100%,100%);fill-opacity:1;" d="M 43.929688 15.847656 L 43.90625 15.984375 C 43.839844 16.4375 44.289062 17.050781 44.515625 17.347656 C 44.628906 17.480469 44.988281 17.914062 45.148438 17.867188 C 45.191406 17.753906 45.171875 17.710938 45.101562 17.617188 C 45.058594 17.550781 45.011719 17.503906 44.96875 17.414062 C 44.832031 17.210938 44.472656 16.277344 44.425781 16.074219 C 44.402344 16.074219 44.019531 15.824219 43.929688 15.847656 "/>
<path style=" stroke:none;fill-rule:evenodd;fill:rgb(100%,100%,100%);fill-opacity:1;" d="M 53.492188 19.980469 C 53.515625 19.683594 53.332031 19.640625 53.46875 18.664062 C 53.515625 18.320312 53.648438 17.6875 53.648438 17.367188 C 53.535156 17.414062 53.332031 17.664062 53.289062 17.84375 C 53.175781 18.277344 53.128906 19.046875 53.175781 19.503906 C 53.199219 19.753906 53.265625 20.09375 53.492188 19.980469 "/>
<path style=" stroke:none;fill-rule:evenodd;fill:rgb(100%,100%,100%);fill-opacity:1;" d="M 53.355469 17.300781 C 53.535156 17.277344 53.941406 16.507812 53.988281 16.371094 C 54.054688 16.210938 54.121094 15.78125 54.167969 15.4375 C 54.121094 15.394531 53.964844 15.507812 53.761719 15.621094 C 53.738281 15.734375 53.695312 15.9375 53.671875 16.027344 C 53.605469 16.257812 53.355469 17.117188 53.355469 17.300781 M 52.929688 17.574219 C 53.222656 17.300781 53.425781 16.484375 53.46875 15.984375 C 53.492188 15.894531 53.445312 15.894531 53.355469 15.9375 C 53.265625 15.984375 53.222656 16.007812 53.109375 16.050781 C 53.019531 16.550781 52.882812 17.503906 52.929688 17.574219 Z M 52.386719 17.9375 C 52.476562 17.890625 52.589844 17.664062 52.632812 17.550781 C 52.816406 17.210938 52.882812 16.550781 52.929688 16.121094 C 52.746094 16.210938 52.703125 16.210938 52.523438 16.277344 C 52.476562 16.710938 52.386719 17.824219 52.386719 17.9375 Z M 52.003906 17.867188 C 52.136719 17.777344 52.296875 17.390625 52.363281 17.164062 C 52.433594 16.960938 52.433594 16.4375 52.273438 16.371094 C 52.117188 16.414062 52.117188 16.414062 51.957031 16.4375 C 51.933594 16.574219 51.957031 16.753906 51.957031 16.847656 C 51.933594 17.027344 51.933594 17.800781 52.003906 17.867188 Z M 53.875 17.003906 C 53.964844 17.003906 54.011719 16.914062 54.078125 16.800781 C 54.144531 16.710938 54.191406 16.640625 54.257812 16.550781 C 54.371094 16.390625 54.484375 16.210938 54.597656 16.050781 C 54.890625 15.621094 54.800781 15.800781 54.914062 15.074219 C 54.914062 15.007812 54.933594 14.9375 54.933594 14.871094 C 54.933594 14.824219 54.957031 14.847656 54.957031 14.804688 C 54.820312 14.960938 54.460938 15.074219 54.460938 15.300781 C 54.347656 15.734375 54.28125 15.960938 54.101562 16.371094 C 54.011719 16.550781 53.808594 16.847656 53.875 17.003906 Z M 53.875 17.003906 "/>
<path style=" stroke:none;fill-rule:evenodd;fill:rgb(100%,100%,100%);fill-opacity:1;" d="M 53.625 24.703125 C 53.695312 24.726562 54.507812 24.632812 54.507812 24.429688 C 54.4375 24.542969 53.738281 23.953125 53.695312 23.703125 C 53.535156 23.726562 53.332031 23.726562 53.152344 23.75 C 53.128906 24.132812 53.378906 24.429688 53.625 24.703125 "/>
<path style=" stroke:none;fill-rule:evenodd;fill:rgb(100%,100%,100%);fill-opacity:1;" d="M 44.855469 19.730469 C 44.988281 19.730469 45.148438 19.570312 45.171875 19.410156 C 45.214844 19.183594 45.214844 18.480469 45.101562 18.253906 C 45.058594 18.164062 44.855469 17.957031 44.71875 17.980469 C 44.695312 18.050781 44.808594 19.617188 44.855469 19.730469 "/>
<path style=" stroke:none;fill-rule:evenodd;fill:rgb(100%,100%,100%);fill-opacity:1;" d="M 52.679688 24.496094 C 52.746094 24.703125 52.703125 24.769531 52.949219 24.816406 C 53.109375 24.839844 53.265625 24.816406 53.378906 24.746094 C 53.378906 24.726562 53.199219 24.519531 53.085938 24.292969 C 52.972656 24.042969 52.90625 23.769531 52.90625 23.769531 C 52.90625 23.769531 52.882812 23.75 52.882812 23.75 C 52.746094 23.75 52.726562 23.75 52.589844 23.75 C 52.476562 23.769531 52.5 23.882812 52.566406 24.066406 C 52.566406 24.203125 52.613281 24.363281 52.679688 24.496094 "/>
<path style=" stroke:none;fill-rule:evenodd;fill:rgb(100%,100%,100%);fill-opacity:1;" d="M 44.652344 16.234375 C 44.605469 16.507812 45.035156 17.390625 45.261719 17.6875 C 45.304688 17.753906 45.554688 18.027344 45.621094 18.003906 C 45.621094 18.003906 45.621094 17.980469 45.621094 17.980469 C 45.621094 17.980469 45.667969 17.9375 45.484375 17.460938 C 45.417969 17.253906 45.191406 16.597656 45.101562 16.4375 C 45.058594 16.347656 45.035156 16.300781 44.921875 16.257812 C 44.878906 16.257812 44.695312 16.210938 44.652344 16.234375 "/>
<path style=" stroke:none;fill-rule:evenodd;fill:rgb(100%,100%,100%);fill-opacity:1;" d="M 53.019531 19.84375 C 53.019531 19.753906 52.996094 19.683594 52.996094 19.617188 C 52.972656 19.527344 52.972656 19.433594 52.972656 19.34375 C 52.972656 19.164062 52.972656 18.957031 52.996094 18.777344 C 53.019531 18.4375 53.109375 18.050781 53.109375 17.710938 C 53.019531 17.753906 52.859375 17.980469 52.816406 18.117188 C 52.703125 18.414062 52.703125 19.617188 52.816406 19.84375 C 52.882812 19.933594 52.972656 19.910156 53.019531 19.84375 "/>
<path style=" stroke:none;fill-rule:evenodd;fill:rgb(100%,100%,100%);fill-opacity:1;" d="M 45.464844 19.433594 C 45.597656 19.410156 45.621094 19.296875 45.644531 19.140625 C 45.667969 19.003906 45.6875 18.84375 45.6875 18.707031 C 45.710938 18.550781 45.710938 18.390625 45.621094 18.300781 C 45.554688 18.230469 45.441406 18.117188 45.328125 18.117188 C 45.328125 18.34375 45.351562 18.59375 45.351562 18.820312 C 45.375 18.957031 45.375 19.34375 45.464844 19.433594 "/>
<path style=" stroke:none;fill-rule:evenodd;fill:rgb(100%,100%,100%);fill-opacity:1;" d="M 52.566406 24.792969 C 52.566406 24.769531 52.363281 23.976562 52.160156 23.726562 C 52.09375 23.726562 51.957031 23.703125 51.957031 23.769531 C 51.914062 23.929688 52.003906 24.339844 52.027344 24.453125 C 52.046875 24.589844 52.09375 24.703125 52.183594 24.769531 C 52.273438 24.839844 52.476562 24.839844 52.566406 24.792969 "/>
<path style=" stroke:none;fill-rule:evenodd;fill:rgb(100%,100%,100%);fill-opacity:1;" d="M 45.667969 17.664062 C 45.6875 17.503906 45.597656 17.074219 45.574219 16.914062 C 45.554688 16.824219 45.507812 16.460938 45.464844 16.390625 C 45.441406 16.347656 45.351562 16.324219 45.304688 16.371094 C 45.214844 16.484375 45.574219 17.503906 45.667969 17.664062 "/>
<path style=" stroke:none;fill-rule:evenodd;fill:rgb(100%,100%,100%);fill-opacity:1;" d="M 46.050781 19.183594 C 46.070312 19.003906 45.914062 18.207031 45.847656 18.117188 C 45.847656 18.1875 45.914062 18.683594 45.871094 19.003906 C 45.847656 19.164062 45.871094 19.390625 46.050781 19.183594 "/>
</g>
</svg>
