<?xml version="1.0" encoding="UTF-8"?>
<svg xmlns="http://www.w3.org/2000/svg" xmlns:xlink="http://www.w3.org/1999/xlink" width="100px" height="74px" viewBox="0 0 99 74" version="1.1">
<g id="surface1">
<path style=" stroke:none;fill-rule:nonzero;fill:rgb(87.45098%,0%,17.254902%);fill-opacity:1;" d="M 23.667969 6.484375 L 35.917969 13.992188 C 35.917969 13.992188 38.667969 11.785156 41.65625 11.113281 C 44.644531 10.441406 47.683594 9.445312 50.566406 9.6875 C 53.449219 9.929688 57.585938 10.738281 59.347656 11.597656 C 61.109375 12.457031 62.335938 12.890625 62.335938 12.890625 L 72.957031 5.757812 C 72.957031 5.757812 81.546875 14.476562 81.734375 14.476562 C 81.921875 14.476562 79.894531 18.109375 79.894531 18.109375 C 79.894531 18.109375 83.015625 23.652344 83.683594 25.726562 C 84.351562 27.796875 85.097656 32.480469 85.097656 32.480469 C 85.097656 32.480469 82.109375 55.109375 78.078125 58.472656 C 74.050781 61.863281 70.394531 66.464844 67.351562 67.8125 C 64.308594 69.15625 57.105469 72.601562 53.582031 72.546875 C 50.035156 72.492188 41.386719 73.890625 35.542969 70.152344 C 29.699219 66.410156 26.152344 64.878906 23.722656 62.347656 C 21.292969 59.820312 19.265625 57.316406 17.984375 55.488281 C 16.703125 53.628906 13.957031 44.777344 13.527344 38.640625 C 13.101562 32.507812 14.144531 29.789062 15.050781 27.257812 C 15.957031 24.730469 18.332031 19.402344 18.332031 19.402344 L 15.984375 16.683594 L 18.359375 12.378906 Z M 23.667969 6.484375 "/>
<path style=" stroke:none;fill-rule:nonzero;fill:rgb(0%,0%,0%);fill-opacity:1;" d="M 40.402344 55.164062 C 40.402344 55.164062 41.148438 58.527344 42.5625 59.335938 C 44.003906 60.140625 45.84375 60.113281 45.84375 60.113281 C 45.84375 60.113281 42.960938 58.367188 42.1875 54.894531 "/>
<path style=" stroke:none;fill-rule:nonzero;fill:rgb(0%,0%,0%);fill-opacity:1;" d="M 50.355469 19.160156 L 50.539062 13.992188 L 47.820312 18.488281 C 47.820312 18.488281 42.457031 16.738281 42.160156 16.683594 C 41.894531 16.628906 46.699219 20.691406 46.699219 20.691406 L 45.628906 25.1875 L 48.832031 22.09375 L 56.597656 25.644531 Z M 50.355469 19.160156 "/>
<path style=" stroke:none;fill-rule:nonzero;fill:rgb(0%,0%,0%);fill-opacity:1;" d="M 61.960938 7.292969 C 61.75 7.695312 61.5625 8.101562 61.347656 8.503906 C 60.949219 8.289062 60.574219 8.101562 60.175781 7.910156 C 60.253906 7.722656 60.332031 7.5625 60.414062 7.375 C 59.933594 7.15625 59.425781 6.941406 58.945312 6.726562 C 58.8125 7.078125 58.679688 7.398438 58.546875 7.75 C 58.785156 8.101562 59 8.449219 59.214844 8.800781 C 59.933594 9.121094 60.628906 9.472656 61.320312 9.847656 C 61.722656 9.792969 62.121094 9.769531 62.523438 9.742188 C 62.921875 9.042969 63.324219 8.367188 63.75 7.667969 C 63.5625 7.292969 63.347656 6.914062 63.136719 6.566406 C 62.523438 6.214844 61.910156 5.894531 61.269531 5.597656 C 61.402344 5.300781 61.535156 5.03125 61.667969 4.734375 C 61.292969 4.441406 60.921875 4.144531 60.546875 3.875 C 61.429688 4.25 62.308594 4.65625 63.164062 5.085938 C 63.082031 5.246094 63.003906 5.410156 62.921875 5.542969 C 63.457031 5.8125 63.964844 6.109375 64.496094 6.429688 C 64.65625 6.164062 64.816406 5.867188 65.003906 5.597656 C 64.789062 5.195312 64.550781 4.789062 64.308594 4.386719 C 63.429688 3.902344 62.496094 3.445312 61.589844 3.039062 C 61.1875 3.121094 60.789062 3.203125 60.386719 3.28125 C 60.121094 3.984375 59.828125 4.710938 59.558594 5.410156 C 59.773438 5.730469 60.015625 6.054688 60.199219 6.378906 C 60.707031 6.671875 61.347656 6.996094 61.960938 7.292969 Z M 61.960938 7.292969 "/>
<path style=" stroke:none;fill-rule:nonzero;fill:rgb(0%,0%,0%);fill-opacity:1;" d="M 47.523438 0.644531 C 47.5 2.503906 47.472656 4.359375 47.417969 6.1875 C 47.925781 6.1875 48.433594 6.214844 48.941406 6.269531 C 49.019531 5.167969 49.101562 4.0625 49.179688 2.960938 C 49.125 2.421875 49.074219 1.910156 49.019531 1.371094 C 49.152344 1.910156 49.285156 2.421875 49.421875 2.960938 C 49.820312 4.117188 50.167969 5.273438 50.460938 6.429688 C 51.101562 6.511719 51.714844 6.621094 52.355469 6.753906 C 52.753906 4.734375 53.183594 2.691406 53.582031 0.671875 C 52.730469 0.511719 51.875 0.351562 51.019531 0.242188 C 51.019531 0.324219 50.996094 0.402344 50.996094 0.484375 C 51.207031 0.644531 51.421875 0.78125 51.636719 0.941406 C 51.5 1.804688 51.394531 2.664062 51.261719 3.523438 C 51.261719 3.984375 51.261719 4.46875 51.261719 4.925781 C 51.179688 4.46875 51.101562 4.007812 51.019531 3.523438 C 50.675781 2.367188 50.300781 1.238281 49.847656 0.0820312 C 48.804688 0 47.765625 -0.0546875 46.75 -0.0546875 C 46.75 0.0273438 46.75 0.109375 46.75 0.1875 C 47.046875 0.375 47.285156 0.511719 47.523438 0.644531 Z M 47.523438 0.644531 "/>
<path style=" stroke:none;fill-rule:nonzero;fill:rgb(0%,0%,0%);fill-opacity:1;" d="M 46.40625 6.214844 C 46.40625 6.136719 46.40625 6.027344 46.40625 5.945312 C 46.164062 5.625 45.925781 5.273438 45.65625 4.953125 C 44.910156 4.976562 44.191406 5.058594 43.441406 5.140625 C 43.390625 4.683594 43.335938 4.199219 43.253906 3.742188 C 43.949219 3.660156 44.644531 3.578125 45.335938 3.550781 C 45.308594 3.175781 45.285156 2.824219 45.285156 2.449219 C 44.5625 2.503906 43.84375 2.554688 43.148438 2.636719 C 43.121094 2.339844 43.070312 2.070312 43.042969 1.777344 C 42.589844 1.75 42.109375 1.722656 41.65625 1.695312 C 42.9375 1.480469 44.214844 1.34375 45.496094 1.265625 C 45.738281 0.914062 46.003906 0.566406 46.269531 0.242188 C 46.269531 0.160156 46.269531 0.0820312 46.269531 -0.0273438 C 44.511719 0.0273438 42.75 0.1875 41.015625 0.511719 C 41.386719 2.53125 41.761719 4.574219 42.136719 6.59375 C 43.523438 6.40625 44.964844 6.242188 46.40625 6.214844 Z M 46.40625 6.214844 "/>
<path style=" stroke:none;fill-rule:nonzero;fill:rgb(0%,0%,0%);fill-opacity:1;" d="M 36.132812 3.820312 C 36.210938 3.578125 36.316406 3.308594 36.398438 3.066406 C 36.664062 2.960938 36.957031 2.878906 37.226562 2.796875 C 37.679688 4.199219 38.105469 5.625 38.558594 7.023438 C 38.453125 7.132812 38.371094 7.265625 38.265625 7.375 C 38.292969 7.453125 38.320312 7.535156 38.347656 7.617188 C 39.066406 7.375 39.785156 7.15625 40.535156 6.96875 C 40.507812 6.890625 40.480469 6.808594 40.480469 6.699219 C 40.347656 6.648438 40.1875 6.59375 40.054688 6.539062 C 39.679688 5.113281 39.304688 3.6875 38.960938 2.261719 C 39.226562 2.179688 39.492188 2.125 39.785156 2.046875 C 40 2.207031 40.214844 2.367188 40.402344 2.53125 C 40.480469 2.503906 40.585938 2.503906 40.667969 2.476562 C 40.535156 1.855469 40.425781 1.265625 40.292969 0.644531 C 38.585938 0.996094 36.878906 1.480469 35.222656 2.125 C 35.4375 2.71875 35.652344 3.28125 35.863281 3.875 C 35.972656 3.875 36.050781 3.847656 36.132812 3.820312 Z M 36.132812 3.820312 "/>
<path style=" stroke:none;fill-rule:nonzero;fill:rgb(0%,0%,0%);fill-opacity:1;" d="M 54.144531 7.105469 C 54.945312 7.292969 55.746094 7.535156 56.519531 7.832031 C 56.839844 7.695312 57.160156 7.5625 57.480469 7.453125 C 58.039062 5.945312 58.597656 4.46875 59.1875 2.960938 C 58.972656 2.636719 58.785156 2.3125 58.574219 1.992188 C 57.613281 1.640625 56.625 1.34375 55.636719 1.101562 C 55.265625 1.238281 54.917969 1.398438 54.542969 1.5625 C 54.195312 3.121094 53.847656 4.683594 53.53125 6.269531 C 53.742188 6.539062 53.929688 6.808594 54.144531 7.105469 Z M 57.398438 2.773438 C 57 4.007812 56.597656 5.273438 56.199219 6.511719 C 55.824219 6.40625 55.476562 6.296875 55.105469 6.1875 C 55.398438 5.085938 55.71875 3.957031 56.011719 2.851562 C 55.636719 2.582031 55.265625 2.339844 54.863281 2.070312 C 55.71875 2.261719 56.570312 2.503906 57.398438 2.773438 Z M 57.398438 2.773438 "/>
<path style=" stroke:none;fill-rule:nonzero;fill:rgb(0%,0%,0%);fill-opacity:1;" d="M 30.179688 5.246094 C 30.980469 6.648438 31.808594 8.046875 32.609375 9.445312 C 32.957031 9.527344 33.300781 9.578125 33.648438 9.660156 C 34.398438 9.257812 35.171875 8.878906 35.945312 8.53125 C 36.078125 8.207031 36.238281 7.882812 36.398438 7.5625 C 35.730469 5.867188 35.0625 4.144531 34.398438 2.449219 C 33.835938 2.664062 33.300781 2.90625 32.742188 3.175781 C 33.4375 4.710938 34.15625 6.242188 34.851562 7.777344 C 34.476562 7.9375 34.128906 8.125 33.757812 8.316406 C 32.980469 6.808594 32.234375 5.300781 31.460938 3.792969 C 30.714844 4.171875 29.96875 4.601562 29.246094 5.058594 C 29.300781 5.140625 29.328125 5.195312 29.378906 5.273438 C 29.621094 5.273438 29.914062 5.246094 30.179688 5.246094 Z M 30.179688 5.246094 "/>
<path style=" stroke:none;fill-rule:nonzero;fill:rgb(0%,0%,0%);fill-opacity:1;" d="M 86.378906 34.496094 C 86.191406 31.1875 85.335938 28.039062 84.214844 24.945312 C 83.417969 22.738281 82.296875 20.691406 81.175781 18.648438 C 80.882812 18.082031 80.90625 17.949219 81.28125 17.464844 C 81.816406 16.765625 82.320312 16.011719 82.855469 15.3125 C 83.042969 15.042969 83.015625 14.800781 82.828125 14.53125 C 82.054688 13.535156 81.28125 12.539062 80.480469 11.570312 C 78.265625 8.960938 75.652344 6.78125 72.957031 4.683594 C 72.664062 4.46875 72.449219 4.546875 72.183594 4.710938 C 68.632812 7.105469 65.058594 9.5 61.507812 11.894531 C 57.90625 10.011719 53.796875 8.960938 49.472656 8.960938 C 44.617188 8.960938 40.082031 10.304688 36.210938 12.621094 C 32.023438 10.253906 27.804688 7.859375 23.617188 5.488281 C 23.429688 5.382812 23.324219 5.382812 23.164062 5.570312 C 21.722656 7.238281 20.28125 8.878906 18.867188 10.546875 C 17.316406 12.40625 15.878906 14.316406 14.757812 16.46875 C 14.515625 16.925781 14.515625 16.980469 14.863281 17.382812 C 15.503906 18.082031 16.117188 18.808594 16.757812 19.507812 C 17 19.777344 17.050781 20.019531 16.890625 20.371094 C 16.625 20.882812 16.382812 21.417969 16.144531 21.929688 C 12.808594 28.980469 11.554688 36.355469 12.941406 44.105469 C 13.957031 49.835938 16.382812 54.921875 19.960938 59.441406 C 21.667969 61.59375 23.695312 63.425781 25.75 65.199219 C 29.78125 68.699219 34.371094 71.175781 39.492188 72.628906 C 42.910156 73.597656 46.40625 74.109375 49.953125 73.945312 C 51.421875 73.867188 52.914062 73.785156 54.382812 73.570312 C 57.90625 73.058594 61.269531 71.929688 64.445312 70.367188 C 70.339844 67.488281 75.332031 63.425781 79.253906 58.097656 C 80.5625 56.292969 81.816406 54.464844 82.855469 52.472656 C 83.976562 50.320312 84.671875 47.980469 85.363281 45.664062 C 86.40625 42.03125 86.566406 38.292969 86.378906 34.496094 Z M 55.425781 13.644531 C 55.71875 12.40625 56.8125 11.785156 58.066406 12.242188 C 59.1875 12.648438 60.308594 13.160156 61.347656 13.75 C 63.855469 15.097656 65.992188 16.925781 67.832031 19.105469 C 67.886719 19.1875 67.9375 19.238281 67.992188 19.320312 C 66.097656 18.59375 64.148438 18.136719 62.175781 17.894531 C 60.253906 17.570312 58.011719 17.519531 55.636719 17.652344 C 55.53125 16.550781 55.398438 15.5 55.289062 14.421875 C 55.316406 14.152344 55.34375 13.910156 55.425781 13.644531 Z M 70.3125 22.898438 C 70.660156 23.167969 70.980469 23.546875 71.195312 23.921875 C 72.6875 26.773438 73.597656 29.789062 73.863281 32.992188 C 74.023438 34.792969 73.96875 36.570312 73.730469 38.320312 C 73.570312 39.261719 73.355469 40.203125 73.167969 41.144531 C 72.769531 40.148438 72.394531 39.152344 71.96875 38.210938 C 71.085938 36.246094 69.78125 34.550781 68.257812 33.015625 C 66.097656 30.890625 63.964844 28.765625 61.828125 26.613281 C 60.039062 24.808594 58.414062 22.898438 57.210938 20.640625 C 57.023438 20.289062 56.839844 19.914062 56.652344 19.535156 C 56.625 19.507812 56.625 19.457031 56.625 19.402344 C 56.679688 19.375 56.730469 19.375 56.785156 19.347656 C 59.535156 19.214844 62.253906 19.347656 64.898438 20.128906 C 66.871094 20.71875 68.714844 21.636719 70.3125 22.898438 Z M 57.453125 24.082031 C 58.839844 25.96875 60.46875 27.664062 62.148438 29.304688 C 63.828125 30.972656 65.5625 32.585938 67.191406 34.308594 C 68.738281 35.921875 69.96875 37.753906 70.820312 39.824219 C 72.234375 43.269531 71.863281 46.5 69.621094 49.484375 C 66.632812 53.46875 62.894531 56.480469 58.277344 58.367188 C 58.171875 58.417969 58.066406 58.445312 57.933594 58.5 C 57.933594 58.394531 57.90625 58.285156 57.90625 58.203125 C 57.800781 55.835938 57.746094 53.441406 57.53125 51.074219 C 57.183594 47.171875 56.492188 43.351562 55.585938 39.53125 C 54.089844 33.125 52.007812 26.910156 49.765625 20.746094 C 49.738281 20.640625 49.6875 20.53125 49.632812 20.398438 C 50.78125 20.207031 51.902344 20.019531 52.996094 19.832031 C 53.34375 19.777344 53.664062 19.722656 54.007812 19.671875 C 54.570312 19.589844 54.835938 19.722656 55.078125 20.261719 C 55.796875 21.609375 56.570312 22.871094 57.453125 24.082031 Z M 34.34375 54.8125 C 32.796875 53.28125 32.128906 52.714844 30.714844 51.074219 C 28.152344 48.140625 26.550781 44.695312 25.671875 40.929688 C 25.589844 40.203125 25.539062 39.476562 25.539062 38.75 C 25.539062 38.507812 25.539062 38.265625 25.511719 38.023438 C 25.617188 37.617188 25.75 37.214844 25.9375 36.839844 C 27.617188 33.234375 30.128906 30.300781 33.222656 27.878906 C 35.0625 26.453125 37.039062 25.292969 39.09375 24.21875 C 39.601562 23.949219 40.082031 23.679688 40.613281 23.382812 C 41.253906 25.214844 41.496094 27.070312 41.359375 28.953125 C 41.199219 31.132812 40.507812 33.207031 39.839844 35.277344 C 38.984375 37.886719 38.050781 40.472656 37.199219 43.109375 C 36.34375 45.71875 35.195312 47.628906 34.984375 50.375 C 34.875 51.664062 34.636719 52.015625 34.609375 53.332031 C 34.609375 53.574219 33.835938 53.765625 33.675781 53.738281 C 33.222656 53.523438 34.371094 54.8125 34.34375 54.8125 Z M 35.996094 23.976562 C 31.703125 26.503906 27.992188 29.761719 25.324219 34.253906 C 25.296875 33.070312 25.324219 31.914062 25.511719 30.785156 C 25.5625 30.460938 25.617188 30.109375 25.671875 29.789062 C 26.390625 26.453125 27.777344 23.355469 29.832031 20.503906 C 30.6875 19.347656 31.753906 18.488281 33.195312 18.164062 C 35.835938 17.570312 38.851562 19.160156 39.867188 21.660156 C 37.652344 22.898438 35.996094 23.976562 35.996094 23.976562 Z M 36.292969 51.585938 C 36.425781 49.082031 37.679688 47.117188 38.453125 44.695312 C 39.171875 42.460938 39.972656 40.230469 40.746094 37.996094 C 41.519531 35.789062 42.269531 33.554688 42.667969 31.242188 C 43.175781 28.414062 43.121094 25.589844 42.269531 22.820312 C 42.269531 22.792969 42.269531 22.765625 42.242188 22.683594 C 42.828125 22.496094 43.363281 22.335938 43.921875 22.144531 C 45.015625 21.796875 46.109375 21.417969 47.207031 21.070312 C 47.820312 20.882812 48.113281 21.015625 48.351562 21.609375 C 50.273438 26.773438 52.035156 32.023438 53.421875 37.375 C 54.328125 40.957031 55.105469 44.589844 55.585938 48.246094 C 55.929688 50.910156 56.25 53.574219 56.25 56.238281 C 56.25 56.859375 56.199219 57.476562 56.144531 58.070312 C 56.117188 58.660156 55.71875 59.121094 55.15625 59.253906 C 50.21875 60.464844 45.390625 60.113281 40.667969 58.257812 C 40.027344 58.015625 39.386719 57.691406 38.746094 57.425781 C 37.597656 56.941406 34.664062 54.761719 34.664062 53.574219 C 34.664062 52.6875 36.238281 52.5 36.292969 51.585938 Z M 54.835938 11.410156 C 53.101562 13.347656 53.554688 15.527344 54.117188 17.734375 C 52.355469 17.894531 50.59375 18.109375 48.886719 18.40625 C 47.765625 16.039062 46.644531 13.644531 45.523438 11.273438 C 45.496094 11.222656 45.496094 11.167969 45.46875 11.113281 C 47.179688 10.46875 52.675781 10.46875 54.835938 11.410156 Z M 42.722656 11.652344 C 43.148438 11.515625 43.601562 11.679688 43.816406 12.082031 C 44.992188 14.289062 46.136719 16.496094 47.285156 18.730469 C 45.417969 19.132812 43.335938 19.992188 41.496094 20.910156 C 40.027344 17.570312 37.4375 16.199219 33.703125 16.628906 C 33.917969 16.441406 34.050781 16.332031 34.183594 16.226562 C 36.71875 14.074219 39.546875 12.539062 42.722656 11.652344 Z M 83.949219 40.984375 C 83.390625 45.828125 81.789062 50.320312 79.199219 54.4375 C 76.425781 58.878906 72.847656 62.5625 68.554688 65.523438 C 63.429688 69.046875 57.824219 71.148438 51.636719 71.6875 C 47.765625 72.035156 43.976562 71.660156 40.265625 70.582031 C 33.648438 68.671875 28.019531 65.09375 23.347656 59.980469 C 19.746094 56.023438 17.078125 51.585938 15.796875 46.308594 C 15.128906 43.566406 14.570312 40.820312 14.648438 37.96875 C 14.675781 36.867188 14.808594 35.761719 14.890625 34.660156 C 15.128906 31.347656 15.929688 28.171875 17.210938 25.105469 C 17.824219 23.625 18.519531 22.171875 19.1875 20.71875 C 19.53125 19.914062 19.453125 19.214844 18.867188 18.539062 C 18.492188 18.136719 18.144531 17.707031 17.796875 17.300781 C 17.160156 16.601562 17.132812 16.738281 17.691406 15.875 C 19.425781 13.183594 21.453125 10.710938 23.589844 8.34375 C 23.800781 8.101562 23.9375 8.046875 24.257812 8.234375 C 27.40625 10.035156 30.554688 11.8125 33.675781 13.617188 C 33.757812 13.644531 34.050781 13.859375 34.238281 13.964844 C 27.671875 18.753906 23.429688 26.558594 23.402344 35.414062 C 23.402344 35.949219 23.429688 36.488281 23.457031 37.027344 C 23.457031 37.054688 23.457031 37.082031 23.457031 37.082031 C 23.457031 37.132812 23.457031 37.214844 23.484375 37.269531 C 23.484375 37.402344 23.507812 37.511719 23.507812 37.644531 C 23.589844 38.613281 23.667969 40.015625 23.9375 41.007812 C 24.523438 45.234375 26.898438 50.023438 30.128906 53.574219 C 36.769531 60.519531 45.175781 63.34375 54.542969 61.59375 C 63.5625 59.898438 69.671875 54.976562 73.515625 46.527344 C 74.261719 44.667969 74.902344 42.382812 75.171875 40.660156 C 75.25 40.257812 75.332031 39.824219 75.382812 39.394531 C 75.4375 39.046875 75.464844 38.667969 75.492188 38.320312 C 75.597656 37.324219 75.675781 36.328125 75.652344 35.304688 C 75.652344 34.09375 75.570312 32.882812 75.410156 31.699219 C 75.410156 31.671875 75.410156 31.644531 75.410156 31.617188 C 74.371094 24.136719 70.179688 17.679688 64.257812 13.589844 C 64.230469 13.5625 64.230469 13.5625 64.203125 13.535156 C 64.203125 13.535156 64.175781 13.535156 64.175781 13.535156 C 64.015625 13.425781 63.855469 13.320312 63.667969 13.210938 C 63.828125 13.078125 64.015625 12.941406 64.070312 12.890625 C 66.738281 11.085938 69.40625 9.285156 72.074219 7.480469 C 72.554688 7.15625 72.769531 7.132812 73.195312 7.535156 C 74.421875 8.636719 75.675781 9.6875 76.851562 10.871094 C 78 12.027344 79.066406 13.292969 80.132812 14.503906 C 80.453125 14.855469 80.425781 15.015625 80.132812 15.390625 C 79.785156 15.875 79.414062 16.359375 79.066406 16.84375 C 78.585938 17.542969 78.507812 18.296875 78.851562 19.050781 C 79.011719 19.402344 79.226562 19.722656 79.414062 20.046875 C 81.574219 23.597656 82.882812 27.472656 83.738281 31.511719 C 84.402344 34.605469 84.324219 37.808594 83.949219 40.984375 Z M 83.949219 40.984375 "/>
<path style=" stroke:none;fill-rule:nonzero;fill:rgb(0%,0%,0%);fill-opacity:1;" d="M 43.46875 63.640625 L 43.46875 64.179688 C 43.816406 64.3125 44.191406 64.421875 44.535156 64.5 C 44.375 64.554688 44.214844 64.582031 44.054688 64.609375 L 44.054688 68 C 44.375 68.105469 44.722656 68.1875 45.042969 68.269531 L 45.042969 63.800781 C 44.777344 63.746094 44.535156 63.667969 44.269531 63.585938 C 44.03125 63.640625 43.734375 63.640625 43.46875 63.640625 Z M 43.46875 63.640625 "/>
<path style=" stroke:none;fill-rule:nonzero;fill:rgb(0%,0%,0%);fill-opacity:1;" d="M 52.914062 64.070312 C 52.730469 64.285156 52.570312 64.472656 52.382812 64.664062 L 52.382812 66.492188 C 52.570312 66.625 52.730469 66.761719 52.914062 66.894531 C 53.210938 66.84375 53.503906 66.789062 53.796875 66.707031 C 53.902344 66.601562 53.984375 66.464844 54.089844 66.359375 L 54.089844 67.460938 C 53.847656 67.515625 53.609375 67.570312 53.371094 67.621094 L 53.371094 67.328125 C 53.050781 67.40625 52.703125 67.460938 52.382812 67.515625 L 52.382812 68.105469 C 52.570312 68.242188 52.730469 68.375 52.914062 68.511719 C 53.476562 68.402344 54.035156 68.269531 54.570312 68.132812 C 54.730469 67.917969 54.917969 67.703125 55.078125 67.488281 L 55.078125 64.042969 C 54.917969 63.910156 54.730469 63.800781 54.570312 63.667969 C 54.007812 63.855469 53.476562 63.964844 52.914062 64.070312 Z M 54.089844 64.90625 L 54.089844 65.847656 C 53.847656 65.898438 53.609375 65.953125 53.371094 66.007812 L 53.371094 64.796875 C 53.796875 64.714844 54.195312 64.609375 54.597656 64.5 C 54.4375 64.636719 54.277344 64.769531 54.089844 64.90625 Z M 54.089844 64.90625 "/>
<path style=" stroke:none;fill-rule:nonzero;fill:rgb(0%,0%,0%);fill-opacity:1;" d="M 46.246094 64.070312 C 46.058594 64.207031 45.898438 64.339844 45.710938 64.472656 L 45.710938 66.304688 C 45.898438 66.519531 46.058594 66.707031 46.246094 66.894531 C 46.539062 66.949219 46.832031 67.003906 47.125 67.03125 C 47.230469 66.949219 47.339844 66.867188 47.417969 66.789062 L 47.417969 67.890625 C 47.179688 67.863281 46.9375 67.835938 46.699219 67.785156 L 46.699219 67.488281 C 46.378906 67.433594 46.03125 67.378906 45.710938 67.300781 L 45.710938 67.890625 C 45.898438 68.105469 46.058594 68.296875 46.246094 68.511719 C 46.804688 68.617188 47.363281 68.671875 47.925781 68.726562 C 48.085938 68.5625 48.273438 68.402344 48.433594 68.269531 L 48.433594 64.824219 C 48.246094 64.636719 48.085938 64.449219 47.898438 64.257812 C 47.363281 64.257812 46.804688 64.179688 46.246094 64.070312 Z M 47.445312 65.363281 L 47.445312 66.304688 C 47.207031 66.277344 46.964844 66.25 46.726562 66.195312 L 46.726562 64.984375 C 47.152344 65.039062 47.550781 65.09375 47.980469 65.148438 C 47.792969 65.226562 47.632812 65.28125 47.445312 65.363281 Z M 47.445312 65.363281 "/>
<path style=" stroke:none;fill-rule:nonzero;fill:rgb(0%,0%,0%);fill-opacity:1;" d="M 49.578125 64.367188 C 49.394531 64.527344 49.234375 64.714844 49.046875 64.878906 L 49.046875 66.707031 C 49.234375 66.867188 49.394531 67.058594 49.578125 67.21875 C 49.875 67.21875 50.195312 67.21875 50.488281 67.191406 C 50.59375 67.085938 50.699219 66.976562 50.78125 66.894531 L 50.78125 68 C 50.539062 68.027344 50.300781 68.027344 50.035156 68.027344 L 50.035156 67.730469 C 49.6875 67.730469 49.367188 67.730469 49.019531 67.730469 L 49.019531 68.320312 C 49.207031 68.484375 49.394531 68.671875 49.554688 68.832031 C 50.113281 68.832031 50.675781 68.804688 51.234375 68.753906 C 51.394531 68.5625 51.582031 68.375 51.742188 68.1875 L 51.742188 64.742188 C 51.554688 64.582031 51.394531 64.449219 51.207031 64.285156 C 50.699219 64.339844 50.140625 64.367188 49.578125 64.367188 Z M 50.78125 65.414062 L 50.78125 66.359375 C 50.539062 66.382812 50.300781 66.382812 50.035156 66.382812 L 50.035156 65.171875 C 50.460938 65.171875 50.859375 65.148438 51.289062 65.09375 C 51.128906 65.226562 50.96875 65.335938 50.78125 65.414062 Z M 50.78125 65.414062 "/>
<path style=" stroke:none;fill-rule:nonzero;fill:rgb(0%,0%,0%);fill-opacity:1;" d="M 73.730469 53.550781 C 73.460938 53.84375 73.25 54.167969 72.984375 54.410156 C 72.101562 55.191406 71.035156 55.378906 69.941406 55.378906 C 68.765625 55.378906 67.617188 55.324219 66.445312 55.324219 C 65.644531 55.324219 64.871094 55.21875 64.125 55.027344 C 63.828125 54.949219 63.484375 54.949219 63.1875 55.027344 C 62.546875 55.191406 61.933594 55.269531 61.292969 55.246094 C 60.601562 55.21875 59.90625 55.191406 59.214844 55.21875 C 58.277344 55.246094 57.34375 55.164062 56.464844 54.867188 C 56.277344 54.8125 56.0625 54.734375 55.90625 54.707031 C 55.15625 54.839844 54.4375 55.082031 53.691406 55.136719 C 52.675781 55.21875 51.636719 55.246094 50.648438 55.109375 C 49.738281 55.003906 48.859375 55.082031 47.953125 55.109375 C 44.722656 55.21875 41.496094 55.21875 38.265625 55.164062 C 37.570312 55.164062 36.851562 54.839844 36.15625 54.679688 C 36.078125 54.652344 35.972656 54.625 35.917969 54.679688 C 35.222656 55.136719 34.449219 55.246094 33.675781 55.296875 C 32.367188 55.378906 31.035156 55.433594 29.726562 55.378906 C 28.710938 55.324219 27.726562 55.082031 26.976562 54.300781 C 26.683594 54.007812 26.472656 53.628906 26.230469 53.28125 C 26.070312 53.46875 25.882812 53.65625 25.75 53.871094 C 25.402344 54.410156 24.921875 54.761719 24.417969 55.109375 C 24.363281 55.164062 24.28125 55.191406 24.203125 55.21875 C 23.375 55.40625 22.546875 55.648438 21.667969 55.648438 C 20.253906 55.648438 18.867188 55.730469 17.453125 55.78125 C 16.117188 55.835938 14.890625 55.511719 13.957031 54.492188 C 13.742188 54.679688 13.554688 54.867188 13.367188 55.054688 C 12.59375 55.78125 11.609375 55.972656 10.621094 56.050781 C 9.019531 56.160156 7.417969 56.265625 5.816406 56.292969 C 4.777344 56.292969 3.734375 56.023438 2.960938 55.246094 C 2.1875 54.492188 1.46875 53.683594 0.71875 52.875 C 0.558594 52.6875 0.480469 52.417969 0.398438 52.175781 C 0.132812 51.34375 0.0546875 50.480469 0.078125 49.59375 C 0.105469 48.730469 0.105469 47.871094 0.078125 47.011719 C 0.0546875 46.09375 0.160156 45.207031 0.398438 44.347656 C 0.558594 43.753906 0.90625 43.324219 1.335938 42.921875 C 2.214844 42.113281 3.363281 42.058594 4.457031 41.871094 C 4.828125 41.816406 5.203125 41.761719 5.605469 41.710938 C 5.605469 41.601562 5.628906 41.492188 5.628906 41.386719 C 5.628906 40.660156 5.628906 39.90625 5.605469 39.179688 C 5.605469 39.070312 5.550781 38.9375 5.496094 38.855469 C 4.9375 38.371094 4.617188 37.78125 4.402344 37.054688 C 4.054688 35.949219 4.242188 34.902344 4.5625 33.878906 C 4.695312 33.5 4.964844 33.125 5.257812 32.855469 C 5.65625 32.507812 6.085938 32.128906 6.671875 32.023438 C 8.59375 31.644531 10.515625 31.1875 12.460938 30.8125 C 14.304688 30.460938 16.171875 30.136719 18.011719 29.84375 C 18.277344 29.789062 18.574219 29.921875 18.867188 29.949219 C 19 29.949219 19.132812 29.921875 19.265625 29.867188 C 19.398438 29.816406 19.53125 29.734375 19.667969 29.707031 C 21.214844 29.4375 22.734375 29.140625 24.28125 28.925781 C 25.9375 28.683594 27.59375 28.550781 29.246094 28.335938 C 29.992188 28.226562 30.632812 28.550781 31.328125 28.683594 C 31.40625 28.710938 31.542969 28.738281 31.59375 28.683594 C 32.261719 28.121094 33.117188 28.066406 33.890625 27.929688 C 34.796875 27.796875 35.730469 27.742188 36.664062 27.714844 C 40.402344 27.582031 44.164062 27.421875 47.898438 27.3125 C 50.058594 27.257812 52.195312 27.3125 54.355469 27.339844 C 54.890625 27.339844 55.449219 27.5 55.984375 27.554688 C 56.25 27.582031 56.625 27.5 56.890625 27.472656 C 57.371094 27.449219 57.691406 27.449219 58.171875 27.449219 C 59.425781 27.472656 60.707031 27.527344 61.960938 27.636719 C 65.03125 27.878906 68.097656 28.148438 71.167969 28.414062 C 72.046875 28.496094 72.902344 28.65625 73.757812 28.765625 C 75.277344 28.953125 76.796875 29.089844 78.292969 29.304688 C 78.988281 29.382812 79.679688 29.519531 80.320312 29.761719 C 80.746094 29.921875 81.09375 29.84375 81.496094 29.789062 C 81.894531 29.761719 82.296875 29.894531 82.695312 29.949219 C 83.898438 30.164062 85.125 30.351562 86.296875 30.703125 C 86.804688 30.835938 87.257812 30.835938 87.765625 30.890625 C 88.378906 30.945312 88.992188 31.105469 89.582031 31.242188 C 91.234375 31.589844 92.914062 31.941406 94.570312 32.34375 C 95.023438 32.453125 95.503906 32.773438 95.851562 33.125 C 96.8125 34.09375 97.691406 35.144531 98.574219 36.191406 C 98.679688 36.328125 98.761719 36.515625 98.8125 36.703125 C 99.238281 37.96875 99.214844 39.261719 99.105469 40.550781 C 99.054688 41.199219 98.785156 41.84375 98.601562 42.460938 C 98.574219 42.515625 98.574219 42.625 98.601562 42.679688 C 98.921875 43.429688 99.105469 44.183594 99.105469 44.992188 C 99.105469 46.847656 99.132812 48.707031 99.105469 50.5625 C 99.078125 51.613281 98.839844 52.605469 98.09375 53.414062 C 98.011719 53.496094 97.90625 53.574219 97.824219 53.65625 C 97.238281 54.085938 96.652344 54.492188 96.117188 54.976562 C 95.34375 55.648438 94.464844 56.050781 93.449219 56.214844 C 93.316406 56.238281 93.183594 56.238281 93.050781 56.238281 C 91.394531 56.160156 89.714844 56.160156 88.085938 55.996094 C 87.207031 55.917969 86.269531 55.78125 85.578125 55.109375 C 85.417969 54.949219 85.285156 54.976562 85.125 55.109375 C 84.457031 55.621094 83.65625 55.753906 82.882812 55.78125 C 81.121094 55.808594 79.359375 55.730469 77.597656 55.621094 C 76.558594 55.566406 75.515625 55.378906 74.71875 54.625 C 74.289062 54.25 74.023438 53.898438 73.730469 53.550781 Z M 73.730469 53.550781 "/>
<path style=" stroke:none;fill-rule:nonzero;fill:rgb(100%,100%,100%);fill-opacity:1;" d="M 7.660156 35.195312 C 7.660156 35.4375 7.660156 35.679688 7.660156 35.921875 C 8.140625 36.191406 8.617188 36.460938 9.097656 36.730469 C 9.097656 40.875 9.125 44.992188 9.125 49.136719 C 8.433594 49.191406 7.738281 49.242188 7.019531 49.296875 C 7.019531 47.84375 7.019531 46.417969 7.019531 44.964844 C 5.871094 45.101562 4.722656 45.261719 3.550781 45.394531 L 3.550781 50.722656 C 4.164062 51.316406 4.75 51.90625 5.363281 52.527344 C 7.179688 52.445312 8.992188 52.339844 10.808594 52.257812 C 11.394531 51.585938 12.007812 50.886719 12.59375 50.210938 C 12.570312 44.882812 12.542969 39.554688 12.515625 34.203125 C 10.914062 34.523438 9.285156 34.847656 7.660156 35.195312 Z M 20.839844 32.800781 C 20.867188 37.996094 20.894531 43.164062 20.921875 48.355469 C 20.011719 48.410156 19.105469 48.464844 18.199219 48.515625 C 18.171875 43.429688 18.144531 38.320312 18.117188 33.234375 C 16.519531 33.476562 14.917969 33.769531 13.316406 34.066406 C 13.316406 34.308594 13.316406 34.578125 13.316406 34.820312 C 13.769531 35.117188 14.25 35.414062 14.703125 35.707031 C 14.730469 40.472656 14.757812 45.234375 14.785156 49.996094 C 15.398438 50.667969 16.011719 51.34375 16.625 52.015625 C 18.625 51.933594 20.601562 51.878906 22.601562 51.800781 C 23.1875 51.046875 23.800781 50.292969 24.390625 49.511719 C 24.363281 43.78125 24.335938 38.050781 24.28125 32.316406 C 23.136719 32.480469 21.988281 32.640625 20.839844 32.800781 Z M 31.863281 43.941406 C 31.78125 45.34375 31.703125 46.742188 31.59375 48.113281 C 31.488281 46.714844 31.382812 45.34375 31.300781 43.96875 C 30.714844 39.878906 30.152344 35.789062 29.566406 31.753906 C 27.992188 31.914062 26.445312 32.074219 24.871094 32.289062 C 24.871094 32.558594 24.871094 32.828125 24.871094 33.097656 C 25.351562 33.449219 25.832031 33.796875 26.335938 34.175781 C 27.351562 39.933594 28.367188 45.746094 29.351562 51.664062 C 30.847656 51.636719 32.367188 51.613281 33.863281 51.585938 C 34.929688 44.832031 35.996094 38.023438 37.089844 31.160156 C 35.890625 31.242188 34.691406 31.320312 33.488281 31.429688 C 32.957031 35.601562 32.421875 39.773438 31.863281 43.941406 Z M 46.484375 47.144531 C 44.804688 47.144531 43.121094 47.171875 41.414062 47.199219 C 41.414062 45.636719 41.414062 44.105469 41.414062 42.542969 C 42.9375 42.515625 44.429688 42.488281 45.949219 42.460938 C 45.949219 41.226562 45.949219 40.015625 45.949219 38.777344 C 44.429688 38.804688 42.910156 38.828125 41.414062 38.882812 C 41.414062 37.914062 41.414062 36.945312 41.414062 36.003906 C 40.480469 35.734375 39.546875 35.464844 38.613281 35.195312 C 41.226562 35.0625 43.871094 35.007812 46.484375 34.953125 C 47.019531 33.851562 47.578125 32.722656 48.113281 31.617188 C 48.113281 31.320312 48.113281 31.054688 48.113281 30.757812 C 44.644531 30.785156 41.175781 30.890625 37.707031 31.105469 C 37.730469 37.886719 37.757812 44.667969 37.785156 51.449219 C 41.226562 51.421875 44.671875 51.394531 48.113281 51.394531 C 48.113281 51.101562 48.113281 50.804688 48.113281 50.507812 C 47.578125 49.378906 47.019531 48.273438 46.484375 47.144531 Z M 57.238281 31.699219 C 57.691406 32.128906 58.144531 32.558594 58.597656 32.992188 C 58.597656 35.871094 58.574219 38.777344 58.574219 41.65625 C 58.734375 43.1875 58.867188 44.695312 59.027344 46.230469 C 58.707031 44.75 58.414062 43.269531 58.09375 41.761719 C 57.050781 38.128906 55.984375 34.46875 54.945312 30.785156 C 52.914062 30.730469 50.859375 30.703125 48.832031 30.730469 C 48.832031 31 48.832031 31.296875 48.832031 31.5625 C 49.339844 31.996094 49.820312 32.453125 50.300781 32.910156 C 50.300781 39.070312 50.300781 45.234375 50.300781 51.394531 C 51.527344 51.394531 52.753906 51.394531 53.984375 51.394531 C 53.984375 47.710938 53.984375 44.050781 54.007812 40.363281 C 53.824219 38.640625 53.636719 36.890625 53.449219 35.144531 C 53.824219 36.867188 54.167969 38.585938 54.542969 40.308594 C 55.609375 44.023438 56.652344 47.710938 57.691406 51.394531 C 59.214844 51.421875 60.734375 51.421875 62.253906 51.449219 C 62.28125 44.667969 62.308594 37.859375 62.335938 31.078125 C 60.652344 30.972656 58.945312 30.890625 57.265625 30.835938 C 57.238281 31.160156 57.238281 31.429688 57.238281 31.699219 Z M 62.816406 37.296875 C 63.003906 37.296875 63.1875 37.324219 63.375 37.324219 C 63.722656 36.675781 64.070312 36.03125 64.390625 35.386719 C 64.976562 35.414062 65.5625 35.464844 66.152344 35.492188 C 66.125 40.28125 66.097656 45.074219 66.097656 49.890625 C 65.804688 50.160156 65.484375 50.425781 65.191406 50.695312 C 65.191406 50.992188 65.191406 51.289062 65.191406 51.558594 C 66.976562 51.585938 68.792969 51.636719 70.582031 51.664062 C 70.582031 51.371094 70.582031 51.101562 70.582031 50.804688 C 70.289062 50.535156 69.992188 50.265625 69.699219 49.96875 C 69.726562 45.234375 69.753906 40.5 69.78125 35.761719 C 70.339844 35.816406 70.929688 35.871094 71.488281 35.921875 C 71.835938 36.597656 72.15625 37.296875 72.503906 37.96875 C 72.6875 37.996094 72.902344 37.996094 73.089844 38.023438 C 73.089844 36.058594 73.117188 34.09375 73.117188 32.101562 C 69.699219 31.699219 66.285156 31.402344 62.867188 31.160156 C 62.84375 33.207031 62.816406 35.25 62.816406 37.296875 Z M 81.363281 48.542969 C 80.453125 48.488281 79.546875 48.4375 78.640625 48.382812 C 78.667969 43.214844 78.691406 38.023438 78.71875 32.855469 C 77.117188 32.613281 75.492188 32.398438 73.890625 32.210938 C 73.890625 32.480469 73.890625 32.75 73.890625 33.015625 C 74.34375 33.476562 74.824219 33.933594 75.277344 34.390625 C 75.25 39.449219 75.222656 44.507812 75.199219 49.539062 C 75.8125 50.320312 76.398438 51.074219 77.011719 51.828125 C 79.011719 51.878906 80.988281 51.960938 82.988281 52.042969 C 83.601562 51.371094 84.191406 50.667969 84.804688 50.023438 C 84.832031 44.640625 84.855469 39.234375 84.882812 33.851562 C 83.738281 33.636719 82.589844 33.449219 81.46875 33.257812 C 81.414062 38.34375 81.386719 43.429688 81.363281 48.542969 Z M 95.425781 40.523438 C 95.425781 39.664062 95.425781 38.777344 95.425781 37.914062 C 94.675781 37.132812 93.902344 36.328125 93.15625 35.492188 C 91.261719 35.0625 89.339844 34.6875 87.445312 34.308594 C 86.777344 34.847656 86.136719 35.414062 85.472656 35.976562 C 85.472656 38.210938 85.445312 40.445312 85.445312 42.703125 C 86.136719 43.429688 86.804688 44.132812 87.5 44.832031 C 88.964844 44.992188 90.433594 45.152344 91.875 45.316406 C 91.875 46.550781 91.875 47.816406 91.875 49.054688 C 90.886719 48.972656 89.925781 48.894531 88.941406 48.839844 C 88.941406 48.273438 88.941406 47.738281 88.941406 47.171875 C 87.765625 47.0625 86.589844 46.957031 85.417969 46.875 C 85.417969 47.953125 85.417969 49 85.390625 50.078125 C 86.164062 50.832031 86.9375 51.558594 87.710938 52.257812 C 89.527344 52.339844 91.339844 52.417969 93.15625 52.5 C 93.902344 51.90625 94.652344 51.34375 95.398438 50.777344 C 95.398438 48.625 95.398438 46.5 95.398438 44.347656 C 94.675781 43.648438 93.929688 42.945312 93.210938 42.246094 C 91.796875 42.003906 90.382812 41.789062 88.941406 41.601562 C 88.941406 40.714844 88.941406 39.824219 88.941406 38.9375 C 88.03125 38.453125 87.125 37.996094 86.191406 37.511719 C 88.085938 37.808594 89.953125 38.128906 91.847656 38.480469 C 91.847656 38.964844 91.847656 39.449219 91.847656 39.933594 C 93.074219 40.09375 94.25 40.308594 95.425781 40.523438 Z M 95.425781 40.523438 "/>
<path style=" stroke:none;fill-rule:nonzero;fill:rgb(82.352941%,82.352941%,80.392157%);fill-opacity:1;" d="M 60.441406 33.015625 L 60.492188 51.476562 L 62.230469 51.503906 L 62.28125 31.132812 Z M 60.441406 33.015625 "/>
<path style=" stroke:none;fill-rule:nonzero;fill:rgb(82.352941%,82.352941%,80.392157%);fill-opacity:1;" d="M 58.039062 41.601562 L 54.945312 30.785156 L 53.714844 32.34375 L 58.785156 51.421875 L 59.027344 46.175781 Z M 58.039062 41.601562 "/>
<path style=" stroke:none;fill-rule:nonzero;fill:rgb(82.352941%,82.352941%,80.392157%);fill-opacity:1;" d="M 69.699219 49.941406 L 69.753906 35.789062 L 67.886719 37.78125 L 67.859375 51.585938 L 70.582031 51.664062 L 70.582031 50.777344 Z M 69.699219 49.941406 "/>
<path style=" stroke:none;fill-rule:nonzero;fill:rgb(82.352941%,82.352941%,80.392157%);fill-opacity:1;" d="M 7.019531 44.964844 L 5.203125 47.035156 L 5.390625 52.527344 L 7.042969 49.296875 Z M 7.019531 44.964844 "/>
<path style=" stroke:none;fill-rule:nonzero;fill:rgb(82.352941%,82.352941%,80.392157%);fill-opacity:1;" d="M 53.421875 35.222656 L 52.195312 37.375 L 52.007812 51.394531 L 53.984375 51.421875 L 53.984375 40.363281 Z M 53.421875 35.222656 "/>
<path style=" stroke:none;fill-rule:nonzero;fill:rgb(82.352941%,82.352941%,80.392157%);fill-opacity:1;" d="M 12.542969 34.203125 L 10.59375 37.054688 L 10.832031 52.257812 L 12.621094 50.210938 Z M 12.542969 34.203125 "/>
<path style=" stroke:none;fill-rule:nonzero;fill:rgb(82.352941%,82.352941%,80.392157%);fill-opacity:1;" d="M 24.28125 32.34375 L 22.441406 34.710938 L 22.574219 51.828125 L 24.363281 49.539062 Z M 24.28125 32.34375 "/>
<path style=" stroke:none;fill-rule:nonzero;fill:rgb(82.352941%,82.352941%,80.392157%);fill-opacity:1;" d="M 18.117188 33.234375 L 16.25 35.222656 L 16.25 48.652344 L 16.597656 52.015625 L 18.199219 48.515625 Z M 18.117188 33.234375 "/>
<path style=" stroke:none;fill-rule:nonzero;fill:rgb(82.352941%,82.352941%,80.392157%);fill-opacity:1;" d="M 90.246094 43.242188 L 85.445312 42.679688 L 87.5 44.804688 L 91.875 45.289062 Z M 90.246094 43.242188 "/>
<path style=" stroke:none;fill-rule:nonzero;fill:rgb(82.352941%,82.352941%,80.392157%);fill-opacity:1;" d="M 86.246094 37.484375 L 87.152344 39.394531 L 87.152344 41.332031 L 88.964844 41.574219 L 88.992188 38.910156 Z M 86.246094 37.484375 "/>
<path style=" stroke:none;fill-rule:nonzero;fill:rgb(82.352941%,82.352941%,80.392157%);fill-opacity:1;" d="M 87.632812 47.898438 L 87.738281 52.203125 L 88.941406 48.8125 L 88.941406 47.144531 Z M 87.632812 47.898438 "/>
<path style=" stroke:none;fill-rule:nonzero;fill:rgb(82.352941%,82.352941%,80.392157%);fill-opacity:1;" d="M 34.929688 33.636719 L 32.046875 51.585938 L 33.890625 51.558594 L 37.117188 31.132812 Z M 34.929688 33.636719 "/>
<path style=" stroke:none;fill-rule:nonzero;fill:rgb(82.352941%,82.352941%,80.392157%);fill-opacity:1;" d="M 48.113281 30.757812 L 44.9375 33.042969 L 42.320312 33.984375 L 38.613281 35.195312 L 46.484375 34.953125 L 48.113281 31.617188 Z M 48.113281 30.757812 "/>
<path style=" stroke:none;fill-rule:nonzero;fill:rgb(82.352941%,82.352941%,80.392157%);fill-opacity:1;" d="M 45.949219 38.777344 L 43.816406 40.792969 L 39.28125 42.597656 L 45.949219 42.488281 Z M 45.949219 38.777344 "/>
<path style=" stroke:none;fill-rule:nonzero;fill:rgb(82.352941%,82.352941%,80.392157%);fill-opacity:1;" d="M 46.484375 47.144531 L 44.855469 49.457031 L 37.730469 51.421875 L 48.113281 51.394531 L 48.113281 50.507812 Z M 46.484375 47.144531 "/>
<path style=" stroke:none;fill-rule:nonzero;fill:rgb(82.352941%,82.352941%,80.392157%);fill-opacity:1;" d="M 28.152344 34.496094 L 29.59375 31.753906 L 31.328125 43.96875 L 31.621094 48.113281 L 30.765625 51.613281 Z M 28.152344 34.496094 "/>
<path style=" stroke:none;fill-rule:nonzero;fill:rgb(82.352941%,82.352941%,80.392157%);fill-opacity:1;" d="M 83.175781 35.222656 L 82.988281 52.042969 L 84.804688 49.996094 L 84.882812 33.824219 Z M 83.175781 35.222656 "/>
<path style=" stroke:none;fill-rule:nonzero;fill:rgb(82.352941%,82.352941%,80.392157%);fill-opacity:1;" d="M 77.039062 34.496094 L 77.011719 51.828125 L 78.667969 48.382812 L 78.746094 32.828125 Z M 77.039062 34.496094 "/>
<path style=" stroke:none;fill-rule:nonzero;fill:rgb(82.352941%,82.352941%,80.392157%);fill-opacity:1;" d="M 70.207031 33.90625 L 64.042969 34.308594 L 62.816406 37.296875 L 63.375 37.324219 L 64.390625 35.386719 L 71.460938 35.921875 L 72.476562 37.96875 L 73.0625 38.023438 L 73.089844 32.101562 Z M 70.207031 33.90625 "/>
<path style=" stroke:none;fill-rule:nonzero;fill:rgb(82.352941%,82.352941%,80.392157%);fill-opacity:1;" d="M 95.425781 44.320312 L 93.261719 45.503906 L 93.183594 52.472656 L 95.425781 50.777344 Z M 95.425781 44.320312 "/>
<path style=" stroke:none;fill-rule:nonzero;fill:rgb(82.352941%,82.352941%,80.392157%);fill-opacity:1;" d="M 93.15625 35.492188 L 90.96875 37 L 86.246094 37.484375 L 91.902344 38.425781 L 91.902344 39.90625 L 95.425781 40.523438 L 95.425781 37.886719 Z M 93.15625 35.492188 "/>
<path style=" stroke:none;fill-rule:nonzero;fill:rgb(100%,100%,100%);fill-opacity:1;" d="M 96.972656 42.515625 C 97.71875 41.871094 97.851562 40.957031 97.851562 40.203125 L 97.851562 39.878906 C 97.851562 39.367188 97.851562 38.804688 97.851562 38.265625 C 97.824219 37.402344 97.53125 36.675781 97 36.085938 C 96.546875 35.601562 96.066406 35.117188 95.636719 34.632812 C 95.449219 34.417969 95.238281 34.203125 95.050781 34.011719 C 94.625 33.554688 94.144531 33.285156 93.582031 33.179688 C 91.449219 32.75 89.820312 32.398438 88.273438 32.046875 C 87.980469 31.996094 87.6875 31.941406 87.445312 31.941406 C 87.097656 31.941406 86.777344 31.996094 86.484375 32.101562 C 85.871094 31.5625 85.125 31.457031 84.75 31.375 L 84.695312 31.375 C 83.84375 31.242188 82.9375 31.105469 82.054688 30.917969 C 81.839844 30.890625 81.65625 30.863281 81.441406 30.863281 C 81.042969 30.863281 80.667969 30.945312 80.347656 31.105469 C 80 30.785156 79.574219 30.570312 79.09375 30.488281 C 78.933594 30.460938 78.773438 30.433594 78.585938 30.40625 C 78.132812 30.328125 77.679688 30.246094 77.226562 30.191406 C 76.53125 30.109375 75.8125 30.03125 75.144531 29.949219 C 74.636719 29.894531 74.128906 29.84375 73.597656 29.789062 C 73.007812 29.734375 72.449219 29.652344 71.863281 29.574219 C 70.769531 29.4375 69.648438 29.304688 68.527344 29.195312 C 66.203125 28.980469 63.9375 28.820312 62.015625 28.683594 C 60.359375 28.578125 58.8125 28.496094 57.320312 28.46875 L 57.265625 28.46875 C 56.863281 28.46875 56.542969 28.605469 56.25 28.683594 C 56.199219 28.710938 56.144531 28.710938 56.089844 28.738281 C 55.664062 28.496094 55.183594 28.363281 54.597656 28.363281 C 53.984375 28.363281 53.394531 28.335938 52.78125 28.335938 C 51.714844 28.308594 50.621094 28.308594 49.527344 28.308594 C 48.804688 28.308594 48.164062 28.308594 47.550781 28.335938 C 43.949219 28.441406 40.265625 28.578125 36.71875 28.738281 L 35.332031 28.792969 C 34.554688 28.820312 33.703125 28.925781 32.742188 29.089844 C 32.074219 29.195312 31.566406 29.574219 31.222656 30.136719 C 30.765625 29.625 30.128906 29.332031 29.351562 29.332031 C 29.246094 29.332031 29.140625 29.332031 29.03125 29.359375 C 27.59375 29.492188 26.125 29.679688 24.710938 29.84375 C 24.390625 29.867188 24.070312 29.921875 23.75 29.949219 C 23.109375 30.03125 22.46875 30.109375 21.855469 30.191406 C 21.507812 30.246094 21.1875 30.300781 20.839844 30.328125 C 20.386719 30.378906 19.613281 30.488281 19 31.054688 C 18.679688 30.890625 18.332031 30.8125 18.011719 30.8125 C 17.90625 30.8125 17.796875 30.8125 17.691406 30.835938 C 15.957031 31.105469 14.222656 31.429688 12.59375 31.726562 C 11.179688 31.996094 9.765625 32.289062 8.40625 32.558594 C 7.898438 32.667969 7.417969 32.773438 6.910156 32.855469 C 6.136719 33.015625 5.496094 33.554688 5.257812 34.28125 C 5.125 34.6875 4.882812 35.519531 5.070312 36.40625 C 5.230469 37.242188 5.738281 37.886719 6.457031 38.292969 C 6.457031 39.234375 6.457031 40.203125 6.457031 41.144531 C 6.457031 41.546875 6.457031 41.976562 6.457031 42.382812 C 6.457031 42.4375 6.457031 42.488281 6.457031 42.542969 C 5.496094 42.652344 4.535156 42.785156 3.574219 42.894531 L 3.496094 42.894531 C 1.789062 43.109375 0.960938 43.996094 0.90625 45.636719 C 0.855469 47.089844 0.878906 48.542969 0.878906 49.96875 L 0.878906 50.589844 C 0.878906 51.421875 1.121094 52.070312 1.601562 52.554688 C 2.214844 53.171875 2.855469 53.792969 3.523438 54.4375 C 3.976562 54.867188 4.589844 55.082031 5.308594 55.082031 C 5.363281 55.082031 5.390625 55.082031 5.445312 55.082031 C 7.257812 55.003906 9.074219 54.921875 10.59375 54.839844 C 11.449219 54.785156 12.140625 54.4375 12.648438 53.816406 C 12.941406 53.441406 13.261719 53.089844 13.582031 52.714844 C 13.875 53.039062 14.144531 53.332031 14.410156 53.65625 C 14.945312 54.277344 15.664062 54.597656 16.464844 54.597656 L 16.519531 54.597656 C 18.253906 54.570312 20.09375 54.492188 22.175781 54.410156 C 23.1875 54.355469 24.230469 53.738281 24.789062 52.957031 C 25.164062 52.417969 25.324219 52.203125 25.699219 51.558594 L 25.910156 51.234375 C 26.175781 50.777344 26.203125 50.75 26.335938 50.507812 C 26.445312 51.046875 26.605469 51.558594 26.710938 52.070312 C 26.84375 52.847656 27.378906 54.167969 29.328125 54.222656 C 29.59375 54.222656 29.886719 54.222656 30.152344 54.222656 C 31.246094 54.222656 32.367188 54.195312 33.597656 54.113281 C 34.53125 54.058594 35.222656 53.710938 35.652344 53.089844 C 36.105469 53.710938 36.851562 54.035156 37.839844 54.035156 C 41.519531 54.035156 44.722656 54.007812 47.683594 53.980469 C 48.085938 53.980469 48.460938 53.84375 48.726562 53.738281 C 48.804688 53.710938 48.886719 53.683594 48.941406 53.65625 C 48.992188 53.683594 49.074219 53.710938 49.152344 53.738281 C 49.421875 53.84375 49.738281 53.980469 50.113281 53.980469 C 50.726562 54.007812 51.367188 54.007812 52.035156 54.007812 C 52.515625 54.007812 53.023438 54.007812 53.554688 53.980469 C 54.597656 53.953125 55.210938 53.574219 55.558594 53.144531 C 55.691406 53.28125 55.851562 53.441406 56.011719 53.550781 C 56.492188 53.84375 57.078125 54.007812 57.613281 54.035156 C 58.4375 54.058594 59.292969 54.058594 60.09375 54.085938 C 60.546875 54.085938 61 54.085938 61.453125 54.085938 C 61.480469 54.085938 61.535156 54.085938 61.5625 54.085938 C 61.882812 54.085938 62.683594 54.085938 63.402344 53.574219 C 64.125 54.113281 64.921875 54.140625 65.269531 54.140625 C 65.859375 54.140625 66.445312 54.167969 67.03125 54.195312 C 68.019531 54.222656 69.03125 54.25 70.019531 54.25 L 70.046875 54.25 C 71.542969 54.25 72.554688 53.414062 72.742188 52.015625 C 72.769531 51.773438 72.824219 51.371094 72.796875 50.910156 C 72.875 51.074219 72.984375 51.207031 73.089844 51.34375 L 73.328125 51.613281 C 73.730469 52.097656 74.101562 52.554688 74.421875 53.011719 C 75.039062 53.925781 75.945312 54.382812 77.171875 54.410156 C 77.972656 54.4375 78.800781 54.464844 79.601562 54.492188 C 80.535156 54.519531 81.496094 54.542969 82.457031 54.570312 C 82.480469 54.570312 82.507812 54.570312 82.535156 54.570312 C 83.417969 54.570312 84.136719 54.25 84.671875 53.628906 C 84.75 53.523438 84.832031 53.441406 84.910156 53.332031 C 85.097656 53.523438 85.285156 53.683594 85.472656 53.871094 C 86.03125 54.4375 86.75 54.734375 87.578125 54.785156 C 89.207031 54.867188 90.914062 54.949219 92.648438 55.003906 C 92.675781 55.003906 92.730469 55.003906 92.753906 55.003906 C 93.371094 55.003906 93.957031 54.8125 94.4375 54.4375 C 94.570312 54.328125 94.703125 54.222656 94.863281 54.113281 C 95.34375 53.738281 95.796875 53.386719 96.277344 53.066406 C 97.160156 52.472656 97.613281 51.585938 97.613281 50.453125 C 97.613281 49.96875 97.613281 49.511719 97.613281 49.027344 C 97.613281 47.683594 97.613281 46.285156 97.613281 44.9375 C 97.851562 43.996094 97.558594 43.164062 96.972656 42.515625 Z M 96.039062 42.894531 C 96.730469 43.429688 96.945312 44.15625 96.945312 45.019531 C 96.917969 46.847656 96.945312 48.707031 96.945312 50.535156 C 96.945312 51.316406 96.707031 51.933594 96.011719 52.363281 C 95.34375 52.796875 94.757812 53.308594 94.117188 53.792969 C 93.769531 54.058594 93.394531 54.167969 92.996094 54.167969 C 92.96875 54.167969 92.941406 54.167969 92.914062 54.167969 C 91.234375 54.113281 89.554688 54.035156 87.871094 53.953125 C 87.3125 53.925781 86.777344 53.738281 86.351562 53.308594 C 85.953125 52.902344 85.496094 52.527344 85.070312 52.121094 C 84.777344 52.472656 84.484375 52.796875 84.191406 53.117188 C 83.816406 53.574219 83.308594 53.765625 82.75 53.765625 C 82.722656 53.765625 82.695312 53.765625 82.695312 53.765625 C 80.933594 53.710938 79.171875 53.65625 77.414062 53.601562 C 76.585938 53.574219 75.890625 53.253906 75.410156 52.605469 C 75.410156 52.605469 75.382812 52.582031 75.382812 52.582031 L 72.394531 48.785156 L 72.183594 51.128906 C 72.128906 51.449219 72.101562 51.746094 72.074219 51.960938 C 71.941406 53.011719 71.167969 53.386719 70.289062 53.386719 C 70.289062 53.386719 70.289062 53.386719 70.261719 53.386719 C 68.6875 53.386719 67.085938 53.308594 65.511719 53.28125 C 64.710938 53.253906 64.042969 53.066406 63.644531 52.203125 C 63.214844 53.039062 62.546875 53.226562 61.773438 53.226562 C 61.75 53.226562 61.722656 53.226562 61.695312 53.226562 C 60.414062 53.199219 59.160156 53.226562 57.878906 53.171875 C 57.480469 53.144531 57.050781 53.011719 56.703125 52.824219 C 56.464844 52.6875 56.277344 52.390625 56.171875 52.097656 L 55.636719 50.050781 L 55.316406 52.121094 C 55.289062 52.175781 55.265625 52.257812 55.210938 52.363281 C 54.917969 52.957031 54.328125 53.117188 53.714844 53.144531 C 53.210938 53.144531 52.730469 53.171875 52.222656 53.171875 C 51.582031 53.171875 50.96875 53.171875 50.328125 53.144531 C 49.980469 53.144531 49.632812 52.929688 49.285156 52.824219 C 49.234375 52.796875 49.152344 52.796875 49.101562 52.796875 C 49.046875 52.796875 49.019531 52.796875 48.992188 52.824219 C 48.59375 52.929688 48.21875 53.144531 47.84375 53.144531 C 44.5625 53.199219 41.28125 53.199219 38 53.199219 C 37.359375 53.199219 36.746094 53.066406 36.425781 52.417969 C 36.265625 52.097656 36.316406 52.175781 36.238281 51.960938 C 36.210938 51.878906 36.210938 51.828125 36.183594 51.746094 L 35.8125 49.324219 C 35.8125 49.324219 35.542969 50.910156 35.4375 51.664062 C 35.4375 51.71875 35.410156 51.773438 35.382812 51.878906 C 35.195312 52.929688 34.582031 53.253906 33.730469 53.28125 C 32.609375 53.332031 31.460938 53.386719 30.339844 53.386719 C 30.074219 53.386719 29.808594 53.386719 29.511719 53.386719 C 28.820312 53.386719 28.230469 53.171875 27.9375 52.527344 L 26.84375 48.488281 L 26.257812 49.40625 L 24.070312 52.769531 C 23.644531 53.28125 22.921875 53.574219 22.308594 53.601562 C 20.441406 53.683594 18.546875 53.738281 16.652344 53.792969 C 16.625 53.792969 16.625 53.792969 16.597656 53.792969 C 16.0625 53.792969 15.609375 53.574219 15.238281 53.171875 C 14.730469 52.605469 14.222656 52.042969 13.714844 51.476562 C 13.15625 52.121094 12.59375 52.714844 12.089844 53.359375 C 11.714844 53.816406 11.234375 54.035156 10.675781 54.058594 C 8.964844 54.140625 7.257812 54.25 5.523438 54.300781 C 5.496094 54.300781 5.445312 54.300781 5.417969 54.300781 C 4.988281 54.300781 4.589844 54.195312 4.269531 53.898438 C 3.628906 53.28125 2.988281 52.660156 2.375 52.042969 C 2.027344 51.691406 1.921875 51.207031 1.921875 50.722656 C 1.867188 49 1.839844 47.359375 1.894531 45.746094 C 1.921875 44.617188 2.347656 44.050781 3.683594 43.890625 C 4.695312 43.753906 5.710938 43.621094 6.75 43.511719 C 6.777344 43.511719 6.804688 43.511719 6.832031 43.511719 C 7.019531 43.511719 7.203125 43.566406 7.417969 43.59375 C 7.417969 43.214844 7.417969 42.8125 7.417969 42.4375 C 7.417969 40.984375 7.390625 39.554688 7.390625 38.101562 C 7.390625 37.886719 7.339844 37.726562 7.125 37.644531 C 5.765625 37.082031 5.816406 35.574219 6.136719 34.660156 C 6.296875 34.226562 6.644531 33.933594 7.125 33.824219 C 9.019531 33.449219 10.914062 33.042969 12.808594 32.695312 C 14.488281 32.371094 16.171875 32.046875 17.878906 31.804688 C 17.933594 31.804688 18.011719 31.78125 18.066406 31.78125 C 18.492188 31.78125 18.917969 32.023438 19.265625 32.398438 C 19.585938 31.589844 20.308594 31.402344 21.054688 31.296875 C 22.015625 31.160156 22.976562 31.027344 23.9375 30.890625 C 25.699219 30.675781 27.457031 30.460938 29.21875 30.300781 C 29.300781 30.300781 29.378906 30.300781 29.460938 30.300781 C 30.3125 30.300781 30.980469 30.785156 31.113281 32.023438 C 31.195312 32.695312 31.300781 33.367188 31.488281 34.066406 C 31.566406 33.5 31.621094 32.9375 31.726562 32.371094 C 31.78125 31.941406 31.835938 31.511719 31.941406 31.078125 C 32.074219 30.515625 32.421875 30.136719 32.980469 30.03125 C 33.808594 29.894531 34.636719 29.789062 35.464844 29.761719 C 39.519531 29.574219 43.601562 29.410156 47.660156 29.304688 C 48.300781 29.277344 48.964844 29.277344 49.605469 29.277344 C 51.289062 29.277344 52.96875 29.332031 54.648438 29.332031 C 55.105469 29.332031 55.53125 29.4375 55.90625 29.707031 C 55.929688 29.734375 56.011719 29.789062 56.0625 29.816406 C 56.117188 29.761719 56.199219 29.734375 56.25 29.679688 C 56.492188 29.574219 56.972656 29.410156 57.320312 29.410156 C 57.320312 29.410156 57.34375 29.410156 57.34375 29.410156 C 58.894531 29.4375 60.441406 29.519531 61.988281 29.625 C 64.148438 29.761719 66.3125 29.921875 68.472656 30.136719 C 70.152344 30.300781 71.835938 30.542969 73.515625 30.730469 C 74.71875 30.863281 75.945312 31 77.144531 31.132812 C 77.757812 31.214844 78.371094 31.320312 78.988281 31.429688 C 79.574219 31.511719 79.921875 31.886719 80.1875 32.398438 C 80.5625 31.996094 80.988281 31.804688 81.496094 31.804688 C 81.628906 31.804688 81.789062 31.832031 81.921875 31.859375 C 82.828125 32.023438 83.738281 32.183594 84.644531 32.316406 C 85.3125 32.425781 85.953125 32.613281 86.269531 33.3125 C 86.644531 32.992188 87.046875 32.882812 87.445312 32.882812 C 87.660156 32.882812 87.871094 32.910156 88.085938 32.964844 C 89.847656 33.339844 91.636719 33.71875 93.421875 34.09375 C 93.824219 34.175781 94.144531 34.363281 94.410156 34.660156 C 95.078125 35.359375 95.71875 36.058594 96.386719 36.757812 C 96.8125 37.1875 96.972656 37.726562 97 38.292969 C 97.023438 38.9375 97 39.554688 97 40.203125 C 97 41.304688 96.707031 42.03125 95.398438 42.246094 C 95.585938 42.460938 95.796875 42.703125 96.039062 42.894531 Z M 96.039062 42.894531 "/>
<path style=" stroke:none;fill-rule:nonzero;fill:rgb(100%,100%,100%);fill-opacity:1;" d="M 52.675781 22.628906 L 50.085938 19.886719 L 52.222656 18.945312 L 49.632812 19.160156 L 49.6875 17.007812 L 48.699219 18.945312 L 46.75 16.011719 L 47.820312 19.160156 L 45.308594 18.296875 L 46.75 19.5625 L 44.695312 20.425781 L 47.417969 20.425781 L 46.964844 22.710938 L 48.566406 21.042969 L 50.488281 25.1875 L 49.632812 21.042969 Z M 52.675781 22.628906 "/>
</g>
</svg>
