<?xml version="1.0" encoding="UTF-8"?>
<svg xmlns="http://www.w3.org/2000/svg" xmlns:xlink="http://www.w3.org/1999/xlink" width="100px" height="122px" viewBox="0 0 100 121" version="1.1">
<g id="surface1">
<path style=" stroke:none;fill-rule:nonzero;fill:rgb(65.490196%,66.27451%,67.45098%);fill-opacity:1;" d="M 98.417969 50.570312 C 98.417969 50.570312 99.292969 52.214844 100 53.226562 C 98.351562 63.089844 94.78125 83.074219 80.578125 103.117188 C 74.546875 111.714844 68.347656 117.867188 64.488281 121 C 50.386719 114.367188 34.277344 101.546875 22.550781 85.839844 C 10.824219 70.132812 1.601562 48.988281 0 32.808594 C 1.59375 31.078125 3.90625 28.972656 3.90625 28.972656 C 3.90625 28.972656 3.203125 19.820312 2.628906 14.175781 C 2.191406 11.675781 4.449219 9.15625 8.058594 9.109375 C 19.609375 7.988281 41.835938 7.832031 53.269531 11 C 76.175781 17.355469 91.414062 29.105469 96.875 33.976562 C 99.292969 36.242188 98.707031 36.191406 98.707031 39.292969 C 98.589844 43.707031 98.417969 50.570312 98.417969 50.570312 Z M 96.886719 36.941406 C 96.535156 36.449219 93.328125 33.699219 92.699219 33.289062 C 92.078125 32.878906 90.609375 34.097656 90.132812 33.835938 C 89.65625 33.570312 88.9375 29.570312 88.324219 29.003906 C 87.710938 28.433594 82.707031 25.160156 82.042969 25.097656 C 81.382812 25.035156 79.53125 26.515625 78.910156 26.082031 C 78.570312 25.84375 78.871094 23.675781 78.429688 23.140625 C 77.984375 22.605469 73.800781 20.4375 73.035156 20.371094 C 72.273438 20.304688 71.871094 22.300781 71.453125 22.261719 C 71.03125 22.21875 68.792969 18.363281 68.40625 18.105469 C 68.023438 17.84375 64.472656 16.476562 64.09375 16.464844 C 63.714844 16.457031 63.398438 17.414062 63.398438 17.414062 C 63.398438 17.414062 62.898438 16.140625 62.128906 15.773438 C 61.484375 15.472656 53.871094 13.480469 51.597656 13.003906 C 50.363281 12.746094 50.5625 13.402344 49.746094 13.65625 C 49.097656 13.101562 48.867188 12.835938 48.484375 12.6875 C 47.652344 12.359375 45.394531 12.121094 44.175781 12.054688 C 43.492188 12.019531 43.214844 12.328125 42.773438 12.945312 C 42.03125 12.867188 39.355469 10.9375 35.730469 10.613281 C 32.84375 10.355469 28.796875 10.191406 27.234375 10.234375 C 26.050781 10.269531 26.328125 11.5 25.519531 11.621094 C 24.308594 10.773438 23.199219 10.46875 22.15625 10.425781 C 21.117188 10.378906 10.5 11.539062 8.128906 11.796875 C 7.671875 11.84375 6.464844 12.582031 6.503906 13.609375 C 6.644531 17.417969 8.046875 27.882812 8.4375 34.082031 C 7.832031 34.640625 7.246094 35.234375 6.671875 35.863281 C 8.125 50.847656 16.496094 70.433594 27.128906 84.980469 C 37.765625 99.523438 52.371094 111.398438 65.164062 117.542969 C 68.664062 114.640625 74.285156 108.941406 79.753906 100.980469 C 92.636719 82.414062 95.878906 63.90625 97.371094 54.773438 C 97.007812 54.246094 96.640625 53.726562 96.253906 53.214844 C 96.511719 49.667969 97.335938 37.605469 96.886719 36.941406 Z M 96.886719 36.941406 "/>
<path style=" stroke:none;fill-rule:nonzero;fill:rgb(14.117647%,12.54902%,12.54902%);fill-opacity:1;" d="M 97.371094 54.777344 C 95.878906 63.910156 92.636719 82.421875 79.753906 100.984375 C 74.285156 108.949219 68.664062 114.644531 65.164062 117.546875 C 52.371094 111.398438 37.765625 99.527344 27.128906 84.984375 C 16.496094 70.4375 8.128906 50.855469 6.675781 35.871094 C 7.25 35.238281 7.835938 34.644531 8.441406 34.089844 C 8.050781 27.890625 6.648438 17.421875 6.507812 13.617188 C 6.46875 12.589844 7.675781 11.851562 8.132812 11.804688 C 10.507812 11.546875 21.121094 10.390625 22.160156 10.433594 C 23.203125 10.472656 24.3125 10.78125 25.523438 11.628906 C 26.332031 11.511719 26.054688 10.28125 27.238281 10.242188 C 28.800781 10.199219 32.847656 10.363281 35.734375 10.621094 C 39.355469 10.949219 42.03125 12.875 42.777344 12.953125 C 43.21875 12.335938 43.496094 12.03125 44.179688 12.0625 C 45.398438 12.128906 47.652344 12.371094 48.492188 12.695312 C 48.871094 12.84375 49.101562 13.105469 49.75 13.664062 C 50.5625 13.410156 50.363281 12.753906 51.601562 13.015625 C 53.871094 13.488281 61.488281 15.484375 62.132812 15.785156 C 62.902344 16.148438 63.402344 17.421875 63.402344 17.421875 C 63.402344 17.421875 63.722656 16.472656 64.097656 16.476562 C 64.472656 16.480469 68.027344 17.855469 68.410156 18.113281 C 68.796875 18.371094 71.035156 22.230469 71.457031 22.269531 C 71.875 22.3125 72.277344 20.316406 73.039062 20.378906 C 73.804688 20.445312 77.988281 22.621094 78.433594 23.152344 C 78.875 23.679688 78.574219 25.851562 78.914062 26.089844 C 79.53125 26.519531 81.386719 25.042969 82.050781 25.105469 C 82.710938 25.167969 87.714844 28.4375 88.328125 29.011719 C 88.941406 29.582031 89.65625 33.578125 90.136719 33.84375 C 90.617188 34.105469 92.082031 32.886719 92.703125 33.296875 C 93.335938 33.707031 96.539062 36.453125 96.890625 36.949219 C 97.34375 37.613281 96.515625 49.679688 96.261719 53.226562 C 96.636719 53.730469 97.007812 54.253906 97.371094 54.777344 Z M 95.867188 38.207031 C 95.546875 42.351562 95.257812 46.5 94.886719 51.308594 C 94.84375 51.972656 94.164062 51.640625 94.03125 51.519531 C 93.296875 50.84375 92.765625 50.375 92.03125 49.742188 C 91.671875 49.429688 91.503906 49.109375 91.535156 48.765625 C 91.96875 43.894531 92.335938 39.851562 92.679688 35.660156 C 92.703125 35.371094 93.179688 35.042969 93.535156 35.382812 C 94.238281 36.058594 94.6875 36.519531 95.382812 37.234375 C 95.539062 37.382812 95.660156 37.554688 95.761719 37.742188 C 95.796875 37.816406 95.828125 37.898438 95.847656 37.976562 C 95.855469 38.011719 95.859375 38.050781 95.863281 38.089844 C 95.863281 38.105469 95.867188 38.128906 95.867188 38.144531 C 95.867188 38.160156 95.867188 38.1875 95.867188 38.207031 Z M 90.046875 48.078125 C 89.21875 47.402344 88.390625 46.757812 87.558594 46.132812 C 87.367188 45.988281 87.242188 45.855469 87.179688 45.730469 C 87.117188 45.601562 87.078125 45.429688 87.0625 45.203125 C 86.910156 44.117188 86.757812 43.03125 86.597656 41.960938 C 84.910156 40.714844 83.203125 39.5625 81.46875 38.507812 C 81.132812 39.265625 80.792969 40.046875 80.449219 40.835938 C 80.390625 41.019531 80.320312 41.125 80.230469 41.15625 C 80.144531 41.183594 80.011719 41.152344 79.835938 41.050781 C 78.976562 40.5625 78.113281 40.097656 77.242188 39.652344 C 76.914062 39.488281 76.824219 39.25 76.96875 38.945312 C 78.910156 34.46875 80.765625 30.414062 82.492188 27.058594 C 82.640625 26.84375 82.921875 26.867188 83.332031 27.136719 C 84.515625 27.925781 85.6875 28.757812 86.84375 29.628906 C 87.277344 29.957031 87.523438 30.308594 87.585938 30.675781 C 88.601562 35.988281 89.492188 41.808594 90.402344 47.816406 C 90.472656 48.246094 90.355469 48.328125 90.046875 48.078125 Z M 84.953125 31.019531 C 84.914062 30.996094 84.882812 30.96875 84.847656 30.945312 C 84.039062 32.632812 83.207031 34.457031 82.347656 36.394531 C 83.660156 37.230469 84.957031 38.117188 86.238281 39.058594 C 85.828125 36.292969 85.40625 33.597656 84.953125 31.019531 Z M 75.277344 38.695312 C 74.609375 38.382812 73.9375 38.078125 73.265625 37.789062 C 72.859375 37.617188 72.574219 37.316406 72.421875 36.886719 C 70.859375 32.847656 69.234375 28.914062 67.503906 25.199219 C 67.464844 25.1875 67.425781 25.171875 67.386719 25.160156 C 67.1875 28.183594 66.9375 31.425781 66.671875 34.761719 C 66.644531 35.140625 66.429688 35.261719 66.027344 35.140625 C 65.234375 34.898438 64.441406 34.671875 63.640625 34.457031 C 63.238281 34.347656 63.046875 34.101562 63.078125 33.722656 C 63.476562 28.246094 63.835938 22.992188 64.003906 18.527344 C 64.015625 18.214844 64.226562 18.128906 64.640625 18.269531 C 65.382812 18.515625 66.117188 18.769531 66.851562 19.035156 C 67.261719 19.183594 67.53125 19.382812 67.65625 19.640625 C 69.503906 23.121094 71.214844 26.925781 72.84375 30.921875 C 72.882812 30.9375 72.921875 30.953125 72.957031 30.96875 C 73.214844 27.851562 73.429688 24.898438 73.582031 22.230469 C 73.601562 21.929688 73.808594 21.867188 74.207031 22.050781 C 74.988281 22.417969 75.765625 22.796875 76.539062 23.191406 C 76.929688 23.394531 77.117188 23.640625 77.097656 23.941406 C 76.824219 28.230469 76.394531 33.203125 75.898438 38.421875 C 75.867188 38.785156 75.65625 38.875 75.277344 38.695312 Z M 61.507812 19.84375 C 59.425781 19.25 57.320312 18.71875 55.183594 18.246094 C 54.941406 18.191406 54.816406 18.257812 54.808594 18.4375 C 54.773438 19.523438 54.734375 20.636719 54.6875 21.777344 C 54.679688 21.96875 54.800781 22.089844 55.039062 22.132812 C 56.777344 22.472656 58.496094 22.859375 60.195312 23.285156 C 60.613281 23.394531 60.8125 23.625 60.792969 23.980469 C 60.757812 24.5625 60.726562 25.148438 60.691406 25.738281 C 60.671875 26.105469 60.453125 26.238281 60.039062 26.136719 C 58.34375 25.734375 56.636719 25.378906 54.910156 25.070312 C 54.671875 25.027344 54.542969 25.101562 54.535156 25.304688 C 54.476562 26.5625 54.414062 27.839844 54.351562 29.125 C 54.34375 29.332031 54.453125 29.453125 54.695312 29.488281 C 56.78125 29.824219 58.847656 30.234375 60.886719 30.714844 C 61.277344 30.808594 61.460938 31.042969 61.433594 31.425781 C 61.394531 32.042969 61.351562 32.660156 61.3125 33.285156 C 61.285156 33.664062 61.078125 33.8125 60.6875 33.722656 C 57.503906 33.003906 54.277344 32.464844 51.027344 32.109375 C 50.609375 32.066406 50.40625 31.84375 50.421875 31.445312 C 50.625 25.714844 50.855469 20.097656 50.9375 15.121094 C 50.941406 14.769531 51.164062 14.644531 51.601562 14.738281 C 55.007812 15.464844 58.34375 16.324219 61.609375 17.304688 C 62.007812 17.425781 62.203125 17.644531 62.195312 17.960938 C 62.175781 18.472656 62.15625 18.992188 62.136719 19.523438 C 62.117188 19.851562 61.90625 19.957031 61.507812 19.84375 Z M 47.21875 31.761719 C 46.367188 31.699219 45.511719 31.648438 44.65625 31.609375 C 44.234375 31.585938 44.027344 31.375 44.03125 30.964844 C 44.085938 25.113281 44.191406 19.285156 44.222656 13.9375 C 44.222656 13.5625 44.449219 13.410156 44.898438 13.484375 C 45.808594 13.625 46.710938 13.785156 47.605469 13.949219 C 48.050781 14.03125 48.269531 14.25 48.265625 14.605469 C 48.203125 19.726562 48.015625 25.425781 47.867188 31.203125 C 47.855469 31.605469 47.640625 31.789062 47.21875 31.761719 Z M 95.039062 55.320312 C 93.566406 63.578125 89.28125 80.113281 80.789062 94.273438 C 76.675781 100.179688 72.746094 105.394531 68.425781 108.890625 C 59.828125 103.734375 52.089844 98.382812 40.722656 86.65625 C 29.351562 74.925781 18.90625 49.273438 16.902344 36.527344 C 28.125 34.238281 43.332031 33.640625 50.558594 34.601562 C 57.789062 35.558594 75.28125 36.859375 95.039062 55.320312 Z M 41.730469 31.503906 C 40.914062 31.488281 40.09375 31.480469 39.277344 31.480469 C 38.917969 31.480469 38.652344 31.445312 38.492188 31.367188 C 38.328125 31.289062 38.191406 31.121094 38.082031 30.863281 C 37.027344 28.730469 35.933594 26.585938 34.816406 24.429688 C 34.109375 24.4375 33.40625 24.445312 32.699219 24.464844 C 32.445312 24.46875 32.328125 24.582031 32.335938 24.808594 C 32.433594 26.886719 32.542969 28.957031 32.660156 31.023438 C 32.683594 31.445312 32.484375 31.664062 32.066406 31.691406 C 31.214844 31.738281 30.113281 31.796875 29.265625 31.863281 C 28.847656 31.894531 28.609375 31.703125 28.585938 31.273438 C 28.214844 25.101562 27.839844 18.898438 27.609375 12.636719 C 27.601562 12.417969 27.65625 12.253906 27.773438 12.140625 C 27.835938 12.082031 27.910156 12.042969 27.992188 12.023438 C 28.039062 12.007812 28.089844 11.996094 28.136719 11.992188 C 28.164062 11.988281 28.191406 11.988281 28.214844 11.984375 C 28.230469 11.984375 28.246094 11.984375 28.257812 11.984375 C 28.269531 11.984375 28.285156 11.984375 28.304688 11.984375 C 31.007812 12.035156 33.675781 12.179688 36.296875 12.414062 C 38.015625 12.570312 39.347656 13.132812 40.308594 14.039062 C 41.261719 14.953125 41.730469 16.121094 41.726562 17.59375 C 41.722656 18.332031 41.722656 19.070312 41.71875 19.816406 C 41.703125 21.972656 40.765625 23.367188 38.90625 24.046875 C 38.90625 24.085938 38.90625 24.125 38.90625 24.167969 C 40.050781 26.390625 41.15625 28.609375 42.238281 30.816406 C 42.421875 31.289062 42.253906 31.519531 41.730469 31.503906 Z M 37.628906 17.429688 C 37.625 16.824219 37.453125 16.375 37.125 16.082031 C 36.796875 15.792969 36.28125 15.617188 35.578125 15.582031 C 34.503906 15.523438 33.425781 15.484375 32.339844 15.453125 C 32.09375 15.445312 31.976562 15.558594 31.984375 15.78125 C 32.035156 17.523438 32.097656 19.273438 32.167969 21.027344 C 32.175781 21.25 32.300781 21.359375 32.539062 21.359375 C 33.59375 21.351562 34.640625 21.351562 35.6875 21.367188 C 36.371094 21.375 36.867188 21.257812 37.183594 20.996094 C 37.5 20.738281 37.65625 20.320312 37.648438 19.726562 C 37.644531 18.957031 37.636719 18.191406 37.628906 17.429688 Z M 21.605469 25.679688 C 20.296875 25.816406 18.996094 25.96875 17.707031 26.136719 C 17.460938 26.171875 17.359375 26.304688 17.398438 26.539062 C 17.757812 28.539062 18.121094 30.523438 18.472656 32.488281 C 18.550781 32.925781 18.390625 33.175781 17.996094 33.242188 C 17.195312 33.375 15.382812 33.515625 14.59375 33.65625 C 14.207031 33.730469 13.945312 33.550781 13.875 33.105469 C 12.816406 26.652344 11.882812 20.316406 10.921875 13.660156 C 10.917969 13.632812 10.914062 13.601562 10.914062 13.574219 C 10.914062 13.5625 10.914062 13.542969 10.910156 13.53125 C 10.902344 13.519531 10.910156 13.507812 10.910156 13.492188 C 10.910156 13.441406 10.914062 13.390625 10.925781 13.34375 C 10.941406 13.257812 10.980469 13.175781 11.03125 13.109375 C 11.140625 12.976562 11.320312 12.894531 11.566406 12.867188 C 14.457031 12.519531 17.328125 12.269531 20.160156 12.121094 C 21.070312 12.074219 21.878906 12.15625 22.59375 12.363281 C 23.269531 12.550781 23.894531 12.882812 24.429688 13.335938 C 25.460938 14.21875 26.011719 15.480469 26.113281 17.121094 C 26.179688 18.128906 26.246094 19.136719 26.324219 20.140625 C 26.445312 21.773438 26.085938 23.050781 25.257812 24.007812 C 24.433594 24.960938 23.222656 25.511719 21.605469 25.679688 Z M 22.140625 20.214844 C 22.042969 19.324219 21.957031 18.425781 21.871094 17.527344 C 21.808594 16.84375 21.617188 16.363281 21.296875 16.09375 C 20.980469 15.820312 20.457031 15.707031 19.726562 15.757812 C 18.519531 15.84375 17.3125 15.949219 16.105469 16.070312 C 15.851562 16.097656 15.746094 16.226562 15.777344 16.472656 C 16.039062 18.425781 16.335938 20.363281 16.660156 22.285156 C 16.699219 22.519531 16.835938 22.625 17.070312 22.597656 C 18.203125 22.46875 19.335938 22.34375 20.476562 22.234375 C 21.164062 22.167969 21.628906 21.980469 21.878906 21.667969 C 22.128906 21.355469 22.210938 20.875 22.140625 20.214844 Z M 22.140625 20.214844 "/>
<path style=" stroke:none;fill-rule:nonzero;fill:rgb(72.941176%,7.058824%,12.941176%);fill-opacity:1;" d="M 89.652344 57.925781 L 89.640625 57.894531 L 84.726562 58.511719 L 84.671875 51.585938 C 87.570312 53.492188 90.183594 55.59375 91.691406 57.441406 Z M 45.664062 71.945312 C 43.402344 72.734375 40.886719 73.609375 39.34375 74.121094 C 33.988281 65.265625 27.46875 51.648438 24.414062 40.515625 C 27.34375 40.144531 30.320312 39.773438 33.351562 39.488281 C 35.902344 47.988281 41.542969 62.835938 45.664062 71.945312 Z M 76.097656 59.59375 L 68.253906 60.578125 C 67.691406 55.238281 66.707031 46.148438 66.222656 42.832031 C 69.261719 43.851562 72.242188 45.039062 75.15625 46.375 C 75.414062 49.28125 75.828125 55.332031 76.097656 59.59375 Z M 55.75 40.0625 C 56.738281 45.144531 58.664062 55.269531 59.894531 61.628906 L 56.429688 62.0625 L 54.921875 67.84375 L 53.4375 68.59375 C 51.503906 61.882812 47.773438 48.660156 45.492188 39.023438 C 48.84375 39.113281 52.257812 39.429688 55.75 40.0625 Z M 55.75 40.0625 "/>
<path style=" stroke:none;fill-rule:nonzero;fill:rgb(13.333333%,21.568627%,36.470588%);fill-opacity:1;" d="M 69.070312 102.980469 C 57.992188 95.253906 49.804688 87.601562 44.476562 81.515625 C 43.582031 80.496094 42.546875 79.09375 41.414062 77.398438 L 57.019531 74.078125 L 62.726562 77.558594 L 89.703125 58.058594 L 89.648438 57.925781 L 91.648438 57.410156 C 87.851562 69.632812 83.910156 87.839844 69.070312 102.980469 Z M 76.097656 59.59375 C 75.832031 55.332031 75.414062 49.28125 75.15625 46.375 C 78.75 48.03125 81.96875 49.816406 84.667969 51.585938 L 84.722656 58.511719 Z M 59.902344 61.628906 C 58.667969 55.269531 56.738281 45.144531 55.753906 40.0625 C 57.371094 40.355469 59.007812 40.714844 60.660156 41.15625 C 62.558594 41.664062 64.417969 42.222656 66.222656 42.832031 C 66.703125 46.148438 67.691406 55.246094 68.253906 60.578125 Z M 68.050781 66.457031 L 41.1875 77.042969 C 40.59375 76.144531 39.980469 75.164062 39.34375 74.117188 C 40.882812 73.605469 43.398438 72.734375 45.664062 71.941406 C 41.542969 62.832031 35.902344 47.984375 33.351562 39.484375 C 37.304688 39.121094 41.347656 38.898438 45.5 39.015625 C 47.78125 48.65625 51.515625 61.878906 53.445312 68.585938 L 47.800781 71.460938 L 67.960938 66.273438 Z M 68.050781 66.457031 "/>
<path style=" stroke:none;fill-rule:nonzero;fill:rgb(100%,100%,100%);fill-opacity:1;" d="M 95.867188 38.207031 C 95.546875 42.351562 95.257812 46.5 94.886719 51.308594 C 94.84375 51.972656 94.164062 51.640625 94.03125 51.519531 C 93.296875 50.84375 92.765625 50.375 92.03125 49.742188 C 91.671875 49.429688 91.503906 49.109375 91.535156 48.765625 C 91.96875 43.894531 92.335938 39.851562 92.679688 35.660156 C 92.703125 35.371094 93.179688 35.042969 93.535156 35.382812 C 94.238281 36.058594 94.6875 36.519531 95.382812 37.234375 C 95.539062 37.382812 95.660156 37.554688 95.761719 37.742188 C 95.796875 37.816406 95.828125 37.898438 95.847656 37.976562 C 95.855469 38.011719 95.859375 38.050781 95.863281 38.089844 C 95.863281 38.105469 95.867188 38.128906 95.867188 38.144531 C 95.867188 38.160156 95.867188 38.1875 95.867188 38.207031 Z M 90.046875 48.078125 C 89.21875 47.402344 88.390625 46.757812 87.558594 46.132812 C 87.367188 45.988281 87.242188 45.855469 87.179688 45.730469 C 87.117188 45.601562 87.078125 45.429688 87.0625 45.203125 C 86.910156 44.117188 86.757812 43.03125 86.597656 41.960938 C 84.910156 40.714844 83.203125 39.5625 81.46875 38.507812 C 81.132812 39.265625 80.792969 40.046875 80.449219 40.835938 C 80.390625 41.019531 80.320312 41.125 80.230469 41.15625 C 80.144531 41.183594 80.011719 41.152344 79.835938 41.050781 C 78.976562 40.5625 78.113281 40.097656 77.242188 39.652344 C 76.914062 39.488281 76.824219 39.25 76.96875 38.945312 C 78.910156 34.46875 80.765625 30.414062 82.492188 27.058594 C 82.640625 26.84375 82.921875 26.867188 83.332031 27.136719 C 84.515625 27.925781 85.6875 28.757812 86.84375 29.628906 C 87.277344 29.957031 87.523438 30.308594 87.585938 30.675781 C 88.601562 35.988281 89.492188 41.808594 90.402344 47.816406 C 90.472656 48.246094 90.355469 48.328125 90.046875 48.078125 Z M 84.953125 31.019531 C 84.914062 30.996094 84.882812 30.96875 84.847656 30.945312 C 84.039062 32.632812 83.207031 34.457031 82.347656 36.394531 C 83.660156 37.230469 84.957031 38.117188 86.238281 39.058594 C 85.828125 36.292969 85.40625 33.597656 84.953125 31.019531 Z M 75.277344 38.695312 C 74.609375 38.382812 73.9375 38.078125 73.265625 37.789062 C 72.859375 37.617188 72.574219 37.316406 72.421875 36.886719 C 70.859375 32.847656 69.234375 28.914062 67.503906 25.199219 C 67.464844 25.1875 67.425781 25.171875 67.386719 25.160156 C 67.1875 28.183594 66.9375 31.425781 66.671875 34.761719 C 66.644531 35.140625 66.429688 35.261719 66.027344 35.140625 C 65.234375 34.898438 64.441406 34.671875 63.640625 34.457031 C 63.238281 34.347656 63.046875 34.101562 63.078125 33.722656 C 63.476562 28.246094 63.835938 22.992188 64.003906 18.527344 C 64.015625 18.214844 64.226562 18.128906 64.640625 18.269531 C 65.382812 18.515625 66.117188 18.769531 66.851562 19.035156 C 67.261719 19.183594 67.53125 19.382812 67.65625 19.640625 C 69.503906 23.121094 71.214844 26.925781 72.84375 30.921875 C 72.882812 30.9375 72.921875 30.953125 72.957031 30.96875 C 73.214844 27.851562 73.429688 24.898438 73.582031 22.230469 C 73.601562 21.929688 73.808594 21.867188 74.207031 22.050781 C 74.988281 22.417969 75.765625 22.796875 76.539062 23.191406 C 76.929688 23.394531 77.117188 23.640625 77.097656 23.941406 C 76.824219 28.230469 76.394531 33.203125 75.898438 38.421875 C 75.867188 38.785156 75.65625 38.875 75.277344 38.695312 Z M 61.507812 19.84375 C 59.425781 19.25 57.320312 18.71875 55.183594 18.246094 C 54.941406 18.191406 54.816406 18.257812 54.808594 18.4375 C 54.773438 19.523438 54.734375 20.636719 54.6875 21.777344 C 54.679688 21.96875 54.800781 22.089844 55.039062 22.132812 C 56.777344 22.472656 58.496094 22.859375 60.195312 23.285156 C 60.613281 23.394531 60.8125 23.625 60.792969 23.980469 C 60.757812 24.5625 60.726562 25.148438 60.691406 25.738281 C 60.671875 26.105469 60.453125 26.238281 60.039062 26.136719 C 58.34375 25.734375 56.636719 25.378906 54.910156 25.070312 C 54.671875 25.027344 54.542969 25.101562 54.535156 25.304688 C 54.476562 26.5625 54.414062 27.839844 54.351562 29.125 C 54.34375 29.332031 54.453125 29.453125 54.695312 29.488281 C 56.78125 29.824219 58.847656 30.234375 60.886719 30.714844 C 61.277344 30.808594 61.460938 31.042969 61.433594 31.425781 C 61.394531 32.042969 61.351562 32.660156 61.3125 33.285156 C 61.285156 33.664062 61.078125 33.8125 60.6875 33.722656 C 57.503906 33.003906 54.277344 32.464844 51.027344 32.109375 C 50.609375 32.066406 50.40625 31.84375 50.421875 31.445312 C 50.625 25.714844 50.855469 20.097656 50.9375 15.121094 C 50.941406 14.769531 51.164062 14.644531 51.601562 14.738281 C 55.007812 15.464844 58.34375 16.324219 61.609375 17.304688 C 62.007812 17.425781 62.203125 17.644531 62.195312 17.960938 C 62.175781 18.472656 62.15625 18.992188 62.136719 19.523438 C 62.117188 19.851562 61.90625 19.957031 61.507812 19.84375 Z M 47.21875 31.761719 C 46.367188 31.699219 45.511719 31.648438 44.65625 31.609375 C 44.234375 31.585938 44.027344 31.375 44.03125 30.964844 C 44.085938 25.113281 44.191406 19.285156 44.222656 13.9375 C 44.222656 13.5625 44.449219 13.410156 44.898438 13.484375 C 45.808594 13.625 46.710938 13.785156 47.605469 13.949219 C 48.050781 14.03125 48.269531 14.25 48.265625 14.605469 C 48.203125 19.726562 48.015625 25.425781 47.867188 31.203125 C 47.855469 31.605469 47.640625 31.789062 47.21875 31.761719 Z M 95.039062 55.320312 C 93.566406 63.578125 89.28125 80.113281 80.789062 94.273438 C 76.675781 100.179688 72.746094 105.394531 68.425781 108.890625 C 59.828125 103.734375 52.089844 98.382812 40.722656 86.65625 C 29.351562 74.925781 18.90625 49.273438 16.902344 36.527344 C 28.125 34.238281 43.332031 33.640625 50.558594 34.601562 C 57.789062 35.558594 75.28125 36.859375 95.039062 55.320312 Z M 24.414062 40.515625 C 27.832031 52.957031 35.574219 68.511719 41.1875 77.042969 L 68.050781 66.457031 L 67.957031 66.277344 L 47.796875 71.464844 L 54.925781 67.839844 L 56.433594 62.058594 L 89.636719 57.890625 L 89.703125 58.054688 L 62.726562 77.554688 L 57.019531 74.074219 L 41.414062 77.394531 C 42.542969 79.089844 43.582031 80.492188 44.476562 81.511719 C 49.800781 87.597656 57.992188 95.25 69.070312 102.976562 C 83.90625 87.835938 87.847656 69.628906 91.652344 57.40625 C 87.242188 52.15625 75.097656 44.992188 60.660156 41.152344 C 47.621094 37.6875 35.683594 39.085938 24.414062 40.515625 Z M 41.730469 31.503906 C 40.914062 31.488281 40.09375 31.480469 39.277344 31.480469 C 38.917969 31.480469 38.652344 31.445312 38.492188 31.367188 C 38.328125 31.289062 38.191406 31.121094 38.082031 30.863281 C 37.027344 28.730469 35.933594 26.585938 34.816406 24.429688 C 34.109375 24.4375 33.40625 24.445312 32.699219 24.464844 C 32.445312 24.46875 32.328125 24.582031 32.335938 24.808594 C 32.433594 26.886719 32.542969 28.957031 32.660156 31.023438 C 32.683594 31.445312 32.484375 31.664062 32.066406 31.691406 C 31.214844 31.738281 30.113281 31.796875 29.265625 31.863281 C 28.847656 31.894531 28.609375 31.703125 28.585938 31.273438 C 28.214844 25.101562 27.839844 18.898438 27.609375 12.636719 C 27.601562 12.417969 27.65625 12.253906 27.773438 12.140625 C 27.835938 12.082031 27.910156 12.042969 27.992188 12.023438 C 28.039062 12.007812 28.089844 11.996094 28.136719 11.992188 C 28.164062 11.988281 28.191406 11.988281 28.214844 11.984375 C 28.230469 11.984375 28.246094 11.984375 28.257812 11.984375 C 28.269531 11.984375 28.285156 11.984375 28.304688 11.984375 C 31.007812 12.035156 33.675781 12.179688 36.296875 12.414062 C 38.015625 12.570312 39.347656 13.132812 40.308594 14.039062 C 41.261719 14.953125 41.730469 16.121094 41.726562 17.59375 C 41.722656 18.332031 41.722656 19.070312 41.71875 19.816406 C 41.703125 21.972656 40.765625 23.367188 38.90625 24.046875 C 38.90625 24.085938 38.90625 24.125 38.90625 24.167969 C 40.050781 26.390625 41.15625 28.609375 42.238281 30.816406 C 42.421875 31.289062 42.253906 31.519531 41.730469 31.503906 Z M 37.628906 17.429688 C 37.625 16.824219 37.453125 16.375 37.125 16.082031 C 36.796875 15.792969 36.28125 15.617188 35.578125 15.582031 C 34.503906 15.523438 33.425781 15.484375 32.339844 15.453125 C 32.09375 15.445312 31.976562 15.558594 31.984375 15.78125 C 32.035156 17.523438 32.097656 19.273438 32.167969 21.027344 C 32.175781 21.25 32.300781 21.359375 32.539062 21.359375 C 33.59375 21.351562 34.640625 21.351562 35.6875 21.367188 C 36.371094 21.375 36.867188 21.257812 37.183594 20.996094 C 37.5 20.738281 37.65625 20.320312 37.648438 19.726562 C 37.644531 18.957031 37.636719 18.191406 37.628906 17.429688 Z M 21.605469 25.679688 C 20.296875 25.816406 18.996094 25.96875 17.707031 26.136719 C 17.460938 26.171875 17.359375 26.304688 17.398438 26.539062 C 17.757812 28.539062 18.121094 30.523438 18.472656 32.488281 C 18.550781 32.925781 18.390625 33.175781 17.996094 33.242188 C 17.195312 33.375 15.382812 33.515625 14.59375 33.65625 C 14.207031 33.730469 13.945312 33.550781 13.875 33.105469 C 12.816406 26.652344 11.882812 20.316406 10.921875 13.660156 C 10.917969 13.632812 10.914062 13.601562 10.914062 13.574219 C 10.914062 13.5625 10.914062 13.542969 10.910156 13.53125 C 10.902344 13.519531 10.910156 13.507812 10.910156 13.492188 C 10.910156 13.441406 10.914062 13.390625 10.925781 13.34375 C 10.941406 13.257812 10.980469 13.175781 11.03125 13.109375 C 11.140625 12.976562 11.320312 12.894531 11.566406 12.867188 C 14.457031 12.519531 17.328125 12.269531 20.160156 12.121094 C 21.070312 12.074219 21.878906 12.15625 22.59375 12.363281 C 23.269531 12.550781 23.894531 12.882812 24.429688 13.335938 C 25.460938 14.21875 26.011719 15.480469 26.113281 17.121094 C 26.179688 18.128906 26.246094 19.136719 26.324219 20.140625 C 26.445312 21.773438 26.085938 23.050781 25.257812 24.007812 C 24.433594 24.960938 23.222656 25.511719 21.605469 25.679688 Z M 22.140625 20.214844 C 22.042969 19.324219 21.957031 18.425781 21.871094 17.527344 C 21.808594 16.84375 21.617188 16.363281 21.296875 16.09375 C 20.980469 15.820312 20.457031 15.707031 19.726562 15.757812 C 18.519531 15.84375 17.3125 15.949219 16.105469 16.070312 C 15.851562 16.097656 15.746094 16.226562 15.777344 16.472656 C 16.039062 18.425781 16.335938 20.363281 16.660156 22.285156 C 16.699219 22.519531 16.835938 22.625 17.070312 22.597656 C 18.203125 22.46875 19.335938 22.34375 20.476562 22.234375 C 21.164062 22.167969 21.628906 21.980469 21.878906 21.667969 C 22.128906 21.355469 22.210938 20.875 22.140625 20.214844 Z M 22.140625 20.214844 "/>
<path style=" stroke:none;fill-rule:nonzero;fill:rgb(81.960784%,82.745098%,83.137255%);fill-opacity:1;" d="M 86.222656 38.972656 C 85.820312 36.234375 85.398438 33.566406 84.949219 31.015625 C 84.941406 31.007812 84.929688 31.003906 84.921875 30.996094 C 84.96875 30.859375 85.023438 30.722656 85.082031 30.589844 C 85.246094 30.25 85.632812 30.527344 85.648438 30.730469 C 85.664062 30.9375 86.875 39.089844 86.925781 39.539062 C 86.695312 39.363281 86.441406 39.15625 86.222656 38.972656 Z M 62.128906 19.519531 C 62.117188 19.851562 61.90625 19.957031 61.507812 19.839844 C 59.425781 19.246094 57.320312 18.714844 55.183594 18.242188 C 55.117188 18.222656 55.050781 18.21875 54.980469 18.226562 C 55.0625 17.933594 54.921875 17.574219 55.539062 17.703125 C 56.113281 17.820312 60.675781 18.941406 62.132812 19.335938 C 62.132812 19.398438 62.132812 19.457031 62.128906 19.519531 Z M 55.183594 24.539062 C 55.59375 24.546875 59.214844 25.335938 60.695312 25.621094 C 60.691406 25.660156 60.691406 25.699219 60.6875 25.738281 C 60.667969 26.105469 60.449219 26.238281 60.03125 26.136719 C 58.339844 25.734375 56.632812 25.378906 54.90625 25.070312 C 54.785156 25.046875 54.695312 25.054688 54.632812 25.09375 C 54.667969 24.816406 54.90625 24.527344 55.183594 24.539062 Z M 37.640625 15.585938 C 38.023438 16.070312 38.3125 16.457031 38.277344 16.992188 C 38.246094 17.527344 38.265625 19.855469 38.207031 20.304688 C 38.152344 20.71875 37.589844 21.105469 36.804688 21.203125 C 36.941406 21.15625 37.070312 21.082031 37.1875 20.988281 C 37.503906 20.730469 37.660156 20.304688 37.652344 19.71875 C 37.644531 18.953125 37.636719 18.1875 37.628906 17.425781 C 37.625 16.820312 37.453125 16.371094 37.125 16.078125 C 36.796875 15.789062 36.28125 15.613281 35.578125 15.578125 C 34.503906 15.519531 33.425781 15.480469 32.339844 15.449219 C 32.273438 15.449219 32.148438 15.5 32.097656 15.511719 C 32.109375 15.265625 32.097656 14.949219 32.097656 14.949219 C 32.097656 14.949219 35.101562 14.996094 35.648438 15.019531 C 36.304688 15.046875 37.257812 15.101562 37.640625 15.585938 Z M 28.335938 12.417969 C 28.347656 12.878906 29.144531 29.644531 29.191406 30.246094 C 29.238281 30.847656 29.0625 31.261719 29.902344 31.304688 C 30.59375 31.335938 31.871094 31.214844 32.664062 31.136719 C 32.644531 31.480469 32.453125 31.664062 32.070312 31.691406 C 31.21875 31.738281 30.117188 31.796875 29.269531 31.863281 C 28.851562 31.894531 28.613281 31.703125 28.589844 31.273438 C 28.21875 25.101562 27.84375 18.898438 27.613281 12.636719 C 27.605469 12.417969 27.660156 12.253906 27.777344 12.140625 C 27.839844 12.082031 27.914062 12.042969 27.996094 12.023438 C 28.042969 12.007812 28.09375 11.996094 28.140625 11.992188 C 28.167969 11.988281 28.195312 11.988281 28.21875 11.984375 C 28.234375 11.984375 28.25 11.984375 28.261719 11.984375 C 28.273438 11.984375 28.292969 11.984375 28.308594 11.984375 C 28.386719 11.984375 28.464844 11.988281 28.542969 11.988281 C 28.414062 12.101562 28.332031 12.238281 28.335938 12.417969 Z M 11.574219 13.332031 C 11.609375 13.886719 14.21875 30.871094 14.417969 32.496094 C 14.445312 32.84375 14.574219 33.101562 14.984375 33.0625 C 15.3125 33.027344 17.328125 32.796875 18.492188 32.65625 C 18.5 32.992188 18.335938 33.183594 17.992188 33.238281 C 17.191406 33.371094 15.378906 33.507812 14.589844 33.652344 C 14.203125 33.726562 13.941406 33.546875 13.871094 33.101562 C 12.8125 26.648438 11.878906 20.3125 10.917969 13.65625 C 10.914062 13.625 10.910156 13.597656 10.910156 13.570312 C 10.910156 13.558594 10.910156 13.539062 10.902344 13.527344 C 10.898438 13.515625 10.902344 13.503906 10.902344 13.488281 C 10.902344 13.4375 10.910156 13.386719 10.921875 13.339844 C 10.9375 13.253906 10.976562 13.171875 11.027344 13.105469 C 11.136719 12.972656 11.316406 12.890625 11.5625 12.863281 C 11.632812 12.851562 11.703125 12.84375 11.769531 12.835938 C 11.636719 12.957031 11.5625 13.105469 11.574219 13.332031 Z M 21.734375 22 C 21.597656 22.019531 21.460938 22.035156 21.328125 22.042969 C 21.566406 21.949219 21.75 21.824219 21.875 21.664062 C 22.125 21.355469 22.210938 20.871094 22.140625 20.210938 C 22.042969 19.320312 21.957031 18.421875 21.871094 17.523438 C 21.808594 16.839844 21.617188 16.359375 21.296875 16.089844 C 20.980469 15.816406 20.457031 15.703125 19.726562 15.753906 C 18.519531 15.839844 17.3125 15.945312 16.105469 16.066406 C 16.019531 16.074219 15.890625 16.1875 15.835938 16.21875 C 15.8125 15.890625 15.765625 15.515625 15.765625 15.515625 C 15.765625 15.515625 20.667969 14.921875 21.230469 15.160156 C 21.726562 15.367188 22.21875 15.734375 22.367188 16.785156 C 22.519531 17.832031 22.789062 19.839844 22.796875 20.375 C 22.804688 20.910156 22.65625 21.851562 21.734375 22 Z M 41.730469 31.503906 C 40.914062 31.488281 40.09375 31.480469 39.277344 31.480469 C 38.917969 31.480469 38.652344 31.445312 38.492188 31.367188 C 38.328125 31.289062 38.191406 31.121094 38.082031 30.863281 C 37.027344 28.730469 35.933594 26.585938 34.816406 24.429688 C 34.109375 24.4375 33.40625 24.445312 32.699219 24.464844 C 32.566406 24.46875 32.472656 24.5 32.410156 24.566406 C 32.402344 24.367188 32.433594 24.210938 32.597656 24.117188 C 32.90625 23.9375 33.414062 23.980469 33.734375 23.976562 C 34.050781 23.972656 34.804688 23.898438 35.367188 23.90625 C 35.628906 24.328125 38.4375 29.558594 38.636719 29.964844 C 38.835938 30.375 38.828125 30.789062 39.558594 30.878906 C 40.082031 30.945312 41.515625 30.992188 42.296875 31.007812 C 42.363281 31.347656 42.171875 31.511719 41.730469 31.503906 Z M 45.382812 31.019531 C 45.921875 31.070312 47.089844 31.109375 47.867188 31.160156 C 47.867188 31.171875 47.867188 31.1875 47.867188 31.203125 C 47.855469 31.609375 47.644531 31.792969 47.222656 31.761719 C 46.371094 31.699219 45.515625 31.648438 44.660156 31.609375 C 44.238281 31.585938 44.03125 31.375 44.035156 30.964844 C 44.089844 25.113281 44.199219 19.285156 44.226562 13.9375 C 44.226562 13.5625 44.453125 13.410156 44.902344 13.484375 C 44.964844 13.492188 45.023438 13.503906 45.085938 13.511719 C 44.917969 13.605469 44.816406 13.757812 44.824219 14.039062 C 44.84375 14.652344 44.695312 29.398438 44.683594 29.960938 C 44.671875 30.527344 44.609375 30.949219 45.382812 31.019531 Z M 51.5625 15.375 C 51.550781 16 51.222656 29.585938 51.207031 30.171875 C 51.191406 30.757812 51.132812 31.394531 51.917969 31.507812 C 52.746094 31.636719 59.648438 32.792969 61.316406 33.179688 C 61.3125 33.214844 61.3125 33.246094 61.304688 33.277344 C 61.28125 33.660156 61.074219 33.808594 60.683594 33.71875 C 57.5 33 54.273438 32.460938 51.023438 32.105469 C 50.605469 32.0625 50.402344 31.839844 50.417969 31.4375 C 50.621094 25.710938 50.851562 20.09375 50.933594 15.117188 C 50.9375 14.765625 51.160156 14.640625 51.597656 14.734375 C 51.714844 14.757812 51.824219 14.785156 51.941406 14.808594 C 51.722656 14.910156 51.566406 15.078125 51.5625 15.375 Z M 64.277344 33.910156 C 64.6875 34.054688 65.867188 34.40625 66.683594 34.648438 C 66.675781 34.6875 66.675781 34.722656 66.671875 34.765625 C 66.644531 35.144531 66.429688 35.265625 66.027344 35.144531 C 65.234375 34.902344 64.441406 34.675781 63.640625 34.460938 C 63.238281 34.351562 63.046875 34.105469 63.078125 33.726562 C 63.476562 28.25 63.835938 23 64.003906 18.53125 C 64.015625 18.21875 64.226562 18.132812 64.640625 18.273438 C 64.761719 18.316406 64.882812 18.355469 65.003906 18.398438 C 64.800781 18.488281 64.632812 18.632812 64.625 18.832031 C 64.59375 19.558594 63.816406 31.96875 63.769531 32.644531 C 63.722656 33.320312 63.671875 33.695312 64.277344 33.910156 Z M 75.902344 38.421875 C 75.867188 38.785156 75.65625 38.875 75.277344 38.695312 C 74.609375 38.382812 73.9375 38.078125 73.265625 37.789062 C 72.859375 37.617188 72.574219 37.316406 72.421875 36.886719 C 70.859375 32.847656 69.234375 28.914062 67.503906 25.199219 C 67.46875 25.1875 67.4375 25.175781 67.40625 25.167969 C 67.449219 25.132812 67.441406 23.578125 68.113281 24.957031 C 68.34375 25.433594 72.828125 35.65625 72.941406 36.089844 C 73.050781 36.523438 73.332031 36.945312 73.648438 37.148438 C 73.882812 37.296875 75.222656 37.90625 75.921875 38.222656 Z M 73.648438 30.386719 C 73.644531 30.734375 73.53125 31.230469 73.292969 31.160156 C 73.136719 31.113281 73.039062 31.066406 72.964844 30.933594 C 73.222656 27.828125 73.4375 24.886719 73.585938 22.230469 C 73.605469 21.929688 73.8125 21.867188 74.210938 22.050781 C 74.246094 22.066406 74.289062 22.089844 74.324219 22.105469 C 74.175781 23.773438 73.652344 30.074219 73.648438 30.386719 Z M 82.882812 27.496094 C 82.660156 28.066406 78.136719 37.609375 77.984375 37.996094 C 77.832031 38.382812 77.460938 38.800781 77.914062 39.125 C 78.246094 39.359375 79.75 40.242188 80.519531 40.691406 C 80.496094 40.742188 80.476562 40.789062 80.453125 40.839844 C 80.394531 41.019531 80.324219 41.128906 80.238281 41.160156 C 80.148438 41.1875 80.015625 41.15625 79.839844 41.054688 C 78.980469 40.566406 78.117188 40.101562 77.246094 39.660156 C 76.917969 39.492188 76.828125 39.253906 76.972656 38.949219 C 78.914062 34.472656 80.769531 30.417969 82.496094 27.066406 C 82.644531 26.847656 82.925781 26.871094 83.335938 27.144531 C 83.363281 27.164062 83.394531 27.183594 83.421875 27.199219 C 83.175781 27.222656 82.957031 27.308594 82.882812 27.496094 Z M 90.046875 48.078125 C 89.21875 47.402344 88.390625 46.757812 87.558594 46.132812 C 87.367188 45.988281 87.242188 45.855469 87.179688 45.730469 C 87.117188 45.601562 87.078125 45.429688 87.0625 45.203125 C 86.910156 44.117188 86.757812 43.03125 86.597656 41.960938 C 84.929688 40.734375 83.246094 39.59375 81.539062 38.550781 C 81.652344 38.324219 81.742188 38.089844 81.816406 37.851562 C 81.816406 37.851562 86.277344 40.777344 86.644531 41.023438 C 87.171875 41.375 87.246094 41.527344 87.355469 42.082031 C 87.476562 42.707031 87.660156 44.007812 87.710938 44.40625 C 87.757812 44.804688 87.695312 45.34375 88.136719 45.675781 C 88.449219 45.910156 89.648438 46.851562 90.339844 47.394531 C 90.359375 47.535156 90.382812 47.675781 90.402344 47.820312 C 90.472656 48.246094 90.355469 48.328125 90.046875 48.078125 Z M 93.25 35.671875 C 93.257812 36.050781 92.285156 47.507812 92.257812 47.859375 C 92.226562 48.214844 92.148438 48.582031 92.398438 48.917969 C 92.925781 49.449219 94.210938 50.683594 94.882812 51.328125 C 94.832031 51.96875 94.160156 51.644531 94.03125 51.523438 C 93.296875 50.847656 92.765625 50.378906 92.03125 49.746094 C 91.671875 49.433594 91.503906 49.113281 91.535156 48.769531 C 91.96875 43.898438 92.335938 39.855469 92.679688 35.667969 C 92.703125 35.375 93.179688 35.050781 93.535156 35.386719 C 93.542969 35.394531 93.550781 35.402344 93.558594 35.410156 C 93.382812 35.457031 93.25 35.542969 93.25 35.671875 Z M 93.25 35.671875 "/>
<path style=" stroke:none;fill-rule:nonzero;fill:rgb(83.137255%,71.764706%,40.784314%);fill-opacity:1;" d="M 73.039062 91.488281 C 72.753906 90.375 72.03125 89.285156 70.917969 88.011719 C 69.640625 86.671875 68.453125 85.539062 67.902344 84.324219 C 70.023438 84.125 72.347656 85.148438 74.140625 88.292969 C 74.078125 89.4375 73.695312 90.542969 73.039062 91.488281 Z M 67.96875 85.5 C 68.457031 86.164062 68.988281 86.910156 69.730469 87.601562 C 70.472656 88.292969 71.355469 89.347656 71.839844 90.132812 C 72.304688 90.890625 72.542969 91.558594 72.558594 92.097656 C 71.414062 93.371094 69.785156 94.121094 68.0625 94.152344 C 67.804688 93.601562 67.050781 91.878906 66.707031 90.464844 C 66.371094 89.105469 65.910156 87.292969 65.980469 84.847656 C 66.417969 84.648438 66.867188 84.5 67.339844 84.402344 C 67.503906 84.792969 67.714844 85.160156 67.96875 85.5 Z M 62.109375 89.886719 C 62.117188 89.976562 62.125 90.066406 62.140625 90.15625 C 62.148438 90.191406 62.152344 90.222656 62.164062 90.257812 C 62.140625 90.199219 62.121094 90.136719 62.097656 90.078125 C 62.097656 90.011719 62.101562 89.953125 62.109375 89.886719 Z M 65.542969 87.347656 C 65.640625 88.386719 65.992188 89.902344 66.203125 90.691406 C 66.40625 91.445312 66.976562 93.238281 67.4375 94.132812 C 65.695312 93.992188 64.089844 93.128906 63.023438 91.753906 C 63.011719 91.734375 63 91.714844 62.984375 91.691406 C 62.789062 91.042969 62.609375 90.050781 62.675781 89.613281 C 62.757812 88.953125 63.015625 88.234375 63.300781 87.507812 C 63.410156 87.230469 63.539062 86.894531 63.660156 86.570312 C 64.164062 86 64.757812 85.515625 65.421875 85.132812 C 65.425781 85.871094 65.460938 86.613281 65.542969 87.347656 Z M 65.542969 87.347656 "/>
<path style=" stroke:none;fill-rule:nonzero;fill:rgb(92.941176%,83.529412%,58.039216%);fill-opacity:1;" d="M 67.898438 84.324219 C 67.835938 84.191406 67.777344 84.050781 67.730469 83.910156 C 68.648438 83.945312 69.394531 83.984375 70.652344 84.453125 C 71.859375 84.902344 73.132812 85.714844 73.996094 86.589844 C 74.097656 87.039062 74.148438 87.5 74.148438 87.960938 C 74.148438 88.070312 74.144531 88.183594 74.140625 88.292969 C 72.34375 85.144531 70.019531 84.121094 67.898438 84.324219 Z M 67.773438 83.359375 C 67.863281 83.070312 67.976562 82.886719 68.347656 82.625 C 68.722656 82.367188 69.328125 82.242188 69.941406 82.207031 C 70.335938 82.3125 71.300781 82.75 72.039062 83.375 C 72.511719 83.769531 72.921875 84.230469 73.25 84.75 C 73.410156 85.007812 73.546875 85.277344 73.664062 85.554688 C 73.0625 85.078125 72.085938 84.417969 70.949219 83.988281 C 69.933594 83.605469 68.859375 83.390625 67.773438 83.359375 Z M 67.210938 83.363281 C 66.980469 83.378906 66.546875 83.410156 66.105469 83.480469 C 66.210938 82.980469 66.289062 82.589844 66.417969 82.066406 C 66.898438 81.96875 67.6875 81.832031 68.546875 81.914062 C 67.835938 82.222656 67.449219 82.527344 67.210938 83.363281 Z M 67.335938 84.402344 C 66.867188 84.5 66.414062 84.648438 65.976562 84.847656 C 65.984375 84.589844 65.992188 84.328125 66.015625 84.054688 C 66.394531 83.980469 66.78125 83.929688 67.171875 83.90625 C 67.210938 84.078125 67.269531 84.242188 67.335938 84.402344 Z M 64.324219 84.003906 C 64.304688 83.734375 64.304688 83.429688 64.1875 83.125 C 64.710938 82.714844 65.285156 82.460938 65.800781 82.269531 C 65.710938 82.671875 65.609375 83.15625 65.519531 83.589844 C 65.394531 83.617188 64.78125 83.789062 64.324219 84.003906 Z M 65.464844 84.164062 C 65.4375 84.441406 65.425781 84.777344 65.425781 85.136719 C 64.765625 85.519531 64.167969 86.003906 63.664062 86.574219 C 63.863281 86.046875 64.039062 85.550781 64.085938 85.394531 C 64.15625 85.148438 64.214844 84.898438 64.257812 84.648438 C 64.546875 84.503906 65.207031 84.238281 65.464844 84.164062 Z M 62.351562 85.25 C 62.636719 84.601562 63.546875 83.628906 63.734375 83.511719 C 63.785156 83.742188 63.773438 84.097656 63.753906 84.292969 C 63.371094 84.484375 62.679688 84.976562 62.351562 85.25 Z M 63.125 86.398438 C 62.980469 86.714844 62.394531 88.269531 62.277344 88.628906 C 62.15625 89.039062 62.097656 89.460938 62.105469 89.890625 C 62.101562 89.957031 62.09375 90.015625 62.089844 90.078125 C 61.671875 88.933594 61.601562 87.691406 61.886719 86.507812 C 62.320312 85.992188 63.175781 85.234375 63.613281 85.003906 C 63.484375 85.476562 63.316406 85.941406 63.125 86.398438 Z M 63.125 86.398438 "/>
<path style=" stroke:none;fill-rule:nonzero;fill:rgb(65.490196%,66.27451%,67.45098%);fill-opacity:1;" d="M 38.058594 4.6875 L 38.375 0.101562 L 37.210938 0 L 36.765625 5.75 L 40.335938 6 L 40.394531 4.859375 Z M 46.046875 6.597656 C 45.882812 5.945312 45.722656 5.351562 45.574219 4.808594 C 45.425781 4.269531 45.285156 3.761719 45.144531 3.289062 C 45.003906 2.820312 44.863281 2.375 44.722656 1.953125 C 44.585938 1.539062 44.445312 1.132812 44.304688 0.738281 L 43.25 0.605469 C 43.0625 0.957031 42.871094 1.324219 42.6875 1.703125 C 42.5 2.085938 42.308594 2.492188 42.117188 2.925781 C 41.917969 3.363281 41.714844 3.832031 41.5 4.339844 C 41.285156 4.847656 41.058594 5.40625 40.808594 6.019531 L 42.03125 6.15625 C 42.101562 5.960938 42.183594 5.757812 42.261719 5.546875 C 42.339844 5.34375 42.421875 5.136719 42.5 4.929688 L 44.5 5.15625 C 44.554688 5.375 44.609375 5.59375 44.660156 5.8125 C 44.714844 6.035156 44.769531 6.246094 44.816406 6.457031 Z M 43.78125 2.246094 C 43.824219 2.390625 43.871094 2.558594 43.921875 2.75 C 43.976562 2.9375 44.035156 3.148438 44.09375 3.378906 C 44.15625 3.609375 44.214844 3.851562 44.28125 4.105469 L 42.828125 3.9375 C 42.925781 3.703125 43.019531 3.476562 43.109375 3.265625 C 43.203125 3.050781 43.285156 2.855469 43.359375 2.683594 C 43.433594 2.507812 43.496094 2.355469 43.554688 2.222656 C 43.613281 2.089844 43.652344 1.984375 43.683594 1.910156 C 43.707031 1.988281 43.742188 2.101562 43.78125 2.246094 Z M 50.097656 6.851562 C 50.488281 6.609375 50.695312 6.191406 50.722656 5.597656 C 50.734375 5.320312 50.6875 5.042969 50.585938 4.785156 C 50.480469 4.539062 50.28125 4.320312 49.980469 4.136719 C 50.363281 3.941406 50.5625 3.628906 50.585938 3.195312 C 50.601562 2.9375 50.558594 2.683594 50.460938 2.445312 C 50.371094 2.234375 50.226562 2.050781 50.050781 1.902344 C 49.859375 1.746094 49.640625 1.621094 49.402344 1.539062 C 49.132812 1.441406 48.851562 1.367188 48.570312 1.320312 C 48.339844 1.28125 48.097656 1.25 47.832031 1.226562 C 47.585938 1.207031 47.335938 1.199219 47.09375 1.203125 L 46.707031 6.605469 C 46.980469 6.722656 47.261719 6.8125 47.554688 6.882812 C 47.828125 6.941406 48.101562 6.996094 48.375 7.042969 C 49.132812 7.160156 49.707031 7.09375 50.097656 6.851562 Z M 48.660156 4.507812 C 48.976562 4.558594 49.214844 4.65625 49.382812 4.789062 C 49.546875 4.929688 49.621094 5.128906 49.609375 5.386719 C 49.597656 5.679688 49.480469 5.863281 49.273438 5.941406 C 49.0625 6.019531 48.789062 6.03125 48.457031 5.976562 C 48.339844 5.957031 48.238281 5.9375 48.140625 5.917969 C 48.046875 5.898438 47.960938 5.871094 47.875 5.851562 L 47.96875 4.390625 Z M 48.101562 2.246094 C 48.183594 2.25 48.28125 2.257812 48.386719 2.277344 C 48.492188 2.292969 48.59375 2.308594 48.683594 2.324219 C 48.976562 2.375 49.191406 2.457031 49.332031 2.566406 C 49.476562 2.683594 49.542969 2.847656 49.53125 3.066406 C 49.519531 3.28125 49.441406 3.425781 49.289062 3.5 C 49.140625 3.574219 48.898438 3.582031 48.5625 3.523438 L 48.027344 3.433594 Z M 55.914062 8.4375 C 55.761719 7.78125 55.617188 7.1875 55.476562 6.636719 C 55.339844 6.09375 55.207031 5.585938 55.074219 5.113281 C 54.945312 4.636719 54.816406 4.191406 54.6875 3.765625 C 54.558594 3.347656 54.429688 2.933594 54.296875 2.535156 L 53.300781 2.308594 C 53.117188 2.636719 52.941406 2.980469 52.765625 3.332031 C 52.59375 3.691406 52.410156 4.070312 52.222656 4.472656 C 52.035156 4.882812 51.835938 5.320312 51.636719 5.792969 C 51.433594 6.273438 51.214844 6.796875 50.980469 7.371094 L 52.128906 7.617188 C 52.195312 7.433594 52.269531 7.242188 52.34375 7.046875 C 52.417969 6.851562 52.496094 6.660156 52.570312 6.464844 L 54.453125 6.878906 C 54.503906 7.09375 54.554688 7.3125 54.605469 7.535156 C 54.652344 7.757812 54.703125 7.972656 54.746094 8.183594 Z M 53.796875 3.957031 C 53.832031 4.097656 53.878906 4.269531 53.929688 4.457031 C 53.976562 4.652344 54.03125 4.859375 54.085938 5.089844 C 54.140625 5.320312 54.199219 5.5625 54.253906 5.824219 L 52.886719 5.519531 C 52.976562 5.296875 53.070312 5.085938 53.15625 4.886719 C 53.242188 4.6875 53.324219 4.503906 53.394531 4.339844 C 53.464844 4.171875 53.527344 4.027344 53.578125 3.90625 C 53.632812 3.78125 53.675781 3.683594 53.703125 3.609375 C 53.722656 3.699219 53.757812 3.8125 53.796875 3.957031 Z M 57.289062 7.738281 C 57.109375 7.621094 56.9375 7.492188 56.785156 7.34375 L 56.394531 8.25 C 56.457031 8.3125 56.53125 8.382812 56.621094 8.457031 C 56.722656 8.542969 56.832031 8.621094 56.949219 8.691406 C 57.089844 8.78125 57.238281 8.859375 57.386719 8.929688 C 57.570312 9.015625 57.761719 9.085938 57.957031 9.140625 C 58.582031 9.320312 59.0625 9.308594 59.390625 9.109375 C 59.71875 8.90625 59.894531 8.546875 59.929688 8.03125 C 59.945312 7.796875 59.933594 7.558594 59.882812 7.328125 C 59.839844 7.132812 59.757812 6.941406 59.652344 6.773438 C 59.535156 6.59375 59.394531 6.433594 59.234375 6.289062 C 59.0625 6.136719 58.859375 5.972656 58.628906 5.800781 C 58.515625 5.714844 58.410156 5.640625 58.320312 5.574219 C 58.234375 5.507812 58.152344 5.433594 58.078125 5.351562 C 58.015625 5.285156 57.964844 5.207031 57.921875 5.121094 C 57.882812 5.039062 57.871094 4.945312 57.878906 4.855469 C 57.894531 4.691406 57.960938 4.589844 58.070312 4.542969 C 58.1875 4.5 58.367188 4.511719 58.613281 4.585938 C 58.8125 4.636719 59 4.726562 59.175781 4.839844 C 59.320312 4.9375 59.457031 5.050781 59.585938 5.167969 L 59.941406 4.324219 C 59.777344 4.171875 59.597656 4.035156 59.40625 3.914062 C 59.164062 3.761719 58.902344 3.640625 58.621094 3.5625 C 58.394531 3.488281 58.160156 3.457031 57.917969 3.464844 C 57.722656 3.46875 57.53125 3.523438 57.363281 3.617188 C 57.199219 3.710938 57.070312 3.847656 56.980469 4.011719 C 56.875 4.207031 56.816406 4.417969 56.800781 4.632812 C 56.777344 4.855469 56.796875 5.078125 56.859375 5.292969 C 56.917969 5.480469 57.003906 5.660156 57.117188 5.820312 C 57.230469 5.976562 57.359375 6.121094 57.503906 6.242188 C 57.648438 6.371094 57.796875 6.484375 57.941406 6.59375 C 58.28125 6.832031 58.519531 7.03125 58.65625 7.191406 C 58.792969 7.351562 58.851562 7.519531 58.839844 7.699219 C 58.835938 7.777344 58.816406 7.851562 58.789062 7.921875 C 58.761719 7.984375 58.714844 8.035156 58.652344 8.066406 C 58.578125 8.105469 58.496094 8.121094 58.40625 8.121094 C 58.277344 8.117188 58.152344 8.09375 58.035156 8.058594 C 57.773438 7.992188 57.519531 7.882812 57.289062 7.738281 Z M 65.609375 7.238281 C 65.769531 7.367188 65.917969 7.507812 66.054688 7.65625 L 66.441406 6.84375 C 66.40625 6.808594 66.359375 6.75 66.285156 6.671875 C 66.191406 6.582031 66.097656 6.496094 65.996094 6.417969 C 65.859375 6.3125 65.71875 6.214844 65.574219 6.125 C 65.394531 6.015625 65.210938 5.921875 65.015625 5.839844 C 64.738281 5.714844 64.433594 5.65625 64.125 5.65625 C 63.851562 5.65625 63.582031 5.734375 63.351562 5.878906 C 63.117188 6.019531 62.925781 6.234375 62.761719 6.519531 C 62.601562 6.804688 62.488281 7.164062 62.429688 7.605469 C 62.371094 8.015625 62.371094 8.4375 62.433594 8.84375 C 62.492188 9.21875 62.609375 9.582031 62.777344 9.917969 C 62.945312 10.238281 63.164062 10.527344 63.433594 10.769531 C 63.703125 11.019531 64.019531 11.214844 64.355469 11.351562 C 64.761719 11.519531 65.105469 11.625 65.386719 11.671875 C 65.667969 11.71875 65.878906 11.738281 66.003906 11.730469 L 66.28125 9.046875 L 65.261719 8.625 L 65.054688 10.496094 C 64.980469 10.484375 64.90625 10.460938 64.835938 10.4375 C 64.753906 10.410156 64.652344 10.371094 64.542969 10.320312 C 64.339844 10.238281 64.15625 10.117188 64 9.964844 C 63.847656 9.8125 63.730469 9.628906 63.644531 9.4375 C 63.558594 9.230469 63.5 9.007812 63.476562 8.785156 C 63.449219 8.539062 63.453125 8.292969 63.484375 8.046875 C 63.550781 7.515625 63.707031 7.144531 63.957031 6.929688 C 64.203125 6.714844 64.558594 6.707031 65.027344 6.902344 C 65.242188 6.992188 65.433594 7.105469 65.609375 7.238281 Z M 70.960938 14.046875 C 70.855469 13.402344 70.753906 12.808594 70.660156 12.265625 C 70.5625 11.726562 70.46875 11.222656 70.375 10.75 C 70.277344 10.28125 70.1875 9.832031 70.089844 9.414062 C 69.996094 8.992188 69.902344 8.582031 69.800781 8.183594 L 68.90625 7.757812 C 68.71875 8.027344 68.539062 8.300781 68.359375 8.59375 C 68.179688 8.886719 67.992188 9.203125 67.796875 9.535156 C 67.601562 9.875 67.402344 10.238281 67.191406 10.636719 C 66.980469 11.035156 66.753906 11.46875 66.507812 11.953125 L 67.535156 12.4375 C 67.605469 12.28125 67.6875 12.121094 67.765625 11.957031 C 67.84375 11.792969 67.925781 11.628906 68.003906 11.464844 L 69.707031 12.269531 C 69.738281 12.484375 69.773438 12.695312 69.804688 12.914062 C 69.839844 13.132812 69.871094 13.347656 69.902344 13.554688 Z M 69.261719 9.394531 C 69.285156 9.539062 69.320312 9.703125 69.351562 9.894531 C 69.390625 10.082031 69.421875 10.292969 69.464844 10.519531 C 69.503906 10.746094 69.542969 10.988281 69.582031 11.238281 L 68.34375 10.65625 C 68.441406 10.46875 68.535156 10.292969 68.628906 10.125 C 68.71875 9.960938 68.800781 9.808594 68.871094 9.667969 C 68.941406 9.527344 69.007812 9.410156 69.066406 9.304688 C 69.125 9.203125 69.167969 9.121094 69.195312 9.058594 C 69.210938 9.140625 69.234375 9.257812 69.261719 9.394531 Z M 72.40625 13.964844 C 72.246094 13.816406 72.105469 13.65625 71.972656 13.484375 L 71.597656 14.277344 C 71.648438 14.347656 71.714844 14.429688 71.789062 14.519531 C 71.875 14.621094 71.96875 14.722656 72.066406 14.8125 C 72.1875 14.925781 72.3125 15.035156 72.445312 15.132812 C 72.605469 15.253906 72.769531 15.355469 72.945312 15.449219 C 73.496094 15.75 73.921875 15.839844 74.226562 15.714844 C 74.523438 15.589844 74.699219 15.277344 74.75 14.789062 C 74.773438 14.5625 74.769531 14.332031 74.734375 14.105469 C 74.699219 13.902344 74.632812 13.707031 74.542969 13.519531 C 74.441406 13.324219 74.320312 13.136719 74.183594 12.96875 C 74.039062 12.789062 73.867188 12.589844 73.664062 12.375 C 73.566406 12.277344 73.476562 12.183594 73.398438 12.097656 C 73.324219 12.011719 73.25 11.925781 73.191406 11.835938 C 73.136719 11.757812 73.089844 11.671875 73.0625 11.585938 C 73.03125 11.503906 73.023438 11.414062 73.035156 11.328125 C 73.050781 11.175781 73.113281 11.082031 73.21875 11.0625 C 73.324219 11.042969 73.484375 11.085938 73.699219 11.207031 C 73.878906 11.300781 74.042969 11.421875 74.1875 11.5625 C 74.316406 11.683594 74.433594 11.820312 74.546875 11.960938 L 74.894531 11.21875 C 74.753906 11.042969 74.601562 10.875 74.433594 10.71875 C 74.226562 10.523438 73.996094 10.363281 73.746094 10.226562 C 73.550781 10.117188 73.34375 10.039062 73.125 9.992188 C 72.957031 9.960938 72.78125 9.972656 72.625 10.035156 C 72.480469 10.09375 72.355469 10.203125 72.273438 10.335938 C 72.183594 10.476562 72.121094 10.667969 72.089844 10.894531 C 72.0625 11.109375 72.070312 11.328125 72.117188 11.535156 C 72.160156 11.730469 72.230469 11.917969 72.324219 12.089844 C 72.414062 12.265625 72.523438 12.425781 72.648438 12.578125 C 72.773438 12.726562 72.902344 12.871094 73.027344 13 C 73.324219 13.296875 73.527344 13.539062 73.640625 13.722656 C 73.757812 13.902344 73.804688 14.078125 73.785156 14.25 C 73.78125 14.316406 73.761719 14.386719 73.734375 14.449219 C 73.707031 14.503906 73.664062 14.542969 73.609375 14.5625 C 73.539062 14.582031 73.460938 14.582031 73.386719 14.5625 C 73.273438 14.53125 73.160156 14.484375 73.058594 14.425781 C 72.820312 14.304688 72.601562 14.148438 72.40625 13.964844 Z M 72.40625 13.964844 "/>
</g>
</svg>
