<?xml version="1.0" encoding="UTF-8"?>
<svg xmlns="http://www.w3.org/2000/svg" xmlns:xlink="http://www.w3.org/1999/xlink" width="100px" height="100px" viewBox="0 0 100 100" version="1.1">
<g id="surface1">
<path style=" stroke:none;fill-rule:evenodd;fill:rgb(72.941176%,66.27451%,45.882353%);fill-opacity:1;" d="M 50 0 C 77.601562 0 100 22.398438 100 50 C 100 77.601562 77.601562 100 50 100 C 22.398438 100 0 77.601562 0 50 C 0 22.398438 22.398438 0 50 0 "/>
<path style=" stroke:none;fill-rule:evenodd;fill:rgb(100%,100%,100%);fill-opacity:1;" d="M 50 1.199219 C 76.945312 1.199219 98.800781 23.054688 98.800781 50 C 98.800781 76.945312 76.945312 98.800781 50 98.800781 C 23.054688 98.800781 1.199219 76.945312 1.199219 50 C 1.199219 23.054688 23.054688 1.199219 50 1.199219 "/>
<path style=" stroke:none;fill-rule:evenodd;fill:rgb(42.352941%,2.352941%,20%);fill-opacity:1;" d="M 50 19.199219 C 66.980469 19.199219 80.800781 32.980469 80.800781 50 C 80.800781 66.980469 67.019531 80.800781 50 80.800781 C 33.019531 80.800781 19.199219 67.019531 19.199219 50 C 19.199219 33.019531 33.019531 19.199219 50 19.199219 M 50 2.363281 C 76.328125 2.363281 97.636719 23.710938 97.636719 50 C 97.636719 76.328125 76.289062 97.636719 50 97.636719 C 23.710938 97.636719 2.363281 76.289062 2.363281 50 C 2.363281 23.671875 23.671875 2.363281 50 2.363281 Z M 50 2.363281 "/>
<path style=" stroke:none;fill-rule:evenodd;fill:rgb(100%,100%,100%);fill-opacity:1;" d="M 1.925781 46.4375 L 98.074219 46.4375 L 98.074219 48.546875 L 1.925781 48.546875 Z M 1.925781 46.4375 "/>
<path style=" stroke:none;fill-rule:evenodd;fill:rgb(100%,100%,100%);fill-opacity:1;" d="M 1.925781 51.453125 L 98.074219 51.453125 L 98.074219 53.5625 L 1.925781 53.5625 Z M 1.925781 51.453125 "/>
<path style=" stroke:none;fill-rule:nonzero;fill:rgb(42.352941%,2.352941%,20%);fill-opacity:1;" d="M 71.128906 58.582031 C 70.507812 61.671875 69.199219 64.617188 67.308594 67.164062 C 69.308594 65.089844 70.910156 62.65625 72.035156 60 C 72.21875 59.417969 71.78125 58.617188 71.128906 58.582031 M 71.671875 51.78125 C 71.601562 51.816406 71.492188 51.855469 71.417969 51.925781 C 71.636719 53.417969 71.671875 54.835938 71.453125 56.363281 C 72.074219 56.617188 72.546875 57.164062 72.835938 57.746094 C 73.636719 55.273438 74 52.691406 74 50.074219 C 73.34375 50.800781 72.546875 51.382812 71.671875 51.78125 Z M 71.601562 39.710938 C 71.308594 41.308594 70.800781 43.164062 69.492188 44.253906 C 70.289062 46 70.691406 47.816406 71.089844 49.671875 C 72.109375 49.308594 73.382812 48.582031 73.710938 47.492188 C 73.816406 47.164062 73.746094 46.800781 73.710938 46.4375 C 73.492188 45.019531 73.128906 43.601562 72.65625 42.21875 C 72.328125 41.382812 72.035156 40.507812 71.601562 39.710938 Z M 47.710938 25.890625 C 48.363281 25.855469 49.019531 26 49.671875 26.074219 C 51.089844 26.289062 52.507812 26.65625 53.855469 27.164062 C 56.144531 27.964844 58.328125 29.199219 60.253906 30.726562 C 63.890625 33.601562 66.691406 37.453125 68.582031 41.671875 C 69.816406 40.691406 70 38.617188 70.109375 37.199219 C 70.144531 37.019531 70 36.871094 69.890625 36.726562 C 68.289062 34.363281 66.328125 32.289062 64.035156 30.582031 C 60.109375 27.671875 55.308594 26 50.4375 25.816406 C 49.527344 25.78125 48.617188 25.78125 47.710938 25.890625 Z M 45.089844 23.746094 C 50.691406 22.800781 56.582031 23.671875 61.671875 26.21875 C 65.710938 28.253906 69.199219 31.308594 71.746094 35.019531 C 74.074219 38.398438 75.601562 42.328125 76.183594 46.398438 C 76.726562 50.253906 76.4375 54.253906 75.308594 58 C 74 62.328125 71.5625 66.328125 68.328125 69.492188 C 64.910156 72.835938 60.617188 75.238281 56 76.363281 C 54.144531 76.800781 52.289062 77.054688 50.363281 77.128906 C 49.527344 77.128906 48.691406 77.164062 47.855469 77.089844 C 41.601562 76.726562 35.636719 74.109375 31.089844 69.816406 C 29.816406 68.582031 28.617188 67.273438 27.601562 65.78125 C 28.472656 66.398438 29.417969 66.945312 30.363281 67.492188 C 33.855469 69.492188 37.492188 70.945312 41.492188 71.382812 C 45.78125 71.746094 49.601562 71.089844 53.527344 69.417969 C 53.636719 69.382812 53.925781 69.199219 54.183594 69.054688 L 58.582031 69.054688 C 58.472656 69.128906 58.289062 69.238281 58.074219 69.34375 C 57.492188 69.710938 56.871094 70 56.289062 70.289062 C 50.835938 72.910156 45.855469 73.855469 38.507812 72.398438 C 38.472656 72.398438 44.726562 75.527344 52.328125 74.65625 C 57.089844 74.109375 61.671875 72.144531 65.308594 69.054688 C 65.5625 68.835938 65.816406 68.65625 65.964844 68.363281 C 67.382812 65.417969 68.507812 62.328125 69.054688 59.089844 C 68.871094 59.164062 68.691406 59.273438 68.507812 59.417969 C 67.746094 60 66.726562 60.945312 66 61.671875 L 66.835938 57.855469 C 67.019531 57.710938 67.199219 57.601562 67.382812 57.453125 C 68.035156 57.054688 68.65625 56.582031 69.382812 56.328125 C 69.492188 54.980469 69.5625 53.710938 69.382812 52.363281 C 63.054688 54.144531 56 53.890625 49.453125 53.855469 L 49.710938 52.761719 L 50.035156 51.199219 C 56.289062 51.453125 63.019531 51.964844 69.089844 50.398438 C 68.871094 48.980469 68.328125 46.363281 67.492188 45.089844 C 62.800781 45.34375 56.980469 40.472656 53.054688 37.925781 C 53.019531 37.890625 52.980469 37.890625 52.945312 37.855469 L 53.492188 35.34375 C 57.089844 37.636719 62.144531 42.328125 66.507812 42.617188 C 64.835938 38.253906 62 34.328125 58.21875 31.5625 C 54.074219 28.546875 49.128906 27.089844 44.074219 26.691406 C 43.671875 26.65625 43.238281 26.617188 42.835938 26.65625 C 39.054688 27.710938 35.492188 29.710938 32.65625 32.398438 C 38.472656 29.199219 42.980469 30.109375 48.617188 32.398438 L 43.054688 32.398438 C 42.980469 32.363281 42.871094 32.363281 42.761719 32.363281 C 39.925781 31.710938 36.980469 32.035156 34.328125 33.164062 C 33.164062 33.601562 32.109375 34.21875 31.054688 34.871094 C 29.492188 35.855469 28.074219 37.019531 26.761719 38.289062 C 26.074219 38.980469 25.382812 39.671875 24.761719 40.4375 C 24.582031 40.65625 24.398438 40.910156 24.253906 41.164062 C 24.398438 40.617188 24.617188 40.109375 24.835938 39.601562 C 26.582031 35.636719 29.308594 32.035156 32.726562 29.308594 C 36.289062 26.4375 40.582031 24.472656 45.089844 23.746094 Z M 45.089844 23.746094 "/>
<path style=" stroke:none;fill-rule:nonzero;fill:rgb(42.352941%,2.352941%,20%);fill-opacity:1;" d="M 38.582031 43.054688 L 50.183594 43.054688 L 48.074219 52.546875 L 36.472656 52.546875 L 36.800781 51.128906 C 32.21875 51.164062 27.601562 51.238281 22.980469 51.199219 L 37.164062 49.417969 L 37.492188 47.855469 C 32.980469 47.855469 28.472656 47.890625 23.964844 47.925781 L 23.964844 47.890625 C 28.582031 47.417969 33.238281 46.761719 37.855469 46.144531 L 38.183594 44.65625 C 34.21875 44.65625 30.144531 44.910156 26.183594 44.691406 Z M 52.183594 34.074219 L 50.617188 41.199219 L 39.019531 41.199219 L 39.308594 39.890625 L 30.472656 39.890625 L 39.5625 38.691406 L 39.890625 37.199219 L 32.21875 37.199219 L 40.074219 36.21875 L 40.398438 34.800781 L 34.507812 34.800781 L 40.582031 34.035156 Z M 36.074219 54.398438 L 47.671875 54.398438 L 46.617188 59.238281 L 64.910156 59.128906 L 63.054688 67.492188 L 33.199219 67.453125 L 34.726562 60.507812 L 24.871094 60.4375 L 35.019531 59.164062 L 35.34375 57.746094 L 27.054688 57.746094 L 35.5625 56.691406 L 35.855469 55.382812 L 29.128906 55.382812 Z M 36.074219 54.398438 "/>
<path style=" stroke:none;fill-rule:nonzero;fill:rgb(72.941176%,66.27451%,45.882353%);fill-opacity:1;" d="M 71.417969 28.582031 C 65.925781 23.089844 58.363281 19.710938 50 19.710938 C 41.636719 19.710938 34.074219 23.089844 28.582031 28.582031 C 23.089844 34.074219 19.710938 41.636719 19.710938 50 C 19.710938 58.363281 23.089844 65.925781 28.582031 71.417969 C 34.074219 76.910156 41.636719 80.289062 50 80.289062 C 58.363281 80.289062 65.925781 76.910156 71.417969 71.417969 C 76.910156 65.925781 80.289062 58.363281 80.289062 50 C 80.289062 41.636719 76.910156 34.074219 71.417969 28.582031 M 50 18.726562 C 58.65625 18.726562 66.472656 22.21875 72.109375 27.890625 C 77.78125 33.5625 81.273438 41.382812 81.273438 50 C 81.273438 58.65625 77.78125 66.472656 72.109375 72.109375 C 66.4375 77.78125 58.617188 81.273438 50 81.273438 C 41.34375 81.273438 33.527344 77.78125 27.890625 72.109375 C 22.21875 66.4375 18.726562 58.617188 18.726562 50 C 18.726562 41.34375 22.21875 33.527344 27.890625 27.890625 C 33.527344 22.21875 41.34375 18.726562 50 18.726562 Z M 50 18.726562 "/>
<path style=" stroke:none;fill-rule:nonzero;fill:rgb(100%,100%,100%);fill-opacity:1;" d="M 89.128906 37.671875 L 88.546875 36.253906 C 88.835938 36.144531 89.054688 36 89.199219 35.855469 C 89.34375 35.710938 89.382812 35.527344 89.382812 35.308594 C 89.382812 35.089844 89.308594 34.835938 89.199219 34.546875 L 89.019531 34.144531 C 88.910156 33.890625 88.800781 33.671875 88.726562 33.492188 C 88.617188 33.308594 88.507812 33.164062 88.398438 33.054688 C 88.183594 32.910156 87.855469 32.910156 87.453125 33.054688 C 87.199219 33.164062 87.019531 33.273438 86.910156 33.382812 C 86.800781 33.492188 86.726562 33.636719 86.726562 33.816406 C 86.726562 34 86.761719 34.21875 86.871094 34.507812 C 87.054688 35.019531 87.238281 35.492188 87.382812 35.925781 C 87.527344 36.363281 87.636719 36.800781 87.671875 37.164062 C 87.710938 37.527344 87.601562 37.890625 87.382812 38.21875 C 87.164062 38.546875 86.761719 38.835938 86.183594 39.054688 C 85.816406 39.199219 85.492188 39.308594 85.238281 39.382812 C 84.945312 39.453125 84.691406 39.453125 84.4375 39.417969 C 84.183594 39.382812 83.964844 39.273438 83.746094 39.089844 C 83.527344 38.910156 83.308594 38.65625 83.128906 38.289062 C 83.054688 38.144531 82.945312 37.890625 82.800781 37.601562 C 82.65625 37.273438 82.546875 37.054688 82.472656 36.871094 C 82.253906 36.328125 82.109375 35.890625 82 35.5625 C 81.890625 35.199219 81.855469 34.871094 81.890625 34.582031 C 81.925781 34.253906 82.074219 33.964844 82.328125 33.710938 C 82.582031 33.453125 82.945312 33.199219 83.453125 32.980469 C 83.492188 32.980469 83.5625 32.945312 83.601562 32.945312 C 83.636719 32.945312 83.710938 32.910156 83.78125 32.871094 L 84.363281 34.253906 C 84.074219 34.363281 83.855469 34.472656 83.671875 34.582031 C 83.527344 34.691406 83.417969 34.835938 83.34375 35.019531 C 83.273438 35.199219 83.308594 35.417969 83.417969 35.710938 C 83.527344 35.964844 83.671875 36.328125 83.855469 36.835938 C 84 37.164062 84.109375 37.417969 84.253906 37.5625 C 84.398438 37.710938 84.546875 37.816406 84.726562 37.855469 C 84.910156 37.890625 85.164062 37.816406 85.492188 37.710938 C 85.78125 37.601562 86 37.453125 86.109375 37.308594 C 86.21875 37.164062 86.253906 36.980469 86.253906 36.800781 C 86.253906 36.617188 86.183594 36.398438 86.109375 36.144531 C 86 35.890625 85.925781 35.636719 85.816406 35.382812 C 85.601562 34.726562 85.492188 34.253906 85.417969 34 C 85.34375 33.710938 85.34375 33.417969 85.382812 33.128906 C 85.417969 32.835938 85.5625 32.546875 85.816406 32.328125 C 86.074219 32.074219 86.4375 31.855469 86.980469 31.636719 C 87.417969 31.453125 87.816406 31.382812 88.144531 31.382812 C 88.507812 31.382812 88.800781 31.492188 89.089844 31.710938 C 89.382812 31.925781 89.601562 32.21875 89.816406 32.65625 C 90 33.019531 90.183594 33.417969 90.363281 33.855469 C 90.65625 34.546875 90.835938 35.089844 90.910156 35.492188 C 90.980469 35.890625 90.945312 36.289062 90.761719 36.691406 C 90.582031 37.054688 90.183594 37.382812 89.5625 37.601562 Z M 89.128906 37.671875 "/>
<path style=" stroke:none;fill-rule:nonzero;fill:rgb(100%,100%,100%);fill-opacity:1;" d="M 79.601562 31.578125 L 86.738281 27.289062 L 87.5625 28.664062 L 80.425781 32.949219 Z M 79.601562 31.578125 "/>
<path style=" stroke:none;fill-rule:nonzero;fill:rgb(100%,100%,100%);fill-opacity:1;" d="M 83.492188 22.691406 L 78 26.945312 L 80.398438 30 L 79.273438 30.871094 L 75.890625 26.546875 L 82.472656 21.417969 Z M 83.492188 22.691406 "/>
<path style=" stroke:none;fill-rule:nonzero;fill:rgb(100%,100%,100%);fill-opacity:1;" d="M 76.328125 17.453125 L 74.945312 19.128906 L 77.925781 21.636719 L 77.199219 22.507812 L 74.183594 20 L 72.65625 21.816406 L 75.855469 24.472656 L 75.019531 25.492188 L 70.65625 21.816406 L 76 15.417969 L 80.328125 19.089844 L 79.492188 20.074219 Z M 76.328125 17.453125 "/>
<path style=" stroke:none;fill-rule:nonzero;fill:rgb(100%,100%,100%);fill-opacity:1;" d="M 64.035156 17.816406 L 68.21875 10.582031 L 71.890625 12.726562 C 72.363281 12.980469 72.691406 13.273438 72.910156 13.527344 C 73.128906 13.816406 73.238281 14.109375 73.238281 14.472656 C 73.238281 14.835938 73.089844 15.238281 72.835938 15.671875 C 72.65625 16 72.472656 16.253906 72.289062 16.4375 C 72.109375 16.617188 71.925781 16.726562 71.671875 16.800781 C 71.453125 16.871094 71.164062 16.835938 70.835938 16.761719 L 70.800781 16.800781 C 71.089844 17.019531 71.273438 17.238281 71.382812 17.492188 C 71.492188 17.710938 71.492188 17.964844 71.453125 18.21875 C 71.382812 18.472656 71.273438 18.761719 71.089844 19.089844 C 70.871094 19.453125 70.65625 19.746094 70.4375 19.964844 C 70.21875 20.183594 69.964844 20.328125 69.746094 20.398438 C 69.492188 20.472656 69.199219 20.472656 68.910156 20.398438 C 68.582031 20.328125 68.253906 20.183594 67.855469 19.964844 Z M 67.816406 14.398438 L 69.5625 15.417969 C 69.890625 15.601562 70.144531 15.710938 70.328125 15.746094 C 70.507812 15.78125 70.691406 15.78125 70.871094 15.671875 C 71.019531 15.5625 71.199219 15.382812 71.34375 15.089844 C 71.527344 14.761719 71.601562 14.472656 71.5625 14.289062 C 71.492188 14.109375 71.308594 13.890625 70.980469 13.710938 L 68.910156 12.507812 Z M 66.035156 17.492188 L 67.816406 18.507812 C 68.144531 18.691406 68.4375 18.835938 68.65625 18.910156 C 68.871094 18.980469 69.054688 18.945312 69.238281 18.871094 C 69.417969 18.761719 69.601562 18.582031 69.78125 18.253906 C 70.035156 17.855469 70.109375 17.527344 70 17.308594 C 69.925781 17.089844 69.671875 16.871094 69.238281 16.617188 L 67.238281 15.453125 Z M 66.035156 17.492188 "/>
<path style=" stroke:none;fill-rule:nonzero;fill:rgb(100%,100%,100%);fill-opacity:1;" d="M 61.746094 15.34375 L 58.289062 14.289062 L 57.34375 15.671875 L 55.746094 15.199219 L 60.800781 8 L 63.054688 8.691406 L 63.34375 17.492188 L 61.78125 17.019531 Z M 61.746094 14.109375 L 61.601562 9.5625 L 58.980469 13.308594 Z M 61.746094 14.109375 "/>
<path style=" stroke:none;fill-rule:nonzero;fill:rgb(100%,100%,100%);fill-opacity:1;" d="M 49.527344 6.761719 L 49.527344 10.144531 L 50.289062 10.144531 L 53.054688 6.761719 L 55.019531 6.761719 L 51.636719 10.800781 L 55.34375 15.089844 L 53.34375 15.089844 L 50.289062 11.527344 L 49.527344 11.527344 L 49.527344 15.089844 L 47.925781 15.089844 L 47.925781 6.761719 Z M 49.527344 6.761719 "/>
<path style=" stroke:none;fill-rule:nonzero;fill:rgb(100%,100%,100%);fill-opacity:1;" d="M 43.710938 8.617188 L 44.800781 15.453125 L 43.199219 15.710938 L 42.109375 8.871094 L 39.746094 9.238281 L 39.527344 7.855469 L 45.925781 6.835938 L 46.144531 8.21875 Z M 43.710938 8.617188 "/>
<path style=" stroke:none;fill-rule:nonzero;fill:rgb(100%,100%,100%);fill-opacity:1;" d="M 33.636719 11.417969 L 34.4375 13.417969 L 38.074219 11.964844 L 38.507812 13.054688 L 34.871094 14.507812 L 35.78125 16.691406 L 39.636719 15.164062 L 40.109375 16.363281 L 34.835938 18.507812 L 31.710938 10.761719 L 36.945312 8.65625 L 37.453125 9.890625 Z M 33.636719 11.417969 "/>
<path style=" stroke:none;fill-rule:nonzero;fill:rgb(100%,100%,100%);fill-opacity:1;" d="M 28.460938 12.503906 L 29.871094 11.753906 L 33.78125 19.105469 L 32.367188 19.855469 Z M 28.460938 12.503906 "/>
<path style=" stroke:none;fill-rule:nonzero;fill:rgb(100%,100%,100%);fill-opacity:1;" d="M 23.746094 15.636719 L 27.710938 21.34375 L 30.871094 19.128906 L 31.671875 20.253906 L 27.199219 23.417969 L 22.398438 16.582031 Z M 23.746094 15.636719 "/>
<path style=" stroke:none;fill-rule:nonzero;fill:rgb(100%,100%,100%);fill-opacity:1;" d="M 20.546875 26.035156 L 21.453125 24.761719 C 21.527344 24.800781 21.601562 24.871094 21.746094 24.945312 C 21.855469 25.019531 21.964844 25.089844 22.035156 25.128906 C 22.546875 25.492188 22.871094 25.890625 22.980469 26.289062 C 23.128906 26.691406 23.128906 27.128906 22.945312 27.527344 C 22.800781 27.964844 22.546875 28.4375 22.144531 28.945312 L 21.492188 29.855469 C 21.054688 30.472656 20.582031 30.871094 20.144531 31.054688 C 19.746094 31.273438 19.273438 31.273438 18.761719 31.128906 C 18.289062 30.980469 17.710938 30.65625 17.128906 30.21875 C 16.800781 30 16.507812 29.78125 16.253906 29.601562 C 16 29.453125 15.78125 29.308594 15.636719 29.164062 C 15.089844 28.761719 14.691406 28.363281 14.4375 28 C 14.183594 27.636719 14.035156 27.238281 14.035156 26.835938 C 14.035156 26.4375 14.144531 26.035156 14.328125 25.636719 C 14.507812 25.238281 14.835938 24.761719 15.238281 24.183594 L 15.5625 23.746094 C 15.78125 23.453125 15.964844 23.238281 16.144531 23.019531 C 16.328125 22.835938 16.546875 22.65625 16.800781 22.546875 C 17.054688 22.4375 17.308594 22.363281 17.5625 22.398438 C 17.746094 22.398438 17.890625 22.4375 18.074219 22.472656 C 18.253906 22.546875 18.398438 22.582031 18.546875 22.691406 C 18.691406 22.761719 18.835938 22.835938 18.945312 22.945312 C 19.089844 23.019531 19.238281 23.128906 19.417969 23.273438 L 18.472656 24.546875 C 18.398438 24.507812 18.253906 24.4375 18 24.253906 C 17.746094 24.109375 17.527344 24 17.34375 24.035156 C 17.164062 24.035156 16.980469 24.183594 16.761719 24.472656 C 16.65625 24.582031 16.507812 24.761719 16.328125 25.019531 L 16.183594 25.238281 C 16 25.492188 15.855469 25.746094 15.710938 25.964844 C 15.601562 26.183594 15.5625 26.398438 15.601562 26.582031 C 15.636719 26.761719 15.710938 26.910156 15.855469 27.054688 C 16 27.199219 16.144531 27.34375 16.363281 27.492188 C 16.617188 27.710938 16.835938 27.855469 16.980469 27.964844 C 17.273438 28.183594 17.710938 28.472656 18.289062 28.871094 C 18.761719 29.199219 19.128906 29.382812 19.382812 29.453125 C 19.636719 29.527344 19.890625 29.453125 20.109375 29.273438 C 20.328125 29.089844 20.617188 28.800781 20.945312 28.328125 C 21.128906 28.074219 21.273438 27.890625 21.34375 27.710938 C 21.453125 27.5625 21.492188 27.382812 21.527344 27.238281 C 21.5625 27.089844 21.527344 26.910156 21.453125 26.726562 C 21.382812 26.546875 21.238281 26.398438 21.019531 26.253906 C 20.910156 26.183594 20.835938 26.144531 20.800781 26.074219 C 20.691406 26.144531 20.617188 26.074219 20.546875 26.035156 "/>
<path style=" stroke:none;fill-rule:nonzero;fill:rgb(100%,100%,100%);fill-opacity:1;" d="M 16.472656 39.164062 L 8.945312 35.636719 L 10.761719 31.78125 C 10.980469 31.308594 11.238281 30.945312 11.492188 30.691406 C 11.746094 30.4375 12.035156 30.289062 12.398438 30.253906 C 12.761719 30.21875 13.164062 30.328125 13.636719 30.546875 C 13.964844 30.691406 14.253906 30.871094 14.4375 31.019531 C 14.617188 31.164062 14.761719 31.34375 14.871094 31.601562 C 14.945312 31.816406 14.980469 32.109375 14.910156 32.4375 L 14.945312 32.472656 C 15.128906 32.183594 15.34375 31.964844 15.5625 31.855469 C 15.78125 31.746094 16.035156 31.710938 16.289062 31.746094 C 16.546875 31.78125 16.871094 31.890625 17.199219 32.035156 C 17.601562 32.21875 17.890625 32.398438 18.144531 32.617188 C 18.363281 32.800781 18.546875 33.054688 18.65625 33.273438 C 18.761719 33.527344 18.761719 33.78125 18.726562 34.109375 C 18.691406 34.4375 18.582031 34.800781 18.398438 35.199219 Z M 12.761719 35.671875 L 13.636719 33.816406 C 13.78125 33.492188 13.890625 33.238281 13.925781 33.019531 C 13.964844 32.800781 13.925781 32.65625 13.816406 32.507812 C 13.710938 32.363281 13.492188 32.21875 13.199219 32.074219 C 12.835938 31.890625 12.582031 31.855469 12.398438 31.925781 C 12.21875 32 12.035156 32.21875 11.855469 32.582031 L 10.835938 34.726562 Z M 15.964844 37.199219 L 16.835938 35.34375 C 17.019531 34.980469 17.089844 34.691406 17.164062 34.472656 C 17.199219 34.253906 17.164062 34.074219 17.054688 33.890625 C 16.945312 33.710938 16.726562 33.5625 16.398438 33.417969 C 15.964844 33.199219 15.636719 33.164062 15.453125 33.273438 C 15.238281 33.382812 15.054688 33.671875 14.835938 34.109375 L 13.816406 36.183594 Z M 15.964844 37.199219 "/>
<path style=" stroke:none;fill-rule:nonzero;fill:rgb(100%,100%,100%);fill-opacity:1;" d="M 80.398438 72.4375 L 79.417969 73.601562 C 79.164062 73.382812 78.945312 73.273438 78.761719 73.199219 C 78.582031 73.164062 78.398438 73.164062 78.21875 73.273438 C 78.035156 73.382812 77.855469 73.5625 77.636719 73.816406 L 77.34375 74.144531 C 77.164062 74.363281 77.019531 74.546875 76.910156 74.726562 C 76.800781 74.910156 76.726562 75.054688 76.691406 75.238281 C 76.65625 75.492188 76.800781 75.78125 77.164062 76.074219 C 77.382812 76.253906 77.5625 76.363281 77.746094 76.398438 C 77.925781 76.4375 78.074219 76.4375 78.21875 76.363281 C 78.363281 76.289062 78.546875 76.144531 78.761719 75.925781 C 79.128906 75.527344 79.453125 75.164062 79.78125 74.800781 C 80.109375 74.4375 80.4375 74.183594 80.726562 73.964844 C 81.054688 73.746094 81.417969 73.671875 81.78125 73.710938 C 82.183594 73.746094 82.617188 73.964844 83.089844 74.363281 C 83.382812 74.617188 83.636719 74.835938 83.816406 75.054688 C 84 75.273438 84.144531 75.527344 84.21875 75.746094 C 84.289062 76 84.328125 76.253906 84.253906 76.507812 C 84.183594 76.800781 84.035156 77.089844 83.816406 77.417969 C 83.710938 77.5625 83.5625 77.78125 83.34375 78.035156 C 83.128906 78.289062 82.980469 78.507812 82.871094 78.65625 C 82.507812 79.089844 82.183594 79.453125 81.925781 79.710938 C 81.671875 79.964844 81.382812 80.144531 81.089844 80.253906 C 80.800781 80.363281 80.472656 80.363281 80.109375 80.289062 C 79.746094 80.183594 79.382812 79.964844 78.945312 79.636719 C 78.910156 79.601562 78.871094 79.5625 78.835938 79.527344 C 78.800781 79.492188 78.761719 79.453125 78.691406 79.417969 L 79.671875 78.253906 C 79.925781 78.472656 80.109375 78.617188 80.289062 78.691406 C 80.472656 78.761719 80.65625 78.800781 80.835938 78.761719 C 81.019531 78.726562 81.199219 78.582031 81.417969 78.363281 C 81.601562 78.144531 81.855469 77.855469 82.21875 77.453125 C 82.4375 77.199219 82.617188 76.945312 82.691406 76.761719 C 82.761719 76.582031 82.761719 76.398438 82.691406 76.21875 C 82.617188 76.035156 82.472656 75.816406 82.21875 75.636719 C 81.964844 75.417969 81.78125 75.308594 81.5625 75.308594 C 81.382812 75.273438 81.199219 75.308594 81.054688 75.417969 C 80.910156 75.527344 80.726562 75.671875 80.546875 75.855469 C 80.363281 76.074219 80.183594 76.253906 80 76.472656 C 79.527344 76.945312 79.164062 77.308594 78.945312 77.492188 C 78.726562 77.671875 78.472656 77.816406 78.183594 77.925781 C 77.890625 78.035156 77.601562 78.035156 77.273438 77.925781 C 76.945312 77.816406 76.546875 77.601562 76.144531 77.238281 C 75.78125 76.945312 75.527344 76.617188 75.34375 76.328125 C 75.199219 76 75.128906 75.710938 75.164062 75.34375 C 75.199219 75.019531 75.382812 74.65625 75.671875 74.253906 C 75.890625 73.925781 76.183594 73.601562 76.472656 73.199219 C 76.945312 72.617188 77.34375 72.21875 77.671875 71.925781 C 78 71.636719 78.363281 71.527344 78.800781 71.492188 C 79.199219 71.492188 79.671875 71.710938 80.183594 72.109375 Z M 80.398438 72.4375 "/>
<path style=" stroke:none;fill-rule:nonzero;fill:rgb(100%,100%,100%);fill-opacity:1;" d="M 74.289062 75.890625 L 74.800781 81.855469 L 76.691406 84.472656 L 75.382812 85.382812 L 73.492188 82.800781 L 68.074219 80.398438 L 69.527344 79.34375 L 73.238281 81.054688 L 72.761719 76.980469 Z M 74.289062 75.890625 "/>
<path style=" stroke:none;fill-rule:nonzero;fill:rgb(100%,100%,100%);fill-opacity:1;" d="M 64.546875 81.671875 L 62.253906 81.417969 L 62.253906 80.800781 L 64.109375 80.691406 L 65.34375 79.34375 L 65.816406 79.746094 Z M 67.710938 80.691406 L 68.289062 81.925781 L 66.472656 88.945312 L 70.726562 86.980469 L 71.308594 88.21875 L 65.273438 91.019531 L 64.691406 89.78125 L 66.472656 82.761719 L 62.507812 84.617188 L 61.925781 83.382812 Z M 67.710938 80.691406 "/>
<path style=" stroke:none;fill-rule:nonzero;fill:rgb(100%,100%,100%);fill-opacity:1;" d="M 57.238281 85.964844 L 57.746094 88.074219 L 61.5625 87.128906 L 61.816406 88.253906 L 58.035156 89.199219 L 58.617188 91.492188 L 62.65625 90.472656 L 62.945312 91.746094 L 57.417969 93.128906 L 55.417969 85.054688 L 60.910156 83.671875 L 61.238281 84.980469 Z M 57.238281 85.964844 "/>
<path style=" stroke:none;fill-rule:nonzero;fill:rgb(100%,100%,100%);fill-opacity:1;" d="M 53.054688 85.164062 L 54.726562 85.128906 L 52.183594 93.492188 L 49.78125 93.5625 L 46.945312 85.273438 L 48.582031 85.238281 L 50.945312 92.183594 Z M 53.054688 85.164062 "/>
<path style=" stroke:none;fill-rule:nonzero;fill:rgb(100%,100%,100%);fill-opacity:1;" d="M 42 85.710938 L 41.601562 87.816406 L 45.453125 88.546875 L 45.238281 89.710938 L 41.382812 88.980469 L 40.945312 91.308594 L 45.019531 92.074219 L 44.800781 93.34375 L 39.199219 92.289062 L 40.726562 84.109375 L 46.289062 85.164062 L 46.035156 86.472656 Z M 42 85.710938 "/>
<path style=" stroke:none;fill-rule:nonzero;fill:rgb(100%,100%,100%);fill-opacity:1;" d="M 39.636719 83.816406 L 36.253906 91.417969 L 33.816406 90.363281 L 33.417969 82.546875 L 33.382812 82.546875 L 30.617188 88.945312 L 29.199219 88.289062 L 32.546875 80.691406 L 34.980469 81.746094 L 35.382812 89.5625 L 35.417969 89.5625 L 38.183594 83.164062 Z M 39.636719 83.816406 "/>
<path style=" stroke:none;fill-rule:nonzero;fill:rgb(100%,100%,100%);fill-opacity:1;" d="M 26.398438 84.726562 L 23.453125 82.65625 L 22.109375 83.671875 L 20.761719 82.726562 L 27.816406 77.492188 L 29.746094 78.835938 L 27.238281 87.273438 L 25.925781 86.328125 Z M 26.800781 83.5625 L 28.109375 79.199219 L 24.472656 81.925781 Z M 26.800781 83.5625 "/>
<path style=" stroke:none;fill-rule:nonzero;fill:rgb(100%,100%,100%);fill-opacity:1;" d="M 15.164062 76.328125 L 21.453125 70.871094 L 23.636719 73.382812 C 24.183594 74 24.546875 74.507812 24.726562 74.945312 C 24.910156 75.382812 24.945312 75.816406 24.800781 76.253906 C 24.65625 76.691406 24.253906 77.164062 23.636719 77.710938 C 23.382812 77.925781 23.128906 78.109375 22.945312 78.253906 C 22.761719 78.398438 22.507812 78.507812 22.289062 78.617188 C 22.035156 78.726562 21.78125 78.726562 21.527344 78.691406 C 21.308594 78.65625 21.128906 78.617188 20.945312 78.507812 C 20.761719 78.398438 20.582031 78.289062 20.398438 78.144531 C 20.21875 78 20.074219 77.816406 19.890625 77.601562 C 19.710938 77.382812 19.5625 77.238281 19.453125 77.128906 L 18.21875 75.710938 L 16.183594 77.492188 Z M 19.273438 74.835938 L 20.472656 76.21875 C 20.691406 76.472656 20.871094 76.65625 21.019531 76.800781 C 21.164062 76.945312 21.308594 77.019531 21.453125 77.054688 C 21.601562 77.089844 21.746094 77.054688 21.925781 76.980469 C 22.109375 76.910156 22.328125 76.761719 22.582031 76.546875 C 22.910156 76.253906 23.128906 76 23.238281 75.816406 C 23.34375 75.636719 23.382812 75.417969 23.308594 75.238281 C 23.238281 75.019531 23.054688 74.761719 22.761719 74.4375 L 21.453125 72.945312 Z M 19.273438 74.835938 "/>
<path style=" stroke:none;fill-rule:nonzero;fill:rgb(100%,100%,100%);fill-opacity:1;" d="M 58.328125 82.363281 L 58.617188 83.5625 L 57.34375 83.855469 L 57.054688 82.691406 Z M 58.328125 82.363281 "/>
</g>
</svg>
