<?xml version="1.0" encoding="UTF-8"?>
<svg xmlns="http://www.w3.org/2000/svg" xmlns:xlink="http://www.w3.org/1999/xlink" width="100px" height="104px" viewBox="0 0 100 104" version="1.1">
<g id="surface1">
<path style=" stroke:none;fill-rule:nonzero;fill:rgb(100%,100%,100%);fill-opacity:1;" d="M 98.867188 24.464844 L 97.535156 24.035156 C 94.566406 23.101562 91.632812 22.234375 88.667969 21.464844 C 88.734375 19.5 88.765625 17.566406 88.832031 15.601562 C 88.898438 12.699219 89 9.832031 89.101562 6.867188 L 89.101562 6.832031 L 89.167969 4.964844 C 89.167969 4.601562 88.832031 4.300781 88.464844 4.398438 L 86.632812 4.867188 C 78.464844 6.867188 72.199219 5.035156 65.132812 2.964844 C 62.464844 2.199219 59.699219 1.367188 56.601562 0.699219 C 53.535156 0.0351562 50.167969 -0.167969 46.933594 0.132812 C 46.234375 0.199219 45.601562 0.265625 45.066406 0.367188 C 44.5 0.464844 43.898438 0.566406 43.234375 0.699219 C 40.066406 1.398438 37.300781 2.234375 34.632812 3 C 27.699219 5.066406 21.667969 6.867188 13.535156 4.867188 L 11.699219 4.398438 C 11.332031 4.300781 11 4.601562 11 4.964844 L 11.066406 6.832031 C 11.167969 9.800781 11.234375 12.699219 11.332031 15.601562 C 11.398438 17.632812 11.433594 19.632812 11.5 21.667969 C 9.101562 22.300781 6.734375 23 4.367188 23.765625 L 4.265625 23.800781 L 3.101562 24.167969 L 2.832031 25.332031 L 0.332031 35.898438 L 0.0351562 36.964844 L 0.734375 37.800781 L 6.933594 45.234375 L 7.832031 46.332031 L 9.066406 45.964844 C 10.367188 45.566406 11.667969 45.199219 12.933594 44.832031 C 13.734375 51.566406 14.933594 58.199219 16.898438 64.734375 C 17.601562 67.101562 18.433594 69.464844 19.367188 71.800781 C 20.300781 74.101562 21.300781 76.332031 22.433594 78.464844 C 25.765625 84.867188 30.035156 90.535156 35.398438 95.167969 C 39.667969 98.765625 44.535156 101.734375 50.035156 104.035156 L 50.800781 103.734375 L 50.832031 103.734375 C 50.933594 103.699219 51 103.667969 51.101562 103.632812 C 55.300781 101.765625 59.167969 99.464844 62.667969 96.765625 C 62.964844 96.535156 63.265625 96.300781 63.535156 96.066406 C 73.132812 88.167969 79.5 77.035156 83.167969 64.734375 C 85.101562 58.199219 86.332031 51.566406 87.132812 44.832031 C 87.132812 44.832031 87.167969 44.5 87.199219 44.234375 L 87.199219 44.199219 C 88.5 44.566406 89.800781 45 91.132812 45.398438 L 92.464844 45.832031 L 93.398438 44.765625 L 99.433594 37.800781 L 100.035156 37.132812 Z M 98.867188 24.464844 "/>
<path style=" stroke:none;fill-rule:nonzero;fill:rgb(0.784314%,11.372549%,89.803922%);fill-opacity:1;" d="M 49.832031 10.167969 L 50.535156 10.167969 C 50.601562 10.167969 50.667969 10.101562 50.667969 10.035156 L 50.667969 8.800781 C 50.667969 8.734375 50.734375 8.667969 50.800781 8.667969 C 51.132812 8.667969 51.566406 8.566406 51.832031 8.300781 C 52.066406 8.066406 52.234375 7.699219 52.234375 7.234375 C 52.234375 6.898438 52.132812 6.535156 51.867188 6.300781 C 51.566406 6.035156 51.167969 5.964844 50.632812 5.964844 C 50.367188 5.964844 50.066406 6 49.832031 6.035156 C 49.765625 6.035156 49.734375 6.101562 49.734375 6.167969 L 49.734375 10.066406 C 49.699219 10.101562 49.765625 10.167969 49.832031 10.167969 Z M 50.667969 6.867188 C 50.667969 6.800781 50.734375 6.734375 50.800781 6.734375 C 50.832031 6.734375 50.832031 6.734375 50.867188 6.734375 C 51.167969 6.734375 51.300781 6.964844 51.300781 7.332031 C 51.300781 7.632812 51.167969 7.898438 50.800781 7.933594 C 50.765625 7.933594 50.734375 7.933594 50.699219 7.898438 C 50.667969 7.867188 50.667969 7.832031 50.667969 7.800781 Z M 50.667969 6.867188 "/>
<path style=" stroke:none;fill-rule:nonzero;fill:rgb(0.784314%,11.372549%,89.803922%);fill-opacity:1;" d="M 42.699219 10.464844 L 43.367188 10.433594 C 43.433594 10.433594 43.464844 10.367188 43.5 10.300781 L 43.566406 9.699219 C 43.566406 9.632812 43.632812 9.601562 43.699219 9.566406 L 44.167969 9.535156 C 44.234375 9.535156 44.300781 9.566406 44.300781 9.632812 L 44.433594 10.234375 C 44.433594 10.300781 44.5 10.332031 44.566406 10.332031 L 45.234375 10.300781 C 45.265625 10.300781 45.300781 10.265625 45.332031 10.234375 C 45.367188 10.199219 45.367188 10.167969 45.367188 10.132812 L 44.367188 6.265625 C 44.367188 6.199219 44.300781 6.167969 44.234375 6.167969 L 43.300781 6.234375 C 43.234375 6.234375 43.199219 6.300781 43.167969 6.332031 L 42.566406 10.332031 C 42.566406 10.367188 42.566406 10.398438 42.601562 10.433594 C 42.632812 10.464844 42.667969 10.464844 42.699219 10.464844 Z M 43.667969 8.035156 C 43.699219 7.800781 43.734375 7.332031 43.734375 7.066406 C 43.800781 7.332031 43.867188 7.765625 43.933594 8 L 44.066406 8.632812 C 44.066406 8.667969 44.066406 8.699219 44.035156 8.734375 C 44 8.765625 43.964844 8.765625 43.933594 8.800781 L 43.734375 8.800781 C 43.699219 8.800781 43.667969 8.800781 43.632812 8.765625 C 43.601562 8.734375 43.601562 8.699219 43.601562 8.667969 Z M 43.667969 8.035156 "/>
<path style=" stroke:none;fill-rule:nonzero;fill:rgb(0.784314%,11.372549%,89.803922%);fill-opacity:1;" d="M 47.066406 10.234375 L 47.765625 10.234375 C 47.832031 10.234375 47.898438 10.167969 47.898438 10.101562 L 47.832031 6.167969 C 47.832031 6.101562 47.765625 6.035156 47.699219 6.035156 L 47 6.035156 C 46.933594 6.035156 46.867188 6.101562 46.867188 6.167969 L 46.933594 10.101562 C 46.933594 10.167969 46.964844 10.234375 47.066406 10.234375 Z M 47.066406 10.234375 "/>
<path style=" stroke:none;fill-rule:nonzero;fill:rgb(0.784314%,11.372549%,89.803922%);fill-opacity:1;" d="M 56.632812 22.535156 C 56.867188 22.535156 57.035156 22.367188 57.035156 22.132812 L 57.035156 21.464844 C 57.035156 21.234375 56.867188 21.066406 56.632812 21.066406 L 53.433594 21 C 53.199219 21 53.035156 21.167969 53.035156 21.398438 L 53.035156 22.066406 C 53.035156 22.300781 53.199219 22.464844 53.433594 22.464844 Z M 56.632812 22.535156 "/>
<path style=" stroke:none;fill-rule:nonzero;fill:rgb(0.784314%,11.372549%,89.803922%);fill-opacity:1;" d="M 41.300781 10.5 L 41.265625 9.964844 C 41.265625 9.933594 41.234375 9.898438 41.234375 9.867188 C 41.199219 9.832031 41.167969 9.832031 41.132812 9.832031 L 40.367188 9.898438 C 40.300781 9.898438 40.234375 9.867188 40.234375 9.765625 L 39.964844 6.667969 C 39.964844 6.632812 39.933594 6.601562 39.933594 6.566406 C 39.898438 6.535156 39.867188 6.535156 39.832031 6.535156 L 39.132812 6.601562 C 39.066406 6.601562 39 6.667969 39 6.734375 L 39.332031 10.632812 C 39.332031 10.699219 39.398438 10.765625 39.464844 10.765625 L 41.199219 10.601562 C 41.234375 10.667969 41.300781 10.601562 41.300781 10.5 Z M 41.300781 10.5 "/>
<path style=" stroke:none;fill-rule:nonzero;fill:rgb(0.784314%,11.372549%,89.803922%);fill-opacity:1;" d="M 58 23.566406 L 56.265625 23.535156 C 56.035156 23.535156 55.867188 23.699219 55.867188 23.933594 L 55.765625 30.566406 C 55.734375 32.101562 55.367188 32.433594 54.898438 32.433594 C 54.433594 32.433594 54.066406 32 54.101562 30.535156 L 54.199219 23.898438 C 54.199219 23.667969 54.035156 23.5 53.800781 23.5 L 52.066406 23.464844 C 51.832031 23.464844 51.667969 23.632812 51.667969 23.867188 L 51.566406 30.035156 C 51.535156 32.800781 52.300781 34.601562 54.867188 34.667969 C 57.199219 34.699219 58.265625 33 58.300781 30.199219 L 58.398438 24 C 58.367188 23.765625 58.199219 23.601562 58 23.566406 Z M 58 23.566406 "/>
<path style=" stroke:none;fill-rule:nonzero;fill:rgb(0.784314%,11.372549%,89.803922%);fill-opacity:1;" d="M 46.632812 23.566406 L 41.066406 23.765625 C 40.832031 23.765625 40.667969 23.964844 40.667969 24.167969 L 40.734375 25.699219 C 40.734375 25.933594 40.933594 26.101562 41.132812 26.101562 L 42.234375 26.066406 C 42.464844 26.066406 42.632812 26.234375 42.632812 26.464844 L 42.898438 34.300781 C 42.898438 34.535156 43.101562 34.699219 43.300781 34.699219 L 45.035156 34.632812 C 45.265625 34.632812 45.433594 34.433594 45.433594 34.234375 L 45.167969 26.398438 C 45.167969 26.167969 45.332031 26 45.566406 26 L 46.699219 25.964844 C 46.933594 25.964844 47.101562 25.765625 47.101562 25.566406 L 47.035156 24.035156 C 47.066406 23.734375 46.867188 23.566406 46.632812 23.566406 Z M 46.632812 23.566406 "/>
<path style=" stroke:none;fill-rule:nonzero;fill:rgb(0.784314%,11.372549%,89.803922%);fill-opacity:1;" d="M 36.699219 8.800781 C 36.667969 8.765625 36.667969 8.734375 36.699219 8.699219 L 37.265625 7.035156 C 37.265625 7 37.265625 6.933594 37.234375 6.898438 C 37.199219 6.867188 37.167969 6.832031 37.101562 6.867188 L 36.367188 6.964844 C 36.300781 6.964844 36.265625 7 36.265625 7.066406 L 36 8.300781 C 35.964844 8.5 35.933594 8.699219 35.898438 8.867188 L 35.867188 8.867188 L 35.667969 7.167969 C 35.667969 7.101562 35.601562 7.035156 35.535156 7.066406 L 34.832031 7.167969 C 34.765625 7.167969 34.699219 7.234375 34.734375 7.300781 L 35.199219 11.199219 C 35.199219 11.265625 35.265625 11.332031 35.332031 11.300781 L 36.035156 11.199219 C 36.101562 11.199219 36.167969 11.132812 36.132812 11.066406 L 36 9.933594 C 36 9.898438 36 9.898438 36 9.867188 C 36.035156 9.800781 36.066406 9.765625 36.132812 9.765625 C 36.199219 9.765625 36.234375 9.800781 36.265625 9.832031 L 36.800781 11 C 36.832031 11.066406 36.867188 11.101562 36.933594 11.066406 L 37.667969 11 C 37.699219 11 37.734375 10.964844 37.765625 10.933594 C 37.800781 10.898438 37.800781 10.832031 37.765625 10.800781 Z M 36.699219 8.800781 "/>
<path style=" stroke:none;fill-rule:nonzero;fill:rgb(0.784314%,11.372549%,89.803922%);fill-opacity:1;" d="M 14.300781 28.066406 C 14.265625 27.867188 14.035156 27.734375 13.832031 27.765625 L 12.464844 28.066406 C 12.265625 28.101562 12.132812 28.332031 12.167969 28.535156 L 12.464844 29.867188 C 12.933594 31.898438 13.601562 33.933594 13.867188 34.800781 L 13.832031 34.800781 C 13.367188 34.035156 12.566406 32.800781 12.132812 32.199219 L 9.898438 28.898438 C 9.800781 28.765625 9.632812 28.699219 9.464844 28.734375 L 7.867188 29.101562 C 7.667969 29.132812 7.535156 29.367188 7.566406 29.566406 L 9.867188 39.5 C 9.898438 39.699219 10.132812 39.832031 10.332031 39.800781 L 11.699219 39.5 C 11.898438 39.464844 12.035156 39.234375 12 39.035156 L 11.667969 37.601562 C 11.167969 35.5 10.667969 33.765625 10.433594 32.832031 L 10.464844 32.832031 C 10.832031 33.566406 11.667969 34.867188 12.167969 35.632812 L 14.300781 38.667969 C 14.398438 38.800781 14.566406 38.867188 14.734375 38.832031 L 16.332031 38.464844 C 16.535156 38.433594 16.667969 38.199219 16.632812 38 Z M 14.199219 28.066406 Z M 14.199219 28.066406 "/>
<path style=" stroke:none;fill-rule:nonzero;fill:rgb(0.784314%,11.372549%,89.803922%);fill-opacity:1;" d="M 61.5 10.832031 L 62.167969 10.933594 C 62.234375 10.933594 62.300781 10.898438 62.300781 10.832031 L 62.5 10.234375 C 62.535156 10.167969 62.566406 10.132812 62.632812 10.132812 L 63.101562 10.199219 C 63.167969 10.199219 63.199219 10.265625 63.199219 10.332031 L 63.199219 10.933594 C 63.199219 11 63.234375 11.066406 63.300781 11.066406 L 63.964844 11.167969 C 64 11.167969 64.035156 11.167969 64.066406 11.132812 C 64.101562 11.101562 64.101562 11.066406 64.101562 11.035156 L 63.933594 7.035156 C 63.933594 6.964844 63.898438 6.898438 63.832031 6.898438 L 62.898438 6.765625 C 62.832031 6.765625 62.765625 6.800781 62.765625 6.867188 L 61.398438 10.632812 C 61.398438 10.667969 61.398438 10.699219 61.398438 10.734375 C 61.433594 10.800781 61.464844 10.800781 61.5 10.832031 Z M 62.765625 9.265625 L 62.964844 8.632812 C 63.035156 8.398438 63.167969 7.964844 63.234375 7.699219 C 63.234375 7.964844 63.234375 8.433594 63.234375 8.667969 L 63.234375 9.332031 C 63.234375 9.367188 63.234375 9.398438 63.199219 9.433594 C 63.167969 9.464844 63.132812 9.464844 63.101562 9.464844 L 62.898438 9.433594 C 62.867188 9.433594 62.832031 9.398438 62.800781 9.367188 C 62.765625 9.332031 62.765625 9.300781 62.765625 9.265625 Z M 62.765625 9.265625 "/>
<path style=" stroke:none;fill-rule:nonzero;fill:rgb(0.784314%,11.372549%,89.803922%);fill-opacity:1;" d="M 26.234375 34.535156 C 26.199219 34.300781 26 34.167969 25.765625 34.199219 L 23.898438 34.535156 C 23.699219 34.566406 23.464844 34.433594 23.433594 34.199219 L 23.132812 32.535156 C 23.101562 32.300781 23.234375 32.101562 23.464844 32.066406 L 25.035156 31.800781 C 25.265625 31.765625 25.398438 31.566406 25.367188 31.332031 L 25.132812 30.066406 C 25.101562 29.832031 24.898438 29.699219 24.667969 29.734375 L 23.101562 30 C 22.898438 30.035156 22.667969 29.898438 22.632812 29.667969 L 22.398438 28.433594 C 22.367188 28.199219 22.5 28 22.734375 27.964844 L 24.433594 27.667969 C 24.667969 27.632812 24.800781 27.433594 24.765625 27.199219 L 24.535156 25.832031 C 24.5 25.632812 24.300781 25.464844 24.066406 25.5 L 19.898438 26.332031 C 19.667969 26.367188 19.535156 26.566406 19.566406 26.800781 L 21.332031 36.832031 C 21.367188 37.066406 21.566406 37.199219 21.800781 37.167969 L 26.132812 36.398438 C 26.367188 36.367188 26.5 36.167969 26.464844 35.933594 Z M 26.234375 34.535156 "/>
<path style=" stroke:none;fill-rule:nonzero;fill:rgb(0.784314%,11.372549%,89.803922%);fill-opacity:1;" d="M 53.933594 10.265625 L 55.667969 10.332031 C 55.734375 10.332031 55.800781 10.265625 55.800781 10.199219 L 55.832031 9.632812 C 55.832031 9.601562 55.832031 9.566406 55.800781 9.535156 C 55.765625 9.5 55.734375 9.5 55.699219 9.5 L 54.933594 9.464844 C 54.867188 9.464844 54.800781 9.398438 54.800781 9.332031 L 54.832031 8.667969 C 54.832031 8.601562 54.898438 8.535156 54.964844 8.535156 L 55.601562 8.566406 C 55.667969 8.566406 55.734375 8.5 55.734375 8.433594 L 55.765625 7.898438 C 55.765625 7.832031 55.699219 7.765625 55.632812 7.765625 L 55 7.734375 C 54.933594 7.734375 54.867188 7.667969 54.867188 7.601562 L 54.898438 7.066406 C 54.898438 7 54.964844 6.933594 55.035156 6.933594 L 55.734375 6.964844 C 55.800781 6.964844 55.867188 6.898438 55.867188 6.832031 L 55.898438 6.265625 C 55.898438 6.234375 55.898438 6.199219 55.867188 6.167969 C 55.832031 6.132812 55.800781 6.132812 55.765625 6.132812 L 54.101562 6.066406 C 54.035156 6.066406 53.964844 6.132812 53.964844 6.199219 L 53.832031 10.132812 C 53.800781 10.199219 53.867188 10.265625 53.933594 10.265625 Z M 53.933594 10.265625 "/>
<path style=" stroke:none;fill-rule:nonzero;fill:rgb(0.784314%,11.372549%,89.803922%);fill-opacity:1;" d="M 54.898438 5.832031 C 55.132812 5.832031 55.367188 5.632812 55.367188 5.398438 C 55.367188 5.167969 55.167969 4.933594 54.933594 4.933594 C 54.699219 4.933594 54.5 5.132812 54.464844 5.367188 C 54.464844 5.632812 54.667969 5.832031 54.898438 5.832031 Z M 54.898438 5.832031 "/>
<path style=" stroke:none;fill-rule:nonzero;fill:rgb(0.784314%,11.372549%,89.803922%);fill-opacity:1;" d="M 57.601562 10.433594 C 57.765625 10.464844 58 10.5 58.199219 10.5 C 58.832031 10.535156 59.265625 10.433594 59.566406 10.199219 C 60 9.898438 60.234375 9.265625 60.300781 8.464844 C 60.367188 7.699219 60.234375 7.101562 59.898438 6.734375 C 59.632812 6.433594 59.265625 6.300781 58.699219 6.234375 C 58.398438 6.199219 58.101562 6.234375 57.898438 6.234375 C 57.832031 6.234375 57.800781 6.300781 57.765625 6.367188 L 57.5 10.234375 C 57.5 10.367188 57.535156 10.433594 57.601562 10.433594 Z M 58.667969 7.199219 C 58.667969 7.132812 58.734375 7.066406 58.800781 7.066406 C 59.199219 7.101562 59.367188 7.601562 59.300781 8.367188 C 59.234375 9.398438 58.933594 9.765625 58.601562 9.734375 C 58.566406 9.734375 58.535156 9.699219 58.5 9.699219 C 58.464844 9.667969 58.464844 9.632812 58.464844 9.601562 Z M 58.667969 7.199219 "/>
<path style=" stroke:none;fill-rule:nonzero;fill:rgb(0.784314%,11.372549%,89.803922%);fill-opacity:1;" d="M 35.699219 25.035156 C 34.867188 24.398438 33.800781 24.332031 32.398438 24.464844 C 31.667969 24.535156 30.933594 24.667969 30.332031 24.800781 C 30.132812 24.832031 30 25.035156 30.035156 25.234375 L 30.898438 35.265625 C 30.933594 35.5 31.101562 35.632812 31.332031 35.632812 L 33.035156 35.5 C 33.265625 35.464844 33.398438 35.300781 33.398438 35.066406 L 33.132812 31.964844 C 33.101562 31.734375 33.265625 31.566406 33.5 31.535156 C 34.332031 31.464844 35.433594 31.066406 36.101562 30.332031 C 36.667969 29.632812 37 28.699219 36.898438 27.433594 C 36.832031 26.5 36.464844 25.566406 35.699219 25.035156 Z M 33.398438 29.5 C 33.300781 29.535156 33.167969 29.5 33.101562 29.433594 C 33 29.367188 32.964844 29.265625 32.933594 29.167969 L 32.734375 26.898438 C 32.699219 26.699219 32.867188 26.5 33.066406 26.464844 C 33.101562 26.464844 33.132812 26.464844 33.132812 26.464844 C 33.933594 26.398438 34.367188 27 34.433594 27.898438 C 34.5 28.601562 34.265625 29.332031 33.398438 29.5 Z M 33.398438 29.5 "/>
<path style=" stroke:none;fill-rule:nonzero;fill:rgb(0.784314%,11.372549%,89.803922%);fill-opacity:1;" d="M 80.601562 26.464844 L 78.234375 26.035156 C 78.035156 26 77.867188 26.101562 77.800781 26.265625 L 73.898438 35.933594 C 73.867188 36.035156 73.867188 36.167969 73.933594 36.265625 C 74 36.367188 74.101562 36.433594 74.199219 36.464844 L 75.800781 36.734375 C 76 36.765625 76.167969 36.667969 76.234375 36.464844 L 76.765625 35.035156 C 76.832031 34.832031 77.035156 34.734375 77.199219 34.765625 L 78.300781 34.964844 C 78.5 35 78.632812 35.167969 78.632812 35.367188 L 78.632812 36.898438 C 78.632812 37.101562 78.765625 37.265625 78.964844 37.300781 L 80.566406 37.566406 C 80.699219 37.601562 80.800781 37.566406 80.898438 37.464844 C 81 37.398438 81.035156 37.265625 81.035156 37.167969 L 80.964844 26.800781 C 80.898438 26.667969 80.765625 26.5 80.601562 26.464844 Z M 78.832031 31.035156 L 78.765625 32.667969 C 78.765625 32.800781 78.699219 32.898438 78.632812 32.964844 C 78.535156 33.035156 78.433594 33.066406 78.300781 33.035156 L 77.898438 32.964844 C 77.765625 32.933594 77.699219 32.867188 77.632812 32.765625 C 77.566406 32.667969 77.566406 32.535156 77.601562 32.433594 L 78.132812 30.867188 C 78.332031 30.300781 78.699219 29.132812 78.933594 28.464844 L 78.964844 28.464844 C 78.933594 29.199219 78.867188 30.398438 78.832031 31.035156 Z M 78.832031 31.035156 "/>
<path style=" stroke:none;fill-rule:nonzero;fill:rgb(0.784314%,11.372549%,89.803922%);fill-opacity:1;" d="M 59.367188 13.898438 C 56.300781 13.5 53.5 13.300781 50.800781 13.300781 C 47.601562 13.300781 44.433594 13.566406 40.535156 14.199219 L 40 16.566406 L 41.167969 19.132812 C 42.566406 19.066406 43.832031 19 45.066406 18.933594 C 47.398438 18.800781 49.632812 18.667969 52.066406 18.667969 C 54.199219 18.667969 56.300781 18.765625 58.667969 18.964844 L 59.964844 16.667969 Z M 45.933594 17.464844 C 45.933594 17.535156 45.867188 17.601562 45.800781 17.601562 L 45.265625 17.601562 C 45.199219 17.601562 45.132812 17.535156 45.132812 17.464844 L 45.132812 14.964844 L 44.699219 15.167969 C 44.667969 15.199219 44.632812 15.199219 44.566406 15.167969 C 44.535156 15.132812 44.5 15.101562 44.5 15.066406 L 44.433594 14.699219 C 44.433594 14.632812 44.433594 14.566406 44.5 14.566406 L 45.167969 14.234375 C 45.199219 14.234375 45.199219 14.234375 45.234375 14.234375 L 45.765625 14.234375 C 45.832031 14.234375 45.898438 14.300781 45.898438 14.367188 Z M 48.867188 17.234375 C 48.667969 17.433594 48.367188 17.566406 48 17.632812 C 47.933594 17.632812 47.867188 17.632812 47.800781 17.632812 C 47.734375 17.632812 47.667969 17.566406 47.667969 17.5 L 47.667969 17.101562 C 47.667969 17.035156 47.734375 16.964844 47.800781 16.964844 C 47.867188 16.964844 47.933594 16.964844 48 16.933594 C 48.101562 16.898438 48.265625 16.867188 48.367188 16.765625 C 48.5 16.667969 48.601562 16.433594 48.667969 16.199219 C 48.566406 16.300781 48.433594 16.367188 48.199219 16.367188 C 47.765625 16.367188 47.367188 15.964844 47.367188 15.367188 C 47.367188 14.800781 47.734375 14.167969 48.433594 14.167969 C 49.066406 14.167969 49.433594 14.734375 49.433594 15.566406 C 49.464844 16.398438 49.167969 16.933594 48.867188 17.234375 Z M 51.5 17.632812 C 50.832031 17.632812 50.398438 17.101562 50.398438 16.234375 C 50.398438 15.464844 50.667969 14.964844 51 14.632812 C 51.234375 14.398438 51.566406 14.265625 51.832031 14.199219 C 51.933594 14.199219 52 14.167969 52.066406 14.167969 C 52.101562 14.167969 52.132812 14.167969 52.167969 14.199219 C 52.199219 14.234375 52.199219 14.265625 52.199219 14.300781 L 52.199219 14.667969 C 52.199219 14.734375 52.132812 14.800781 52.066406 14.800781 C 52 14.800781 51.933594 14.800781 51.898438 14.832031 C 51.5 14.898438 51.265625 15.199219 51.199219 15.601562 L 51.234375 15.601562 C 51.332031 15.464844 51.535156 15.367188 51.734375 15.367188 C 52.199219 15.367188 52.5 15.765625 52.5 16.398438 C 52.5 17 52.199219 17.632812 51.5 17.632812 Z M 55.566406 16.734375 C 55.566406 16.800781 55.5 16.867188 55.433594 16.867188 L 55.367188 16.867188 C 55.300781 16.867188 55.234375 16.933594 55.234375 17 L 55.234375 17.5 C 55.234375 17.566406 55.167969 17.632812 55.101562 17.632812 L 54.667969 17.632812 C 54.601562 17.632812 54.535156 17.566406 54.535156 17.5 L 54.535156 17 C 54.535156 16.933594 54.464844 16.867188 54.398438 16.867188 L 53.5 16.867188 C 53.433594 16.867188 53.367188 16.800781 53.367188 16.734375 L 53.367188 16.332031 C 53.367188 16.300781 53.367188 16.300781 53.367188 16.265625 L 54.433594 14.300781 C 54.464844 14.265625 54.5 14.234375 54.566406 14.234375 L 55.132812 14.234375 C 55.199219 14.234375 55.265625 14.300781 55.265625 14.367188 L 55.265625 16.101562 C 55.265625 16.167969 55.332031 16.234375 55.398438 16.234375 L 55.464844 16.234375 C 55.535156 16.234375 55.601562 16.300781 55.601562 16.367188 Z M 55.566406 16.734375 "/>
<path style=" stroke:none;fill-rule:nonzero;fill:rgb(0.784314%,11.372549%,89.803922%);fill-opacity:1;" d="M 70.601562 24.765625 L 69.199219 24.632812 C 68.964844 24.601562 68.800781 24.765625 68.765625 25 L 68.632812 26.367188 C 68.398438 28.433594 68.367188 30.566406 68.332031 31.464844 L 68.300781 31.464844 C 68.101562 30.601562 67.734375 29.167969 67.535156 28.433594 L 66.464844 24.601562 C 66.433594 24.433594 66.300781 24.332031 66.132812 24.300781 L 64.5 24.132812 C 64.265625 24.101562 64.101562 24.265625 64.066406 24.5 L 63 34.632812 C 62.964844 34.867188 63.132812 35.035156 63.367188 35.066406 L 64.765625 35.199219 C 65 35.234375 65.167969 35.066406 65.199219 34.832031 L 65.367188 33.367188 C 65.601562 31.234375 65.699219 29.398438 65.734375 28.464844 L 65.765625 28.464844 C 65.867188 29.300781 66.234375 30.800781 66.464844 31.667969 L 67.464844 35.234375 C 67.5 35.398438 67.632812 35.5 67.800781 35.535156 L 69.433594 35.699219 C 69.667969 35.734375 69.832031 35.566406 69.867188 35.332031 L 70.933594 25.199219 C 70.964844 25 70.800781 24.800781 70.601562 24.765625 Z M 70.601562 24.765625 "/>
<path style=" stroke:none;fill-rule:nonzero;fill:rgb(0.784314%,11.372549%,89.803922%);fill-opacity:1;" d="M 91.867188 31.132812 L 92.398438 29.867188 C 92.464844 29.699219 92.433594 29.5 92.265625 29.367188 C 91.933594 29.132812 91.433594 28.898438 90.867188 28.765625 C 88.398438 28.167969 86.867188 29.398438 86.433594 31.132812 C 86.234375 31.933594 86.234375 33.167969 87.699219 34.632812 C 88.5 35.433594 88.867188 35.832031 88.699219 36.5 C 88.566406 37.035156 88.066406 37.332031 87.132812 37.132812 C 86.667969 37.035156 86.167969 36.800781 85.765625 36.566406 C 85.667969 36.5 85.535156 36.5 85.433594 36.535156 C 85.332031 36.566406 85.234375 36.632812 85.199219 36.765625 L 84.667969 38 C 84.601562 38.167969 84.667969 38.367188 84.800781 38.5 C 85.199219 38.765625 85.867188 39.066406 86.566406 39.234375 C 88.800781 39.800781 90.632812 38.832031 91.132812 36.832031 C 91.398438 35.734375 91.199219 34.5 89.933594 33.300781 C 88.898438 32.332031 88.765625 31.964844 88.867188 31.5 C 89 31 89.5 30.667969 90.300781 30.898438 C 90.667969 31 90.964844 31.132812 91.234375 31.300781 C 91.332031 31.367188 91.464844 31.398438 91.566406 31.367188 C 91.734375 31.300781 91.832031 31.234375 91.867188 31.132812 Z M 91.867188 31.132812 "/>
<path style=" stroke:none;fill-rule:nonzero;fill:rgb(0.784314%,11.372549%,89.803922%);fill-opacity:1;" d="M 51.464844 15.933594 C 51.398438 15.933594 51.300781 16 51.265625 16.101562 C 51.234375 16.132812 51.234375 16.265625 51.234375 16.433594 C 51.234375 16.765625 51.332031 17.066406 51.5 17.066406 C 51.734375 17.066406 51.734375 16.734375 51.734375 16.398438 C 51.699219 16.234375 51.667969 15.933594 51.464844 15.933594 Z M 51.464844 15.933594 "/>
<path style=" stroke:none;fill-rule:nonzero;fill:rgb(0.784314%,11.372549%,89.803922%);fill-opacity:1;" d="M 48.398438 14.765625 C 48.234375 14.765625 48.167969 15 48.167969 15.332031 C 48.167969 15.601562 48.234375 15.867188 48.433594 15.867188 C 48.5 15.867188 48.566406 15.832031 48.601562 15.765625 C 48.601562 15.765625 48.601562 15.734375 48.632812 15.734375 C 48.667969 15.667969 48.667969 15.566406 48.667969 15.332031 C 48.632812 15 48.566406 14.765625 48.398438 14.765625 Z M 48.398438 14.765625 "/>
<path style=" stroke:none;fill-rule:nonzero;fill:rgb(0.784314%,11.372549%,89.803922%);fill-opacity:1;" d="M 54.332031 15.601562 L 54.035156 16.199219 L 54.398438 16.199219 C 54.464844 16.199219 54.535156 16.132812 54.535156 16.066406 L 54.535156 15.632812 C 54.535156 15.464844 54.566406 15.300781 54.566406 15.132812 C 54.5 15.265625 54.433594 15.433594 54.332031 15.601562 Z M 54.332031 15.601562 "/>
<path style=" stroke:none;fill-rule:nonzero;fill:rgb(0.784314%,11.372549%,89.803922%);fill-opacity:1;" d="M 58 91.765625 C 58.300781 91.632812 58.566406 91.464844 58.867188 91.300781 C 58.933594 91.265625 59 91.199219 59 91.132812 C 59.035156 91.066406 59.035156 91 59.035156 90.898438 C 59.035156 90.464844 58.632812 89.734375 58.300781 89.199219 C 58.199219 89.035156 58.132812 88.898438 58.101562 88.832031 C 58.101562 88.800781 58.066406 88.765625 58.035156 88.734375 C 57.433594 87.566406 56.898438 86.367188 56.433594 85.132812 C 56.332031 84.867188 56.234375 84.632812 56.167969 84.433594 C 56.101562 84.199219 56 83.964844 55.898438 83.734375 C 55.800781 83.464844 55.734375 83.234375 55.699219 83.066406 C 55.464844 82.300781 55.398438 82.035156 54.167969 82.132812 C 53.566406 82.167969 52.933594 82.199219 52.265625 82.199219 L 51.265625 82.199219 C 51.234375 82.199219 51.199219 82.234375 51.167969 82.234375 C 51.132812 82.265625 51.101562 82.300781 51.066406 82.332031 C 51.035156 82.398438 51 82.5 51 82.632812 L 51 92.601562 C 51 92.800781 51.066406 93.035156 51.167969 93.234375 C 51.265625 93.398438 51.5 93.566406 51.867188 93.566406 C 51.898438 93.566406 51.898438 93.566406 51.933594 93.566406 C 51.933594 93.566406 51.964844 93.566406 52.035156 93.566406 C 53.800781 93.367188 55.5 92.898438 57.066406 92.199219 C 57.433594 92.066406 57.734375 91.898438 58 91.765625 Z M 58 91.765625 "/>
<path style=" stroke:none;fill-rule:nonzero;fill:rgb(0.784314%,11.372549%,89.803922%);fill-opacity:1;" d="M 57.566406 82.035156 C 57.566406 82.066406 57.566406 82.066406 57.566406 82.066406 L 57.566406 82.101562 C 57.964844 83.332031 58.433594 84.601562 58.964844 85.832031 C 59.066406 86.101562 59.167969 86.332031 59.300781 86.566406 C 59.433594 86.832031 59.535156 87.066406 59.632812 87.265625 C 59.699219 87.398438 59.765625 87.535156 59.832031 87.699219 C 60.066406 88.265625 60.398438 88.964844 60.800781 89.234375 C 60.867188 89.265625 60.898438 89.300781 60.964844 89.300781 C 61.035156 89.300781 61.066406 89.332031 61.132812 89.332031 C 61.332031 89.332031 61.566406 89.234375 61.734375 89.132812 C 61.765625 89.101562 61.800781 89.101562 61.832031 89.066406 C 61.867188 89.035156 61.898438 89.035156 61.898438 89 L 61.933594 88.964844 L 62.035156 88.867188 C 62.066406 88.832031 62.132812 88.765625 62.199219 88.699219 C 63.933594 87 65.265625 84.933594 66.167969 82.667969 C 66.332031 82.234375 66.5 81.765625 66.632812 81.300781 C 66.765625 80.832031 66.867188 80.367188 66.964844 79.898438 C 66.964844 79.867188 66.964844 79.832031 66.964844 79.800781 L 66.964844 79.765625 C 66.964844 79.734375 66.964844 79.667969 66.964844 79.632812 C 66.964844 79.464844 67.066406 79.464844 67.066406 79.464844 C 66.898438 79.464844 66.464844 79.699219 66.132812 79.867188 C 65.964844 79.964844 65.832031 80.035156 65.734375 80.066406 C 64.464844 80.566406 63.167969 80.898438 61.800781 81.167969 C 60.464844 81.433594 59.132812 81.601562 57.867188 81.765625 C 57.800781 81.800781 57.667969 81.832031 57.601562 81.933594 L 57.566406 81.964844 C 57.566406 82 57.566406 82 57.566406 82.035156 Z M 57.566406 82.035156 "/>
<path style=" stroke:none;fill-rule:nonzero;fill:rgb(0.784314%,11.372549%,89.803922%);fill-opacity:1;" d="M 48.898438 82.367188 C 48.867188 82.332031 48.832031 82.300781 48.800781 82.265625 C 48.765625 82.234375 48.734375 82.234375 48.734375 82.234375 L 48.265625 82.234375 C 47.765625 82.234375 47.265625 82.199219 46.765625 82.199219 L 46.433594 82.199219 L 46.101562 82.167969 L 46.066406 82.167969 C 44.667969 82.101562 44.632812 82.199219 44.300781 83.132812 C 44.265625 83.234375 44.234375 83.367188 44.167969 83.5 C 43.734375 84.765625 43.234375 86.035156 42.667969 87.300781 C 42.566406 87.566406 42.433594 87.800781 42.332031 88.035156 C 42.234375 88.265625 42.101562 88.5 41.964844 88.765625 C 41.867188 89 41.734375 89.199219 41.632812 89.398438 C 41.367188 89.867188 41.132812 90.300781 41 90.832031 C 41 90.867188 40.964844 90.898438 40.964844 90.933594 C 40.964844 90.964844 40.964844 91 40.964844 91.035156 C 40.964844 91.101562 40.964844 91.199219 41 91.234375 C 41.035156 91.300781 41.066406 91.332031 41.132812 91.398438 C 42.601562 92.265625 44.199219 92.933594 45.898438 93.332031 C 46.234375 93.398438 46.566406 93.5 46.898438 93.535156 C 47.234375 93.601562 47.566406 93.632812 47.933594 93.699219 C 47.964844 93.699219 48 93.699219 48.035156 93.699219 C 48.066406 93.699219 48.101562 93.699219 48.101562 93.699219 C 48.464844 93.699219 48.667969 93.566406 48.800781 93.367188 C 48.933594 93.167969 48.964844 92.898438 48.964844 92.734375 L 48.964844 82.667969 C 48.964844 82.535156 48.933594 82.433594 48.898438 82.367188 Z M 48.898438 82.367188 "/>
<path style=" stroke:none;fill-rule:nonzero;fill:rgb(0.784314%,11.372549%,89.803922%);fill-opacity:1;" d="M 42.132812 82.898438 C 42.234375 82.632812 42.300781 82.367188 42.398438 82.101562 L 42.398438 82.035156 C 42.398438 81.933594 42.265625 81.867188 42.167969 81.800781 C 42.132812 81.800781 42.132812 81.765625 42.101562 81.765625 L 42.066406 81.765625 C 39.867188 81.5 37.898438 81.167969 36.234375 80.699219 C 35.898438 80.601562 35.601562 80.535156 35.300781 80.433594 C 35 80.332031 34.699219 80.234375 34.433594 80.132812 C 34.265625 80.066406 34.035156 79.964844 33.832031 79.867188 C 33.5 79.699219 33.167969 79.535156 33 79.535156 C 32.964844 79.535156 32.964844 79.632812 33 79.898438 C 33.066406 80.234375 33.132812 80.535156 33.199219 80.867188 C 33.234375 80.933594 33.234375 81 33.234375 81.066406 L 33.300781 81.265625 C 33.867188 83.332031 34.832031 85.234375 36.101562 86.898438 C 36.332031 87.234375 36.601562 87.535156 36.867188 87.832031 C 37.132812 88.132812 37.398438 88.433594 37.699219 88.734375 C 37.734375 88.765625 37.800781 88.832031 37.867188 88.898438 L 37.964844 89 C 38.066406 89.066406 38.265625 89.234375 38.464844 89.300781 C 38.5 89.300781 38.535156 89.332031 38.601562 89.332031 C 38.632812 89.332031 38.699219 89.332031 38.734375 89.367188 C 38.765625 89.367188 38.765625 89.367188 38.765625 89.367188 C 39.265625 89.367188 39.632812 88.632812 39.867188 88.066406 C 39.898438 87.964844 39.964844 87.867188 40 87.800781 L 40.035156 87.765625 C 40.699219 86.433594 41.265625 85.101562 41.765625 83.734375 C 41.964844 83.433594 42.035156 83.167969 42.132812 82.898438 Z M 42.132812 82.898438 "/>
<path style=" stroke:none;fill-rule:nonzero;fill:rgb(0.784314%,11.372549%,89.803922%);fill-opacity:1;" d="M 98.832031 24.5 L 97.5 24.066406 C 94.535156 23.132812 91.601562 22.265625 88.632812 21.5 C 88.699219 19.535156 88.734375 17.601562 88.800781 15.632812 C 88.867188 12.734375 88.964844 9.867188 89.066406 6.898438 L 89.066406 6.867188 L 89.132812 5 C 89.132812 4.632812 88.800781 4.332031 88.433594 4.433594 L 86.601562 4.898438 C 78.433594 6.898438 72.167969 5.066406 65.101562 3 C 62.433594 2.234375 59.667969 1.398438 56.566406 0.734375 C 53.5 0.0664062 50.132812 -0.132812 46.898438 0.167969 C 46.199219 0.234375 45.566406 0.300781 45.035156 0.398438 C 44.464844 0.5 43.867188 0.601562 43.199219 0.734375 C 40.035156 1.433594 37.265625 2.265625 34.601562 3.035156 C 27.667969 5.101562 21.632812 6.898438 13.5 4.898438 L 11.667969 4.433594 C 11.300781 4.332031 10.964844 4.632812 10.964844 5 L 11.035156 6.867188 C 11.132812 9.832031 11.199219 12.734375 11.300781 15.632812 C 11.367188 17.667969 11.398438 19.667969 11.464844 21.699219 C 9.066406 22.332031 6.699219 23.035156 4.332031 23.800781 L 4.234375 23.832031 L 3.066406 24.199219 L 2.800781 25.367188 L 0.300781 35.933594 L 0 37 L 0.699219 37.832031 L 6.898438 45.265625 L 7.800781 46.367188 L 9.035156 46 C 10.332031 45.601562 11.632812 45.234375 12.898438 44.867188 C 13.699219 51.601562 14.898438 58.234375 16.867188 64.765625 C 17.566406 67.132812 18.398438 69.5 19.332031 71.832031 C 20.265625 74.132812 21.265625 76.367188 22.398438 78.5 C 25.734375 84.898438 30 90.566406 35.367188 95.199219 C 39.632812 98.800781 44.5 101.765625 50 104.066406 L 50.765625 103.765625 L 50.800781 103.765625 C 50.898438 103.734375 50.964844 103.699219 51.066406 103.667969 C 55.265625 101.800781 59.132812 99.5 62.632812 96.800781 C 62.933594 96.566406 63.234375 96.332031 63.5 96.101562 C 73.101562 88.199219 79.464844 77.066406 83.132812 64.765625 C 85.066406 58.234375 86.300781 51.601562 87.101562 44.867188 C 87.101562 44.867188 87.132812 44.535156 87.167969 44.265625 L 87.167969 44.234375 C 88.464844 44.601562 89.765625 45.035156 91.101562 45.433594 L 92.433594 45.867188 L 93.367188 44.800781 L 99.398438 37.832031 L 100 37.167969 Z M 36.234375 93.367188 C 35.667969 92.867188 35.101562 92.367188 34.566406 91.832031 C 30.5 87.898438 27 83.167969 24.167969 77.699219 C 23.101562 75.699219 22.132812 73.535156 21.265625 71.332031 C 20.398438 69.167969 19.632812 66.898438 18.933594 64.566406 C 18.898438 64.464844 18.867188 64.367188 18.832031 64.265625 C 18.898438 64.265625 33.632812 64.265625 33.632812 64.265625 C 33.132812 64.933594 32.667969 65.601562 32.265625 66.300781 C 31.734375 67.234375 31.265625 68.167969 30.898438 69.167969 C 30.535156 70.132812 30.199219 71.167969 30 72.234375 C 29.734375 73.566406 29.566406 74.933594 29.566406 76.367188 C 29.566406 81.964844 31.867188 87 35.566406 90.667969 C 36.800781 91.867188 38.199219 92.933594 39.699219 93.832031 C 41.234375 94.699219 42.867188 95.398438 44.601562 95.867188 C 46.234375 96.300781 47.933594 96.566406 49.667969 96.601562 L 49.667969 101.933594 C 44.566406 99.667969 40.101562 96.800781 36.234375 93.367188 Z M 65.632812 87.601562 C 64.632812 88.964844 63.433594 90.167969 62.132812 91.234375 C 60.800781 92.265625 59.332031 93.167969 57.765625 93.832031 C 55.398438 94.867188 52.800781 95.398438 50.035156 95.398438 C 47.667969 95.398438 45.398438 94.964844 43.265625 94.199219 C 41.167969 93.433594 39.234375 92.300781 37.566406 90.898438 C 35.898438 89.5 34.433594 87.832031 33.332031 85.933594 C 31.667969 83.101562 30.699219 79.832031 30.699219 76.300781 C 30.699219 74.535156 30.933594 72.800781 31.398438 71.167969 C 31.667969 70.199219 32 69.300781 32.433594 68.398438 C 32.832031 67.5 33.332031 66.667969 33.867188 65.867188 C 36 62.632812 39.132812 60.101562 42.800781 58.632812 C 42.832031 58.632812 42.867188 58.601562 42.933594 58.601562 C 43.167969 58.535156 43.433594 58.601562 43.632812 58.699219 C 43.832031 58.800781 44 59 44.066406 59.199219 C 44.101562 59.234375 44.101562 59.300781 44.132812 59.332031 C 44.167969 59.398438 44.167969 59.5 44.167969 59.566406 C 44.167969 59.632812 44.167969 59.734375 44.132812 59.800781 C 44.066406 60.167969 43.765625 60.464844 43.398438 60.566406 C 43.101562 60.699219 42.832031 60.800781 42.535156 60.933594 C 42.265625 61.066406 41.964844 61.199219 41.699219 61.367188 C 40.265625 62.132812 38.964844 63.101562 37.832031 64.234375 C 37.398438 64.667969 36.964844 65.132812 36.601562 65.601562 C 36.199219 66.066406 35.832031 66.566406 35.5 67.101562 C 33.765625 69.765625 32.765625 72.898438 32.765625 76.300781 C 32.765625 76.398438 32.765625 76.464844 32.765625 76.535156 C 32.800781 76.566406 32.832031 76.601562 32.867188 76.632812 C 32.933594 76.699219 32.964844 76.734375 33.035156 76.765625 C 33.132812 76.832031 33.234375 76.898438 33.332031 76.964844 C 33.464844 77.035156 33.566406 77.101562 33.667969 77.167969 C 33.765625 77.234375 33.898438 77.300781 34.035156 77.367188 C 34.167969 77.433594 34.300781 77.5 34.433594 77.566406 C 35.199219 77.898438 36.167969 78.234375 37.300781 78.5 C 37.535156 78.566406 37.734375 78.601562 37.964844 78.667969 C 38.199219 78.734375 38.433594 78.765625 38.667969 78.800781 C 39.867188 79.035156 41.199219 79.234375 42.667969 79.398438 C 42.765625 79.398438 42.898438 79.367188 43 79.332031 C 43.101562 79.265625 43.199219 79.132812 43.265625 78.867188 C 43.464844 78.132812 43.632812 77.433594 43.765625 76.734375 C 43.898438 76.035156 44.035156 75.300781 44.167969 74.601562 C 44.765625 70.933594 45 67.332031 45 64 L 45 63.964844 C 45 63.398438 45 62.898438 45 62.398438 C 45 61.898438 44.964844 61.398438 44.964844 60.867188 L 44.964844 60.832031 C 44.964844 60.667969 44.964844 60.464844 44.933594 60.265625 C 44.933594 60.132812 44.898438 59.964844 44.898438 59.765625 L 44.898438 59.234375 C 44.898438 59 44.867188 58.734375 44.832031 58.5 L 44.832031 58.367188 L 44.800781 58.101562 L 44.765625 57.734375 C 44.765625 57.566406 44.734375 57.367188 44.699219 57.132812 L 44.667969 56.867188 C 44.632812 56.464844 44.601562 56.035156 44.535156 55.632812 C 44.5 55.265625 44.433594 54.867188 44.398438 54.464844 C 44.167969 52.535156 43.898438 50.933594 43.667969 49.800781 C 43.632812 49.632812 43.566406 49.535156 43.5 49.5 C 43.433594 49.464844 43.300781 49.433594 43.167969 49.433594 C 43.101562 49.433594 43.066406 49.433594 43 49.433594 L 42.964844 49.433594 C 42.933594 49.433594 42.867188 49.433594 42.867188 49.464844 L 42.5 49.566406 L 42.433594 49.566406 C 42.332031 49.601562 42.234375 49.601562 42.132812 49.601562 C 42 49.601562 41.898438 49.601562 41.800781 49.566406 C 41.765625 49.566406 41.734375 49.535156 41.699219 49.535156 C 41.667969 49.535156 41.632812 49.5 41.601562 49.5 C 41.5 49.464844 41.433594 49.398438 41.367188 49.300781 C 41.332031 49.265625 41.300781 49.234375 41.300781 49.199219 C 41.265625 49.167969 41.265625 49.132812 41.234375 49.101562 C 41.132812 48.933594 41.101562 48.734375 41.101562 48.535156 C 41.101562 48.5 41.101562 48.464844 41.101562 48.433594 C 41.101562 48.398438 41.101562 48.367188 41.101562 48.332031 L 41.898438 42.601562 L 41.898438 42.566406 C 41.898438 42.5 41.933594 42.464844 41.933594 42.398438 C 41.933594 42.332031 41.964844 42.300781 42 42.234375 C 42.132812 41.933594 42.367188 41.734375 42.734375 41.699219 C 42.898438 41.699219 43.066406 41.765625 43.199219 41.832031 C 43.332031 41.898438 43.433594 42.035156 43.535156 42.132812 L 47.035156 46.5 C 47.066406 46.535156 47.066406 46.566406 47.101562 46.601562 C 47.132812 46.632812 47.132812 46.667969 47.167969 46.699219 C 47.265625 46.898438 47.332031 47.066406 47.332031 47.265625 C 47.332031 47.300781 47.332031 47.367188 47.332031 47.398438 C 47.332031 47.464844 47.300781 47.535156 47.300781 47.601562 C 47.265625 47.667969 47.265625 47.734375 47.234375 47.765625 C 47.101562 48.035156 46.832031 48.234375 46.5 48.332031 L 45.898438 48.535156 C 45.832031 48.566406 45.800781 48.601562 45.765625 48.632812 C 45.734375 48.667969 45.734375 48.765625 45.734375 48.832031 L 45.734375 48.898438 C 45.832031 49.398438 45.933594 49.867188 46 50.332031 C 46.101562 50.832031 46.167969 51.300781 46.234375 51.800781 C 46.367188 52.632812 46.5 53.601562 46.632812 54.632812 C 46.734375 55.566406 46.832031 56.535156 46.933594 57.601562 L 46.964844 58 L 46.964844 58.464844 C 46.964844 58.699219 47 58.933594 47.035156 59.265625 L 47.035156 59.433594 L 47.066406 59.734375 C 47.101562 60.367188 47.132812 61.035156 47.167969 61.734375 C 47.199219 62.535156 47.199219 63.332031 47.199219 64.167969 C 47.199219 66.234375 47.101562 68.433594 46.898438 70.667969 C 46.699219 72.898438 46.367188 75.199219 45.867188 77.535156 C 45.832031 77.734375 45.765625 77.964844 45.699219 78.234375 C 45.566406 78.734375 45.398438 79.265625 45.398438 79.699219 C 45.398438 79.765625 45.398438 79.832031 45.433594 79.867188 L 45.464844 79.867188 C 45.632812 79.867188 45.800781 79.898438 45.933594 79.898438 C 46.101562 79.898438 46.265625 79.933594 46.398438 79.933594 C 47.199219 79.964844 48.035156 80 48.867188 80.035156 C 48.898438 80.035156 48.933594 80.035156 48.933594 80 C 48.964844 79.964844 48.964844 79.933594 49 79.898438 L 49 79.867188 C 49 79.867188 49 79.832031 49.035156 79.800781 C 49.035156 79.800781 49.035156 79.765625 49.035156 79.734375 C 49.066406 79.632812 49.066406 79.535156 49.066406 79.464844 L 49.066406 43.332031 C 49.066406 43.035156 48.933594 42.867188 48.800781 42.765625 C 48.632812 42.667969 48.398438 42.632812 48.234375 42.632812 L 48.035156 42.632812 C 47.867188 42.632812 47.699219 42.601562 47.566406 42.566406 C 47.535156 42.566406 47.535156 42.535156 47.5 42.535156 C 47.367188 42.5 47.265625 42.433594 47.167969 42.332031 C 47.066406 42.265625 47 42.167969 46.933594 42.035156 C 46.898438 41.964844 46.867188 41.933594 46.867188 41.867188 C 46.867188 41.832031 46.832031 41.800781 46.832031 41.765625 C 46.800781 41.667969 46.800781 41.601562 46.800781 41.5 C 46.800781 41.398438 46.800781 41.332031 46.832031 41.265625 L 46.832031 41.234375 C 46.832031 41.167969 46.867188 41.101562 46.898438 41.035156 L 49.265625 35.066406 C 49.332031 34.898438 49.433594 34.734375 49.535156 34.601562 C 49.667969 34.464844 49.867188 34.367188 50.066406 34.367188 C 50.300781 34.367188 50.464844 34.464844 50.601562 34.601562 C 50.734375 34.734375 50.800781 34.867188 50.867188 35.066406 L 52.464844 39.132812 L 52.5 39.132812 L 53.265625 41.035156 C 53.265625 41.066406 53.265625 41.066406 53.300781 41.101562 C 53.300781 41.132812 53.300781 41.132812 53.332031 41.167969 C 53.367188 41.300781 53.398438 41.398438 53.398438 41.535156 C 53.398438 41.632812 53.398438 41.734375 53.367188 41.832031 C 53.367188 41.867188 53.332031 41.898438 53.332031 41.933594 C 53.332031 41.964844 53.300781 42 53.300781 42.035156 C 53.234375 42.132812 53.167969 42.234375 53.066406 42.332031 C 53.035156 42.367188 53 42.367188 52.964844 42.398438 C 52.933594 42.433594 52.898438 42.433594 52.867188 42.464844 C 52.667969 42.566406 52.464844 42.632812 52.234375 42.632812 L 52.035156 42.632812 C 51.867188 42.632812 51.632812 42.667969 51.464844 42.765625 C 51.300781 42.867188 51.199219 43.035156 51.199219 43.332031 L 51.199219 79.535156 C 51.199219 79.535156 51.199219 79.566406 51.199219 79.601562 C 51.199219 79.699219 51.234375 79.800781 51.265625 79.867188 C 51.300781 79.933594 51.300781 79.964844 51.332031 79.964844 C 51.332031 79.964844 51.367188 80 51.398438 80 L 51.433594 80 C 51.601562 80 51.765625 80 51.933594 80 C 52.101562 80 52.265625 80 52.433594 80 C 53.234375 79.964844 54.066406 79.933594 54.867188 79.867188 C 54.867188 79.832031 54.898438 79.765625 54.898438 79.699219 C 54.898438 79.300781 54.765625 78.800781 54.632812 78.332031 C 54.566406 78.101562 54.5 77.867188 54.464844 77.699219 C 53.964844 75.367188 53.632812 73.035156 53.398438 70.765625 C 53.199219 68.5 53.101562 66.300781 53.101562 64.199219 C 53.101562 63.367188 53.101562 62.566406 53.132812 61.765625 C 53.167969 61.066406 53.199219 60.398438 53.234375 59.765625 L 53.265625 59.464844 L 53.265625 59.300781 C 53.265625 59.066406 53.300781 58.898438 53.300781 58.734375 C 53.300781 58.535156 53.332031 58.398438 53.332031 58.265625 L 53.332031 58.066406 L 53.367188 57.667969 C 53.464844 56.433594 53.601562 55.300781 53.734375 54.265625 C 53.867188 53.132812 54.035156 52.101562 54.167969 51.167969 C 54.265625 50.632812 54.300781 50.265625 54.367188 50 C 54.433594 49.734375 54.464844 49.398438 54.566406 48.933594 L 54.566406 48.898438 C 54.566406 48.832031 54.566406 48.734375 54.535156 48.699219 C 54.5 48.667969 54.464844 48.632812 54.398438 48.601562 L 53.800781 48.398438 C 53.765625 48.398438 53.699219 48.367188 53.667969 48.367188 C 53.601562 48.332031 53.535156 48.300781 53.464844 48.265625 C 53.398438 48.234375 53.367188 48.199219 53.300781 48.132812 C 53.035156 47.933594 52.898438 47.632812 52.898438 47.300781 C 52.898438 47.167969 52.933594 47.035156 52.964844 46.898438 C 52.964844 46.867188 53 46.867188 53 46.832031 C 53.035156 46.734375 53.101562 46.632812 53.199219 46.535156 L 56.699219 42.167969 C 56.800781 42.035156 56.898438 41.933594 57.035156 41.867188 C 57.167969 41.765625 57.332031 41.734375 57.5 41.734375 C 57.535156 41.734375 57.535156 41.734375 57.566406 41.734375 C 57.632812 41.734375 57.699219 41.765625 57.765625 41.765625 C 57.832031 41.800781 57.898438 41.832031 57.933594 41.867188 C 58.167969 42.035156 58.300781 42.332031 58.332031 42.632812 L 59.132812 48.367188 C 59.132812 48.398438 59.132812 48.433594 59.132812 48.464844 C 59.132812 48.5 59.132812 48.535156 59.132812 48.566406 C 59.132812 48.699219 59.101562 48.867188 59.066406 48.964844 C 59.066406 49 59.035156 49 59.035156 49.035156 C 59 49.132812 58.933594 49.234375 58.832031 49.332031 C 58.765625 49.398438 58.667969 49.5 58.566406 49.535156 C 58.5 49.566406 58.464844 49.566406 58.398438 49.601562 C 58.367188 49.601562 58.332031 49.601562 58.332031 49.632812 C 58.265625 49.667969 58.167969 49.667969 58.066406 49.667969 C 58 49.667969 57.933594 49.667969 57.867188 49.667969 L 57.832031 49.667969 C 57.765625 49.667969 57.734375 49.632812 57.667969 49.632812 L 57.300781 49.535156 L 57.234375 49.535156 C 57.167969 49.535156 57.066406 49.5 56.964844 49.5 C 56.832031 49.5 56.734375 49.535156 56.632812 49.566406 C 56.566406 49.601562 56.5 49.699219 56.464844 49.867188 C 56.433594 50.066406 56.398438 50.300781 56.332031 50.601562 C 56.265625 50.898438 56.234375 51.167969 56.199219 51.398438 C 55.964844 52.867188 55.699219 54.765625 55.5 56.964844 L 55.464844 57.234375 C 55.464844 57.332031 55.433594 57.535156 55.398438 57.832031 L 55.367188 58.199219 L 55.332031 58.464844 L 55.332031 58.601562 L 55.300781 59.132812 C 55.300781 59.300781 55.265625 59.5 55.265625 59.632812 L 55.265625 60.066406 C 55.265625 60.234375 55.265625 60.367188 55.234375 60.5 C 55.234375 60.734375 55.199219 60.933594 55.199219 61.101562 L 55.199219 61.132812 C 55.167969 61.632812 55.167969 62.132812 55.167969 62.667969 C 55.167969 63.132812 55.167969 63.667969 55.167969 64.234375 C 55.167969 66.535156 55.265625 69 55.566406 71.5 C 55.601562 71.933594 55.667969 72.332031 55.699219 72.734375 C 55.964844 74.832031 56.367188 76.964844 56.898438 79.101562 C 56.964844 79.367188 57.066406 79.5 57.167969 79.566406 C 57.265625 79.632812 57.398438 79.632812 57.5 79.632812 C 57.800781 79.601562 58.066406 79.566406 58.332031 79.535156 C 58.566406 79.5 58.867188 79.464844 59.132812 79.433594 C 60.5 79.234375 61.734375 79 62.832031 78.734375 C 63.066406 78.667969 63.265625 78.632812 63.464844 78.566406 C 63.667969 78.5 63.867188 78.464844 64.066406 78.398438 C 65.066406 78.101562 65.867188 77.765625 66.464844 77.433594 C 66.601562 77.367188 66.699219 77.300781 66.800781 77.234375 C 66.933594 77.167969 67.035156 77.101562 67.101562 77.035156 C 67.167969 77 67.234375 76.933594 67.265625 76.898438 C 67.300781 76.867188 67.332031 76.832031 67.367188 76.800781 C 67.367188 76.734375 67.367188 76.667969 67.367188 76.566406 C 67.367188 74.199219 66.867188 71.964844 66 69.933594 C 65.867188 69.601562 65.699219 69.265625 65.535156 68.964844 C 64.699219 67.332031 63.601562 65.832031 62.300781 64.535156 C 62.066406 64.300781 61.832031 64.101562 61.632812 63.898438 C 61.398438 63.699219 61.167969 63.5 60.898438 63.300781 C 59.632812 62.300781 58.234375 61.5 56.734375 60.867188 C 56.667969 60.832031 56.601562 60.832031 56.535156 60.800781 C 56.464844 60.765625 56.398438 60.734375 56.332031 60.667969 C 56.035156 60.433594 55.898438 60.035156 56 59.632812 C 56 59.601562 56.035156 59.535156 56.035156 59.5 C 56.132812 59.300781 56.300781 59.101562 56.464844 59 C 56.667969 58.867188 56.933594 58.832031 57.167969 58.898438 C 57.199219 58.898438 57.234375 58.933594 57.300781 58.933594 C 60.132812 60.066406 62.632812 61.832031 64.632812 64.066406 C 65.632812 65.199219 66.5 66.433594 67.199219 67.734375 C 67.535156 68.367188 67.867188 69.066406 68.132812 69.734375 C 68.964844 71.867188 69.433594 74.167969 69.433594 76.601562 C 69.367188 80.566406 68 84.464844 65.632812 87.601562 Z M 85.101562 44.265625 C 85.066406 44.566406 85.035156 44.898438 85 45.199219 C 84.699219 47.898438 84.300781 50.433594 83.867188 52.898438 C 83.167969 56.933594 82.300781 60.632812 81.265625 64.199219 L 66.433594 64.199219 C 65.398438 62.832031 64.199219 61.632812 62.867188 60.566406 C 61.332031 59.332031 59.601562 58.332031 57.765625 57.601562 L 57.734375 57.566406 C 57.632812 57.535156 57.535156 57.5 57.464844 57.464844 C 57.132812 57.398438 56.800781 57.398438 56.5 57.464844 C 56.535156 57.066406 56.5 57.234375 56.535156 57.066406 L 56.566406 56.867188 L 56.566406 56.832031 C 56.765625 54.699219 57.035156 52.832031 57.265625 51.367188 C 57.300781 51.234375 57.332031 50.964844 57.398438 50.566406 L 57.398438 50.535156 C 57.464844 50.535156 57.5 50.566406 57.566406 50.566406 L 57.632812 50.566406 C 57.699219 50.566406 57.734375 50.566406 57.800781 50.601562 C 57.867188 50.601562 57.933594 50.601562 58 50.601562 C 58.167969 50.601562 58.332031 50.601562 58.464844 50.566406 C 58.535156 50.535156 58.632812 50.535156 58.699219 50.5 C 58.867188 50.433594 59.035156 50.367188 59.167969 50.265625 C 59.332031 50.167969 59.464844 50.066406 59.601562 49.933594 C 59.734375 49.800781 59.832031 49.667969 59.933594 49.5 C 59.964844 49.433594 60 49.367188 60.035156 49.300781 C 60.035156 49.300781 60.035156 49.265625 60.066406 49.167969 C 60.167969 48.933594 60.199219 48.632812 60.199219 48.367188 C 60.199219 48.332031 60.199219 48.265625 60.199219 48.167969 L 60.199219 48.101562 C 60.199219 48.066406 60.199219 48.035156 60.199219 48 L 59.398438 42.332031 L 59.398438 42.300781 C 59.332031 41.667969 59.035156 41.101562 58.5 40.734375 C 58.367188 40.632812 58.199219 40.566406 58.035156 40.5 C 57.867188 40.433594 57.699219 40.398438 57.535156 40.398438 L 57.464844 40.398438 C 57.433594 40.398438 57.398438 40.398438 57.367188 40.398438 C 56.964844 40.398438 56.601562 40.535156 56.300781 40.734375 C 56.101562 40.867188 55.898438 41.035156 55.734375 41.234375 C 55.699219 41.265625 55.699219 41.265625 55.667969 41.300781 L 52.234375 45.632812 L 52.234375 43.566406 C 52.632812 43.566406 53 43.464844 53.332031 43.265625 C 53.398438 43.234375 53.464844 43.199219 53.566406 43.132812 C 53.601562 43.101562 53.632812 43.101562 53.632812 43.066406 L 53.667969 43.035156 C 53.699219 43 53.734375 43 53.734375 42.964844 C 53.898438 42.800781 54.066406 42.632812 54.199219 42.398438 C 54.234375 42.367188 54.265625 42.300781 54.265625 42.265625 C 54.300781 42.199219 54.332031 42.132812 54.367188 42.066406 C 54.398438 42 54.398438 41.933594 54.433594 41.832031 C 54.464844 41.667969 54.5 41.5 54.5 41.332031 C 54.5 41.132812 54.464844 40.898438 54.398438 40.667969 C 54.398438 40.667969 54.398438 40.632812 54.367188 40.566406 C 54.367188 40.535156 54.332031 40.464844 54.332031 40.433594 C 54.332031 40.433594 54.332031 40.433594 54.332031 40.398438 L 53.800781 38.964844 C 58.167969 39.035156 62.535156 39.332031 66.933594 39.898438 C 72.933594 40.667969 79.035156 41.933594 85.234375 43.632812 C 85.132812 43.867188 85.101562 44.066406 85.101562 44.265625 Z M 91.699219 43.367188 C 89.566406 42.667969 87.464844 42.035156 85.367188 41.464844 C 84.101562 41.132812 82.832031 40.800781 81.601562 40.5 C 71.832031 38.101562 62.332031 36.898438 52.867188 36.832031 L 51.933594 34.464844 C 51.800781 34.167969 51.632812 33.867188 51.398438 33.632812 C 51.101562 33.332031 50.765625 33.132812 50.300781 33.066406 C 50.199219 33.035156 50.101562 33.035156 50.035156 33.035156 C 50.035156 33.035156 50.035156 33.035156 50 33.035156 C 49.898438 33.035156 49.800781 33.035156 49.734375 33.066406 C 49.300781 33.132812 48.933594 33.332031 48.632812 33.632812 C 48.398438 33.867188 48.234375 34.167969 48.101562 34.464844 L 47.167969 36.832031 C 38.832031 36.898438 30.535156 38.265625 22 40.300781 C 19.632812 40.832031 17.234375 41.433594 14.832031 42.066406 C 14.765625 42.066406 14.734375 42.101562 14.667969 42.101562 C 14.632812 42.101562 14.566406 42.132812 14.535156 42.132812 C 13.933594 42.300781 13.265625 42.464844 12.667969 42.632812 C 11.300781 43.035156 9.898438 43.433594 8.5 43.867188 L 2.300781 36.464844 L 4.800781 25.898438 C 16.535156 22.132812 28.433594 19.867188 40.367188 19.066406 L 39.433594 16.964844 C 36.398438 17.199219 33.367188 17.5 30.332031 17.898438 C 25.964844 18.5 21.601562 19.265625 17.265625 20.265625 C 16.035156 20.535156 14.765625 20.832031 13.535156 21.167969 C 13.5 21.167969 13.5 21.132812 13.464844 21.132812 L 13.464844 21.101562 C 13.433594 20.5 13.433594 19.867188 13.398438 19.265625 C 13.398438 18.964844 13.398438 18.699219 13.367188 18.398438 C 13.367188 18.332031 13.367188 18.265625 13.367188 18.199219 C 13.367188 17.964844 13.367188 17.734375 13.332031 17.5 C 13.332031 17.433594 13.332031 17.367188 13.332031 17.265625 C 13.332031 17.035156 13.332031 16.800781 13.300781 16.601562 C 13.300781 16.535156 13.300781 16.464844 13.300781 16.367188 C 13.300781 16.101562 13.300781 15.800781 13.265625 15.535156 C 13.199219 12.667969 13.101562 9.765625 13.035156 6.933594 C 21.632812 9 27.898438 7.132812 35.101562 5 C 37.765625 4.199219 40.535156 3.398438 43.566406 2.699219 C 45.535156 2.265625 47.667969 2.035156 49.800781 2.035156 C 49.933594 2.035156 50.035156 2.035156 50.167969 2.035156 C 50.265625 2.035156 50.398438 2.035156 50.5 2.035156 C 52.398438 2.066406 54.265625 2.300781 56.035156 2.667969 C 59.035156 3.332031 61.800781 4.132812 64.433594 4.933594 C 71.765625 7.101562 78.699219 8.765625 87.332031 6.699219 C 87.234375 9.566406 87.101562 13.367188 87.035156 16.265625 C 87 17.867188 86.933594 19.5 86.898438 21.101562 C 78.199219 18.933594 69.433594 17.566406 60.632812 16.933594 L 59.433594 19.035156 C 71.933594 19.832031 84.433594 22.199219 96.734375 26.132812 L 97.699219 36.398438 Z M 91.699219 43.367188 "/>
</g>
</svg>
