<?xml version="1.0" encoding="UTF-8"?>
<svg xmlns="http://www.w3.org/2000/svg" xmlns:xlink="http://www.w3.org/1999/xlink" width="100px" height="78px" viewBox="0 0 99 78" version="1.1">
<g id="surface1">
<path style=" stroke:none;fill-rule:nonzero;fill:rgb(0%,0%,0%);fill-opacity:1;" d="M 0 0 L 98.894531 0 L 98.894531 59.675781 L 80.566406 78.109375 L 0 78.109375 Z M 0 0 "/>
<path style=" stroke:none;fill-rule:nonzero;fill:rgb(100%,100%,100%);fill-opacity:1;" d="M 7.484375 24.882812 L 25.675781 24.882812 L 25.675781 60.320312 L 7.484375 60.320312 Z M 7.484375 24.882812 "/>
<path style=" stroke:none;fill-rule:nonzero;fill:rgb(100%,100%,100%);fill-opacity:1;" d="M 73.21875 24.882812 L 91.40625 24.882812 L 91.40625 43.074219 L 73.21875 43.074219 Z M 73.21875 24.882812 "/>
<path style=" stroke:none;fill-rule:nonzero;fill:rgb(3.921569%,35.294118%,19.607843%);fill-opacity:1;" d="M 82.3125 43.046875 L 84.457031 49.605469 L 91.40625 49.605469 L 85.773438 53.65625 L 87.917969 60.1875 L 82.3125 56.164062 L 76.679688 60.1875 L 78.824219 53.65625 L 73.21875 49.605469 L 80.164062 49.605469 Z M 82.3125 43.046875 "/>
<path style=" stroke:none;fill-rule:nonzero;fill:rgb(100%,100%,100%);fill-opacity:1;" d="M 46.121094 28.582031 C 45.339844 27.394531 44.617188 26.152344 44 24.882812 L 25.703125 24.882812 C 26.183594 26.503906 26.777344 28.125 27.417969 29.6875 C 31.175781 38.621094 37.425781 46.234375 45.394531 51.65625 C 53.605469 57.246094 63.261719 60.214844 73.191406 60.1875 L 73.191406 43.046875 C 68.816406 43.046875 64.496094 42.183594 60.5 40.457031 C 54.652344 37.972656 49.660156 33.84375 46.121094 28.582031 Z M 46.121094 28.582031 "/>
<path style=" stroke:none;fill-rule:nonzero;fill:rgb(100%,100%,100%);fill-opacity:1;" d="M 29.886719 67.015625 L 73.191406 67.015625 L 73.191406 68.015625 L 29.886719 68.015625 Z M 29.886719 67.015625 "/>
<path style=" stroke:none;fill-rule:nonzero;fill:rgb(100%,100%,100%);fill-opacity:1;" d="M 14.003906 65.097656 C 14.433594 65.503906 14.675781 66.097656 14.648438 66.691406 C 14.621094 67.367188 14.355469 68.015625 13.871094 68.5 L 12.046875 70.523438 L 10.25 70.523438 L 11.886719 68.769531 C 11.320312 68.796875 10.757812 68.582031 10.328125 68.175781 C 9.953125 67.769531 9.765625 67.230469 9.792969 66.691406 C 9.765625 66.097656 9.980469 65.503906 10.410156 65.097656 C 10.917969 64.667969 11.5625 64.453125 12.207031 64.476562 C 12.851562 64.453125 13.496094 64.667969 14.003906 65.097656 Z M 13.09375 66.691406 C 13.09375 66.207031 12.769531 65.910156 12.234375 65.910156 C 11.699219 65.910156 11.347656 66.207031 11.347656 66.691406 C 11.347656 67.175781 11.671875 67.472656 12.234375 67.472656 C 12.796875 67.472656 13.09375 67.175781 13.09375 66.691406 Z M 13.09375 66.691406 "/>
<path style=" stroke:none;fill-rule:nonzero;fill:rgb(100%,100%,100%);fill-opacity:1;" d="M 19.398438 65.097656 C 19.828125 65.503906 20.066406 66.097656 20.042969 66.691406 C 20.015625 67.367188 19.746094 68.015625 19.261719 68.5 L 17.4375 70.523438 L 15.613281 70.523438 L 17.25 68.769531 C 16.6875 68.796875 16.125 68.582031 15.695312 68.175781 C 15.320312 67.769531 15.132812 67.230469 15.160156 66.691406 C 15.132812 66.097656 15.375 65.53125 15.800781 65.097656 C 16.285156 64.667969 16.929688 64.453125 17.601562 64.476562 C 18.269531 64.476562 18.886719 64.695312 19.398438 65.097656 Z M 18.484375 66.691406 C 18.484375 66.207031 18.164062 65.910156 17.625 65.910156 C 17.089844 65.910156 16.742188 66.207031 16.742188 66.691406 C 16.742188 67.175781 17.0625 67.472656 17.625 67.472656 C 18.191406 67.472656 18.484375 67.175781 18.484375 66.691406 Z M 18.484375 66.691406 "/>
<path style=" stroke:none;fill-rule:nonzero;fill:rgb(100%,100%,100%);fill-opacity:1;" d="M 20.660156 70.578125 L 20.660156 69.226562 L 23.125 67.582031 C 23.339844 67.445312 23.554688 67.257812 23.742188 67.070312 C 23.851562 66.960938 23.90625 66.800781 23.90625 66.636719 C 23.90625 66.152344 23.582031 65.910156 23.046875 65.910156 C 22.507812 65.910156 22.082031 66.207031 22.132812 66.933594 L 20.578125 66.933594 C 20.523438 65.316406 21.355469 64.53125 23.046875 64.53125 C 24.738281 64.53125 25.460938 65.316406 25.460938 66.53125 C 25.460938 67.230469 25.191406 67.71875 24.359375 68.3125 L 23.394531 68.957031 L 22.964844 69.226562 L 25.378906 69.226562 L 25.378906 70.605469 Z M 20.660156 70.578125 "/>
<path style=" stroke:none;fill-rule:nonzero;fill:rgb(100%,100%,100%);fill-opacity:1;" d="M 7.484375 64.613281 L 9.015625 64.613281 L 9.015625 70.550781 L 7.484375 70.550781 Z M 7.484375 64.613281 "/>
<path style=" stroke:none;fill-rule:nonzero;fill:rgb(100%,100%,100%);fill-opacity:1;" d="M 32.679688 10.445312 L 25.300781 10.445312 L 25.300781 12.523438 L 32.464844 12.523438 L 32.464844 15.085938 L 25.300781 15.085938 L 25.300781 17.113281 L 32.703125 17.113281 L 32.703125 20.027344 L 22 20.027344 L 22 7.53125 L 32.679688 7.53125 Z M 32.679688 10.445312 "/>
<path style=" stroke:none;fill-rule:nonzero;fill:rgb(100%,100%,100%);fill-opacity:1;" d="M 44.535156 7.53125 L 47.945312 7.53125 L 42.683594 20 L 39.144531 20 L 33.859375 7.53125 L 37.292969 7.53125 L 40.914062 16.328125 Z M 44.535156 7.53125 "/>
<path style=" stroke:none;fill-rule:nonzero;fill:rgb(100%,100%,100%);fill-opacity:1;" d="M 59.828125 10.445312 L 52.425781 10.445312 L 52.425781 12.523438 L 59.585938 12.523438 L 59.585938 15.085938 L 52.425781 15.085938 L 52.425781 17.113281 L 59.828125 17.113281 L 59.828125 20.027344 L 49.152344 20.027344 L 49.152344 7.53125 L 59.828125 7.53125 Z M 59.828125 10.445312 "/>
<path style=" stroke:none;fill-rule:nonzero;fill:rgb(100%,100%,100%);fill-opacity:1;" d="M 61.789062 20 L 61.789062 17.085938 L 68.789062 10.417969 L 61.949219 10.417969 L 61.949219 7.53125 L 72.789062 7.53125 L 72.789062 10.445312 L 65.785156 17.113281 L 72.789062 17.113281 L 72.789062 20.027344 L 61.789062 20.027344 Z M 61.789062 20 "/>
<path style=" stroke:none;fill-rule:nonzero;fill:rgb(100%,100%,100%);fill-opacity:1;" d="M 85.289062 20.269531 C 84.21875 20.324219 83.171875 20.160156 82.152344 19.835938 C 80.730469 19.351562 79.84375 18.246094 79.683594 16.113281 L 82.742188 16.113281 C 82.929688 17.085938 83.867188 17.597656 85.53125 17.597656 C 87.222656 17.597656 88.082031 17.136719 88.082031 16.246094 C 88.082031 15.546875 87.679688 15.195312 86.578125 15.113281 L 84.109375 14.925781 C 81.292969 14.710938 79.898438 13.441406 79.898438 11.171875 C 79.898438 8.609375 81.667969 7.289062 85.71875 7.289062 C 86.765625 7.234375 87.785156 7.394531 88.777344 7.71875 C 90.144531 8.179688 91.140625 9.3125 91.246094 11.445312 L 88.1875 11.445312 C 87.917969 10.308594 87.167969 9.960938 85.558594 9.960938 C 83.789062 9.960938 83.171875 10.335938 83.171875 11.09375 C 83.171875 11.742188 83.574219 12.089844 84.59375 12.171875 L 87.035156 12.386719 C 90.011719 12.632812 91.40625 13.765625 91.40625 16.140625 C 91.40625 18.894531 89.554688 20.269531 85.289062 20.269531 Z M 85.289062 20.269531 "/>
<path style=" stroke:none;fill-rule:nonzero;fill:rgb(100%,100%,100%);fill-opacity:1;" d="M 16.6875 7.53125 L 16.6875 14.710938 L 16.714844 16.195312 L 16.5 16.195312 L 11.75 7.53125 L 7.484375 7.53125 L 7.484375 16.734375 L 10.730469 20 L 10.785156 20 L 10.785156 12.820312 L 10.757812 11.335938 L 10.945312 11.335938 L 15.722656 20 L 19.988281 20 L 19.988281 7.53125 Z M 16.6875 7.53125 "/>
<path style=" stroke:none;fill-rule:nonzero;fill:rgb(100%,100%,100%);fill-opacity:1;" d="M 78.101562 19.511719 L 78.101562 7.53125 L 74.800781 7.53125 L 74.800781 16.222656 Z M 78.101562 19.511719 "/>
<path style=" stroke:none;fill-rule:nonzero;fill:rgb(100%,100%,100%);fill-opacity:1;" d="M 51.96875 4.398438 L 57.335938 4.398438 L 57.335938 6.34375 L 51.96875 6.34375 Z M 51.96875 4.398438 "/>
<path style=" stroke:none;fill-rule:nonzero;fill:rgb(100%,100%,100%);fill-opacity:1;" d="M 64.953125 4.398438 L 70.320312 4.398438 L 70.320312 6.34375 L 64.953125 6.34375 Z M 64.953125 4.398438 "/>
</g>
</svg>
