<?xml version="1.0" encoding="UTF-8"?>
<svg xmlns="http://www.w3.org/2000/svg" xmlns:xlink="http://www.w3.org/1999/xlink" width="100px" height="108px" viewBox="0 0 100 107" version="1.1">
<g id="surface1">
<path style=" stroke:none;fill-rule:nonzero;fill:rgb(100%,100%,100%);fill-opacity:1;" d="M 94.511719 39.296875 C 92.3125 34.007812 89.253906 29.222656 85.371094 25.058594 L 85.136719 24.785156 L 83.136719 9.648438 L 73.570312 5.796875 L 71.410156 14.511719 L 70.234375 14.007812 C 69.84375 13.8125 69.488281 13.695312 69.214844 13.578125 C 66 12.257812 62.628906 11.246094 59.214844 10.582031 L 58.351562 10.425781 L 58.15625 1.945312 L 41.921875 1.945312 L 41.726562 10.390625 L 40.863281 10.542969 C 37.058594 11.246094 33.371094 12.410156 29.84375 13.96875 L 28.667969 14.472656 L 26.511719 5.835938 L 16.941406 9.648438 L 14.941406 24.746094 L 14.707031 25.019531 C 10.902344 29.066406 7.882812 33.773438 5.726562 38.910156 C 3.214844 44.863281 1.960938 51.085938 1.960938 57.46875 C 2 63.617188 3.175781 69.648438 5.570312 75.40625 C 7.921875 81.125 11.332031 86.261719 15.6875 90.695312 C 20.195312 95.25 25.488281 98.828125 31.488281 101.320312 C 37.410156 103.769531 43.6875 105.054688 50.078125 105.054688 L 50.195312 105.054688 C 56.390625 105.015625 62.46875 103.847656 68.273438 101.476562 C 74.039062 99.140625 79.214844 95.753906 83.6875 91.4375 C 88.273438 86.960938 91.882812 81.710938 94.390625 75.757812 C 96.902344 69.804688 98.15625 63.578125 98.15625 57.195312 C 98.078125 51.046875 96.902344 45.019531 94.511719 39.296875 Z M 94.511719 39.296875 "/>
<path style=" stroke:none;fill-rule:nonzero;fill:rgb(0%,0%,0%);fill-opacity:1;" d="M 96.351562 38.519531 C 94.117188 33.113281 90.980469 28.210938 87.058594 23.929688 L 84.980469 8.289062 L 72.195312 3.113281 L 70.078125 11.75 C 70.039062 11.75 70.039062 11.710938 70 11.710938 C 66.863281 10.425781 63.648438 9.414062 60.3125 8.753906 L 60.078125 0 L 40 0 L 39.765625 8.753906 C 36.429688 9.414062 33.136719 10.425781 30 11.75 L 27.882812 3.191406 L 15.136719 8.25 L 13.6875 18.636719 L 13.6875 18.675781 L 13.058594 23.929688 C 9.214844 28.09375 6.117188 32.878906 3.882812 38.167969 C 1.292969 44.355469 -0.0390625 50.855469 0 57.46875 C 0.0390625 63.890625 1.292969 70.152344 3.726562 76.144531 C 6.195312 82.097656 9.726562 87.46875 14.234375 92.058594 C 18.902344 96.804688 24.429688 100.542969 30.667969 103.109375 C 36.863281 105.675781 43.332031 106.960938 50 106.960938 L 50.15625 106.960938 C 56.628906 106.921875 62.941406 105.675781 68.980469 103.265625 C 74.980469 100.8125 80.390625 97.3125 85.019531 92.835938 C 89.804688 88.207031 93.570312 82.722656 96.15625 76.535156 C 98.785156 70.347656 100.078125 63.851562 100.039062 57.195312 C 100.078125 50.777344 98.824219 44.511719 96.351562 38.519531 Z M 93.960938 75.601562 C 91.488281 81.476562 87.921875 86.726562 83.332031 91.125 C 78.941406 95.40625 73.804688 98.75 68.078125 101.046875 C 62.351562 103.382812 56.3125 104.546875 50.15625 104.585938 C 50.117188 104.585938 50.078125 104.585938 50.039062 104.585938 C 43.726562 104.585938 37.53125 103.34375 31.648438 100.890625 C 25.726562 98.441406 20.429688 94.898438 16 90.347656 C 11.6875 85.988281 8.3125 80.890625 6 75.210938 C 3.648438 69.53125 2.46875 63.539062 2.429688 57.429688 C 2.390625 51.085938 3.648438 44.902344 6.15625 39.027344 C 8.273438 33.96875 11.292969 29.335938 15.019531 25.289062 L 15.332031 24.941406 L 17.292969 9.960938 L 26.15625 6.421875 L 28.3125 15.097656 L 29.960938 14.359375 C 33.449219 12.800781 37.136719 11.671875 40.902344 10.972656 L 42.078125 10.738281 L 42.351562 2.375 L 57.765625 2.375 L 57.960938 10.738281 L 59.136719 10.972656 C 62.511719 11.59375 65.84375 12.605469 69.058594 13.929688 C 69.410156 14.085938 69.726562 14.203125 70.078125 14.359375 L 71.726562 15.097656 L 73.882812 6.382812 L 82.785156 9.960938 L 84.746094 24.980469 L 85.058594 25.328125 C 88.902344 29.453125 91.960938 34.238281 94.117188 39.453125 C 96.46875 45.132812 97.648438 51.125 97.6875 57.234375 C 97.6875 63.539062 96.46875 69.726562 93.960938 75.601562 Z M 93.960938 75.601562 "/>
<path style=" stroke:none;fill-rule:nonzero;fill:rgb(0%,0%,0%);fill-opacity:1;" d="M 27.53125 83.148438 C 27.53125 83.148438 23.371094 79.140625 23.058594 78.753906 L 21.648438 80.113281 L 22.707031 81.28125 L 17.804688 86.652344 L 16.785156 85.5625 L 15.410156 86.804688 C 16.429688 88.167969 19.136719 90.621094 19.136719 90.621094 L 20.351562 89.296875 L 19.804688 88.75 L 21.882812 86.496094 L 22.824219 87.351562 L 21.410156 92.605469 C 22.234375 93.304688 24.195312 94.664062 24.195312 94.664062 L 25.292969 93.148438 L 24.195312 92.292969 L 25.058594 88.867188 C 25.726562 89.101562 26.351562 89.140625 26.902344 88.984375 C 27.449219 88.867188 27.960938 88.558594 28.390625 88.050781 C 29.058594 87.3125 29.292969 86.535156 29.136719 85.714844 C 28.980469 84.820312 28.429688 83.964844 27.53125 83.148438 Z M 26.078125 86.105469 C 25.488281 86.765625 24.746094 86.691406 23.882812 85.910156 L 23.097656 85.210938 L 24.824219 83.304688 L 25.804688 84.160156 C 26.15625 84.472656 26.351562 84.78125 26.390625 85.132812 C 26.46875 85.445312 26.351562 85.792969 26.078125 86.105469 Z M 26.078125 86.105469 "/>
<path style=" stroke:none;fill-rule:nonzero;fill:rgb(0%,0%,0%);fill-opacity:1;" d="M 38.902344 91.59375 L 39.6875 91.863281 L 37.214844 93.847656 L 36.589844 90.773438 L 37.292969 91.007812 L 37.921875 89.257812 C 37.921875 89.257812 35.175781 88.246094 33.136719 87.039062 L 32.3125 88.75 L 33.609375 89.570312 L 35.019531 94.820312 L 34 97.621094 L 32.589844 97.078125 L 31.882812 98.828125 C 33.214844 99.453125 35.960938 100.425781 37.570312 100.851562 L 38.117188 99.0625 L 36.746094 98.558594 L 37.726562 95.753906 L 42.078125 92.527344 L 43.53125 92.71875 L 43.960938 90.929688 C 42 90.582031 39.449219 89.800781 39.449219 89.800781 Z M 38.902344 91.59375 "/>
<path style=" stroke:none;fill-rule:nonzero;fill:rgb(0%,0%,0%);fill-opacity:1;" d="M 56.550781 95.328125 L 58.429688 95.054688 L 57.84375 90.65625 C 54.234375 91.398438 51.136719 91.476562 47.804688 91.398438 L 47.921875 95.832031 L 49.804688 95.832031 L 49.804688 93.421875 L 51.53125 93.460938 L 52.039062 100.578125 L 50.46875 100.695312 L 50.46875 102.5625 C 52.273438 102.601562 55.570312 102.214844 56.707031 102.058594 L 56.46875 100.191406 L 54.902344 100.347656 L 54.390625 93.265625 L 56.117188 93.03125 Z M 56.550781 95.328125 "/>
<path style=" stroke:none;fill-rule:nonzero;fill:rgb(0%,0%,0%);fill-opacity:1;" d="M 73.609375 93.808594 L 68.3125 88.519531 L 69.6875 87.546875 L 68.707031 85.949219 C 66.234375 87.625 62.15625 89.21875 62.15625 89.21875 L 62.863281 90.929688 L 64.429688 90.308594 L 65.882812 97.738281 L 64.746094 98.207031 L 65.371094 99.878906 C 66.589844 99.492188 69.175781 98.324219 69.175781 98.324219 L 68.351562 96.726562 L 67.726562 97 L 67.371094 95.054688 L 69.921875 93.730469 L 71.253906 95.171875 L 70.390625 95.675781 L 71.292969 97.273438 C 71.292969 97.273438 74.117188 95.753906 75.648438 94.703125 L 74.550781 93.109375 Z M 67.136719 93.421875 L 66.46875 89.996094 L 68.824219 92.527344 Z M 67.136719 93.421875 "/>
<path style=" stroke:none;fill-rule:nonzero;fill:rgb(0%,0%,0%);fill-opacity:1;" d="M 83.097656 83.617188 C 82.429688 83.070312 81.726562 82.757812 80.980469 82.757812 C 80.195312 82.757812 79.332031 82.992188 78.351562 83.460938 L 77.921875 83.695312 C 77.488281 83.886719 77.136719 84.042969 76.941406 84.121094 C 76.707031 84.199219 76.46875 84.238281 76.273438 84.238281 C 76.039062 84.238281 75.84375 84.160156 75.6875 84.003906 C 75.488281 83.847656 75.410156 83.617188 75.410156 83.34375 C 75.410156 83.070312 75.53125 82.796875 75.726562 82.566406 C 76 82.253906 76.351562 82.058594 76.746094 82.019531 C 77.136719 81.980469 77.570312 82.136719 78.039062 82.410156 L 79.292969 80.96875 L 76.785156 78.828125 L 75.53125 80.269531 L 76.15625 80.773438 C 75.726562 80.738281 75.332031 80.773438 74.980469 80.929688 C 74.628906 81.085938 74.273438 81.320312 74 81.671875 C 73.648438 82.097656 73.410156 82.566406 73.332031 83.070312 C 73.214844 83.617188 73.292969 84.121094 73.449219 84.628906 C 73.648438 85.132812 73.960938 85.5625 74.390625 85.949219 C 74.941406 86.417969 75.609375 86.652344 76.351562 86.652344 C 77.097656 86.652344 78.039062 86.378906 79.136719 85.871094 C 79.765625 85.5625 80.273438 85.40625 80.667969 85.367188 C 81.058594 85.328125 81.371094 85.445312 81.648438 85.679688 C 81.882812 85.910156 82.039062 86.183594 82.039062 86.496094 C 82.078125 86.804688 81.960938 87.117188 81.726562 87.390625 C 81.371094 87.777344 80.980469 87.972656 80.550781 87.972656 C 80.078125 87.972656 79.609375 87.777344 79.058594 87.390625 L 77.804688 88.828125 L 80.429688 91.164062 L 81.882812 89.839844 L 81.253906 89.257812 C 82.15625 89.335938 82.941406 88.984375 83.570312 88.246094 C 84.234375 87.507812 84.511719 86.691406 84.46875 85.871094 C 84.273438 85.015625 83.882812 84.277344 83.097656 83.617188 Z M 83.097656 83.617188 "/>
<path style=" stroke:none;fill-rule:nonzero;fill:rgb(0%,0%,0%);fill-opacity:1;" d="M 79.449219 70.582031 C 83.019531 62.800781 83.292969 54.082031 80.273438 46.070312 C 77.253906 38.054688 71.253906 31.710938 63.371094 28.171875 C 59.136719 26.261719 54.667969 25.289062 50.078125 25.289062 C 46.195312 25.289062 42.351562 25.992188 38.707031 27.351562 C 30.628906 30.347656 24.234375 36.300781 20.667969 44.121094 C 17.097656 51.90625 16.824219 60.621094 19.84375 68.636719 C 22.863281 76.652344 28.863281 82.992188 36.746094 86.535156 C 40.980469 88.441406 45.449219 89.414062 50.039062 89.414062 C 53.921875 89.414062 57.765625 88.710938 61.410156 87.351562 C 69.488281 84.316406 75.882812 78.363281 79.449219 70.582031 Z M 77.253906 69.570312 C 76.351562 71.59375 75.214844 73.460938 73.921875 75.171875 C 73.570312 75.054688 73.214844 74.898438 72.863281 74.746094 C 70.039062 73.460938 67.609375 71.59375 65.726562 69.21875 L 69.175781 66.027344 L 66.234375 61.75 L 68.667969 58.519531 L 79.882812 58.519531 C 79.765625 62.292969 78.863281 66.027344 77.253906 69.570312 Z M 56.273438 75.171875 L 53.292969 79.878906 L 46.746094 79.878906 L 43.765625 75.171875 L 46.15625 68.675781 L 42.195312 73.265625 L 34 65.71875 L 36.746094 61.710938 L 34.039062 58.050781 L 35.960938 54.667969 L 36.234375 49.296875 L 36.667969 40.464844 L 42.078125 45.132812 L 58 45.132812 L 63.410156 40.464844 L 64.117188 54.667969 L 66.039062 58.050781 L 63.332031 61.710938 L 64.785156 63.8125 L 66.078125 65.71875 L 57.882812 73.265625 L 53.921875 68.675781 Z M 48.824219 42.761719 L 48.824219 37.976562 L 51.214844 37.976562 L 51.214844 42.761719 Z M 79.921875 56.144531 L 67.726562 56.144531 L 66.511719 53.96875 L 66.078125 45.019531 C 68.15625 42.566406 70.824219 40.660156 73.921875 39.453125 C 75.609375 41.671875 77.019531 44.160156 78.039062 46.886719 C 79.136719 49.921875 79.765625 53.03125 79.921875 56.144531 Z M 39.53125 29.609375 C 42.941406 28.324219 46.511719 27.703125 50.078125 27.703125 C 54.273438 27.703125 58.46875 28.597656 62.390625 30.347656 C 66.234375 32.0625 69.609375 34.550781 72.3125 37.546875 C 69.921875 38.558594 67.765625 40 65.882812 41.710938 L 65.570312 35.40625 L 58.46875 41.554688 L 58.46875 32.917969 L 56.039062 32.917969 L 56.078125 42.761719 L 53.648438 42.761719 L 53.609375 35.601562 L 51.214844 35.601562 L 51.175781 30.816406 L 48.824219 30.816406 L 48.785156 35.601562 L 46.390625 35.601562 L 46.351562 42.761719 L 43.960938 42.761719 L 43.960938 32.917969 L 41.570312 32.917969 L 41.570312 41.59375 L 34.511719 35.445312 L 34.195312 41.75 C 32.46875 40.117188 30.46875 38.753906 28.195312 37.742188 C 28.039062 37.664062 27.921875 37.625 27.765625 37.546875 C 30.941406 34.046875 34.941406 31.320312 39.53125 29.609375 Z M 22.824219 45.09375 C 23.726562 43.074219 24.863281 41.203125 26.195312 39.453125 C 26.550781 39.570312 26.902344 39.726562 27.214844 39.882812 C 29.882812 41.089844 32.195312 42.839844 34.039062 45.019531 L 33.609375 53.96875 L 32.390625 56.144531 L 20.195312 56.144531 C 20.351562 52.371094 21.214844 48.636719 22.824219 45.09375 Z M 20.195312 58.519531 L 31.410156 58.519531 L 33.84375 61.75 L 30.902344 66.027344 L 34.351562 69.21875 C 32.234375 71.863281 29.449219 73.925781 26.195312 75.171875 C 24.511719 72.953125 23.136719 70.464844 22.117188 67.78125 C 20.941406 64.785156 20.3125 61.632812 20.195312 58.519531 Z M 60.550781 85.09375 C 57.136719 86.378906 53.570312 87 50 87 C 45.804688 87 41.609375 86.105469 37.6875 84.355469 C 33.84375 82.644531 30.46875 80.152344 27.726562 77.117188 C 31.019531 75.71875 33.882812 73.578125 36.078125 70.851562 L 41.136719 75.523438 L 45.371094 82.253906 L 54.550781 82.253906 L 58.785156 75.523438 L 63.84375 70.851562 C 65.921875 73.421875 68.628906 75.523438 71.765625 76.921875 C 71.921875 77 72.039062 77.039062 72.195312 77.117188 C 69.136719 80.621094 65.136719 83.382812 60.550781 85.09375 Z M 60.550781 85.09375 "/>
<path style=" stroke:none;fill-rule:nonzero;fill:rgb(0%,0%,0%);fill-opacity:1;" d="M 11.003906 54.945312 C 9.722656 54.421875 8.253906 55.023438 7.722656 56.292969 C 7.191406 57.566406 7.800781 59.023438 9.082031 59.546875 C 10.363281 60.074219 11.832031 59.472656 12.363281 58.199219 C 12.890625 56.929688 12.285156 55.472656 11.003906 54.945312 Z M 11.003906 54.945312 "/>
<path style=" stroke:none;fill-rule:nonzero;fill:rgb(0%,0%,0%);fill-opacity:1;" d="M 92.511719 57.234375 C 92.511719 58.609375 91.386719 59.726562 90 59.726562 C 88.613281 59.726562 87.488281 58.609375 87.488281 57.234375 C 87.488281 55.859375 88.613281 54.746094 90 54.746094 C 91.386719 54.746094 92.511719 55.859375 92.511719 57.234375 Z M 92.511719 57.234375 "/>
<path style=" stroke:none;fill-rule:nonzero;fill:rgb(0%,0%,0%);fill-opacity:1;" d="M 47.332031 59.84375 C 47.332031 59.84375 42.980469 57.972656 40.195312 56.691406 L 42.039062 59.921875 L 46.234375 61.941406 L 47.175781 65.367188 Z M 47.332031 59.84375 "/>
<path style=" stroke:none;fill-rule:nonzero;fill:rgb(0%,0%,0%);fill-opacity:1;" d="M 38.15625 44.007812 L 37.921875 52.019531 L 40.234375 48.949219 Z M 38.15625 44.007812 "/>
<path style=" stroke:none;fill-rule:nonzero;fill:rgb(0%,0%,0%);fill-opacity:1;" d="M 61.960938 44.007812 L 59.882812 48.949219 L 62.15625 52.019531 Z M 61.960938 44.007812 "/>
<path style=" stroke:none;fill-rule:nonzero;fill:rgb(0%,0%,0%);fill-opacity:1;" d="M 59.882812 56.691406 C 57.136719 57.972656 52.746094 59.84375 52.746094 59.84375 L 52.863281 65.40625 L 53.804688 61.980469 L 58 59.957031 Z M 59.882812 56.691406 "/>
<path style=" stroke:none;fill-rule:nonzero;fill:rgb(0%,0%,0%);fill-opacity:1;" d="M 46.863281 73.148438 L 46.550781 74.511719 L 50.039062 77.972656 L 53.53125 74.511719 L 53.214844 73.148438 Z M 46.863281 73.148438 "/>
<path style=" stroke:none;fill-rule:nonzero;fill:rgb(0%,0%,0%);fill-opacity:1;" d="M 20.351562 29.144531 L 26.589844 32.488281 L 27.84375 31.359375 L 25.097656 24.863281 L 25.921875 24.203125 L 25.097656 23.113281 C 24.039062 23.851562 22.785156 24.863281 22.429688 25.214844 L 23.371094 26.226562 L 23.921875 25.796875 L 25.609375 29.726562 L 21.84375 27.625 L 22.390625 27.082031 L 21.410156 26.109375 C 21.410156 26.109375 19.6875 27.664062 18.707031 28.792969 L 19.6875 29.765625 Z M 20.351562 29.144531 "/>
<path style=" stroke:none;fill-rule:nonzero;fill:rgb(0%,0%,0%);fill-opacity:1;" d="M 29.019531 22.21875 L 31.609375 26.886719 L 30.511719 27.585938 L 31.253906 28.792969 C 31.253906 28.792969 33.726562 27.238281 35.136719 26.613281 L 34.511719 25.367188 L 33.488281 25.875 L 30.902344 21.246094 L 32 20.621094 L 31.371094 19.375 C 31.371094 19.375 28.15625 20.972656 27.175781 21.710938 L 27.960938 22.839844 Z M 29.019531 22.21875 "/>
<path style=" stroke:none;fill-rule:nonzero;fill:rgb(0%,0%,0%);fill-opacity:1;" d="M 36.390625 18.832031 L 37.84375 23.929688 L 36.667969 24.433594 L 37.175781 25.757812 C 40.234375 24.433594 44.234375 23.734375 44.234375 23.734375 L 43.332031 19.765625 L 41.765625 20.15625 L 42.273438 22.605469 L 39.960938 23.269531 L 38.46875 18.132812 L 39.609375 17.820312 L 39.214844 16.496094 C 39.214844 16.496094 36.351562 17.277344 34.863281 17.898438 L 35.292969 19.183594 Z M 36.390625 18.832031 "/>
<path style=" stroke:none;fill-rule:nonzero;fill:rgb(0%,0%,0%);fill-opacity:1;" d="M 46.078125 22.023438 L 46.15625 23.382812 C 47.214844 23.230469 49.765625 23.230469 49.765625 23.230469 L 49.765625 21.867188 L 48.785156 21.867188 L 48.746094 17.238281 L 52.273438 23.421875 L 54.078125 23.617188 L 54.550781 16.730469 L 55.609375 16.925781 L 55.765625 15.640625 C 53.921875 15.332031 52.429688 15.214844 52.429688 15.214844 L 52.390625 16.496094 L 53.058594 16.613281 L 52.746094 20.347656 L 49.6875 15.097656 C 49.6875 15.097656 47.175781 15.058594 46.15625 15.136719 L 46.234375 16.378906 L 47.292969 16.378906 L 47.292969 21.90625 Z M 46.078125 22.023438 "/>
<path style=" stroke:none;fill-rule:nonzero;fill:rgb(0%,0%,0%);fill-opacity:1;" d="M 61.570312 23.773438 L 60.3125 23.304688 L 61.804688 18.171875 L 63.019531 18.558594 L 63.410156 17.238281 C 63.410156 17.238281 60.824219 16.417969 58.863281 15.992188 L 58.589844 17.316406 L 59.765625 17.625 L 58.273438 22.761719 L 56.980469 22.527344 L 56.667969 23.851562 C 56.667969 23.851562 59.371094 24.394531 61.136719 25.058594 Z M 61.570312 23.773438 "/>
<path style=" stroke:none;fill-rule:nonzero;fill:rgb(0%,0%,0%);fill-opacity:1;" d="M 66.078125 27.238281 C 66.941406 27.742188 67.6875 27.898438 68.273438 27.742188 C 68.863281 27.585938 69.410156 27.082031 69.882812 26.261719 L 71.921875 22.683594 L 72.746094 23.191406 L 73.410156 22.0625 C 72.550781 21.515625 70.824219 20.503906 70.824219 20.503906 L 70.117188 21.671875 L 70.589844 21.945312 L 68.746094 25.175781 C 68.429688 25.71875 68.117188 26.070312 67.84375 26.226562 C 67.570312 26.339844 67.253906 26.339844 66.902344 26.148438 C 66.707031 26.03125 66.550781 25.875 66.46875 25.71875 C 66.390625 25.5625 66.351562 25.367188 66.390625 25.097656 C 66.429688 24.863281 66.589844 24.511719 66.785156 24.125 L 68.628906 20.894531 L 69.175781 21.167969 L 69.882812 19.960938 C 68.429688 19.144531 66.46875 18.363281 66.46875 18.363281 L 65.882812 19.53125 L 66.746094 19.921875 L 64.941406 23.035156 C 64.550781 23.695312 64.351562 24.277344 64.273438 24.785156 C 64.234375 25.289062 64.351562 25.71875 64.628906 26.070312 C 64.980469 26.496094 65.449219 26.886719 66.078125 27.238281 Z M 66.078125 27.238281 "/>
<path style=" stroke:none;fill-rule:nonzero;fill:rgb(0%,0%,0%);fill-opacity:1;" d="M 73.410156 28.675781 L 72.3125 27.859375 L 70.628906 30.039062 L 71.726562 30.855469 L 72.15625 30.347656 C 72.15625 31.011719 72.429688 31.554688 72.980469 31.984375 C 73.570312 32.410156 74.15625 32.605469 74.746094 32.527344 C 75.332031 32.449219 75.882812 32.101562 76.351562 31.515625 C 76.746094 31.011719 76.902344 30.503906 76.863281 29.960938 C 76.824219 29.414062 76.628906 28.792969 76.234375 28.132812 L 76.039062 27.820312 C 75.882812 27.507812 75.765625 27.273438 75.6875 27.121094 C 75.609375 26.964844 75.570312 26.808594 75.570312 26.652344 C 75.570312 26.496094 75.609375 26.339844 75.726562 26.226562 C 75.84375 26.070312 76 25.992188 76.195312 25.992188 C 76.390625 25.992188 76.589844 26.070312 76.785156 26.1875 C 77.019531 26.378906 77.175781 26.613281 77.214844 26.886719 C 77.253906 27.160156 77.175781 27.46875 76.980469 27.820312 L 77.960938 28.675781 L 79.449219 26.886719 C 79.097656 26.496094 78.429688 25.953125 78.429688 25.953125 L 78.078125 26.417969 C 78.078125 26.109375 78.039062 25.835938 77.921875 25.5625 C 77.804688 25.289062 77.609375 25.097656 77.332031 24.902344 C 77.019531 24.667969 76.667969 24.511719 76.273438 24.472656 C 75.882812 24.433594 75.53125 24.472656 75.136719 24.628906 C 74.746094 24.785156 74.46875 25.019531 74.234375 25.367188 C 73.921875 25.796875 73.765625 26.261719 73.804688 26.808594 C 73.84375 27.351562 74.078125 28.015625 74.511719 28.753906 C 74.746094 29.222656 74.902344 29.570312 74.941406 29.84375 C 74.980469 30.117188 74.902344 30.347656 74.785156 30.542969 C 74.628906 30.738281 74.429688 30.855469 74.195312 30.894531 C 73.960938 30.933594 73.726562 30.855469 73.53125 30.699219 C 73.214844 30.464844 73.058594 30.195312 73.058594 29.882812 C 73.019531 29.453125 73.136719 29.105469 73.410156 28.675781 Z M 73.410156 28.675781 "/>
<path style=" stroke:none;fill-rule:nonzero;fill:rgb(92.156863%,0%,15.686275%);fill-opacity:1;" d="M 34.195312 41.75 L 34.511719 35.445312 L 41.609375 41.59375 L 41.609375 32.917969 L 44 32.917969 L 44 42.761719 L 46.390625 42.761719 L 46.429688 35.601562 L 48.824219 35.601562 L 48.863281 30.816406 L 51.214844 30.816406 L 51.253906 35.601562 L 53.648438 35.601562 L 53.6875 42.761719 L 56.117188 42.761719 L 56.078125 32.917969 L 58.511719 32.917969 L 58.511719 41.59375 L 65.609375 35.445312 L 65.921875 41.75 C 67.765625 40 69.921875 38.597656 72.351562 37.585938 C 69.609375 34.550781 66.273438 32.101562 62.429688 30.386719 C 58.511719 28.636719 54.3125 27.742188 50.117188 27.742188 C 46.550781 27.742188 43.019531 28.363281 39.570312 29.648438 C 34.980469 31.359375 30.980469 34.085938 27.84375 37.585938 C 28 37.664062 28.117188 37.703125 28.273438 37.78125 C 30.46875 38.753906 32.46875 40.117188 34.195312 41.75 Z M 34.195312 41.75 "/>
<path style=" stroke:none;fill-rule:nonzero;fill:rgb(92.156863%,0%,15.686275%);fill-opacity:1;" d="M 33.609375 54.003906 L 34.039062 45.058594 C 32.195312 42.878906 29.882812 41.125 27.214844 39.921875 C 26.863281 39.765625 26.550781 39.609375 26.195312 39.492188 C 24.902344 41.203125 23.765625 43.109375 22.824219 45.132812 C 21.214844 48.675781 20.3125 52.410156 20.15625 56.183594 L 32.351562 56.183594 Z M 33.609375 54.003906 "/>
<path style=" stroke:none;fill-rule:nonzero;fill:rgb(92.156863%,0%,15.686275%);fill-opacity:1;" d="M 63.960938 70.851562 L 58.902344 75.523438 L 54.667969 82.253906 L 45.488281 82.253906 L 41.175781 75.523438 L 36.117188 70.851562 C 33.921875 73.578125 31.058594 75.71875 27.765625 77.117188 C 30.511719 80.152344 33.84375 82.605469 37.726562 84.355469 C 41.648438 86.105469 45.84375 87 50.039062 87 C 53.609375 87 57.136719 86.378906 60.589844 85.09375 C 65.175781 83.382812 69.175781 80.660156 72.351562 77.117188 C 72.195312 77.039062 72.078125 77 71.921875 76.921875 C 68.746094 75.523438 66.078125 73.460938 63.960938 70.851562 Z M 63.960938 70.851562 "/>
<path style=" stroke:none;fill-rule:nonzero;fill:rgb(92.156863%,0%,15.686275%);fill-opacity:1;" d="M 66.039062 45.058594 L 66.46875 54.003906 L 67.6875 56.183594 L 79.882812 56.183594 C 79.765625 53.070312 79.136719 49.960938 77.960938 46.925781 C 76.941406 44.238281 75.570312 41.75 73.84375 39.492188 C 70.824219 40.660156 68.117188 42.566406 66.039062 45.058594 Z M 66.039062 45.058594 "/>
<path style=" stroke:none;fill-rule:nonzero;fill:rgb(92.156863%,0%,15.686275%);fill-opacity:1;" d="M 34.351562 69.257812 L 30.902344 66.066406 L 33.84375 61.789062 L 31.410156 58.558594 L 20.195312 58.558594 C 20.3125 61.671875 20.941406 64.824219 22.117188 67.820312 C 23.136719 70.503906 24.511719 72.992188 26.195312 75.210938 C 29.449219 73.925781 32.234375 71.902344 34.351562 69.257812 Z M 34.351562 69.257812 "/>
<path style=" stroke:none;fill-rule:nonzero;fill:rgb(92.156863%,0%,15.686275%);fill-opacity:1;" d="M 48.863281 37.976562 L 48.824219 42.761719 L 51.253906 42.761719 L 51.253906 37.976562 Z M 48.863281 37.976562 "/>
<path style=" stroke:none;fill-rule:nonzero;fill:rgb(92.156863%,0%,15.686275%);fill-opacity:1;" d="M 66.273438 61.789062 L 69.214844 66.066406 L 65.765625 69.257812 C 67.648438 71.59375 70.078125 73.5 72.902344 74.785156 C 73.253906 74.9375 73.609375 75.09375 73.960938 75.210938 C 75.253906 73.5 76.390625 71.59375 77.292969 69.609375 C 78.902344 66.066406 79.804688 62.332031 79.960938 58.558594 L 68.746094 58.558594 Z M 66.273438 61.789062 "/>
</g>
</svg>
