<?xml version="1.0" encoding="UTF-8"?>
<svg xmlns="http://www.w3.org/2000/svg" xmlns:xlink="http://www.w3.org/1999/xlink" width="100px" height="100px" viewBox="0 0 100 100" version="1.1">
<g id="surface1">
<path style=" stroke:none;fill-rule:evenodd;fill:rgb(100%,100%,100%);fill-opacity:1;" d="M 99.304688 49.964844 C 99.304688 77.195312 77.230469 99.269531 50 99.269531 C 22.769531 99.269531 0.695312 77.195312 0.695312 49.964844 C 0.695312 22.734375 22.769531 0.660156 50 0.660156 C 77.230469 0.660156 99.304688 22.734375 99.304688 49.964844 Z M 99.304688 49.964844 "/>
<path style=" stroke:none;fill-rule:evenodd;fill:rgb(97.647059%,64.313725%,9.019608%);fill-opacity:1;" d="M 26.984375 85.339844 C 27.644531 85.339844 28.167969 85.863281 28.167969 86.523438 C 28.167969 87.1875 27.644531 87.707031 26.984375 87.707031 C 26.324219 87.707031 25.800781 87.1875 25.800781 86.523438 C 25.835938 85.863281 26.324219 85.339844 26.984375 85.339844 M 65.320312 8.21875 C 65.980469 8.21875 66.503906 8.738281 66.503906 9.402344 C 66.503906 10.0625 65.980469 10.585938 65.320312 10.585938 C 64.660156 10.585938 64.136719 10.0625 64.136719 9.402344 C 64.171875 8.738281 64.695312 8.21875 65.320312 8.21875 Z M 37.707031 7.171875 C 38.371094 7.171875 38.894531 7.695312 38.894531 8.355469 C 38.894531 9.019531 38.371094 9.539062 37.707031 9.539062 C 37.046875 9.539062 36.523438 9.019531 36.523438 8.355469 C 36.558594 7.695312 37.046875 7.171875 37.707031 7.171875 Z M 30.152344 5.464844 C 54.699219 -5.464844 83.566406 5.570312 94.5 30.152344 C 105.433594 54.734375 94.429688 83.566406 69.847656 94.535156 C 45.265625 105.5 16.433594 94.464844 5.464844 69.882812 C -5.5 45.300781 5.570312 16.433594 30.152344 5.464844 Z M 51.878906 86.699219 C 37.152344 87.464844 22.804688 79.246094 16.433594 64.9375 C 14.378906 60.339844 13.335938 55.535156 13.230469 50.800781 L 13.960938 50.800781 C 13.960938 51.042969 13.996094 51.324219 13.996094 51.601562 C 14.9375 71.484375 31.859375 86.839844 51.742188 85.898438 C 52.089844 85.863281 52.402344 85.863281 52.75 85.828125 C 52.4375 86.140625 52.160156 86.421875 51.878906 86.699219 Z M 53.96875 13.476562 C 66.539062 14.832031 78.027344 22.667969 83.53125 35.027344 C 91.78125 53.550781 83.460938 75.277344 64.9375 83.566406 C 61.351562 85.167969 57.625 86.140625 53.933594 86.523438 C 54.28125 86.210938 54.632812 85.898438 54.980469 85.585938 C 73.292969 83.078125 86.90625 66.957031 86.039062 48.15625 C 85.203125 30.464844 71.726562 16.363281 54.769531 14.136719 C 54.492188 13.925781 54.246094 13.683594 53.96875 13.476562 Z M 35.027344 16.433594 C 40.527344 13.996094 46.308594 12.988281 51.914062 13.300781 C 52.125 13.507812 52.367188 13.71875 52.578125 13.960938 C 51.183594 13.894531 49.757812 13.859375 48.328125 13.894531 C 29.316406 14.832031 14.414062 30.328125 13.996094 49.058594 L 13.230469 49.058594 C 13.613281 35.339844 21.65625 22.386719 35.027344 16.433594 Z M 29.769531 4.664062 C 54.804688 -6.511719 84.15625 4.734375 95.300781 29.769531 C 106.476562 54.804688 95.230469 84.15625 70.195312 95.300781 C 45.160156 106.476562 15.808594 95.230469 4.664062 70.195312 C -6.511719 45.195312 4.734375 15.808594 29.769531 4.664062 Z M 16.644531 50.871094 L 66.679688 51.8125 C 66.332031 63.09375 62.464844 74.234375 55.363281 82.902344 C 53.621094 83.183594 51.84375 83.320312 50 83.320312 C 31.894531 83.355469 17.097656 68.90625 16.644531 50.871094 Z M 58.148438 82.347656 C 65.5625 73.957031 69.882812 63.195312 70.300781 51.84375 L 81.128906 50 L 70.300781 48.15625 C 69.882812 36.804688 65.5625 26.042969 58.183594 17.652344 C 72.632812 21.308594 83.355469 34.402344 83.355469 50 C 83.355469 65.597656 72.632812 78.691406 58.148438 82.347656 Z M 55.363281 17.0625 C 62.464844 25.730469 66.296875 36.90625 66.644531 48.15625 L 16.609375 49.023438 C 17.097656 31.058594 31.859375 16.644531 49.964844 16.644531 C 51.84375 16.644531 53.621094 16.78125 55.363281 17.0625 Z M 50.070312 36.457031 C 47.285156 36.457031 45.054688 38.648438 45.054688 41.363281 C 45.054688 41.679688 45.089844 41.957031 45.125 42.234375 L 45.125 42.269531 C 45.335938 43.347656 45.925781 44.429688 46.9375 45.195312 C 48.992188 46.796875 51.914062 46.554688 53.726562 44.742188 L 51.601562 42.652344 C 50.90625 43.453125 49.652344 43.558594 48.851562 42.863281 C 48.640625 42.6875 48.46875 42.480469 48.363281 42.234375 L 55.015625 42.234375 C 55.082031 41.921875 55.082031 41.644531 55.082031 41.332031 C 55.082031 38.613281 52.820312 36.457031 50.070312 36.457031 Z M 48.15625 40.738281 C 48.398438 39.9375 49.164062 39.378906 50.070312 39.378906 C 50.976562 39.378906 51.707031 39.972656 51.984375 40.738281 Z M 39.136719 36.421875 C 38.40625 36.421875 37.707031 36.59375 37.082031 36.839844 L 37.082031 32.625 L 34.054688 32.625 L 34.054688 46.203125 L 37.082031 46.203125 L 37.082031 45.785156 C 37.707031 46.066406 38.40625 46.203125 39.136719 46.203125 C 41.921875 46.203125 44.152344 44.011719 44.152344 41.296875 C 44.152344 38.613281 41.921875 36.421875 39.136719 36.421875 Z M 39.136719 43.28125 C 38.023438 43.28125 37.117188 42.410156 37.117188 41.332031 C 37.117188 40.25 38.023438 39.378906 39.136719 39.378906 C 40.214844 39.378906 41.15625 40.25 41.15625 41.332031 C 41.15625 42.410156 40.25 43.28125 39.136719 43.28125 Z M 62.046875 36.628906 L 59.019531 36.628906 L 59.019531 32.625 L 55.988281 32.625 L 55.988281 46.203125 L 59.019531 46.203125 L 59.019531 39.589844 L 62.046875 39.589844 Z M 33.113281 32.660156 L 23.085938 32.660156 L 23.085938 35.621094 L 29.179688 35.621094 L 22.003906 46.238281 L 26.007812 46.238281 L 33.113281 35.621094 Z M 62.011719 42.304688 C 60.898438 42.304688 59.992188 43.175781 59.992188 44.253906 C 59.992188 45.335938 60.898438 46.203125 62.011719 46.203125 C 63.09375 46.203125 64.03125 45.335938 64.03125 44.253906 C 64.03125 43.210938 63.125 42.304688 62.011719 42.304688 Z M 73.15625 85.339844 C 73.816406 85.339844 74.339844 85.863281 74.339844 86.523438 C 74.339844 87.1875 73.816406 87.707031 73.15625 87.707031 C 72.492188 87.707031 71.972656 87.1875 71.972656 86.523438 C 71.972656 85.863281 72.492188 85.339844 73.15625 85.339844 Z M 73.15625 85.339844 "/>
<path style=" stroke:none;fill-rule:evenodd;fill:rgb(0%,0%,0%);fill-opacity:1;" d="M 76.53125 81.652344 C 76.078125 81.164062 76.21875 80.640625 76.601562 80.292969 L 77.089844 79.839844 L 78.378906 81.335938 L 77.890625 81.753906 C 77.613281 82.066406 77.019531 82.207031 76.53125 81.652344 M 60.203125 10.304688 L 60.445312 9.4375 L 59.785156 9.226562 L 60.898438 5.292969 L 59.609375 4.945312 L 56.652344 8.320312 L 56.40625 9.226562 L 58.636719 9.855469 L 58.285156 11.175781 L 59.226562 11.421875 L 59.574219 10.097656 Z M 58.878906 9.019531 L 57.554688 8.667969 L 59.679688 6.128906 L 59.714844 6.128906 Z M 51.707031 5.882812 C 51.53125 7.242188 52.195312 7.972656 53.0625 8.078125 C 53.273438 8.113281 53.515625 8.078125 53.691406 7.972656 L 52.054688 10.304688 L 53.238281 10.445312 L 54.804688 8.148438 C 55.152344 7.625 55.464844 7.066406 55.535156 6.335938 C 55.710938 4.980469 55.046875 4.109375 53.898438 3.96875 C 52.785156 3.863281 51.878906 4.5625 51.707031 5.882812 Z M 52.75 5.988281 C 52.820312 5.257812 53.238281 4.769531 53.761719 4.839844 C 54.28125 4.910156 54.5625 5.464844 54.492188 6.199219 C 54.421875 6.894531 54.003906 7.417969 53.445312 7.347656 C 52.890625 7.277344 52.644531 6.71875 52.75 5.988281 Z M 46.03125 5.988281 C 46.066406 7.347656 46.832031 7.972656 47.667969 7.9375 C 47.875 7.9375 48.121094 7.867188 48.257812 7.730469 L 47.003906 10.273438 L 48.1875 10.238281 L 49.40625 7.730469 C 49.6875 7.136719 49.894531 6.546875 49.859375 5.847656 C 49.824219 4.492188 49.058594 3.726562 47.910156 3.761719 C 46.796875 3.832031 45.996094 4.664062 46.03125 5.988281 Z M 47.074219 5.953125 C 47.039062 5.222656 47.355469 4.699219 47.910156 4.664062 C 48.46875 4.664062 48.816406 5.152344 48.851562 5.882812 C 48.886719 6.617188 48.539062 7.136719 47.980469 7.171875 C 47.355469 7.171875 47.074219 6.683594 47.074219 5.953125 Z M 44.5 10.65625 L 43.699219 4.351562 L 42.757812 4.457031 L 41.296875 5.847656 L 41.886719 6.617188 L 42.828125 5.675781 L 43.488281 10.757812 Z M 33.148438 7.625 C 32.660156 7.417969 32.101562 7.417969 31.511719 7.695312 C 30.710938 8.042969 30.117188 8.984375 30.640625 10.167969 C 31.058594 11.105469 31.789062 11.246094 32.554688 11.28125 C 33.183594 11.316406 33.636719 11.386719 33.878906 11.90625 C 34.085938 12.394531 33.949219 12.847656 33.53125 13.058594 C 33.183594 13.230469 32.695312 13.195312 32.3125 13.023438 L 32.101562 13.960938 C 32.589844 14.171875 33.320312 14.207031 33.949219 13.925781 C 34.855469 13.507812 35.304688 12.570312 34.820312 11.421875 C 34.367188 10.445312 33.496094 10.339844 32.800781 10.304688 C 32.207031 10.273438 31.789062 10.238281 31.582031 9.714844 C 31.335938 9.15625 31.582031 8.738281 31.929688 8.566406 C 32.242188 8.425781 32.589844 8.425781 32.902344 8.601562 Z M 31.058594 15.078125 L 26.324219 10.550781 L 25.175781 11.28125 L 27.261719 17.480469 L 28.167969 16.886719 L 27.714844 15.5625 L 29.109375 14.660156 L 30.082031 15.597656 Z M 28.550781 14.066406 L 27.367188 14.832031 L 26.253906 11.804688 L 26.289062 11.769531 Z M 24.859375 17.027344 C 24.199219 16.296875 23.503906 16.296875 23.050781 16.539062 C 23.257812 16.121094 23.257812 15.527344 22.773438 14.902344 C 21.902344 13.925781 20.960938 14.378906 20.402344 14.832031 L 19.117188 15.914062 L 23.292969 20.71875 L 24.722656 19.5 C 25.277344 19.011719 25.730469 18.035156 24.859375 17.027344 Z M 22.109375 15.667969 C 22.527344 16.15625 22.355469 16.644531 22.039062 16.921875 L 21.585938 17.339844 L 20.4375 15.980469 L 20.890625 15.597656 C 21.238281 15.320312 21.691406 15.179688 22.109375 15.667969 Z M 24.023438 17.617188 C 24.476562 18.105469 24.339844 18.628906 23.957031 18.976562 L 23.46875 19.429688 L 22.179688 17.933594 L 22.667969 17.515625 C 22.980469 17.199219 23.539062 17.0625 24.023438 17.617188 Z M 19.8125 20.855469 L 16.714844 18.175781 L 16.015625 18.976562 L 19.046875 21.621094 C 19.671875 22.144531 20.054688 22.738281 19.566406 23.292969 C 19.082031 23.851562 18.417969 23.539062 17.828125 23.015625 L 14.796875 20.367188 L 14.101562 21.167969 L 17.199219 23.851562 C 18.210938 24.722656 19.359375 25.035156 20.335938 23.921875 C 21.273438 22.875 20.820312 21.761719 19.8125 20.855469 Z M 17.898438 26.636719 L 17.0625 26.078125 L 16.121094 27.578125 L 11.59375 24.6875 L 11.003906 25.625 L 16.363281 29.039062 Z M 15.355469 30.675781 L 11.421875 30.882812 L 9.644531 27.855469 L 9.085938 28.933594 L 10.792969 31.617188 L 10.792969 31.683594 L 8.320312 30.433594 L 7.835938 31.371094 L 13.507812 34.261719 L 13.996094 33.320312 L 11.246094 31.929688 L 11.246094 31.894531 L 14.761719 31.789062 Z M 8.601562 38.925781 C 6.652344 38.476562 5.152344 39.03125 4.839844 40.425781 C 4.492188 41.816406 5.640625 42.933594 7.554688 43.382812 C 9.503906 43.835938 11.003906 43.316406 11.351562 41.886719 C 11.664062 40.527344 10.550781 39.378906 8.601562 38.925781 Z M 8.320312 40.007812 C 9.574219 40.285156 10.515625 40.914062 10.304688 41.679688 C 10.132812 42.445312 9.054688 42.617188 7.800781 42.304688 C 6.546875 42.027344 5.640625 41.398438 5.816406 40.667969 C 6.023438 39.867188 7.066406 39.726562 8.320312 40.007812 Z M 10.585938 46.34375 L 4.246094 45.855469 L 4.179688 46.9375 L 10.515625 47.421875 Z M 10.445312 49.894531 L 4.074219 50.070312 L 4.109375 51.007812 L 8.636719 50.90625 L 8.636719 50.941406 L 4.144531 52.855469 L 4.179688 54.074219 L 10.550781 53.898438 L 10.515625 52.925781 L 6.023438 53.0625 L 6.023438 53.027344 L 10.480469 51.113281 Z M 10.933594 56.300781 L 4.699219 57.417969 L 4.875 58.496094 L 11.105469 57.382812 Z M 5.882812 61.074219 C 5.570312 61.523438 5.535156 62.082031 5.675781 62.707031 C 5.917969 63.542969 6.753906 64.277344 8.007812 63.925781 C 9.019531 63.648438 9.261719 62.953125 9.402344 62.222656 C 9.503906 61.59375 9.679688 61.140625 10.203125 61.003906 C 10.722656 60.863281 11.140625 61.074219 11.28125 61.492188 C 11.386719 61.875 11.316406 62.324219 11.074219 62.707031 L 12.011719 63.058594 C 12.324219 62.605469 12.429688 61.90625 12.222656 61.246094 C 11.941406 60.304688 11.039062 59.679688 9.855469 60.027344 C 8.808594 60.339844 8.566406 61.140625 8.460938 61.839844 C 8.355469 62.394531 8.21875 62.8125 7.695312 62.953125 C 7.066406 63.125 6.753906 62.8125 6.617188 62.429688 C 6.546875 62.082031 6.582031 61.769531 6.789062 61.492188 Z M 3.726562 61.734375 L 3.933594 62.5 L 4.910156 62.847656 L 4.246094 63.683594 L 4.457031 64.449219 L 5.433594 63.160156 L 5.222656 62.324219 Z M 9.054688 66.15625 C 7.730469 66.746094 7.730469 67.792969 8.078125 68.558594 L 8.808594 70.160156 L 14.625 67.546875 L 14.171875 66.609375 L 11.839844 67.652344 L 11.523438 66.957031 C 11.140625 66.15625 10.203125 65.632812 9.054688 66.15625 Z M 9.472656 67.132812 C 10.097656 66.851562 10.550781 67.027344 10.792969 67.480469 L 11.039062 68.035156 L 9.191406 68.871094 L 8.949219 68.316406 C 8.738281 67.863281 8.84375 67.375 9.472656 67.132812 Z M 15.527344 69.566406 L 14.726562 70.089844 L 15.773438 71.691406 L 14.207031 72.703125 L 13.300781 71.308594 L 12.570312 71.796875 L 13.476562 73.1875 L 12.046875 74.128906 L 11.074219 72.632812 L 10.273438 73.121094 L 11.804688 75.523438 L 17.164062 72.109375 Z M 18.316406 73.710938 L 16.851562 76.496094 C 16.46875 76.253906 15.738281 76.148438 14.972656 76.8125 C 14.03125 77.644531 14.101562 78.585938 14.761719 79.351562 L 15.945312 80.710938 L 20.753906 76.53125 L 20.089844 75.730469 L 18.035156 77.507812 L 17.652344 77.054688 L 19.046875 74.546875 Z M 15.703125 77.578125 C 16.191406 77.160156 16.714844 77.226562 17.0625 77.613281 L 17.445312 78.0625 L 15.945312 79.351562 L 15.5625 78.898438 C 15.285156 78.550781 15.144531 78.0625 15.703125 77.578125 Z M 21.972656 77.925781 L 21.203125 81.824219 L 17.863281 82.800781 L 18.800781 83.601562 L 21.832031 82.554688 L 21.867188 82.589844 L 20.054688 84.679688 L 20.855469 85.375 L 25.035156 80.570312 L 24.234375 79.875 L 22.214844 82.207031 L 22.179688 82.171875 L 22.910156 78.726562 Z M 70.089844 91.816406 L 67.234375 85.480469 L 65.808594 86.140625 L 68.664062 92.480469 Z M 66.851562 93.175781 L 62.917969 87.1875 L 61.074219 87.847656 L 61.839844 94.953125 L 63.335938 94.429688 L 63.160156 93.140625 L 64.660156 92.617188 L 65.355469 93.699219 Z M 64.03125 91.539062 L 62.917969 91.921875 L 62.464844 88.960938 L 62.5 88.960938 Z M 59.855469 95.265625 L 58.566406 88.441406 L 57.035156 88.71875 L 58.320312 95.542969 Z M 56.265625 95.855469 L 56.164062 94.394531 L 54.316406 94.535156 L 53.898438 89.03125 L 52.296875 89.136719 L 52.820312 96.101562 Z M 50.453125 93.664062 L 50.59375 89.277344 L 49.023438 89.207031 L 48.886719 93.453125 C 48.851562 94.253906 48.675781 94.8125 48.085938 94.8125 C 47.457031 94.777344 47.320312 94.183594 47.355469 93.417969 L 47.492188 89.171875 L 45.925781 89.101562 L 45.785156 93.488281 C 45.71875 95.019531 46.308594 96.273438 48.015625 96.308594 C 49.652344 96.378906 50.382812 95.195312 50.453125 93.664062 Z M 43.976562 95.960938 L 43.628906 88.824219 L 41.679688 88.476562 L 38.71875 95.019531 L 40.25 95.300781 L 40.738281 94.082031 L 42.269531 94.359375 L 42.339844 95.648438 Z M 42.339844 93.140625 L 41.15625 92.933594 L 42.269531 90.144531 L 42.304688 90.144531 Z M 36.90625 94.394531 L 38.789062 87.707031 L 37.292969 87.292969 L 35.410156 93.976562 Z M 35.722656 87.257812 C 35.515625 86.699219 35.0625 86.210938 34.332031 85.933594 C 33.390625 85.550781 32.101562 85.722656 31.546875 87.152344 C 31.09375 88.230469 31.511719 88.894531 32.066406 89.519531 C 32.519531 90.007812 32.730469 90.355469 32.554688 90.773438 C 32.382812 91.191406 32.035156 91.296875 31.652344 91.15625 C 31.265625 91.015625 30.953125 90.667969 30.816406 90.25 L 29.632812 91.050781 C 29.839844 91.574219 30.398438 92.199219 31.164062 92.515625 C 32.242188 92.933594 33.460938 92.617188 34.019531 91.226562 C 34.472656 90.113281 33.878906 89.3125 33.390625 88.789062 C 32.972656 88.300781 32.765625 88.023438 32.9375 87.640625 C 33.148438 87.152344 33.53125 87.117188 33.84375 87.222656 C 34.15625 87.324219 34.402344 87.605469 34.503906 87.953125 Z M 33.390625 83.667969 L 33.878906 85.410156 L 34.957031 85.863281 L 36.523438 84.957031 L 35.550781 84.574219 L 34.609375 85.097656 L 34.296875 84.085938 Z M 78.445312 83.636719 C 78.027344 83.148438 78.203125 82.660156 78.515625 82.382812 L 78.96875 82 L 80.117188 83.355469 L 79.664062 83.738281 C 79.351562 83.984375 78.863281 84.085938 78.445312 83.636719 Z M 75.695312 82.277344 C 76.359375 83.007812 77.054688 83.007812 77.507812 82.765625 C 77.296875 83.183594 77.296875 83.773438 77.785156 84.402344 C 78.65625 85.375 79.597656 84.921875 80.152344 84.472656 L 81.441406 83.390625 L 77.261719 78.585938 L 75.835938 79.804688 C 75.277344 80.292969 74.824219 81.265625 75.695312 82.277344 Z M 80.78125 78.203125 L 83.878906 80.882812 L 84.574219 80.082031 L 81.546875 77.4375 C 80.917969 76.914062 80.535156 76.324219 81.023438 75.765625 C 81.511719 75.207031 82.171875 75.523438 82.765625 76.042969 L 85.792969 78.691406 L 86.492188 77.890625 L 83.390625 75.207031 C 82.382812 74.339844 81.234375 74.023438 80.257812 75.140625 C 79.28125 76.183594 79.769531 77.332031 80.78125 78.203125 Z M 82.625 72.285156 L 83.460938 72.804688 L 84.402344 71.308594 L 88.925781 74.199219 L 89.519531 73.257812 L 84.15625 69.847656 Z M 85.792969 68.347656 L 86.734375 68.105469 C 86.523438 67.792969 86.421875 67.410156 86.628906 67.027344 C 86.976562 66.226562 88.125 66.261719 89.277344 66.816406 C 90.460938 67.339844 91.226562 68.175781 90.878906 68.941406 C 90.703125 69.289062 90.425781 69.5 90.007812 69.601562 L 90.425781 70.472656 C 91.015625 70.367188 91.503906 69.984375 91.78125 69.289062 C 92.375 68 91.46875 66.574219 89.695312 65.773438 C 87.917969 64.972656 86.28125 65.214844 85.6875 66.539062 C 85.375 67.269531 85.480469 67.863281 85.792969 68.347656 Z M 88.441406 59.503906 L 89.414062 59.679688 L 89.726562 57.972656 L 94.984375 58.914062 L 95.195312 57.835938 L 88.960938 56.71875 Z M 89.277344 54.699219 L 90.25 54.769531 L 90.390625 53.027344 L 95.753906 53.445312 L 95.820312 52.367188 L 89.484375 51.878906 Z M 91.714844 48.1875 L 91.609375 46.796875 L 94.8125 47.25 L 94.8125 47.285156 Z M 89.660156 49.894531 L 95.890625 47.875 L 95.785156 46.519531 L 89.34375 45.402344 L 89.414062 46.484375 L 90.773438 46.691406 L 90.878906 48.328125 L 89.554688 48.746094 Z M 90.773438 42.304688 C 90.113281 42.445312 89.726562 42.097656 89.625 41.609375 L 89.484375 40.945312 L 91.433594 40.496094 L 91.574219 41.15625 C 91.644531 41.574219 91.46875 42.164062 90.773438 42.304688 Z M 93.382812 41.574219 C 92.757812 41.714844 92.410156 41.363281 92.304688 40.914062 L 92.164062 40.320312 L 93.90625 39.9375 L 94.046875 40.527344 C 94.152344 40.945312 94.011719 41.398438 93.382812 41.574219 Z M 90.914062 43.316406 C 91.851562 43.105469 92.199219 42.445312 92.199219 41.957031 L 92.234375 41.957031 C 92.515625 42.339844 93.035156 42.617188 93.800781 42.445312 C 95.089844 42.164062 95.160156 41.085938 94.984375 40.355469 L 94.636719 38.71875 L 88.441406 40.144531 L 88.859375 41.992188 C 88.960938 42.792969 89.589844 43.628906 90.914062 43.316406 Z M 93 36.558594 L 93.871094 36.28125 L 92.792969 33.007812 L 91.921875 33.285156 L 92.304688 34.402344 L 87.152344 36.140625 L 87.5 37.152344 L 92.652344 35.410156 Z M 86.074219 33.53125 L 86.941406 33.078125 L 86.074219 31.40625 L 87.742188 30.570312 L 88.507812 32.066406 L 89.3125 31.683594 L 88.542969 30.1875 L 90.042969 29.421875 L 90.84375 31.058594 L 91.679688 30.640625 L 90.390625 28.132812 L 84.714844 31.023438 Z M 83.773438 29.109375 L 85.410156 25.488281 L 88.894531 25.3125 L 88.195312 24.339844 L 84.992188 24.617188 L 84.957031 24.582031 L 87.1875 22.980469 L 86.558594 22.109375 L 81.371094 25.765625 L 82 26.636719 L 84.503906 24.824219 L 84.539062 24.859375 L 83.007812 28.027344 Z M 84.296875 19.984375 C 84.367188 19.464844 84.15625 18.90625 83.703125 18.488281 C 83.078125 17.828125 82.035156 17.582031 81.09375 18.488281 C 80.328125 19.21875 80.433594 19.953125 80.675781 20.683594 C 80.882812 21.273438 80.917969 21.761719 80.535156 22.144531 C 80.152344 22.527344 79.664062 22.492188 79.351562 22.179688 C 79.074219 21.902344 78.933594 21.449219 79.003906 20.996094 L 78.027344 21.101562 C 77.960938 21.65625 78.203125 22.320312 78.691406 22.839844 C 79.351562 23.574219 80.464844 23.675781 81.335938 22.839844 C 82.136719 22.074219 81.964844 21.238281 81.71875 20.578125 C 81.546875 20.019531 81.476562 19.601562 81.859375 19.21875 C 82.3125 18.800781 82.800781 18.90625 83.078125 19.183594 C 83.285156 19.429688 83.425781 19.742188 83.390625 20.125 Z M 76.636719 17.722656 L 75.558594 16.851562 L 78.0625 14.796875 L 78.097656 14.832031 Z M 76.496094 20.402344 L 79.214844 14.449219 L 78.132812 13.613281 L 72.945312 17.652344 L 73.78125 18.316406 L 74.859375 17.445312 L 76.183594 18.488281 L 75.59375 19.742188 Z M 71.621094 14.519531 C 71.273438 15.113281 70.753906 15.144531 70.300781 14.867188 L 69.707031 14.519531 L 70.683594 12.8125 L 71.238281 13.160156 C 71.65625 13.371094 71.972656 13.894531 71.621094 14.519531 Z M 72.839844 12.082031 C 72.492188 12.640625 72.003906 12.640625 71.621094 12.429688 L 71.101562 12.117188 L 71.972656 10.585938 L 72.457031 10.898438 C 72.910156 11.140625 73.15625 11.523438 72.839844 12.082031 Z M 72.492188 15.113281 C 72.980469 14.277344 72.703125 13.578125 72.355469 13.230469 L 72.355469 13.195312 C 72.839844 13.265625 73.398438 13.09375 73.78125 12.394531 C 74.441406 11.246094 73.710938 10.515625 73.050781 10.132812 L 71.585938 9.296875 L 68.417969 14.832031 L 70.054688 15.773438 C 70.753906 16.191406 71.796875 16.261719 72.492188 15.113281 Z M 76.078125 49.09375 C 76.183594 43.558594 77.296875 38.335938 79.179688 33.773438 C 74.792969 25.835938 67.199219 19.917969 58.21875 17.617188 C 65.632812 26.007812 69.917969 36.769531 70.335938 48.121094 Z M 79.109375 66.296875 C 77.261719 61.699219 76.148438 56.441406 76.078125 50.835938 L 70.335938 51.8125 C 69.917969 63.160156 65.597656 73.957031 58.183594 82.3125 C 67.132812 80.046875 74.652344 74.164062 79.109375 66.296875 Z M 79.597656 34.574219 C 77.890625 38.960938 76.914062 43.941406 76.8125 49.234375 L 81.164062 50 L 76.8125 50.765625 C 76.878906 56.09375 77.890625 61.105469 79.5625 65.527344 C 82 60.898438 83.355469 55.605469 83.355469 50 C 83.355469 44.429688 81.964844 39.171875 79.597656 34.574219 Z M 37.777344 81.058594 C 49.339844 76.007812 57.519531 64.796875 58.113281 51.671875 L 66.644531 51.84375 C 66.296875 63.125 62.429688 74.269531 55.328125 82.9375 C 53.585938 83.21875 51.8125 83.355469 49.964844 83.355469 C 45.683594 83.355469 41.574219 82.519531 37.777344 81.058594 Z M 57.417969 51.636719 C 56.824219 64.761719 48.503906 75.871094 36.875 80.675781 C 25.242188 75.695312 16.992188 64.277344 16.644531 50.871094 Z M 36.558594 19.429688 C 43.90625 22.386719 49.929688 27.820312 53.585938 34.679688 C 53.933594 34.820312 54.316406 35.027344 54.664062 35.203125 C 51.078125 27.960938 44.984375 22.214844 37.464844 19.046875 C 41.332031 17.480469 45.578125 16.609375 50 16.609375 C 51.8125 16.609375 53.621094 16.746094 55.398438 17.027344 C 62.5 25.695312 66.332031 36.875 66.679688 48.121094 C 50 48.398438 33.320312 48.710938 16.644531 48.992188 C 17.027344 35.792969 25.105469 24.476562 36.558594 19.429688 Z M 51.878906 86.664062 C 52.160156 86.386719 52.4375 86.105469 52.714844 85.828125 C 52.367188 85.863281 52.054688 85.898438 51.707031 85.898438 C 31.824219 86.839844 14.902344 71.484375 13.960938 51.601562 C 13.960938 51.359375 13.925781 51.078125 13.925781 50.800781 L 13.195312 50.800781 C 13.300781 55.535156 14.3125 60.339844 16.398438 64.9375 C 22.804688 79.214844 37.152344 87.429688 51.878906 86.664062 Z M 53.96875 13.441406 C 54.214844 13.648438 54.492188 13.894531 54.769531 14.136719 C 71.726562 16.363281 85.203125 30.464844 86.039062 48.15625 C 86.941406 66.957031 73.292969 83.078125 54.980469 85.585938 C 54.632812 85.898438 54.316406 86.210938 53.933594 86.523438 C 57.625 86.140625 61.351562 85.167969 64.9375 83.566406 C 83.460938 75.3125 91.78125 53.585938 83.53125 35.027344 C 78.027344 22.632812 66.539062 14.832031 53.96875 13.441406 Z M 48.292969 13.894531 C 49.722656 13.824219 51.148438 13.824219 52.542969 13.960938 C 52.332031 13.753906 52.125 13.542969 51.878906 13.300781 C 46.238281 12.988281 40.460938 13.996094 34.992188 16.433594 C 21.65625 22.386719 13.613281 35.339844 13.230469 49.058594 L 13.960938 49.058594 C 14.378906 30.292969 29.28125 14.761719 48.292969 13.894531 Z M 30.152344 5.464844 C 54.734375 -5.5 83.566406 5.535156 94.535156 30.117188 C 105.5 54.699219 94.464844 83.53125 69.882812 94.5 C 45.300781 105.464844 16.46875 94.429688 5.5 69.847656 C -5.464844 45.265625 5.570312 16.433594 30.152344 5.464844 Z M 65.320312 8.21875 C 65.980469 8.21875 66.503906 8.738281 66.503906 9.402344 C 66.503906 10.0625 65.980469 10.585938 65.320312 10.585938 C 64.660156 10.585938 64.136719 10.0625 64.136719 9.402344 C 64.171875 8.703125 64.695312 8.21875 65.320312 8.21875 Z M 37.707031 7.171875 C 38.371094 7.171875 38.894531 7.695312 38.894531 8.355469 C 38.894531 9.019531 38.371094 9.539062 37.707031 9.539062 C 37.046875 9.539062 36.523438 9.019531 36.523438 8.355469 C 36.558594 7.695312 37.046875 7.171875 37.707031 7.171875 Z M 73.15625 85.339844 C 73.816406 85.339844 74.339844 85.863281 74.339844 86.523438 C 74.339844 87.1875 73.816406 87.707031 73.15625 87.707031 C 72.492188 87.707031 71.972656 87.1875 71.972656 86.523438 C 71.972656 85.863281 72.492188 85.339844 73.15625 85.339844 Z M 50.070312 36.421875 C 47.285156 36.421875 45.054688 38.613281 45.054688 41.332031 C 45.054688 41.644531 45.089844 41.921875 45.125 42.199219 L 45.125 42.234375 C 45.335938 43.316406 45.925781 44.394531 46.9375 45.160156 C 48.992188 46.761719 51.914062 46.519531 53.726562 44.707031 L 51.601562 42.617188 C 50.90625 43.417969 49.652344 43.523438 48.851562 42.828125 C 48.640625 42.652344 48.46875 42.445312 48.363281 42.199219 L 55.015625 42.199219 C 55.082031 41.886719 55.082031 41.609375 55.082031 41.296875 C 55.082031 38.613281 52.820312 36.421875 50.070312 36.421875 Z M 48.15625 40.738281 C 48.398438 39.9375 49.164062 39.378906 50.070312 39.378906 C 50.976562 39.378906 51.707031 39.972656 51.984375 40.738281 Z M 39.136719 36.421875 C 38.40625 36.421875 37.707031 36.59375 37.082031 36.839844 L 37.082031 32.625 L 34.054688 32.625 L 34.054688 46.203125 L 37.082031 46.203125 L 37.082031 45.785156 C 37.707031 46.066406 38.40625 46.203125 39.136719 46.203125 C 41.921875 46.203125 44.152344 44.011719 44.152344 41.296875 C 44.152344 38.613281 41.921875 36.421875 39.136719 36.421875 Z M 39.136719 43.28125 C 38.023438 43.28125 37.117188 42.410156 37.117188 41.332031 C 37.117188 40.25 38.023438 39.378906 39.136719 39.378906 C 40.214844 39.378906 41.15625 40.25 41.15625 41.332031 C 41.15625 42.410156 40.25 43.28125 39.136719 43.28125 Z M 62.046875 36.628906 L 59.019531 36.628906 L 59.019531 32.625 L 55.988281 32.625 L 55.988281 46.203125 L 59.019531 46.203125 L 59.019531 39.589844 L 62.046875 39.589844 Z M 26.984375 85.339844 C 27.644531 85.339844 28.167969 85.863281 28.167969 86.523438 C 28.167969 87.1875 27.644531 87.707031 26.984375 87.707031 C 26.324219 87.707031 25.800781 87.1875 25.800781 86.523438 C 25.835938 85.863281 26.324219 85.339844 26.984375 85.339844 Z M 26.984375 85.339844 "/>
</g>
</svg>
