<?xml version="1.0" encoding="UTF-8"?>
<svg xmlns="http://www.w3.org/2000/svg" xmlns:xlink="http://www.w3.org/1999/xlink" width="100px" height="118px" viewBox="0 0 100 117" version="1.1">
<g id="surface1">
<path style=" stroke:none;fill-rule:evenodd;fill:rgb(100%,100%,100%);fill-opacity:1;" d="M 48.929688 117 L 45.941406 115.851562 L 42.519531 113.679688 L 39.316406 111.300781 L 34.1875 106.660156 L 29.1875 101.683594 L 19.402344 89.601562 L 12.351562 78.582031 L 9.871094 73.179688 L 7.394531 67.730469 L 5.46875 62.457031 L 3.890625 56.882812 L 1.496094 45.523438 L 0.382812 35.566406 L 0 22.167969 L 0.554688 12.253906 L 1.109375 4.894531 L 1.878906 0 L 97.691406 0 L 98.929688 7.65625 L 99.871094 19.058594 L 100 32.292969 L 98.632812 46.417969 L 95.8125 59.863281 L 93.71875 65.691406 L 91.367188 71.433594 L 85.941406 81.644531 L 79.015625 91.472656 L 70.898438 100.832031 L 63.890625 107.980469 L 56.109375 114.0625 L 51.496094 116.617188 Z M 48.929688 117 "/>
<path style=" stroke:none;fill-rule:evenodd;fill:rgb(90.980392%,44.705882%,0%);fill-opacity:1;" d="M 38.207031 53.011719 L 37.050781 47.523438 L 37.863281 42.417969 L 39.871094 39.097656 L 43.207031 36.292969 L 47.179688 34.886719 L 51.835938 34.886719 L 55.984375 36.121094 L 60.46875 39.015625 L 63.972656 44.164062 L 64.785156 50.117188 L 63.375 54.96875 L 58.078125 59.519531 L 51.921875 60.796875 L 45.425781 59.945312 L 39.785156 55.988281 Z M 38.207031 53.011719 "/>
<path style=" stroke:none;fill-rule:evenodd;fill:rgb(0%,41.176471%,21.568627%);fill-opacity:1;" d="M 95.769531 2.339844 C 96.28125 5.191406 97.648438 14.253906 97.648438 26.039062 C 97.648438 37.566406 96.324219 51.648438 91.453125 64.96875 C 81.753906 91.601562 53.972656 114.40625 49.488281 114.40625 C 44.828125 114.40625 18.164062 91.601562 8.375 63.691406 C 3.675781 50.074219 2.394531 35.609375 2.394531 24.082031 C 2.394531 13.359375 3.460938 5.105469 3.890625 2.382812 C 5.941406 2.339844 93.804688 2.339844 95.769531 2.339844 Z M 31.921875 62.753906 C 38.503906 67.265625 49.273438 68.710938 57.90625 68.539062 C 57.949219 68.539062 57.992188 68.539062 58.078125 68.539062 C 58.121094 68.539062 58.164062 68.539062 58.246094 68.539062 C 58.289062 68.539062 58.332031 68.539062 58.417969 68.539062 C 58.460938 68.539062 58.503906 68.539062 58.589844 68.539062 C 58.632812 68.539062 58.675781 68.539062 58.761719 68.539062 C 58.804688 68.539062 58.847656 68.539062 58.929688 68.539062 C 58.972656 68.539062 59.015625 68.539062 59.058594 68.539062 C 59.101562 68.539062 59.144531 68.539062 59.1875 68.539062 C 59.230469 68.539062 59.273438 68.539062 59.316406 68.539062 C 59.359375 68.539062 59.402344 68.539062 59.445312 68.539062 C 59.488281 68.539062 59.53125 68.539062 59.574219 68.539062 C 59.617188 68.539062 59.65625 68.539062 59.699219 68.539062 C 59.742188 68.539062 59.785156 68.539062 59.828125 68.539062 C 59.871094 68.539062 59.914062 68.539062 59.957031 68.539062 C 60 68.539062 60.042969 68.539062 60.085938 68.539062 C 60.128906 68.539062 60.171875 68.539062 60.214844 68.539062 L 60.640625 68.5 C 63.761719 68.199219 67.308594 67.859375 69.574219 66.117188 C 69.617188 66.074219 69.65625 65.902344 69.617188 65.648438 C 69.488281 65.09375 69.058594 64.585938 68.890625 64.542969 C 67.480469 64.199219 65.769531 64.585938 63.929688 65.007812 C 63.929688 65.007812 61.027344 65.605469 60.941406 65.605469 C 56.792969 66.328125 53.164062 66.542969 49.785156 66.371094 C 44.015625 66.074219 39.058594 64.753906 33.632812 63.308594 C 33.589844 63.222656 32.734375 63.011719 31.921875 62.753906 Z M 42.5625 84.921875 C 45.085938 85.175781 47.351562 85.089844 49.742188 85.003906 C 51.539062 84.921875 53.417969 84.835938 55.425781 84.921875 L 55.511719 84.921875 L 55.597656 84.964844 C 55.855469 85.089844 56.238281 85.089844 56.625 85.132812 C 57.351562 85.175781 58.289062 85.304688 58.589844 86.15625 C 58.972656 86.15625 59.316406 85.984375 59.488281 85.773438 C 59.828125 85.429688 60.171875 84.835938 60.171875 84.070312 C 60.171875 83.855469 60.171875 83.644531 60.171875 83.472656 C 60.171875 83.007812 59.914062 82.582031 59.488281 82.15625 C 59.359375 82.199219 59.1875 82.242188 59.1875 82.242188 C 59.1875 82.242188 59.144531 82.199219 59.101562 82.199219 C 56.878906 82.027344 54.785156 82.15625 52.519531 82.324219 L 49.699219 82.453125 L 47.863281 82.539062 C 47.777344 82.539062 47.691406 82.496094 47.605469 82.453125 L 47.519531 82.410156 L 47.136719 82.027344 L 47.179688 81.515625 C 47.179688 81.390625 47.265625 81.390625 47.394531 81.347656 C 48.121094 81.007812 48.929688 80.75 49.699219 80.539062 C 51.367188 80.070312 53.078125 79.773438 54.742188 79.515625 C 54.742188 79.515625 57.007812 79.132812 57.09375 79.132812 C 57.691406 79.132812 58.417969 78.964844 59.1875 78.835938 C 60.257812 78.835938 61.453125 78.242188 62.050781 77.433594 C 62.09375 77.175781 62.09375 76.921875 62.09375 76.667969 C 62.09375 76.15625 62.007812 75.730469 61.835938 75.433594 C 60 74.878906 57.992188 74.792969 56.070312 74.753906 C 54.402344 74.710938 52.734375 74.625 51.109375 74.285156 L 50.855469 74.027344 L 50.855469 73.347656 L 51.070312 73.222656 C 51.496094 72.964844 51.878906 72.539062 52.308594 72.113281 C 52.605469 71.816406 52.90625 71.476562 53.246094 71.222656 C 52.605469 71.050781 51.964844 71.222656 51.238281 71.390625 C 50.769531 71.519531 50.300781 71.648438 49.785156 71.648438 C 49.742188 71.648438 49.699219 71.648438 49.65625 71.648438 C 48.035156 72.15625 46.324219 72.328125 44.65625 72.539062 C 42.90625 72.753906 41.195312 72.921875 39.699219 73.433594 C 39.617188 73.605469 39.53125 73.773438 39.53125 73.945312 C 39.53125 74.285156 39.699219 74.625 39.914062 75.09375 C 40.128906 75.5625 40.382812 76.070312 40.382812 76.667969 C 40.554688 76.835938 40.8125 77.175781 40.8125 77.175781 C 41.109375 77.519531 41.410156 77.816406 41.792969 78.070312 C 44.230469 77.21875 46.964844 76.753906 49.785156 76.667969 C 49.785156 76.667969 49.828125 76.667969 49.828125 76.667969 C 51.027344 76.625 52.179688 76.710938 53.375 76.792969 L 53.675781 77.136719 L 54.058594 77.644531 C 52.648438 77.984375 51.238281 78.367188 49.828125 78.710938 C 48.121094 79.132812 46.367188 79.558594 44.828125 80.113281 L 43.890625 80.453125 C 42.351562 80.964844 41.367188 81.433594 41.367188 82.75 C 41.367188 82.792969 41.410156 82.878906 41.410156 82.878906 C 41.625 83.773438 41.878906 84.582031 42.5625 84.921875 Z M 30.171875 29.355469 C 29.871094 29.484375 28.246094 31.355469 28.246094 31.355469 C 28.246094 31.355469 27.394531 32.25 27.136719 32.546875 C 27.863281 35.355469 24.871094 36.375 23.246094 35.183594 C 21.539062 33.910156 21.28125 30.378906 25.128906 30.460938 C 26.324219 29.101562 27.480469 27.996094 27.992188 27.3125 C 18.71875 23.398438 16.238281 33.824219 19.015625 36.332031 C 18.503906 36.121094 17.734375 35.609375 16.367188 35.652344 C 15 35.695312 13.246094 36.800781 11.324219 41.398438 C 11.667969 41.609375 22.050781 47.269531 22.5625 47.523438 C 26.496094 41.226562 25.214844 40.632812 24.871094 39.863281 C 27.308594 39.992188 33.675781 36.632812 30.171875 29.355469 Z M 70.425781 65.390625 C 70.554688 65.945312 70.425781 66.371094 70.128906 66.667969 C 70.128906 66.667969 70.085938 66.667969 70.085938 66.710938 C 70.214844 66.925781 70.300781 67.136719 70.34375 67.347656 C 70.46875 67.859375 70.34375 68.242188 70.042969 68.5 C 67.605469 70.285156 63.929688 70.625 60.726562 70.921875 C 60.726562 70.921875 60.300781 70.964844 60.300781 70.964844 C 58.929688 71.09375 57.179688 71.136719 55.300781 71.09375 L 54.65625 71.347656 C 54.230469 71.519531 53.847656 71.816406 53.460938 72.199219 C 53.503906 72.199219 53.589844 72.242188 53.632812 72.242188 C 53.71875 72.242188 54.445312 72.242188 54.445312 72.242188 C 54.617188 72.242188 54.742188 72.371094 54.785156 72.539062 C 54.785156 72.539062 54.785156 72.582031 54.785156 72.582031 C 54.785156 72.710938 54.699219 72.878906 54.574219 72.921875 C 54.1875 73.050781 53.847656 73.347656 53.503906 73.644531 C 54.402344 73.730469 55.300781 73.773438 56.195312 73.816406 C 58.246094 73.902344 60.382812 73.945312 62.351562 74.582031 L 62.480469 74.625 L 62.5625 74.753906 C 62.90625 75.261719 62.992188 75.945312 62.992188 76.582031 C 62.992188 76.964844 62.949219 77.347656 62.90625 77.558594 L 62.90625 77.644531 L 62.863281 77.6875 C 62.863281 77.773438 62.863281 77.859375 62.863281 77.941406 C 62.863281 78.328125 62.820312 78.667969 62.777344 78.878906 C 62.777344 78.921875 62.734375 79.007812 62.691406 79.050781 C 61.964844 80.070312 60.554688 80.75 59.1875 80.75 C 58.546875 80.878906 57.777344 81.050781 57.09375 81.050781 C 57.050781 81.050781 56.195312 81.175781 55.554688 81.304688 C 56.753906 81.261719 57.992188 81.261719 59.230469 81.347656 C 59.230469 81.347656 59.273438 81.347656 59.316406 81.347656 C 59.402344 81.304688 59.617188 81.21875 59.617188 81.21875 L 59.699219 81.175781 L 59.871094 81.347656 C 60.597656 81.984375 60.984375 82.707031 60.984375 83.472656 C 60.984375 83.6875 60.984375 83.855469 60.984375 84.070312 C 60.984375 84.367188 60.941406 84.664062 60.855469 84.964844 C 60.855469 85.003906 60.855469 85.089844 60.855469 85.132812 C 60.855469 86.070312 60.425781 86.835938 59.957031 87.261719 C 59.617188 87.730469 58.804688 87.941406 58.164062 87.855469 C 57.992188 87.855469 57.863281 87.6875 57.820312 87.515625 C 57.820312 87.046875 57.480469 86.921875 56.453125 86.878906 C 56.070312 86.835938 55.640625 86.835938 55.300781 86.707031 C 53.332031 86.621094 51.496094 86.707031 49.699219 86.792969 C 49.699219 86.792969 49.65625 86.792969 49.617188 86.792969 C 49.617188 98.492188 49.617188 108.617188 49.617188 108.617188 C 53.972656 108.617188 77.863281 85.984375 86.152344 63.222656 C 87.480469 59.605469 88.503906 55.949219 89.273438 52.289062 L 64.957031 52.289062 C 63.589844 59.351562 56.625 63.308594 49.53125 62.285156 C 49.53125 63.265625 49.617188 64.371094 49.617188 65.476562 C 49.617188 65.476562 49.65625 65.476562 49.65625 65.476562 C 52.949219 65.648438 56.539062 65.433594 60.640625 64.710938 L 63.589844 64.117188 C 65.511719 63.648438 67.351562 63.222656 68.929688 63.648438 C 69.699219 63.816406 70.257812 64.667969 70.425781 65.390625 Z M 50.382812 70.753906 C 50.171875 70.753906 49.957031 70.710938 49.742188 70.710938 C 49.742188 70.753906 49.742188 70.796875 49.742188 70.878906 C 49.957031 70.839844 50.171875 70.796875 50.382812 70.753906 Z M 91.582031 6.636719 L 7.648438 6.636719 C 7.648438 6.636719 2.820312 36.929688 11.835938 62.710938 C 20.382812 87.132812 44.230469 110.277344 49.617188 110.914062 C 55.382812 110.277344 79.574219 87.132812 88.035156 63.859375 C 97.691406 37.398438 91.582031 6.636719 91.582031 6.636719 Z M 10.683594 51.992188 L 37.179688 52.03125 C 36.667969 50.5 36.367188 48.925781 36.324219 47.351562 C 36.027344 39.269531 42.394531 34.292969 49.574219 34.164062 L 49.574219 28.421875 L 48.121094 25.65625 L 45.726562 25.910156 L 44.957031 29.058594 L 42.992188 29.3125 L 35.46875 32.292969 L 34.316406 29.441406 L 35.640625 22.464844 L 32.519531 23.65625 L 31.109375 20.039062 L 32.691406 19.441406 L 32.050781 17.484375 L 36.28125 15.910156 L 36.921875 17.65625 L 39.015625 16.890625 L 40.128906 19.527344 L 38.71875 26.761719 L 41.625 25.613281 L 44.058594 16.125 L 47.222656 15.699219 L 49.445312 19.785156 L 49.445312 8.507812 C 29.699219 8.507812 10.257812 8.507812 9.488281 8.507812 C 9.144531 10.722656 8.375 17.996094 8.375 27.570312 C 8.332031 35.183594 8.589844 42.886719 10.683594 51.992188 Z M 10.683594 51.992188 "/>
<path style=" stroke:none;fill-rule:evenodd;fill:rgb(6.27451%,9.411765%,12.54902%);fill-opacity:1;" d="M 76.753906 27.1875 L 73.972656 30.25 L 74.617188 30.804688 C 75.382812 31.527344 76.109375 31.910156 76.753906 32.035156 C 77.394531 32.121094 77.949219 31.910156 78.460938 31.355469 C 78.929688 30.804688 79.101562 30.292969 78.972656 29.738281 C 78.847656 29.1875 78.417969 28.589844 77.691406 27.953125 L 76.792969 27.144531 Z M 76.835938 27.355469 C 76.921875 27.441406 77.605469 28.078125 77.605469 28.078125 C 78.289062 28.71875 78.71875 29.269531 78.847656 29.78125 C 78.847656 29.867188 78.890625 29.996094 78.890625 30.078125 C 78.890625 30.460938 78.71875 30.886719 78.375 31.269531 C 77.90625 31.738281 77.394531 31.953125 76.835938 31.910156 C 76.238281 31.824219 75.554688 31.398438 74.785156 30.71875 C 74.785156 30.71875 74.359375 30.335938 74.273438 30.25 C 74.316406 30.121094 76.753906 27.484375 76.835938 27.355469 Z M 76.835938 27.355469 "/>
<path style=" stroke:none;fill-rule:evenodd;fill:rgb(6.27451%,9.411765%,12.54902%);fill-opacity:1;" d="M 51.28125 77.519531 C 50.769531 77.519531 50.257812 77.519531 49.742188 77.519531 L 49.742188 77.902344 C 49.957031 77.859375 50.171875 77.773438 50.382812 77.730469 C 50.425781 77.730469 50.898438 77.601562 51.28125 77.519531 Z M 51.28125 77.519531 "/>
<path style=" stroke:none;fill-rule:evenodd;fill:rgb(6.27451%,9.411765%,12.54902%);fill-opacity:1;" d="M 59.015625 82.070312 C 58.929688 82.027344 58.847656 81.941406 58.847656 81.941406 C 58.890625 81.984375 58.972656 82.027344 59.015625 82.070312 Z M 59.015625 82.070312 "/>
<path style=" stroke:none;fill-rule:evenodd;fill:rgb(6.27451%,9.411765%,12.54902%);fill-opacity:1;" d="M 53.460938 73.5625 C 53.804688 73.261719 54.144531 73.007812 54.53125 72.835938 C 54.65625 72.796875 54.742188 72.667969 54.742188 72.496094 C 54.742188 72.496094 54.742188 72.453125 54.742188 72.453125 C 54.699219 72.285156 54.574219 72.15625 54.402344 72.15625 C 54.402344 72.15625 53.675781 72.15625 53.589844 72.15625 C 53.503906 72.113281 53.460938 72.113281 53.417969 72.113281 C 53.246094 72.285156 53.078125 72.496094 52.863281 72.667969 C 52.605469 72.921875 52.351562 73.179688 52.09375 73.433594 C 52.5625 73.476562 52.992188 73.519531 53.460938 73.5625 Z M 49.742188 70.839844 L 49.742188 71.648438 C 49.699219 71.648438 49.65625 71.648438 49.617188 71.648438 C 47.992188 72.15625 46.28125 72.328125 44.617188 72.539062 C 42.863281 72.753906 41.152344 72.921875 39.65625 73.476562 C 39.574219 73.644531 39.488281 73.816406 39.488281 73.988281 C 39.488281 74.328125 39.65625 74.667969 39.871094 75.136719 C 40.085938 75.601562 40.34375 76.113281 40.34375 76.710938 C 40.511719 76.878906 40.769531 77.21875 40.769531 77.21875 C 41.070312 77.558594 41.367188 77.859375 41.753906 78.113281 C 44.1875 77.261719 46.921875 76.792969 49.742188 76.710938 L 49.742188 77.558594 C 50.257812 77.558594 50.769531 77.558594 51.28125 77.558594 C 50.898438 77.644531 50.382812 77.773438 50.382812 77.773438 C 50.171875 77.816406 49.957031 77.902344 49.742188 77.941406 L 49.742188 78.792969 C 48.035156 79.21875 46.28125 79.644531 44.742188 80.199219 L 43.804688 80.539062 C 42.265625 81.050781 41.28125 81.515625 41.28125 82.835938 C 41.28125 82.878906 41.324219 82.964844 41.324219 82.964844 C 41.582031 83.855469 41.835938 84.664062 42.5625 85.003906 C 45.085938 85.261719 47.351562 85.175781 49.742188 85.089844 L 49.742188 85.898438 C 49.785156 85.898438 49.828125 85.898438 49.871094 85.898438 C 51.667969 85.8125 53.503906 85.730469 55.46875 85.8125 C 55.8125 85.941406 56.238281 85.984375 56.625 85.984375 C 57.605469 86.027344 57.90625 86.15625 57.90625 86.621094 L 57.90625 86.964844 L 58.246094 87.003906 C 58.890625 87.089844 59.742188 86.878906 60.085938 86.324219 C 60.382812 86.070312 60.683594 85.601562 60.855469 84.964844 C 60.855469 85.003906 60.855469 85.089844 60.855469 85.132812 C 60.855469 86.070312 60.425781 86.835938 59.957031 87.261719 C 59.617188 87.730469 58.804688 87.941406 58.164062 87.855469 C 57.992188 87.855469 57.863281 87.6875 57.820312 87.515625 C 57.820312 87.046875 57.480469 86.921875 56.453125 86.878906 C 56.070312 86.835938 55.640625 86.835938 55.300781 86.707031 C 53.332031 86.621094 51.496094 86.707031 49.699219 86.792969 C 47.222656 86.878906 44.871094 87.003906 42.222656 86.707031 C 42.179688 86.707031 42.136719 86.707031 42.136719 86.664062 C 41.070312 86.238281 40.726562 85.175781 40.425781 84.238281 L 40.34375 84.027344 C 40.34375 83.984375 40.34375 83.941406 40.34375 83.898438 C 40.34375 83.601562 40.382812 83.347656 40.425781 83.132812 C 40.425781 83.132812 40.425781 83.089844 40.425781 83.089844 L 40.34375 82.878906 C 40.34375 82.835938 40.34375 82.792969 40.34375 82.75 C 40.34375 80.75 42.050781 80.15625 43.417969 79.644531 C 43.417969 79.644531 43.847656 79.476562 44.101562 79.390625 C 43.246094 79.601562 42.394531 79.816406 41.582031 80.113281 C 41.496094 80.15625 41.367188 80.15625 41.28125 80.113281 C 40.683594 79.816406 40.34375 79.390625 40 79.007812 L 39.488281 78.453125 C 39.402344 78.367188 39.359375 78.242188 39.359375 78.15625 C 39.402344 77.730469 39.1875 77.347656 38.972656 76.878906 C 38.675781 76.285156 38.289062 75.5625 38.675781 74.753906 C 38.460938 74.199219 38.417969 73.5625 38.890625 72.878906 C 38.929688 72.796875 39.015625 72.753906 39.101562 72.710938 C 40.769531 72.113281 42.605469 71.902344 44.402344 71.730469 C 46.070312 71.5625 47.734375 71.347656 49.316406 70.878906 C 49.359375 70.878906 49.402344 70.878906 49.445312 70.878906 C 49.617188 70.839844 49.699219 70.839844 49.742188 70.839844 Z M 55.554688 81.261719 C 56.195312 81.132812 57.050781 81.007812 57.09375 81.007812 C 57.777344 81.007812 58.546875 80.835938 59.1875 80.707031 C 60.554688 80.707031 61.964844 80.027344 62.691406 79.007812 C 62.734375 78.964844 62.734375 78.921875 62.777344 78.835938 C 62.820312 78.625 62.863281 78.285156 62.863281 77.902344 C 62.863281 77.816406 62.863281 77.730469 62.863281 77.644531 L 62.90625 77.601562 L 62.863281 77.6875 C 62.09375 78.792969 60.640625 79.515625 59.359375 79.476562 C 58.675781 79.644531 57.863281 79.773438 57.265625 79.773438 L 55 80.15625 C 53.246094 80.453125 51.496094 80.75 49.828125 81.261719 L 49.828125 80.410156 C 49.058594 80.625 48.289062 80.921875 47.519531 81.21875 C 47.394531 81.261719 47.351562 81.261719 47.308594 81.390625 L 47.265625 81.898438 L 47.648438 82.28125 L 47.734375 82.324219 C 47.777344 82.367188 47.90625 82.410156 47.992188 82.410156 L 49.828125 82.324219 L 49.828125 81.515625 C 51.070312 81.472656 52.5625 81.390625 52.5625 81.390625 C 53.546875 81.347656 54.574219 81.261719 55.554688 81.261719 Z M 49.785156 78.710938 C 49.828125 78.710938 49.871094 78.710938 49.871094 78.667969 C 49.871094 78.667969 49.828125 78.710938 49.785156 78.710938 Z M 49.914062 78.667969 C 49.957031 78.667969 49.957031 78.667969 49.914062 78.667969 C 49.957031 78.667969 49.957031 78.667969 49.914062 78.667969 Z M 50.085938 78.625 C 50.085938 78.625 50.128906 78.625 50.085938 78.625 C 50.128906 78.625 50.085938 78.625 50.085938 78.625 Z M 50.128906 78.625 C 50.128906 78.625 50.171875 78.625 50.171875 78.625 C 50.171875 78.625 50.128906 78.625 50.128906 78.625 Z M 50.214844 78.625 Z M 50.257812 78.582031 C 50.300781 78.582031 50.34375 78.582031 50.34375 78.539062 C 50.300781 78.582031 50.300781 78.582031 50.257812 78.582031 Z M 50.382812 78.582031 Z M 49.828125 84.964844 Z M 49.828125 84.964844 C 49.828125 84.964844 49.785156 84.964844 49.828125 84.964844 C 49.785156 84.964844 49.785156 84.964844 49.828125 84.964844 Z M 49.785156 84.964844 Z M 49.785156 84.964844 Z M 49.785156 84.964844 Z M 49.785156 84.964844 Z M 49.785156 84.964844 Z M 49.785156 84.964844 Z M 49.785156 84.964844 Z M 49.785156 84.964844 Z M 49.785156 84.964844 C 49.742188 84.964844 49.742188 84.964844 49.785156 84.964844 C 49.742188 84.964844 49.742188 84.964844 49.785156 84.964844 Z M 49.742188 84.964844 Z M 49.742188 84.964844 Z M 70.300781 67.308594 C 70.257812 67.09375 70.171875 66.882812 70.042969 66.667969 C 67.605469 68.539062 63.929688 68.882812 60.726562 69.179688 C 60.726562 69.179688 60.300781 69.222656 60.300781 69.222656 C 57.519531 69.519531 53.078125 69.304688 49.742188 69.007812 L 49.742188 68.199219 C 47.691406 68.03125 46.070312 67.816406 45.554688 67.648438 C 41.878906 66.839844 38.121094 66.03125 34.699219 64.371094 C 34.699219 64.371094 34.65625 64.371094 34.65625 64.328125 C 34.617188 64.285156 34.574219 64.285156 34.488281 64.242188 C 34.488281 64.242188 34.445312 64.242188 34.445312 64.199219 C 34.402344 64.160156 34.359375 64.160156 34.316406 64.117188 C 34.316406 64.117188 34.273438 64.117188 34.273438 64.074219 C 34.230469 64.03125 34.1875 64.03125 34.101562 63.988281 C 34.101562 63.988281 34.058594 63.988281 34.058594 63.945312 C 34.015625 63.902344 33.929688 63.902344 33.890625 63.859375 C 33.847656 63.816406 33.761719 63.816406 33.71875 63.777344 C 33.71875 63.777344 33.675781 63.777344 33.675781 63.734375 C 33.632812 63.691406 33.546875 63.691406 33.503906 63.648438 C 33.503906 63.648438 33.503906 63.648438 33.460938 63.648438 C 33.417969 63.605469 33.332031 63.5625 33.289062 63.5625 C 33.246094 63.519531 33.164062 63.476562 33.121094 63.476562 C 33.121094 63.476562 33.078125 63.476562 33.078125 63.476562 C 32.949219 63.394531 32.820312 63.351562 32.734375 63.265625 C 32.734375 63.265625 32.691406 63.265625 32.691406 63.265625 C 32.648438 63.222656 32.5625 63.179688 32.519531 63.136719 C 32.480469 63.09375 32.394531 63.050781 32.351562 63.011719 C 32.308594 62.96875 32.222656 62.925781 32.179688 62.882812 C 32.136719 62.839844 32.050781 62.796875 32.007812 62.753906 C 32.820312 62.96875 33.675781 63.179688 33.675781 63.179688 C 39.101562 64.625 44.058594 65.988281 49.828125 66.242188 L 49.828125 65.433594 C 44.144531 65.136719 39.230469 63.816406 33.847656 62.371094 L 30.171875 61.394531 C 30 61.351562 29.785156 61.4375 29.699219 61.605469 C 29.617188 61.777344 29.65625 61.988281 29.785156 62.117188 C 30.726562 62.925781 31.710938 63.605469 32.734375 64.199219 L 30.042969 63.519531 C 29.871094 63.476562 29.699219 63.5625 29.65625 63.691406 C 29.574219 63.816406 29.617188 64.03125 29.742188 64.117188 C 34.273438 67.773438 39.914062 68.964844 45.34375 70.113281 C 45.941406 70.285156 47.949219 70.496094 50.382812 70.710938 C 50.554688 70.667969 50.769531 70.625 50.984375 70.539062 C 51.835938 70.328125 52.777344 70.074219 53.675781 70.414062 L 56.582031 70.414062 L 55.214844 70.921875 C 57.050781 70.964844 58.847656 70.964844 60.214844 70.796875 C 60.214844 70.796875 60.640625 70.753906 60.640625 70.753906 C 63.847656 70.457031 67.519531 70.15625 69.957031 68.328125 C 70.300781 68.199219 70.425781 67.773438 70.300781 67.308594 Z M 65.425781 49.269531 C 65.726562 59.691406 54.871094 65.222656 45.683594 61.222656 C 39.617188 58.628906 36.539062 52.925781 36.324219 47.308594 C 35.898438 36.800781 46.835938 31.484375 55.984375 35.355469 C 62.050781 38.035156 65.257812 43.738281 65.425781 49.269531 Z M 63.890625 46.96875 C 63.417969 45.777344 62.222656 44.84375 60.984375 44.246094 C 60.085938 43.820312 59.101562 43.566406 58.375 43.523438 C 58.375 44.886719 59.699219 46.332031 60.984375 47.777344 C 62.4375 49.394531 63.890625 50.925781 63.503906 52.160156 C 63.847656 51.265625 64.273438 48.078125 63.890625 46.96875 Z M 58.375 42.589844 C 59.230469 42.460938 60.128906 42.714844 60.984375 43.054688 C 62.394531 43.695312 63.546875 44.757812 63.589844 44.96875 C 62.179688 42.035156 61.835938 41.78125 61.324219 41.015625 C 61.28125 41.015625 61.152344 41.015625 61.027344 41.015625 C 60.171875 41.015625 58.207031 41.054688 58.375 42.589844 Z M 57.308594 42.417969 C 57.480469 39.949219 60.769531 40.246094 60.769531 40.246094 C 58.460938 37.566406 54.828125 35.910156 52.265625 35.484375 C 51.753906 35.398438 51.28125 35.355469 50.898438 35.355469 C 51.410156 35.992188 51.878906 36.675781 52.265625 37.3125 C 54.1875 40.460938 54.957031 43.949219 54.957031 46.289062 C 54.957031 49.566406 53.804688 54.03125 52.265625 57.394531 C 51.921875 58.117188 51.582031 58.839844 51.195312 59.4375 C 51.539062 59.480469 51.878906 59.480469 52.265625 59.480469 C 55.128906 59.4375 58.71875 58.074219 60.984375 55.90625 C 61.753906 55.179688 62.394531 54.332031 62.777344 53.394531 C 62.992188 52.03125 62.09375 50.628906 60.984375 49.183594 C 59.273438 47.011719 57.09375 44.714844 57.308594 42.417969 Z M 53.546875 44.886719 C 53.375 43.355469 52.90625 41.695312 52.265625 40.164062 C 51.324219 37.824219 50.042969 35.824219 49.015625 35.269531 C 47.519531 35.3125 46.28125 35.566406 44.742188 36.25 C 44.402344 36.417969 44.058594 36.546875 43.632812 36.757812 C 43.929688 37.015625 44.316406 37.269531 44.742188 37.566406 C 45.8125 38.375 47.09375 39.523438 47.605469 41.695312 C 48.246094 44.246094 46.324219 46.503906 44.742188 48.800781 C 43.035156 51.226562 41.625 53.777344 43.847656 56.839844 C 43.972656 57.054688 44.316406 57.265625 44.742188 57.5625 C 46.070312 58.414062 48.375 59.394531 49.53125 59.519531 C 50.425781 58.328125 51.453125 56.628906 52.265625 54.5 C 53.289062 51.820312 53.929688 48.542969 53.546875 44.886719 Z M 42.136719 40.886719 C 42.992188 40.714844 43.890625 40.671875 44.742188 40.757812 C 45.300781 40.800781 45.855469 40.929688 46.324219 41.054688 C 45.984375 40.246094 45.382812 39.523438 44.742188 38.929688 C 43.929688 38.164062 42.992188 37.566406 42.480469 37.398438 C 42.351562 37.441406 42.265625 37.523438 42.179688 37.609375 C 40.128906 39.097656 38.71875 41.355469 38.035156 44.035156 C 38.546875 42.207031 40.257812 41.226562 42.136719 40.886719 Z M 42.136719 50.035156 C 42.777344 48.585938 43.804688 47.269531 44.742188 46.121094 C 45.8125 44.757812 46.753906 43.609375 46.710938 42.671875 C 46.667969 42.207031 45.855469 41.992188 44.742188 42.035156 C 43.972656 42.078125 43.078125 42.246094 42.136719 42.546875 C 40.425781 43.183594 38.71875 44.332031 38.078125 46.078125 C 37.90625 46.460938 37.863281 46.886719 37.863281 47.351562 L 37.863281 47.394531 C 37.863281 50.160156 40.34375 54.203125 42.136719 55.734375 C 42.222656 55.820312 42.308594 55.863281 42.394531 55.949219 C 42.308594 55.777344 42.222656 55.605469 42.136719 55.480469 C 41.152344 53.523438 41.410156 51.648438 42.136719 50.035156 Z M 30.171875 29.355469 C 29.871094 29.484375 28.246094 31.355469 28.246094 31.355469 C 28.246094 31.355469 27.394531 32.25 27.136719 32.546875 C 27.863281 35.398438 24.871094 36.375 23.246094 35.183594 C 21.539062 33.910156 21.28125 30.378906 25.128906 30.460938 C 26.324219 29.101562 27.480469 27.996094 27.992188 27.3125 C 18.71875 23.398438 16.238281 33.78125 19.015625 36.332031 C 18.503906 36.121094 17.734375 35.609375 16.367188 35.652344 C 15 35.695312 13.246094 36.800781 11.324219 41.398438 C 11.667969 41.609375 22.050781 47.269531 22.5625 47.523438 C 26.496094 41.226562 25.214844 40.632812 24.871094 39.863281 C 27.308594 39.992188 33.675781 36.589844 30.171875 29.355469 Z M 29.957031 31.269531 C 30.34375 32.292969 30.46875 33.269531 30.257812 34.25 C 30.085938 35.183594 29.617188 36.121094 28.847656 36.972656 C 28.289062 37.566406 27.648438 38.035156 26.964844 38.332031 C 26.28125 38.632812 25.511719 38.800781 24.65625 38.800781 C 23.929688 38.800781 23.246094 38.671875 22.605469 38.417969 C 21.921875 38.164062 21.324219 37.738281 20.769531 37.269531 C 20.171875 36.757812 19.742188 36.164062 19.445312 35.484375 C 19.144531 34.84375 18.929688 34.121094 18.890625 33.269531 C 18.847656 32.546875 18.929688 31.824219 19.1875 31.144531 C 19.402344 30.460938 19.785156 29.867188 20.300781 29.3125 C 21.070312 28.464844 21.964844 27.910156 22.90625 27.65625 C 23.890625 27.355469 24.871094 27.398438 25.941406 27.738281 L 26.324219 27.867188 L 24.785156 29.527344 L 24.65625 29.527344 C 24.144531 29.484375 23.632812 29.527344 23.207031 29.738281 C 22.734375 29.953125 22.308594 30.25 21.921875 30.675781 C 21.625 31.015625 21.410156 31.398438 21.238281 31.824219 C 21.109375 32.25 21.027344 32.675781 21.070312 33.144531 C 21.070312 33.609375 21.195312 34.078125 21.453125 34.503906 C 21.667969 34.972656 21.964844 35.355469 22.308594 35.652344 C 22.691406 35.992188 23.121094 36.25 23.546875 36.460938 C 23.972656 36.632812 24.402344 36.714844 24.914062 36.714844 C 25.382812 36.714844 25.855469 36.589844 26.28125 36.375 C 26.710938 36.164062 27.09375 35.910156 27.394531 35.566406 C 27.777344 35.183594 28.035156 34.71875 28.164062 34.207031 C 28.289062 33.738281 28.332031 33.269531 28.207031 32.800781 L 28.164062 32.675781 L 29.828125 30.84375 Z M 24.230469 40.84375 C 24.359375 41.3125 24.359375 41.738281 24.230469 42.164062 C 24.144531 42.589844 23.929688 43.140625 23.546875 43.820312 L 22.265625 46.203125 L 12.519531 41.015625 L 13.71875 38.800781 C 14.273438 37.738281 14.957031 37.101562 15.683594 36.800781 C 16.453125 36.460938 17.351562 36.546875 18.207031 37.058594 C 18.632812 37.269531 18.972656 37.566406 19.1875 37.949219 C 19.316406 38.207031 19.402344 38.460938 19.488281 38.714844 C 19.828125 38.503906 20.214844 38.332031 20.640625 38.289062 C 21.195312 38.207031 21.792969 38.332031 22.394531 38.671875 C 22.863281 38.929688 23.289062 39.269531 23.546875 39.652344 C 23.929688 39.949219 24.144531 40.375 24.230469 40.84375 Z M 18.972656 42.164062 C 19.144531 41.863281 19.402344 41.355469 19.402344 41.355469 C 19.65625 40.800781 20 40.503906 20.382812 40.332031 C 20.769531 40.207031 21.152344 40.246094 21.625 40.503906 C 22.050781 40.714844 22.265625 40.972656 22.351562 41.3125 C 22.351562 41.355469 22.351562 41.4375 22.351562 41.523438 C 22.351562 41.820312 22.222656 42.207031 21.964844 42.714844 C 21.964844 42.714844 21.667969 43.226562 21.539062 43.523438 C 21.152344 43.3125 19.359375 42.332031 18.972656 42.164062 Z M 17.480469 41.097656 C 17.480469 41.097656 17.4375 41.183594 17.394531 41.3125 C 17.050781 41.140625 15.597656 40.375 15.257812 40.164062 C 15.382812 39.949219 15.511719 39.695312 15.511719 39.695312 C 15.769531 39.226562 16.070312 38.886719 16.367188 38.757812 C 16.625 38.632812 16.921875 38.671875 17.308594 38.886719 C 17.734375 39.097656 17.949219 39.355469 17.949219 39.652344 C 17.949219 39.695312 17.949219 39.738281 17.949219 39.78125 C 17.949219 40.121094 17.777344 40.546875 17.480469 41.097656 Z M 24.058594 40.886719 C 24.144531 41.3125 24.144531 41.695312 24.058594 42.121094 C 23.972656 42.546875 23.761719 43.054688 23.417969 43.738281 L 22.222656 45.949219 L 12.777344 40.972656 L 13.890625 38.929688 C 14.445312 37.90625 15.042969 37.269531 15.769531 37.015625 C 16.496094 36.714844 17.308594 36.800781 18.164062 37.269531 C 18.546875 37.484375 18.847656 37.738281 19.058594 38.078125 C 19.230469 38.375 19.359375 38.714844 19.359375 39.097656 C 19.742188 38.757812 20.171875 38.546875 20.640625 38.503906 C 21.152344 38.460938 21.710938 38.546875 22.265625 38.84375 C 22.734375 39.097656 23.078125 39.398438 23.375 39.78125 C 23.761719 40.078125 23.929688 40.460938 24.058594 40.886719 Z M 23.890625 42.121094 C 23.804688 42.503906 23.589844 43.054688 23.246094 43.695312 C 23.246094 43.695312 22.222656 45.652344 22.136719 45.777344 C 22.007812 45.695312 13.121094 41.015625 12.992188 40.929688 C 13.078125 40.800781 14.015625 39.015625 14.015625 39.015625 C 14.574219 38.035156 15.128906 37.441406 15.8125 37.140625 C 16.496094 36.84375 17.265625 36.929688 18.035156 37.355469 C 18.375 37.523438 18.675781 37.78125 18.890625 38.121094 C 19.101562 38.460938 19.1875 38.800781 19.1875 39.183594 L 19.1875 39.355469 L 19.316406 39.226562 C 19.699219 38.84375 20.128906 38.671875 20.640625 38.589844 C 21.152344 38.546875 21.667969 38.632812 22.179688 38.929688 C 22.605469 39.183594 22.992188 39.441406 23.246094 39.824219 C 23.546875 40.164062 23.71875 40.546875 23.804688 40.972656 C 23.847656 41.183594 23.890625 41.355469 23.890625 41.566406 C 23.972656 41.738281 23.929688 41.90625 23.890625 42.121094 Z M 29.785156 31.355469 C 30.171875 32.335938 30.257812 33.269531 30.085938 34.25 C 29.914062 35.183594 29.445312 36.035156 28.71875 36.84375 C 28.207031 37.441406 27.5625 37.867188 26.878906 38.164062 C 26.238281 38.460938 25.46875 38.589844 24.617188 38.589844 C 23.929688 38.589844 23.246094 38.460938 22.648438 38.207031 C 22.007812 37.949219 21.410156 37.566406 20.898438 37.101562 C 20.34375 36.589844 19.914062 36.035156 19.617188 35.398438 C 19.316406 34.757812 19.144531 34.078125 19.101562 33.269531 C 19.058594 32.546875 19.144531 31.867188 19.402344 31.226562 C 19.617188 30.589844 20 29.996094 20.46875 29.484375 C 21.195312 28.675781 22.050781 28.121094 22.992188 27.867188 C 23.929688 27.613281 24.871094 27.613281 25.898438 27.953125 L 26.027344 27.996094 L 24.699219 29.355469 L 24.65625 29.355469 C 24.101562 29.3125 23.589844 29.355469 23.078125 29.570312 C 22.5625 29.78125 22.09375 30.121094 21.710938 30.546875 C 21.410156 30.886719 21.152344 31.3125 20.984375 31.78125 C 20.8125 32.207031 20.769531 32.675781 20.8125 33.183594 C 20.8125 33.695312 20.941406 34.164062 21.195312 34.632812 C 21.453125 35.140625 21.753906 35.527344 22.09375 35.824219 C 22.480469 36.207031 22.90625 36.460938 23.417969 36.632812 C 23.890625 36.800781 24.359375 36.886719 24.871094 36.886719 C 25.382812 36.886719 25.855469 36.757812 26.324219 36.546875 C 26.792969 36.332031 27.179688 36.035156 27.480469 35.695312 C 27.863281 35.269531 28.164062 34.800781 28.289062 34.292969 C 28.460938 33.824219 28.460938 33.269531 28.332031 32.800781 L 28.332031 32.761719 L 29.742188 31.226562 Z M 29.914062 34.164062 C 29.742188 35.058594 29.316406 35.910156 28.589844 36.714844 C 28.078125 37.269531 27.480469 37.695312 26.792969 37.992188 C 26.152344 38.289062 25.425781 38.417969 24.617188 38.417969 C 23.929688 38.417969 23.289062 38.289062 22.691406 38.035156 C 22.050781 37.78125 21.496094 37.398438 20.984375 36.929688 C 20.425781 36.460938 20 35.867188 19.742188 35.269531 C 19.445312 34.675781 19.273438 33.992188 19.230469 33.183594 C 19.1875 32.503906 19.273438 31.824219 19.53125 31.1875 C 19.742188 30.546875 20.085938 29.996094 20.554688 29.484375 C 21.28125 28.675781 22.09375 28.164062 22.992188 27.910156 C 23.847656 27.65625 24.742188 27.695312 25.683594 27.953125 C 25.511719 28.121094 24.617188 29.101562 24.574219 29.144531 C 24.015625 29.101562 23.460938 29.1875 22.949219 29.355469 C 22.4375 29.570312 21.921875 29.910156 21.539062 30.378906 C 21.195312 30.71875 20.984375 31.144531 20.769531 31.652344 C 20.597656 32.121094 20.554688 32.632812 20.597656 33.101562 C 20.597656 33.609375 20.726562 34.121094 20.984375 34.632812 C 21.238281 35.140625 21.539062 35.566406 21.921875 35.867188 C 22.351562 36.25 22.777344 36.503906 23.289062 36.714844 C 23.761719 36.886719 24.273438 37.015625 24.785156 37.015625 C 25.34375 37.015625 25.8125 36.886719 26.324219 36.675781 C 26.792969 36.460938 27.222656 36.164062 27.5625 35.78125 C 27.949219 35.355469 28.246094 34.84375 28.417969 34.292969 C 28.503906 33.992188 28.546875 33.695312 28.546875 33.398438 C 28.546875 33.183594 28.503906 32.972656 28.460938 32.761719 C 28.503906 32.71875 29.445312 31.652344 29.617188 31.484375 C 29.828125 32.078125 29.957031 32.675781 29.957031 33.226562 C 30 33.570312 30 33.867188 29.914062 34.164062 Z M 22.648438 41.226562 C 22.734375 41.652344 22.605469 42.164062 22.265625 42.84375 L 21.667969 43.949219 L 18.503906 42.289062 L 19.101562 41.183594 C 19.402344 40.589844 19.828125 40.164062 20.257812 40.035156 C 20.726562 39.863281 21.238281 39.90625 21.792969 40.207031 C 22.265625 40.460938 22.5625 40.800781 22.648438 41.226562 Z M 22.136719 42.757812 C 22.136719 42.757812 21.667969 43.609375 21.625 43.738281 C 21.496094 43.652344 18.847656 42.289062 18.71875 42.207031 C 18.804688 42.121094 19.230469 41.269531 19.230469 41.269531 C 19.53125 40.671875 19.871094 40.332031 20.300781 40.164062 C 20.726562 39.992188 21.152344 40.035156 21.667969 40.332031 C 22.136719 40.589844 22.394531 40.886719 22.480469 41.269531 C 22.480469 41.355469 22.480469 41.4375 22.480469 41.480469 C 22.519531 41.863281 22.394531 42.246094 22.136719 42.757812 Z M 18.289062 39.566406 C 18.332031 39.992188 18.207031 40.546875 17.820312 41.269531 L 17.519531 41.78125 L 14.742188 40.332031 L 15.171875 39.523438 C 15.46875 38.972656 15.8125 38.589844 16.152344 38.417969 C 16.539062 38.25 16.964844 38.289062 17.394531 38.546875 C 17.949219 38.800781 18.246094 39.140625 18.289062 39.566406 Z M 17.648438 41.183594 C 17.648438 41.183594 17.519531 41.4375 17.4375 41.523438 C 17.308594 41.4375 15.085938 40.289062 14.957031 40.207031 C 15 40.078125 15.300781 39.566406 15.300781 39.566406 C 15.597656 39.058594 15.898438 38.671875 16.238281 38.546875 C 16.582031 38.417969 16.921875 38.417969 17.351562 38.671875 C 17.820312 38.929688 18.078125 39.226562 18.121094 39.609375 C 18.121094 39.652344 18.121094 39.738281 18.121094 39.78125 C 18.121094 40.164062 17.949219 40.632812 17.648438 41.183594 Z M 84.101562 36.546875 C 81.753906 37.566406 81.539062 39.738281 81.539062 39.738281 L 80.8125 38.164062 L 86.367188 33.867188 L 83.890625 30.503906 C 83.890625 30.503906 82.09375 31.910156 81.070312 32.761719 C 80.984375 32.84375 80.726562 33.015625 80.425781 33.269531 C 80.726562 32.929688 80.941406 32.675781 80.984375 32.632812 C 81.835938 31.3125 82.09375 29.144531 80.898438 27.695312 C 79.359375 25.699219 76.539062 23.316406 76.539062 23.316406 L 72.949219 27.355469 L 75.683594 22.972656 L 71.878906 20.675781 L 70.085938 23.613281 C 70.128906 19.828125 66.710938 17.230469 62.648438 17.570312 C 61.28125 17.699219 56.921875 19.019531 56.878906 24.972656 L 56.921875 25.058594 L 55.46875 24.847656 L 56.582031 15.910156 L 52.605469 15.445312 L 51.625 23.570312 L 47.394531 15.742188 L 44.230469 16.167969 L 41.792969 25.65625 L 38.890625 26.804688 L 40.300781 19.570312 L 39.1875 16.933594 L 37.09375 17.699219 L 36.453125 15.953125 L 32.050781 17.445312 L 32.691406 19.441406 L 31.109375 20.039062 L 32.519531 23.65625 L 35.640625 22.464844 L 34.316406 29.441406 L 35.46875 32.292969 L 42.992188 29.3125 L 44.957031 29.058594 L 45.726562 25.910156 L 48.121094 25.65625 L 49.617188 28.503906 L 51.625 28.207031 L 58.375 29.058594 L 58.417969 28.675781 C 59.785156 30.164062 62.007812 31.527344 65.042969 30.71875 C 64.871094 30.675781 65.382812 30.675781 66.070312 30.335938 L 65.128906 31.910156 L 68.375 33.953125 L 68.503906 33.695312 L 70.683594 35.695312 L 72.308594 33.867188 L 71.878906 36.714844 L 73.589844 38.375 L 75.855469 41.566406 L 77.136719 40.671875 C 76.582031 42.078125 76.453125 44.375 78.847656 45.992188 C 80.769531 47.308594 85.34375 46.671875 85.554688 42.886719 L 86.324219 44.375 C 86.367188 44.417969 89.316406 43.394531 89.699219 41.015625 C 90.257812 37.695312 86.878906 35.355469 84.101562 36.546875 Z M 45.425781 22.933594 C 45.554688 22.421875 45.984375 20.71875 46.195312 19.867188 C 46.625 20.675781 47.394531 22.207031 47.648438 22.675781 C 47.136719 22.71875 45.941406 22.847656 45.425781 22.933594 Z M 41.792969 26.632812 L 42.179688 27.570312 L 44.914062 16.976562 L 46.582031 16.761719 L 46.753906 16.71875 L 52.09375 26.589844 L 53.332031 16.679688 L 53.375 16.421875 L 55.425781 16.679688 C 55.425781 16.679688 54.402344 25.144531 54.316406 25.65625 C 54.785156 25.699219 57.734375 26.082031 57.734375 26.082031 L 57.480469 28.078125 L 52.007812 27.398438 L 52.050781 27.230469 L 50.171875 27.484375 C 50.171875 27.484375 48.804688 24.890625 48.675781 24.589844 C 48.332031 24.632812 45.300781 24.972656 45 25.015625 C 44.914062 25.355469 44.1875 28.207031 44.1875 28.207031 L 42.519531 28.421875 L 42.5625 28.503906 L 36.027344 31.015625 L 35.382812 29.3125 C 35.382812 29.3125 36.753906 21.867188 36.878906 21.015625 C 36.152344 21.273438 33.078125 22.464844 33.078125 22.464844 L 32.308594 20.59375 L 38.246094 18.335938 L 38.503906 18.253906 L 39.101562 19.828125 C 39.101562 19.828125 37.691406 27.484375 37.519531 28.335938 C 38.207031 27.996094 41.792969 26.632812 41.792969 26.632812 Z M 35.8125 16.976562 L 36.367188 18.421875 L 33.761719 19.441406 L 33.207031 17.953125 Z M 61.453125 25.273438 L 62.179688 23.398438 L 68.804688 25.910156 L 68.675781 26.164062 C 67.992188 27.738281 66.964844 28.847656 65.597656 29.441406 C 64.230469 30.078125 62.820312 30.078125 61.324219 29.527344 C 60.554688 29.230469 59.914062 28.804688 59.359375 28.25 C 58.847656 27.738281 58.417969 27.058594 58.121094 26.25 C 57.863281 25.570312 57.734375 24.890625 57.777344 24.207031 C 57.777344 23.484375 57.90625 22.804688 58.207031 22.082031 C 58.460938 21.359375 58.890625 20.761719 59.402344 20.210938 C 59.871094 19.699219 60.46875 19.273438 61.28125 18.933594 C 62.007812 18.636719 62.691406 18.464844 63.417969 18.464844 C 64.101562 18.464844 64.828125 18.59375 65.597656 18.890625 C 66.625 19.316406 67.480469 19.910156 68.078125 20.675781 C 68.675781 21.484375 69.015625 22.421875 69.058594 23.441406 L 69.101562 23.867188 L 66.835938 23.015625 L 66.792969 22.890625 C 66.667969 22.378906 66.410156 21.953125 66.070312 21.613281 C 65.726562 21.273438 65.300781 20.976562 64.785156 20.761719 C 64.359375 20.59375 63.929688 20.507812 63.460938 20.550781 C 63.035156 20.550781 62.605469 20.632812 62.179688 20.847656 C 61.753906 21.058594 61.367188 21.316406 61.027344 21.699219 C 60.683594 22.039062 60.425781 22.421875 60.257812 22.890625 C 60.085938 23.359375 60 23.867188 60 24.335938 C 60 24.804688 60.085938 25.273438 60.257812 25.699219 C 60.425781 26.121094 60.683594 26.503906 61.070312 26.890625 C 61.410156 27.230469 61.792969 27.484375 62.222656 27.613281 C 62.90625 27.867188 63.589844 27.953125 64.273438 27.738281 C 64.828125 27.613281 65.34375 27.3125 65.898438 26.890625 C 65.042969 26.675781 61.453125 25.273438 61.453125 25.273438 Z M 72.4375 22.25 L 74.1875 23.359375 L 68.332031 32.675781 L 66.582031 31.570312 L 72.308594 22.464844 Z M 79.101562 26.972656 C 80.085938 27.824219 80.640625 28.761719 80.769531 29.738281 C 80.898438 30.675781 80.511719 31.609375 79.742188 32.503906 C 79.144531 33.183594 78.375 33.570312 77.519531 33.609375 C 76.792969 33.652344 76.109375 33.484375 75.511719 33.101562 C 75.425781 33.867188 75.042969 38.164062 75.042969 38.164062 L 73.121094 36.417969 C 73.121094 36.417969 73.589844 32.417969 73.71875 31.1875 C 72.949219 32.035156 70.8125 34.375 70.8125 34.375 L 69.273438 33.015625 L 76.496094 25.015625 L 76.667969 24.804688 Z M 76.835938 31.695312 C 76.28125 31.609375 75.597656 31.226562 74.914062 30.546875 C 74.914062 30.546875 74.699219 30.378906 74.53125 30.207031 C 74.828125 29.867188 76.582031 27.953125 76.878906 27.613281 C 77.09375 27.824219 77.519531 28.207031 77.519531 28.207031 C 78.207031 28.804688 78.589844 29.355469 78.675781 29.824219 C 78.675781 29.910156 78.71875 29.996094 78.71875 30.078125 C 78.71875 30.421875 78.546875 30.761719 78.246094 31.144531 C 77.820312 31.570312 77.351562 31.738281 76.835938 31.695312 Z M 83.761719 31.996094 L 85 33.652344 L 76.152344 40.289062 L 74.914062 38.632812 L 83.546875 32.164062 Z M 88.589844 39.058594 C 88.972656 39.863281 89.015625 40.632812 88.71875 41.355469 C 88.460938 42.078125 87.90625 42.671875 87.09375 43.097656 L 86.835938 43.226562 L 85.984375 41.4375 L 86.195312 41.3125 C 86.496094 41.140625 86.710938 40.929688 86.792969 40.632812 C 86.878906 40.375 86.878906 40.078125 86.753906 39.824219 C 86.625 39.523438 86.367188 39.3125 86.109375 39.226562 C 85.8125 39.140625 85.46875 39.183594 85.128906 39.355469 C 85 39.398438 84.914062 39.480469 84.828125 39.566406 C 84.742188 39.652344 84.699219 39.738281 84.617188 39.863281 C 84.574219 39.992188 84.488281 40.332031 84.617188 41.140625 C 84.617188 41.140625 84.742188 41.90625 84.742188 41.90625 C 84.785156 42.714844 84.65625 43.394531 84.359375 43.949219 C 84.015625 44.546875 83.546875 45.011719 82.863281 45.3125 C 81.878906 45.777344 80.941406 45.863281 80.085938 45.566406 C 79.230469 45.3125 78.546875 44.671875 78.121094 43.738281 C 77.734375 42.84375 77.691406 41.992188 77.992188 41.140625 C 78.332031 40.332031 78.972656 39.695312 79.914062 39.226562 L 80.171875 39.097656 L 80.984375 40.800781 L 80.769531 40.929688 C 80.34375 41.140625 80.085938 41.4375 79.914062 41.78125 C 79.785156 42.164062 79.785156 42.503906 79.957031 42.84375 C 80.128906 43.226562 80.425781 43.523438 80.769531 43.652344 C 81.152344 43.777344 81.539062 43.738281 81.964844 43.523438 C 82.351562 43.355469 82.5625 43.140625 82.691406 42.886719 C 82.734375 42.800781 82.777344 42.589844 82.777344 42.246094 C 82.777344 42.035156 82.777344 41.78125 82.691406 41.4375 L 82.691406 41.355469 C 82.691406 41.355469 82.691406 41.183594 82.691406 41.183594 C 82.648438 40.886719 82.605469 40.589844 82.605469 40.332031 C 82.605469 39.78125 82.734375 39.269531 82.949219 38.84375 C 83.078125 38.589844 83.246094 38.332031 83.503906 38.078125 C 83.71875 37.867188 83.972656 37.695312 84.316406 37.523438 C 85.214844 37.101562 86.070312 37.058594 86.835938 37.3125 C 87.5625 37.652344 88.164062 38.207031 88.589844 39.058594 Z M 61.667969 22.25 L 60.726562 24.890625 C 60.726562 24.890625 60.726562 24.546875 60.769531 24.125 C 60.855469 23.398438 61.152344 22.335938 62.179688 21.785156 C 62.949219 21.359375 65.554688 21.015625 66.070312 23.953125 Z M 75.855469 29.996094 L 76.792969 28.886719 C 76.792969 28.886719 78.035156 29.695312 77.4375 30.460938 C 76.753906 31.355469 75.597656 29.824219 75.855469 29.996094 Z M 75.984375 36.546875 C 75.984375 36.503906 76.070312 35.269531 76.195312 34.375 C 77.265625 34.886719 78.246094 34.632812 79.015625 34.207031 C 77.605469 35.3125 75.984375 36.546875 75.984375 36.546875 Z M 81.109375 42.628906 C 80.554688 42.714844 80.34375 41.863281 81.367188 41.480469 C 81.453125 41.652344 81.496094 41.820312 81.496094 41.949219 C 81.539062 42.375 81.324219 42.589844 81.109375 42.628906 Z M 46.582031 16.933594 L 46.625 16.933594 L 52.09375 26.972656 L 50.257812 27.230469 C 50.257812 27.230469 48.804688 24.421875 48.761719 24.335938 C 48.675781 24.335938 44.914062 24.804688 44.828125 24.804688 C 44.785156 24.890625 44.015625 27.996094 44.015625 27.996094 L 42.222656 28.207031 L 45.085938 17.144531 Z M 46.539062 17.101562 C 46.582031 17.1875 51.710938 26.675781 51.835938 26.847656 C 51.625 26.890625 50.425781 27.015625 50.34375 27.058594 C 50.300781 26.972656 48.847656 24.164062 48.847656 24.164062 L 44.65625 24.675781 C 44.65625 24.675781 43.890625 27.738281 43.847656 27.867188 C 43.761719 27.867188 42.605469 28.039062 42.394531 28.039062 C 42.4375 27.824219 45.128906 17.402344 45.171875 17.316406 C 45.257812 17.273438 46.453125 17.144531 46.539062 17.101562 Z M 46.027344 19.058594 L 46.070312 18.847656 L 48.164062 22.933594 L 44.957031 23.316406 Z M 46.109375 19.316406 C 46.28125 19.65625 47.820312 22.632812 47.90625 22.804688 C 47.691406 22.847656 45.382812 23.101562 45.171875 23.144531 C 45.214844 22.933594 46.027344 19.699219 46.109375 19.316406 Z M 41.710938 26.890625 L 42.308594 28.378906 L 36.109375 30.71875 L 35.554688 29.230469 C 35.554688 29.230469 37.050781 20.933594 37.136719 20.675781 C 36.878906 20.761719 33.164062 22.207031 33.164062 22.207031 L 32.5625 20.675781 L 38.332031 18.464844 L 38.417969 18.421875 L 38.929688 19.742188 C 38.929688 19.742188 37.351562 28.25 37.308594 28.503906 C 37.480469 28.464844 41.710938 26.890625 41.710938 26.890625 Z M 35.683594 29.230469 C 35.683594 29.1875 37.308594 20.421875 37.308594 20.421875 C 37.308594 20.421875 33.375 21.910156 33.246094 21.996094 C 33.207031 21.867188 32.820312 20.890625 32.777344 20.761719 C 32.90625 20.71875 38.164062 18.71875 38.289062 18.636719 C 38.332031 18.761719 38.71875 19.742188 38.71875 19.785156 C 38.71875 19.828125 37.050781 28.804688 37.050781 28.804688 C 37.050781 28.804688 41.496094 27.101562 41.625 27.058594 C 41.667969 27.1875 42.050781 28.121094 42.09375 28.25 C 41.964844 28.292969 36.367188 30.421875 36.195312 30.503906 C 36.152344 30.378906 35.726562 29.269531 35.683594 29.230469 Z M 35.726562 17.230469 L 36.152344 18.335938 L 33.847656 19.1875 L 33.417969 18.082031 L 35.640625 17.273438 Z M 33.632812 18.210938 C 33.761719 18.167969 35.46875 17.527344 35.597656 17.484375 C 35.640625 17.613281 35.855469 18.167969 35.898438 18.253906 C 35.769531 18.292969 34.058594 18.933594 33.929688 18.976562 C 33.890625 18.847656 33.675781 18.292969 33.632812 18.210938 Z M 53.503906 16.71875 L 53.503906 16.636719 L 55.171875 16.847656 C 55.171875 16.847656 54.101562 25.65625 54.058594 25.824219 C 54.230469 25.824219 57.480469 26.25 57.480469 26.25 L 57.265625 27.867188 L 52.179688 27.230469 Z M 53.632812 16.847656 C 53.761719 16.847656 54.828125 17.019531 55 17.019531 C 55 17.1875 53.890625 25.996094 53.890625 25.996094 C 53.890625 25.996094 57.136719 26.378906 57.308594 26.421875 C 57.308594 26.546875 57.179688 27.570312 57.136719 27.695312 C 56.964844 27.695312 52.519531 27.144531 52.351562 27.101562 C 52.394531 26.929688 53.632812 16.976562 53.632812 16.847656 Z M 63.375 18.675781 C 64.058594 18.675781 64.742188 18.804688 65.511719 19.058594 C 66.539062 19.441406 67.308594 20.039062 67.90625 20.804688 C 68.460938 21.570312 68.804688 22.464844 68.847656 23.484375 L 68.847656 23.613281 L 66.921875 22.890625 L 66.921875 22.847656 C 66.753906 22.335938 66.496094 21.867188 66.152344 21.484375 C 65.8125 21.101562 65.34375 20.804688 64.828125 20.59375 C 64.359375 20.421875 63.929688 20.335938 63.417969 20.378906 C 62.949219 20.378906 62.480469 20.507812 62.050781 20.71875 C 61.582031 20.933594 61.195312 21.230469 60.8125 21.613281 C 60.46875 21.953125 60.171875 22.378906 60 22.890625 C 59.828125 23.359375 59.699219 23.910156 59.699219 24.421875 C 59.699219 24.929688 59.785156 25.398438 59.957031 25.867188 C 60.128906 26.335938 60.425781 26.71875 60.8125 27.101562 C 61.152344 27.441406 61.582031 27.695312 62.007812 27.867188 C 62.734375 28.164062 63.460938 28.207031 64.1875 28.039062 C 64.871094 27.867188 65.46875 27.527344 66.109375 26.929688 C 65.855469 26.847656 61.710938 25.230469 61.710938 25.230469 L 62.308594 23.699219 L 68.546875 26.082031 L 68.503906 26.164062 C 67.820312 27.695312 66.835938 28.761719 65.511719 29.355469 C 64.230469 29.953125 62.820312 29.996094 61.367188 29.441406 C 60.640625 29.1875 60 28.761719 59.445312 28.207031 C 58.929688 27.695312 58.546875 27.058594 58.246094 26.292969 C 57.992188 25.65625 57.90625 24.972656 57.90625 24.335938 C 57.90625 23.65625 58.035156 22.972656 58.332031 22.292969 C 58.589844 21.613281 58.972656 21.015625 59.488281 20.464844 C 59.957031 19.953125 60.554688 19.570312 61.28125 19.230469 C 62.007812 18.847656 62.691406 18.675781 63.375 18.675781 Z M 61.453125 29.230469 C 60.769531 28.972656 60.128906 28.546875 59.617188 28.039062 C 59.144531 27.570312 58.761719 26.929688 58.460938 26.164062 C 58.207031 25.527344 58.121094 24.890625 58.121094 24.25 C 58.121094 23.570312 58.246094 22.933594 58.503906 22.25 C 58.761719 21.613281 59.144531 21.015625 59.617188 20.464844 C 60.042969 19.996094 60.640625 19.570312 61.367188 19.273438 C 62.050781 18.976562 62.691406 18.847656 63.332031 18.847656 C 63.972656 18.847656 64.65625 18.976562 65.382812 19.230469 C 66.367188 19.613281 67.136719 20.167969 67.691406 20.890625 C 68.207031 21.613281 68.503906 22.421875 68.589844 23.359375 C 68.375 23.273438 67.050781 22.761719 66.964844 22.761719 C 66.792969 22.207031 66.539062 21.742188 66.152344 21.398438 C 65.769531 21.015625 65.300781 20.71875 64.742188 20.464844 C 64.273438 20.292969 63.761719 20.210938 63.289062 20.210938 C 62.820312 20.210938 62.308594 20.335938 61.835938 20.550781 C 61.367188 20.761719 60.941406 21.058594 60.554688 21.441406 C 60.214844 21.785156 59.914062 22.25 59.699219 22.761719 C 59.488281 23.273438 59.402344 23.824219 59.402344 24.335938 C 59.402344 24.847656 59.488281 25.355469 59.699219 25.824219 C 59.871094 26.292969 60.171875 26.71875 60.597656 27.101562 C 60.984375 27.484375 61.410156 27.738281 61.878906 27.910156 C 62.648438 28.207031 63.417969 28.25 64.144531 28.078125 C 64.871094 27.910156 65.554688 27.484375 66.238281 26.847656 L 66.324219 26.761719 C 66.324219 26.761719 61.964844 25.101562 61.835938 25.015625 C 61.878906 24.890625 62.265625 23.910156 62.308594 23.78125 C 62.4375 23.824219 68.078125 25.996094 68.246094 26.039062 C 67.605469 27.484375 66.625 28.503906 65.382812 29.058594 C 64.1875 29.738281 62.90625 29.78125 61.453125 29.230469 Z M 76.582031 25.101562 L 76.625 25.058594 L 78.972656 27.144531 C 79.914062 27.996094 80.425781 28.847656 80.554688 29.78125 C 80.640625 30.675781 80.34375 31.527344 79.574219 32.378906 C 78.972656 33.015625 78.289062 33.398438 77.480469 33.441406 C 76.710938 33.484375 75.984375 33.269531 75.300781 32.761719 C 75.257812 33.015625 74.828125 37.78125 74.828125 37.78125 L 73.246094 36.375 C 73.246094 36.375 73.847656 31.101562 73.890625 30.632812 C 73.589844 30.972656 70.726562 34.121094 70.726562 34.121094 L 69.488281 33.015625 Z M 76.625 25.273438 C 76.753906 25.355469 78.847656 27.230469 78.847656 27.230469 C 79.742188 28.039062 80.257812 28.886719 80.382812 29.738281 C 80.382812 29.824219 80.382812 29.953125 80.382812 30.035156 C 80.382812 30.804688 80.085938 31.484375 79.445312 32.207031 C 78.890625 32.84375 78.246094 33.144531 77.4375 33.226562 C 76.667969 33.269531 75.941406 33.058594 75.257812 32.503906 L 75.128906 32.417969 C 75.128906 32.417969 74.699219 37.101562 74.65625 37.398438 C 74.445312 37.226562 73.417969 36.292969 73.375 36.25 C 73.375 36.164062 74.058594 30.078125 74.058594 30.078125 C 74.058594 30.078125 70.769531 33.695312 70.683594 33.824219 C 70.597656 33.738281 69.785156 33.015625 69.699219 32.929688 C 69.828125 32.84375 76.539062 25.398438 76.625 25.273438 Z M 83.675781 32.335938 L 83.761719 32.292969 L 84.785156 33.609375 L 76.238281 40.035156 L 75.214844 38.671875 Z M 83.71875 32.503906 C 83.804688 32.632812 84.445312 33.484375 84.53125 33.570312 C 84.402344 33.652344 76.367188 39.695312 76.238281 39.78125 C 76.152344 39.652344 75.511719 38.800781 75.425781 38.671875 C 75.554688 38.589844 83.589844 32.589844 83.71875 32.503906 Z M 84.316406 37.738281 C 85.171875 37.355469 85.941406 37.269531 86.710938 37.523438 C 87.4375 37.78125 88.035156 38.332031 88.417969 39.097656 C 88.761719 39.863281 88.804688 40.589844 88.546875 41.226562 C 88.289062 41.90625 87.777344 42.460938 87.007812 42.886719 L 86.921875 42.929688 L 86.238281 41.480469 L 86.324219 41.4375 C 86.667969 41.269531 86.921875 40.972656 87.050781 40.671875 C 87.179688 40.375 87.136719 40.035156 87.007812 39.695312 C 86.835938 39.355469 86.582031 39.097656 86.238281 39.015625 C 85.898438 38.886719 85.511719 38.929688 85.128906 39.140625 C 84.957031 39.226562 84.871094 39.269531 84.785156 39.398438 C 84.699219 39.480469 84.617188 39.566406 84.53125 39.738281 C 84.402344 39.992188 84.402344 40.460938 84.53125 41.140625 C 84.53125 41.140625 84.65625 41.90625 84.65625 41.90625 C 84.699219 42.671875 84.617188 43.3125 84.273438 43.863281 C 83.972656 44.417969 83.503906 44.84375 82.863281 45.140625 C 81.921875 45.566406 81.027344 45.652344 80.214844 45.394531 C 79.402344 45.140625 78.761719 44.546875 78.332031 43.695312 C 77.949219 42.84375 77.90625 42.078125 78.207031 41.269531 C 78.546875 40.503906 79.144531 39.863281 80.042969 39.480469 L 80.128906 39.441406 L 80.769531 40.800781 L 80.683594 40.84375 C 80.214844 41.097656 79.914062 41.398438 79.742188 41.78125 C 79.574219 42.207031 79.617188 42.589844 79.785156 42.972656 C 80 43.394531 80.300781 43.695312 80.726562 43.863281 C 81.152344 43.992188 81.582031 43.949219 82.050781 43.738281 C 82.480469 43.523438 82.734375 43.3125 82.863281 43.011719 C 82.949219 42.800781 83.035156 42.375 82.90625 41.4375 L 82.90625 41.398438 C 82.90625 41.398438 82.90625 41.226562 82.90625 41.269531 C 82.734375 40.375 82.820312 39.609375 83.164062 39.015625 C 83.289062 38.757812 83.460938 38.546875 83.675781 38.289062 C 83.804688 38.035156 84.015625 37.90625 84.316406 37.738281 Z M 82.992188 41.355469 L 82.992188 41.226562 C 82.820312 40.375 82.90625 39.652344 83.207031 39.058594 C 83.332031 38.800781 83.460938 38.632812 83.71875 38.375 C 83.929688 38.207031 84.144531 38.035156 84.445312 37.90625 C 85.257812 37.523438 86.027344 37.484375 86.710938 37.738281 C 87.4375 37.992188 87.949219 38.460938 88.289062 39.226562 C 88.460938 39.652344 88.589844 40.035156 88.589844 40.417969 C 88.589844 40.714844 88.546875 40.972656 88.417969 41.226562 C 88.207031 41.820312 87.734375 42.332031 87.007812 42.757812 C 86.921875 42.628906 86.496094 41.695312 86.453125 41.609375 C 86.792969 41.398438 87.050781 41.140625 87.179688 40.800781 C 87.222656 40.632812 87.265625 40.503906 87.265625 40.332031 C 87.265625 40.121094 87.222656 39.90625 87.136719 39.695312 C 86.964844 39.3125 86.667969 39.015625 86.28125 38.929688 C 85.898438 38.800781 85.46875 38.84375 85.042969 39.058594 C 84.871094 39.140625 84.742188 39.226562 84.65625 39.3125 C 84.574219 39.398438 84.445312 39.523438 84.402344 39.695312 C 84.273438 39.949219 84.273438 40.460938 84.359375 41.183594 L 84.488281 41.90625 C 84.53125 42.628906 84.445312 43.226562 84.144531 43.738281 C 83.847656 44.289062 83.417969 44.671875 82.777344 44.96875 C 81.878906 45.394531 81.027344 45.480469 80.257812 45.226562 C 79.488281 44.96875 78.890625 44.417969 78.503906 43.609375 C 78.289062 43.140625 78.207031 42.714844 78.207031 42.289062 C 78.207031 41.949219 78.246094 41.609375 78.417969 41.3125 C 78.71875 40.589844 79.273438 40.035156 80.085938 39.652344 C 80.128906 39.78125 80.554688 40.632812 80.597656 40.757812 C 80.171875 41.015625 79.828125 41.3125 79.65625 41.738281 C 79.574219 41.949219 79.53125 42.164062 79.53125 42.332031 C 79.53125 42.589844 79.574219 42.84375 79.699219 43.054688 C 79.914062 43.523438 80.257812 43.863281 80.726562 44.035156 C 81.195312 44.164062 81.667969 44.121094 82.179688 43.90625 C 82.648438 43.695312 82.949219 43.4375 83.078125 43.097656 C 83.207031 42.757812 83.246094 42.207031 83.121094 41.4375 C 82.992188 41.398438 82.992188 41.355469 82.992188 41.355469 Z M 72.4375 22.550781 L 72.480469 22.464844 L 73.929688 23.359375 L 68.246094 32.378906 L 66.792969 31.484375 Z M 72.519531 22.71875 C 72.648438 22.804688 73.546875 23.398438 73.675781 23.441406 C 73.589844 23.570312 68.246094 32.035156 68.164062 32.164062 C 68.035156 32.078125 67.136719 31.527344 67.007812 31.441406 C 67.136719 31.355469 72.4375 22.847656 72.519531 22.71875 Z M 72.519531 22.71875 "/>
</g>
</svg>
